<?xml version="1.0" standalone="no"?>
<!DOCTYPE svg PUBLIC "-//W3C//DTD SVG 1.0//EN" "http://www.w3.org/TR/2001/REC-SVG-20010904/DTD/svg10.dtd">
<svg xmlns="http://www.w3.org/2000/svg" xmlns:xlink="http://www.w3.org/1999/xlink" id="body_7" width="400" height="300">

<defs>
    <clipPath  id="1">

    <path id=""  clip-rule="evenodd" transform="matrix(1 0 0 1 0 0)"  d="M0 0L300 0L300 0L300 225L300 225L1.3777277E-14 225L1.3777277E-14 225L0 0z" />    </clipPath>
</defs>

<g transform="matrix(1.3333 0 0 1.3333 0 0)">
	<g clip-path="url(#1)" >
    <path id=""  transform="matrix(1 0 0 -1 0 225)"  d="M211.2627 66.50346C 211.21118 59.688538 209.43948 56.438385 205.00049 59.130905L205.00049 59.130905L205.00049 59.130905C 188.26791 67.46689 155.54831 77.31343 156.05273 80.29204L156.05273 80.29204L156.05273 80.29204C 156.36739 126.27168 153.00645 146.23724 154.51758 150.80377L154.51758 150.80377L154.51758 150.80377C 155.1291 152.45312 173.19208 154.86264 186.1524 165.30342L186.1524 165.30342L186.1524 165.30342C 188.19067 166.94543 189.67389 166.26825 190.31989 163.61299L190.31989 163.61299L190.31989 163.61299C 193.7821 148.1413 211.43108 88.76558 211.2627 66.50348zM237.43945 50.545456C 224.92804 97.058945 221.00746 115.24916 205.29932 175.16411L205.29932 175.16411L205.29932 175.16411C 205.37169 179.23303 205.995 187.56497 212.43018 191.41786L212.43018 191.41786L212.43018 191.41786C 216.86938 194.98651 211.91934 198.69519 207.37354 198.49608L207.37354 198.49608L207.37354 198.49608C 201.12299 198.22227 195.90463 198.0473 192.97266 195.13564L192.97266 195.13564L192.97266 195.13564C 178.0099 178.88751 161.98103 173.32709 143.66748 170.9688L143.66748 170.9688L143.66748 170.9688C 139.75912 171.21693 136.16536 174.43587 136.43115 168.57378L136.43115 168.57378L136.43115 168.57378C 136.86885 162.67194 141.40324 105.376015 137.70117 63.26323L137.70117 63.26323L137.70117 63.26323C 137.34373 59.78189 140.4622 59.16867 141.74414 59.400436L141.74414 59.400436L141.74414 59.400436C 152.70607 61.38231 187.76569 41.14659 202.1001 34.369186L202.1001 34.369186L202.1001 34.369186C 205.05441 32.97235 205.42584 25.505661 205.80469 23.918991L205.80469 23.918991L205.80469 23.918991C 205.7786 24.023514 207.09802 21.772446 208.74023 23.097214L208.74023 23.097214L208.74023 23.097214C 218.7059 31.13649 238.32326 47.745895 237.43945 50.545456z" stroke="none" fill="#B93C3C" fill-rule="evenodd" />
    <path id=""  transform="matrix(1 0 0 -1 0 225)"  d="M276.9712 140.68962C 274.58652 140.47444 269.8608 140.79031 268.49777 137.08452L268.49777 137.08452L268.49777 137.08452C 268.16217 133.86598 261.9383 125.76463 252.12436 127.36832L252.12436 127.36832L252.12436 127.36832C 144.42737 127.315125 137.41452 125.46391 54.14981 127.18889L54.14981 127.18889L54.14981 127.18889C 24.019165 130.4131 8.033905 123.32974 4.3119507 120.987045L4.3119507 120.987045L4.3119507 120.987045C 0.5352173 119.30478 1.1502686 117.47609 3.4875183 116.62926L3.4875183 116.62926L3.4875183 116.62926C 24.015442 109.19148 10.682068 105.935074 62.458466 108.20389L62.458466 108.20389L62.458466 108.20389C 148.49994 108.53676 243.34897 109.85803 250.3197 97.27739L250.3197 97.27739L250.3197 97.27739C 254.30962 92.308105 266.76044 85.78433 269.64825 87.33563L269.64825 87.33563L269.64825 87.33563C 272.4992 85.55728 300.61713 116.3461 298.01385 118.926834L298.01385 118.926834L298.01385 118.926834C 293.4065 123.14937 285.4289 139.92773 276.97113 140.68962z" stroke="none" fill="#B93C3C" fill-rule="evenodd" />
	</g>
</g>
</svg>