<?xml version="1.0" standalone="no"?>
<!DOCTYPE svg PUBLIC "-//W3C//DTD SVG 1.0//EN" "http://www.w3.org/TR/2001/REC-SVG-20010904/DTD/svg10.dtd">
<svg xmlns="http://www.w3.org/2000/svg" xmlns:xlink="http://www.w3.org/1999/xlink" id="body_5" width="400" height="300">

<defs>
    <clipPath  id="1">

    <path id=""  clip-rule="evenodd" transform="matrix(1 0 0 1 0 0)"  d="M0 0L300 0L300 0L300 225L300 225L1.3777277E-14 225L1.3777277E-14 225L0 0z" />    </clipPath>
</defs>

<g transform="matrix(1.3333 0 0 1.3333 0 0)">
	<g clip-path="url(#1)" >
    <path id=""  transform="matrix(1 0 0 -1 0 225)"  d="M217.84761 111.66058C 210.64337 93.18695 160.50763 72.95694 120.994415 57.788147L120.994415 57.788147L120.994415 57.788147C 119.38693 57.045807 117.64322 56.594177 116.6879 54.747437L116.6879 54.747437L116.6879 54.747437C 108.86603 40.884796 97.22766 24.795471 91.74704 18.091278L91.74704 18.091278L91.74704 18.091278C 82.88962 5.5822144 88.71646 -0.9520569 97.1467 2.454834L97.1467 2.454834L97.1467 2.454834C 103.641205 5.028717 118.644165 15.035339 123.444824 17.273712L123.444824 17.273712L123.444824 17.273712C 128.7687 20.127502 134.87555 27.566223 142.11902 37.16855L142.11902 37.16855L142.11902 37.16855C 155.91962 56.29959 186.13141 67.91763 228.88063 102.41727L228.88063 102.41727L228.88063 102.41727C 230.47624 104.0992 221.17429 112.55942 217.84758 111.6606z" stroke="none" fill="#004900" fill-rule="evenodd" />
    <path id=""  transform="matrix(1 0 0 -1 0 225)"  d="M222.02568 104.29352C 163.15097 146.117 129.53342 172.55705 104.37314 213.12349L104.37314 213.12349L104.37314 213.12349C 96.7417 224.3403 103.12399 226.68608 110.03247 218.02826L110.03247 218.02826L110.03247 218.02826C 150.65253 168.14139 184.79129 157.2857 229.91455 115.55502z" stroke="none" fill="#004900" fill-rule="evenodd" />
    <path id=""  transform="matrix(1 0 0 -1 0 225)"  d="M245.95178 116.31737C 231.39847 132.36945 214.48703 141.99573 204.3448 161.74896L204.3448 161.74896L204.3448 161.74896C 198.78732 170.63625 192.51813 170.92064 193.93921 159.565L193.93921 159.565L193.93921 159.565C 196.91144 141.02469 208.10855 120.46454 217.04947 105.241974L217.04947 105.241974L217.04947 105.241974C 225.03607 92.39172 264.78632 93.98865 245.9518 116.31737z" stroke="none" fill="#004900" fill-rule="evenodd" />
    <path id=""  transform="matrix(1 0 0 -1 0 225)"  d="M251.0276 77.897736C 236.69052 82.17731 225.58124 85.9715 210.80122 94.573044L210.80122 94.573044L201.72299 84.68581C 229.14868 70.987274 242.4122 66.28931 244.426 59.440582L244.426 59.440582L244.426 59.440582C 245.66379 57.161194 249.78691 58.569244 251.9351 59.742035L251.9351 59.742035L251.9351 59.742035C 256.44324 62.203247 261.7005 64.68277 264.90704 67.780914L264.90704 67.780914L264.90704 67.780914C 271.34695 74.503174 257.00375 75.6698 251.02762 77.897736z" stroke="none" fill="#004900" fill-rule="evenodd" />
    <path id=""  transform="matrix(1 0 0 -1 0 225)"  d="M210.32506 49.73697C 213.53181 52.69333 212.40193 56.0318 206.71466 58.456757L206.71466 58.456757L206.71466 58.456757C 201.39915 60.633972 186.95255 71.98129 173.5177 85.911285L173.5177 85.911285L173.5177 85.911285C 168.6719 90.66429 164.01462 86.44302 169.2876 78.94589L169.2876 78.94589L169.2876 78.94589C 181.1459 66.40231 190.36105 56.33304 192.14764 48.634735L192.14764 48.634735L192.14764 48.634735C 192.83679 45.135803 190.5918 39.010956 195.35455 39.698334L195.35455 39.698334L195.35455 39.698334C 201.08278 40.94049 205.62875 44.99243 210.32506 49.737z" stroke="none" fill="#004900" fill-rule="evenodd" />
    <path id=""  transform="matrix(1 0 0 -1 0 225)"  d="M188.53842 174.97894C 198.26212 185.10861 194.71814 193.20657 180.18652 182.55751L180.18652 182.55751L180.18652 182.55751C 149.8215 160.50826 144.02435 146.982 132.88474 152.3214L132.88474 152.3214L132.88153 142.09242C 138.96802 136.4571 135.0239 138.4741 153.52768 142.6034L153.52768 142.6034L153.52768 142.6034C 158.80222 143.78046 166.77377 159.1914 188.5383 174.97894z" stroke="none" fill="#004900" fill-rule="evenodd" />
    <path id=""  transform="matrix(1 0 0 -1 0 225)"  d="M157.01895 163.6783L157.01895 163.6783L157.01895 163.6783L143.05438 178.26569L143.05438 178.26569L143.05438 178.26569C 144.57129 159.75778 143.2956 151.3896 154.08817 132.55688L154.08817 132.55688L154.08817 132.55688C 161.38867 119.31476 167.94919 127.5634 165.42624 134.94112L165.42624 134.94112L165.42624 134.94112C 158.68948 150.94115 159.43198 149.90399 157.01898 163.67831z" stroke="none" fill="#004900" fill-rule="evenodd" />
    <path id=""  transform="matrix(1 0 0 -1 0 225)"  d="M114.0094 181.82585C 111.53424 186.00116 115.87167 191.26 109.31241 188.39664L109.31241 188.39664L109.31241 188.39664C 104.35422 185.55408 104.89792 179.77724 106.96417 174.14108L106.96417 174.14108L106.96417 174.14108C 108.77252 169.26654 134.60236 135.87628 137.64813 114.34001L137.64813 114.34001L152.06897 113.19646C 140.24564 148.14948 116.831085 177.71008 114.00937 181.82582z" stroke="none" fill="#004900" fill-rule="evenodd" />
    <path id=""  transform="matrix(1 0 0 -1 0 225)"  d="M193.85422 102.560394C 195.83685 104.26288 198.79039 108.65335 191.67746 110.903244L191.67746 110.903244L191.67746 110.903244C 188.33347 111.41559 185.01102 110.08324 179.8722 110.55791L179.8722 110.55791L179.8722 110.55791C 148.98752 112.80507 139.63034 119.61751 126.90518 121.85831L126.90518 121.85831L126.90518 121.85831C 120.12247 122.89102 115.38452 119.858826 125.12445 114.965744L125.12445 114.965744L125.12445 114.965744C 136.08136 111.30989 143.85077 107.22215 175.71674 94.753174L175.71674 94.753174L175.71674 94.753174C 181.34402 93.92296 187.62268 97.00638 193.85425 102.560394z" stroke="none" fill="#004900" fill-rule="evenodd" />
    <path id=""  transform="matrix(1 0 0 -1 0 225)"  d="M128.47726 142.4585L128.47726 142.4585L128.47726 142.4585L124.1691 150.61484L124.1691 150.61484L124.1691 150.61484C 112.055145 145.52043 69.09531 157.63474 69.792786 166.69077L69.792786 166.69077L69.792786 166.69077C 70.92691 177.57362 78.910065 188.24603 84.733 196.33961L84.733 196.33961L84.39679 200.00539C 69.67798 190.99841 52.41104 179.09062 50.031982 166.03448L50.031982 166.03448L50.031982 166.03448C 49.3815 161.92366 54.543 153.89734 58.06668 151.76962L58.06668 151.76962L58.06668 151.76962C 90.500946 135.98616 107.02194 130.78378 116.27112 134.09334L116.27112 134.09334L116.27112 134.09334C 120.50998 135.61008 123.70929 140.87857 128.4772 142.4585z" stroke="none" fill="#004900" fill-rule="evenodd" />
    <path id=""  transform="matrix(1 0 0 -1 0 225)"  d="M101.37518 146.46014L101.37518 146.46014L101.37518 146.46014L111.19034 147.58182L111.19034 147.58182L111.19034 147.58182C 104.410706 167.35411 93.19061 182.68018 90.85751 198.0793L90.85751 198.0793L90.85751 198.0793C 90.03607 204.20279 92.08804 208.83743 94.93005 213.0535L94.93005 213.0535L94.93005 213.0535C 97.201416 215.89291 95.269745 217.26256 92.300934 216.6911L92.300934 216.6911L92.300934 216.6911C 86.040955 215.09416 86.19675 214.17543 83.121124 210.22928L83.121124 210.22928L83.121124 210.22928C 80.84857 206.54022 80.68985 203.57388 81.10104 197.61696L81.10104 197.61696L81.10104 197.61696C 82.285645 182.52016 95.904724 163.21191 101.37518 146.46014z" stroke="none" fill="#004900" fill-rule="evenodd" />
    <path id=""  transform="matrix(1 0 0 -1 0 225)"  d="M137.29181 114.5296L137.29181 114.5296L137.29181 114.5296L122.9129 119.18805L122.9129 119.18805L122.9129 119.18805C 125.19852 102.02257 126.138855 92.5784 131.73889 77.293076L131.73889 77.293076L131.73889 77.293076C 140.51984 65.42105 142.89395 71.753235 143.65506 79.10751L143.65506 79.10751L143.65506 79.10751C 141.90314 100.123535 140.02805 93.02225 137.29184 114.5296z" stroke="none" fill="#004900" fill-rule="evenodd" />
    <path id=""  transform="matrix(1 0 0 -1 0 225)"  d="M132.80426 94.88512L132.80426 94.88512L132.80426 94.88512L129.61258 106.223434L129.61258 106.223434L129.61258 106.223434C 107.599304 106.486496 103.41266 105.70711 97.73343 108.010925L97.73343 108.010925L97.73343 108.010925C 84.37903 115.00932 81.91821 109.30168 57.547943 142.05539L57.547943 142.05539L57.547943 142.05539C 54.227966 146.6404 47.77057 142.43668 48.77527 137.10262L48.77527 137.10262L48.77527 137.10262C 52.56183 114.4355 66.13602 94.76903 71.21246 93.45003L71.21246 93.45003L71.21246 93.45003C 86.26892 90.36105 108.6857 93.1252 132.80423 94.8851z" stroke="none" fill="#004900" fill-rule="evenodd" />
    <path id=""  transform="matrix(1 0 0 -1 0 225)"  d="M104.9545 140.8813L104.9545 140.8813L104.9545 140.8813L91.77576 141.54292L91.77576 141.54292L91.77576 141.54292C 92.65292 144.22453 95.963165 88.20984 93.47717 54.268585L93.47717 54.268585L93.47717 54.268585C 93.64554 49.79309 93.38489 43.121185 97.36804 44.154602L97.36804 44.154602L97.36804 44.154602C 108.64722 51.785828 109.91141 55.94919 110.45175 60.563354L110.45175 60.563354L110.45175 60.563354C 110.31146 62.15869 108.82303 65.14462 109.01004 67.29086L109.01004 67.29086L109.01004 67.29086C 107.85828 80.84564 105.70593 114.08174 104.9545 140.8813z" stroke="none" fill="#004900" fill-rule="evenodd" />
    <path id=""  transform="matrix(1 0 0 -1 0 225)"  d="M75.28769 80.89528C 68.98657 72.114685 62.69409 68.5271 49.863434 66.25296L49.863434 66.25296L49.863434 66.25296C 48.417603 65.996735 45.933838 66.54083 45.20874 62.37213L45.20874 62.37213L45.20874 62.37213C 42.541138 47.04947 49.868805 31.560272 56.998596 30.199005L56.998596 30.199005L56.998596 30.199005C 71.55539 29.345764 84.15823 57.90918 82.47537 77.834015L82.47537 77.834015L82.47537 77.834015C 81.78726 81.939285 76.59607 82.7043 75.28769 80.895294z" stroke="none" fill="#004900" fill-rule="evenodd" />
	</g>
</g>
</svg>