<?xml version="1.0" standalone="no"?>
<!DOCTYPE svg PUBLIC "-//W3C//DTD SVG 1.0//EN" "http://www.w3.org/TR/2001/REC-SVG-20010904/DTD/svg10.dtd">
<svg xmlns="http://www.w3.org/2000/svg" xmlns:xlink="http://www.w3.org/1999/xlink" id="body_7" width="400" height="300">

<defs>
    <clipPath  id="1">

    <path id=""  clip-rule="evenodd" transform="matrix(1 0 0 1 0 0)"  d="M0 0L300 0L300 0L300 225L300 225L1.3777277E-14 225L1.3777277E-14 225L0 0z" />    </clipPath>
</defs>

<g transform="matrix(1.3333 0 0 1.3333 0 0)">
	<g clip-path="url(#1)" >
    <path id=""  transform="matrix(1 0 0 -1 0 225)"  d="M129.8565 179.66779C 121.774155 103.53522 141.67813 108.35297 143.78903 44.62201L143.78903 44.62201L143.78903 44.62201C 145.84828 30.458557 156.88371 31.395569 155.80183 44.95862L155.80183 44.95862L155.80183 44.95862C 154.11949 112.734924 129.5973 89.04321 143.7331 178.22852L143.7331 178.22852L143.7331 178.22852C 147.61507 199.9765 132.80742 196.42633 129.8565 179.66785z" stroke="none" fill="#B93C3C" fill-rule="evenodd" />
    <path id=""  transform="matrix(1 0 0 -1 0 225)"  d="M162.2554 111.21973C 165.19861 110.236084 169.89122 117.21765 164.8597 121.13422L164.8597 121.13422L164.8597 121.13422C 159.25014 124.75763 155.7428 125.832214 151.79474 129.27936L151.79474 129.27936L151.79474 129.27936C 149.99998 130.74799 146.00085 130.96033 144.84407 129.44208L144.84407 129.44208L144.84407 129.44208C 140.19496 123.76587 141.25594 124.39874 133.79031 120.81732L133.79031 120.81732L135.11179 105.41931C 141.5539 110.309265 140.98795 111.11713 147.43007 113.0177L147.43007 113.0177L147.43007 113.0177C 154.42535 113.8913 155.06183 113.62378 162.25542 111.21973z" stroke="none" fill="#B93C3C" fill-rule="evenodd" />
    <path id=""  transform="matrix(1 0 0 -1 0 225)"  d="M190.72693 91.87488C 192.35046 93.4292 192.92598 94.357056 190.72693 96.53497L190.72693 96.53497L179.07138 108.07837C 177.94608 109.08905 176.29271 109.107056 175.34392 108.27606L175.34392 108.27606L168.71875 101.398865C 165.52972 98.13367 163.23322 97.30084 159.46693 99.22406L159.46693 99.22406L159.46693 99.22406C 152.25456 101.78888 144.94133 103.71356 140.93608 103.79651L140.93608 103.79651L143.55139 87.91083C 150.91446 90.88043 152.8194 90.813965 159.78625 85.7619L159.78625 85.7619L159.78625 85.7619C 164.53145 81.59259 165.61668 77.56207 172.09918 81.26532z" stroke="none" fill="#B93C3C" fill-rule="evenodd" />
    <path id=""  transform="matrix(1 0 0 -1 0 225)"  d="M96.02347 95.4043C 96.121414 94.12506 86.73506 93.891174 86.583984 95.68994L86.583984 95.68994L82.98633 138.68018C 83.84932 141.75598 91.95758 141.94434 92.35547 139.26465zM117.887726 95.30762C 118.92969 91.06848 106.0163 93.79108 105.98001 95.2417L105.98001 95.2417L102.521515 139.3628C 103.28966 143.20819 112.321075 143.02307 112.4429 140.4292L112.4429 140.4292L112.4429 140.4292C 113.11502 120.45032 114.828735 113.6214 117.887726 95.30762zM130.46048 75.072266C 130.46024 76.856995 130.19627 78.908875 129.95364 81.06201L129.95364 81.06201L129.95364 81.06201C 126.774 100.54791 119.7074 114.53601 120.848175 146.89941L120.848175 146.89941L120.848175 146.89941C 120.82597 151.2804 118.517166 154.99725 115.15579 154.84326L115.15579 154.84326L115.15579 154.84326C 107.73602 154.53143 68.52324 149.06818 64.98929 148.61475L64.98929 148.61475L64.98929 148.61475C 60.176117 147.9751 59.74826 141.27216 63.98294 140.38965L63.98294 140.38965L63.98294 140.38965C 64.758606 140.22803 66.95116 140.22357 69.98001 140.31635L69.98001 140.31635L69.98001 140.31635C 70.83765 139.90552 71.49516 139.26794 71.61771 138.5849L71.61771 138.5849L75.436554 95.84808C 75.431305 95.41339 75.02815 95.08746 74.438995 94.85785L74.438995 94.85785L74.438995 94.85785C 59.368958 95.18921 44.6326 95.37109 39.47171 95.04828L39.47171 95.04828L39.47171 95.04828C 38.331604 94.95557 37.13159 95.009705 36.106934 93.870544L36.106934 93.870544L36.106934 93.870544C 33.831726 91.15039 35.08438 75.78955 37.567413 71.81439L37.567413 71.81439L37.567413 71.81439C 38.375763 70.71301 38.75467 70.31445 40.439972 70.16644L40.439972 70.16644L40.439972 70.16644C 65.93378 72.387146 98.35303 70.66748 123.59476 68.96234L123.59476 68.96234L123.59476 68.96234C 129.18445 68.515015 130.46103 71.145874 130.46048 75.072205z" stroke="none" fill="#B93C3C" fill-rule="evenodd" />
    <path id=""  transform="matrix(1 0 0 -1 0 225)"  d="M117.86725 110.3996L117.86725 110.3996L117.86725 110.3996L117.391174 124.82434L117.391174 124.82434L49.471558 128.79254L49.471558 128.79254L49.471558 128.79254C 41.752625 129.3559 34.013397 125.423584 33.899445 120.361694L33.899445 120.361694L38.809326 106.305115z" stroke="none" fill="#B93C3C" fill-rule="evenodd" />
    <path id=""  transform="matrix(1 0 0 -1 0 225)"  d="M36.40213 156.2201L36.40213 156.2201L36.40213 156.2201L30.38144 155.58539L30.38144 155.58539L30.38144 155.58539C 16.668732 114.90076 36.813446 124.35785 41.74466 82.91455L41.74466 82.91455L45.44101 83.390564C 47.681396 115.07202 35.556458 131.65509 36.40213 156.2201z" stroke="none" fill="#B93C3C" fill-rule="evenodd" />
    <path id=""  transform="matrix(1 0 0 -1 0 225)"  d="M80.97714 160.10449C 91.73903 163.69751 89.62529 173.6402 80.31334 171.78162L80.31334 171.78162L80.31334 171.78162C 47.72719 161.35913 29.690247 158.32532 27.169342 156.93243L27.169342 156.93243L27.169342 156.93243C 13.497955 148.83813 17.079071 143.1305 28.994781 142.6236L28.994781 142.6236L28.994781 142.6236C 32.63159 142.54004 61.615692 153.29938 80.97716 160.10449z" stroke="none" fill="#B93C3C" fill-rule="evenodd" />
    <path id=""  transform="matrix(1 0 0 -1 0 225)"  d="M59.22336 192.12024C 60.2014 198.38959 52.410187 197.82062 50.757202 194.60767L50.757202 194.60767L50.757202 194.60767C 30.906525 149.72217 57.406433 101.72894 55.02542 61.13263L55.02542 61.13263L55.02542 61.13263C 54.748627 59.58893 53.852356 57.148254 52.623947 54.911865L52.623947 54.911865L52.623947 54.911865C 48.837875 47.744324 37.991394 52.11139 35.764862 55.644165L35.764862 55.644165L35.764862 55.644165C 28.381195 71.796265 35.696625 68.029785 27.327576 86.14911L27.327576 86.14911L27.327576 86.14911C 26.232208 87.85718 25.380127 92.34198 26.063965 94.010376L26.063965 94.010376L26.063965 94.010376C 28.297394 100.717834 32.140778 106.236694 35.562042 110.622986L35.562042 110.622986L31.327698 119.01434C 24.877014 113.835266 21.824005 106.18945 19.049133 99.858765L19.049133 99.858765L19.049133 99.858765C 16.639008 94.79834 16.90857 89.264465 16.794922 85.5871L16.794922 85.5871L16.794922 85.5871C 16.536316 66.7561 23.767761 49.145325 24.86148 40.284973L24.86148 40.284973L24.86148 40.284973C 25.259216 37.691467 29.755524 34.672607 31.843689 33.49707L31.843689 33.49707L31.843689 33.49707C 43.747986 26.228516 45.771362 29.230896 58.235535 34.31128L58.235535 34.31128L58.235535 34.31128C 62.909637 37.198303 64.24417 45.546448 64.83894 49.931885L64.83894 49.931885L64.83894 49.931885C 66.76964 95.47015 50.730118 153.6225 59.223328 192.1203z" stroke="none" fill="#B93C3C" fill-rule="evenodd" />
    <path id=""  transform="matrix(1 0 0 -1 0 225)"  d="M261.38724 49.426193C 258.56592 46.113388 254.75464 46.91594 251.32458 49.143005L251.32458 49.143005L251.32458 49.143005C 241.86572 55.012054 234.66956 60.12889 226.53418 70.147675L226.53418 70.147675L226.53418 70.147675C 225.28204 71.880646 223.99524 73.59607 223.90314 75.52014L223.90314 75.52014L223.90314 75.52014C 225.30627 87.351135 233.01044 80.25838 222.91821 137.83936L222.91821 137.83936L222.91821 137.83936C 222.84949 141.76216 223.5993 143.5029 224.93018 144.92209L224.93018 144.92209L252.47809 166.87587C 256.391 169.0088 255.73239 164.86115 255.74896 162.20099L255.74896 162.20099L255.74896 162.20099C 255.6694 129.8513 285.03506 84.196396 261.38724 49.426193zM282.87677 74.809814C 282.8088 82.67015 282.12912 91.8065 280.65405 102.572815L280.65405 102.572815L280.65405 102.572815C 276.70752 126.37378 259.042 167.44489 264.43118 180.1948L264.43118 180.1948L264.43118 180.1948C 266.83643 185.51476 270.3833 191.608 273.25958 197.19315L273.25958 197.19315L273.25958 197.19315C 277.12708 204.26387 275.1955 208.67307 266.56613 205.12386L266.56613 205.12386L212.16364 158.30603C 207.61707 155.30807 208.41388 149.4772 209.45898 145.06288L209.45898 145.06288L209.45898 145.06288C 220.30328 114.049416 216.65369 95.44426 209.18396 69.68712L209.18396 69.68712L209.18396 69.68712C 207.58447 63.729263 208.63751 60.910904 211.97455 56.541046L211.97455 56.541046L211.97455 56.541046C 224.34662 41.928116 242.1435 21.278961 247.66028 20.906998L247.66028 20.906998L247.66028 20.906998C 250.2077 20.455765 265.26242 18.279709 268.57938 23.256302L268.57938 23.256302L268.57938 23.256302C 275.56198 34.936295 283.11945 46.737198 282.8767 74.809814z" stroke="none" fill="#000000" fill-rule="evenodd" />
    <path id=""  transform="matrix(1 0 0 -1 0 225)"  d="M269.27072 136.64111C 253.646 134.36179 238.0213 133.74576 222.39667 133.40413L222.39667 133.40413L222.75244 121.214935C 239.38446 109.43724 255.47299 114.09598 272.11694 116.80088z" stroke="none" fill="#000000" fill-rule="evenodd" />
    <path id=""  transform="matrix(1 0 0 -1 0 225)"  d="M281.56305 76.89841C 295.22568 80.25256 288.0871 94.079544 281.9925 95.75255L281.9925 95.75255L224.1756 105.930374L224.1756 105.930374L223.46399 93.20851L223.46399 93.20851L223.46399 93.20851C 243.72614 84.88713 269.88898 75.020004 274.87427 70.70058z" stroke="none" fill="#000000" fill-rule="evenodd" />
	</g>
</g>
</svg>