<?xml version="1.0" standalone="no"?>
<!DOCTYPE svg PUBLIC "-//W3C//DTD SVG 1.0//EN" "http://www.w3.org/TR/2001/REC-SVG-20010904/DTD/svg10.dtd">
<svg xmlns="http://www.w3.org/2000/svg" xmlns:xlink="http://www.w3.org/1999/xlink" id="body_4" width="400" height="300">

<defs>
    <clipPath  id="1">

    <path id=""  clip-rule="evenodd" transform="matrix(1 0 0 1 0 0)"  d="M0 0L300 0L300 0L300 225L300 225L1.3777277E-14 225L1.3777277E-14 225L0 0z" />    </clipPath>
</defs>

<g transform="matrix(1.3333 0 0 1.3333 0 0)">
	<g clip-path="url(#1)" >
    <path id=""  transform="matrix(1 0 0 -1 0 225)"  d="M282.9679 97.44026C 283.33325 102.267815 263.9356 119.63511 257.1126 124.180756L257.1126 124.180756L257.1126 124.180756C 251.91101 128.34097 248.72827 120.67812 244.3183 117.706856L244.3183 117.706856L244.3183 117.706856C 238.2461 113.95687 176.59076 116.814575 142.51837 123.79739L142.51837 123.79739L144.25885 112.49816C 172.1842 105.082375 224.04938 99.59645 228.68964 94.04433L228.68964 94.04433L228.68964 94.04433C 232.945 88.75964 232.49713 76.75198 238.79651 78.21057L238.79651 78.21057L238.79651 78.21057C 252.86243 81.22984 282.80884 93.14673 282.9679 97.44025z" stroke="none" fill="#19328C" fill-rule="evenodd" />
    <path id=""  transform="matrix(1 0 0 -1 0 225)"  d="M202.01935 139.8043C 201.35663 153.62244 193.96094 160.84137 191.09607 140.57071L191.09607 140.57071L191.09607 140.57071C 190.08337 116.684044 195.58502 66.85327 202.5545 66.79683L202.5545 66.79683L202.5545 66.79683C 211.88507 66.43153 225.42584 73.86821 225.34192 78.28543L225.34192 78.28543L225.34192 78.28543C 225.29181 81.79912 220.76038 88.95586 215.28357 89.60622L215.28357 89.60622L215.28357 89.60622C 208.86206 90.170364 202.78674 126.85633 202.01935 139.80432z" stroke="none" fill="#19328C" fill-rule="evenodd" />
    <path id=""  transform="matrix(1 0 0 -1 0 225)"  d="M162.90906 116.68023C 170.86646 97.955795 178.30206 83.1297 188.35968 65.423615L188.35968 65.423615L188.35968 65.423615C 191.67322 59.211304 184.85535 53.399994 180.45386 54.67372L180.45386 54.67372L180.45386 54.67372C 177.59302 55.501617 160.28937 64.96335 159.61432 56.643127L159.61432 56.643127L159.61432 56.643127C 153.56549 64.16548 135.6615 84.45334 108.53693 96.093414L108.53693 96.093414L110.117615 114.23172C 130.20557 106.44777 163.73877 76.70654 165.93872 78.72153L165.93872 78.72153L165.93872 78.72153C 169.77026 82.15593 155.73871 109.51544 157.50812 115.49296z" stroke="none" fill="#19328C" fill-rule="evenodd" />
    <path id=""  transform="matrix(1 0 0 -1 0 225)"  d="M129.37134 186.35672C 145.66522 157.0751 160.39673 92.17792 161.23413 39.844788L161.23413 39.844788L161.23413 39.844788C 161.65326 33.185806 121.78021 17.262589 114.891785 17.40332L114.891785 17.40332L114.891785 17.40332C 95.28461 17.840652 48.22534 50.59204 19.886475 70.91022L19.886475 70.91022L19.886475 70.91022C 15.048218 75.14201 16.235596 84.71521 20.352173 91.14235L20.352173 91.14235L44.130005 125.86804C 47.180725 129.37761 53.61493 128.06271 49.963318 122.179L49.963318 122.179L49.963318 122.179C 45.029114 114.40605 38.770264 98.50722 37.583557 89.69719L37.583557 89.69719L37.583557 89.69719C 36.47412 81.60722 102.4837 54.532837 113.61426 52.91313L113.61426 52.91313L113.61426 52.91313C 118.66809 51.96144 143.1773 58.379517 143.95227 69.957855L143.95227 69.957855L143.95227 69.957855C 140.94415 148.29941 116.98645 174.52599 115.89264 185.04085z" stroke="none" fill="#19328C" fill-rule="evenodd" />
    <path id=""  transform="matrix(1 0 0 -1 0 225)"  d="M157.4632 203.24077C 155.59998 209.32518 147.72772 207.29022 142.97363 206.42505L142.97363 206.42505L142.97363 206.42505C 110.39404 199.28998 48.545776 172.579 44.862305 167.23999L44.862305 167.23999L44.862305 167.23999C 35.45941 150.8052 41.726135 144.37903 48.813965 144.6582L48.813965 144.6582L48.813965 144.6582C 55.684387 145.4885 112.425964 166.77847 142.375 180.14273L142.375 180.14273L142.375 180.14273C 151.94324 184.7578 159.27759 196.25334 157.46313 203.24075z" stroke="none" fill="#19328C" fill-rule="evenodd" />
    <path id=""  transform="matrix(1 0 0 -1 0 225)"  d="M172.71106 178.38544C 177.56866 188.40155 186.36768 185.16747 181.0697 171.61926L181.0697 171.61926L181.0697 171.61926C 169.23083 140.86148 149.45251 129.07755 110.497925 119.02703L110.497925 119.02703L107.33661 130.32626C 144.18976 140.02542 157.86047 151.5772 172.71106 178.38544z" stroke="none" fill="#19328C" fill-rule="evenodd" />
    <path id=""  transform="matrix(1 0 0 -1 0 225)"  d="M91.732544 140.38841C 87.28546 152.00708 105.30011 149.90793 107.57562 142.0386L107.57562 142.0386L107.57562 142.0386C 125.014404 87.88623 123.51428 85.3486 119.802185 76.29503L119.802185 76.29503L119.802185 76.29503C 116.21448 67.63704 103.266846 64.53827 103.90839 76.0388L103.90839 76.0388L103.90839 76.0388C 105.3916 98.82051 101.987976 116.64487 91.732544 140.38841z" stroke="none" fill="#19328C" fill-rule="evenodd" />
    <path id=""  transform="matrix(1 0 0 -1 0 225)"  d="M79.736694 138.16763C 77.69708 145.63506 65.97412 143.29367 67.72101 135.77335L67.72101 135.77335L67.72101 135.77335C 71.98718 116.23661 74.52515 102.48437 77.511536 82.410065L77.511536 82.410065L77.511536 82.410065C 78.54706 76.36015 94.519714 76.54961 97.00983 82.01662L97.00983 82.01662L97.00983 82.01662C 99.29028 89.38675 94.28436 90.21175 92.40503 93.45039L92.40503 93.45039L92.40503 93.45039C 87.7287 102.3187 84.53418 120.63938 79.736694 138.16763z" stroke="none" fill="#19328C" fill-rule="evenodd" />
    <path id=""  transform="matrix(1 0 0 -1 0 225)"  d="M105.2337 121.69904C 85.79797 120.067955 63.991272 118.10897 44.555542 120.42169L44.555542 120.42169L37.290405 107.62144C 59.644592 105.337006 84.89667 102.86261 107.250854 104.5158z" stroke="none" fill="#19328C" fill-rule="evenodd" />
	</g>
</g>
</svg>