<?xml version="1.0" standalone="no"?>
<!DOCTYPE svg PUBLIC "-//W3C//DTD SVG 1.0//EN" "http://www.w3.org/TR/2001/REC-SVG-20010904/DTD/svg10.dtd">
<svg xmlns="http://www.w3.org/2000/svg" xmlns:xlink="http://www.w3.org/1999/xlink" id="body_3" width="400" height="300">

<defs>
    <clipPath  id="1">

    <path id=""  clip-rule="evenodd" transform="matrix(1 0 0 1 0 0)"  d="M0 0L300 0L300 0L300 225L300 225L1.3777277E-14 225L1.3777277E-14 225L0 0z" />    </clipPath>
</defs>

<g transform="matrix(1.3333 0 0 1.3333 0 0)">
	<g clip-path="url(#1)" >
    <path id=""  transform="matrix(1 0 0 -1 0 225)"  d="M179.69922 200.12965C 174.06476 204.4799 159.02167 185.08005 154.49188 170.85976L154.49188 170.85976L154.49188 170.85976C 152.77887 166.2644 167.63501 152.01657 171.03656 157.58241L171.03656 157.58241L171.03656 157.58241C 178.96307 172.88664 183.87817 197.0376 179.69922 200.12965z" stroke="none" fill="#142896" fill-rule="evenodd" />
    <path id=""  transform="matrix(1 0 0 -1 0 225)"  d="M177.0238 174.00594C 111.08618 191.54214 118.08557 186.40674 77.5282 216.61876L77.5282 216.61876L77.5282 216.61876C 65.17828 221.48932 54.561707 205.47337 59.2818 197.63222L59.2818 197.63222L59.2818 197.63222C 66.54846 186.78036 74.92828 174.52592 84.34143 166.87906L84.34143 166.87906L84.34143 166.87906C 101.43292 152.9946 148.94257 89.23822 162.2655 46.11119L162.2655 46.11119L162.2655 46.11119C 164.94855 37.42601 164.56274 29.33023 166.27612 21.402924L166.27612 21.402924L166.27612 21.402924C 167.96985 15.444687 176.82385 21.430313 180.17523 24.702744L180.17523 24.702744L180.17523 24.702744C 191.79803 35.73265 198.6745 55.159103 194.09277 61.52185L194.09277 61.52185L194.09277 61.52185C 192.71222 64.31355 173.38763 60.166428 171.57343 63.552536L171.57343 63.552536L171.57343 63.552536C 155.555 96.27893 114.21161 156.9505 93.041565 184.52528L93.041565 184.52528L93.041565 184.52528C 92.56024 185.55736 96.76544 183.5824 98.128845 182.90137L98.128845 182.90137L98.128845 182.90137C 110.25726 176.84311 144.29224 170.25214 178.92285 166.94124L178.92285 166.94124L178.92285 166.94124C 186.70404 166.6279 183.99738 172.84924 177.02374 174.00594z" stroke="none" fill="#142896" fill-rule="evenodd" />
    <path id=""  transform="matrix(1 0 0 -1 0 225)"  d="M220.98431 141.00194C 221.73114 148.03857 214.79779 151.88104 208.01746 151.0751L208.01746 151.0751L208.01746 151.0751C 202.26721 150.39159 194.90253 150.19601 188.66083 144.16983L188.66083 144.16983L188.66083 144.16983C 183.74615 140.20403 146.45325 143.15033 114.912964 143.22664L114.912964 143.22664L114.912964 143.22664C 112.70227 143.23225 112.23401 144.92737 110.10303 144.88943L110.10303 144.88943L110.10303 144.88943C 104.54639 144.8966 90.539 141.98557 90.42352 138.37305L90.42352 138.37305L90.42352 138.37305C 90.59021 134.99892 95.76471 130.12637 103.17737 129.87338L103.17737 129.87338L103.17737 129.87338C 138.29028 127.97262 184.4668 124.748566 190.36969 121.96794L190.36969 121.96794L190.36969 121.96794C 197.80719 118.46442 195.80725 112.42389 202.91034 111.81936L202.91034 111.81936L202.91034 111.81936C 212.8515 110.92573 218.78448 125.25542 220.98438 141.00195z" stroke="none" fill="#142896" fill-rule="evenodd" />
    <path id=""  transform="matrix(1 0 0 -1 0 225)"  d="M256.00995 90.97232C 256.00995 98.72661 234.70206 113.77151 230.22052 113.814384L230.22052 113.814384L230.22052 113.814384C 224.46344 113.732155 219.19458 99.24756 210.62091 99.539116L210.62091 99.539116L210.62091 99.539116C 161.69739 99.81384 83.40289 112.66063 70.60614 102.82859L70.60614 102.82859L70.60614 102.82859C 53.373352 88.40289 69.295715 19.356049 72.81665 15.077728L72.81665 15.077728L72.81665 15.077728C 78.39667 8.269653 83.992065 5.3076477 89.641174 7.70932L89.641174 7.70932L89.641174 7.70932C 95.85968 10.28331 81.804504 61.578003 90.13245 84.16196L90.13245 84.16196L90.13245 84.16196C 93.61401 93.64236 160.79376 86.96063 200.25568 86.796875L200.25568 86.796875L200.25568 86.796875C 209.23492 86.31593 219.40634 68.70065 223.34338 68.621475L223.34338 68.621475L223.34338 68.621475C 230.98639 68.340775 255.08997 81.522644 256.00998 90.972305z" stroke="none" fill="#142896" fill-rule="evenodd" />
	</g>
</g>
</svg>