<?xml version="1.0" standalone="no"?>
<!DOCTYPE svg PUBLIC "-//W3C//DTD SVG 1.0//EN" "http://www.w3.org/TR/2001/REC-SVG-20010904/DTD/svg10.dtd">
<svg xmlns="http://www.w3.org/2000/svg" xmlns:xlink="http://www.w3.org/1999/xlink" id="body_7" width="400" height="300">

<defs>
    <clipPath  id="1">

    <path id=""  clip-rule="evenodd" transform="matrix(1 0 0 1 0 0)"  d="M0 0L300 0L300 0L300 225L300 225L1.3777277E-14 225L1.3777277E-14 225L0 0z" />    </clipPath>
</defs>

<g transform="matrix(1.3333 0 0 1.3333 0 0)">
	<g clip-path="url(#1)" >
    <path id=""  transform="matrix(1 0 0 -1 0 225)"  d="M150.02014 5.343994C 179.62228 5.343994 204.88928 15.809937 225.82117 36.74182L225.82117 36.74182L225.82117 36.74182C 246.75302 57.673676 257.21896 82.940674 257.21896 112.542816L257.21896 112.542816L257.21896 112.542816C 257.21896 142.14496 246.75302 167.41197 225.82117 188.34384L225.82117 188.34384L225.82117 188.34384C 204.88928 209.27571 179.62228 219.74165 150.02014 219.74165L150.02014 219.74165L150.02014 219.74165C 120.418 219.74165 95.151 209.27571 74.21912 188.34384L74.21912 188.34384L74.21912 188.34384C 53.287262 167.41197 42.82135 142.14496 42.82135 112.542816L42.82135 112.542816L42.82135 112.542816C 42.82135 82.940674 53.287262 57.673676 74.21912 36.74182L74.21912 36.74182L74.21912 36.74182C 95.151 15.809937 120.418 5.343994 150.02014 5.343994" stroke="#000000" stroke-width="6.722036" fill="#FFFFFF" fill-rule="evenodd" />
    <path id=""  transform="matrix(1 0 0 -1 0 225)"  d="M150.02014 15.39389C 176.84705 15.39389 199.74527 24.878632 218.71481 43.848145L218.71481 43.848145L218.71481 43.848145C 237.6843 62.817657 247.16907 85.71588 247.16907 112.542816L247.16907 112.542816L247.16907 112.542816C 247.16907 139.36977 237.6843 162.26799 218.71481 181.23749L218.71481 181.23749L218.71481 181.23749C 199.74527 200.207 176.84705 209.69176 150.02014 209.69176L150.02014 209.69176L150.02014 209.69176C 123.19321 209.69176 100.29495 200.207 81.32547 181.23749L81.32547 181.23749L81.32547 181.23749C 62.355927 162.26799 52.871216 139.36977 52.871216 112.542816L52.871216 112.542816L52.871216 112.542816C 52.871216 85.71588 62.355927 62.817657 81.32547 43.848145L81.32547 43.848145L81.32547 43.848145C 100.29495 24.878632 123.19321 15.39389 150.02014 15.39389" stroke="#000037" stroke-width="6.722036" fill="#000037" fill-rule="evenodd" />
    <path id=""  transform="matrix(1 0 0 -1 0 225)"  d="M200.86005 117.4465C 256.42624 122.98898 256.42825 101.31128 200.86005 107.20413" stroke="#FFFFFF" stroke-width="6" stroke-linecap="square" fill="none" />
    <path id=""  transform="matrix(1 0 0 -1 0 225)"  d="M199.00134 100.07689C 253.11215 86.280365 245.69983 65.9093 195.49823 90.45218" stroke="#FFFFFF" stroke-width="6.0000005" stroke-linecap="square" fill="none" />
    <path id=""  transform="matrix(1 0 0 -1 0 225)"  d="M191.81705 84.14432C 237.94586 52.67285 224.01324 36.065475 185.23337 76.29819" stroke="#FFFFFF" stroke-width="6.0000005" stroke-linecap="square" fill="none" />
    <path id=""  transform="matrix(1 0 0 -1 0 225)"  d="M179.61676 71.62979C 212.19977 26.279312 193.42734 15.438721 170.74658 66.50859" stroke="#FFFFFF" stroke-width="6" stroke-linecap="square" fill="none" />
    <path id=""  transform="matrix(1 0 0 -1 0 225)"  d="M163.87195 64.042786C 178.97919 10.283249 157.63116 6.516968 153.78516 62.26422" stroke="#FFFFFF" stroke-width="6" stroke-linecap="square" fill="none" />
    <path id=""  transform="matrix(1 0 0 -1 0 225)"  d="M146.4817 62.29837C 142.29102 6.6138916 120.94232 10.376221 136.39491 64.076935" stroke="#FFFFFF" stroke-width="6.0000005" stroke-linecap="square" fill="none" />
    <path id=""  transform="matrix(1 0 0 -1 0 225)"  d="M129.54367 66.60681C 106.5605 15.713867 87.78606 26.550964 120.67349 71.72803" stroke="#FFFFFF" stroke-width="6" stroke-linecap="square" fill="none" />
    <path id=""  transform="matrix(1 0 0 -1 0 225)"  d="M115.10068 76.44885C 76.09715 36.48581 62.161438 53.090576 108.517 84.29498" stroke="#FFFFFF" stroke-width="6.0000005" stroke-linecap="square" fill="none" />
    <path id=""  transform="matrix(1 0 0 -1 0 225)"  d="M104.89496 90.63675C 54.575485 66.42377 47.159378 86.79346 101.391846 100.261444" stroke="#FFFFFF" stroke-width="6.0000005" stroke-linecap="square" fill="none" />
    <path id=""  transform="matrix(1 0 0 -1 0 225)"  d="M100.157166 107.45999C 44.590973 101.91751 44.58896 123.595215 100.157166 117.70236" stroke="#FFFFFF" stroke-width="6" stroke-linecap="square" fill="none" />
    <path id=""  transform="matrix(1 0 0 -1 0 225)"  d="M101.45911 124.88884C 47.348297 138.68536 54.76062 159.05643 104.96222 134.51355" stroke="#FFFFFF" stroke-width="6.0000005" stroke-linecap="square" fill="none" />
    <path id=""  transform="matrix(1 0 0 -1 0 225)"  d="M108.64328 140.82141C 62.514465 172.29288 76.44708 188.90025 115.22696 148.66754" stroke="#FFFFFF" stroke-width="6.0000005" stroke-linecap="square" fill="none" />
    <path id=""  transform="matrix(1 0 0 -1 0 225)"  d="M120.84363 153.33594C 88.26062 198.68642 107.03302 209.52701 129.7138 158.45712" stroke="#FFFFFF" stroke-width="6" stroke-linecap="square" fill="none" />
    <path id=""  transform="matrix(1 0 0 -1 0 225)"  d="M136.58838 160.92297C 121.48114 214.68251 142.82916 218.44879 146.67517 162.70154" stroke="#FFFFFF" stroke-width="6" stroke-linecap="square" fill="none" />
    <path id=""  transform="matrix(1 0 0 -1 0 225)"  d="M153.97868 162.66739C 158.16937 218.35187 179.51807 214.58954 164.06548 160.88882" stroke="#FFFFFF" stroke-width="6.0000005" stroke-linecap="square" fill="none" />
    <path id=""  transform="matrix(1 0 0 -1 0 225)"  d="M170.91669 158.35886C 193.89986 209.25183 212.6743 198.41473 179.78687 153.23767" stroke="#FFFFFF" stroke-width="6" stroke-linecap="square" fill="none" />
    <path id=""  transform="matrix(1 0 0 -1 0 225)"  d="M185.35971 148.51697C 224.36324 188.48001 238.29895 171.87524 191.94339 140.67084" stroke="#FFFFFF" stroke-width="6.0000005" stroke-linecap="square" fill="none" />
    <path id=""  transform="matrix(1 0 0 -1 0 225)"  d="M195.56552 134.32892C 245.885 158.5419 253.3011 138.17221 199.06863 124.70422" stroke="#FFFFFF" stroke-width="6.0000005" stroke-linecap="square" fill="none" />
    <path id=""  transform="matrix(1 0 0 -1 0 225)"  d="M150.02014 55.946198C 165.64886 55.946198 178.9888 61.47177 190.03998 72.52298L190.03998 72.52298L190.03998 72.52298C 201.09119 83.57416 206.61676 96.91409 206.61676 112.542816L206.61676 112.542816L206.61676 112.542816C 206.61676 128.17154 201.09119 141.5115 190.03998 152.56268L190.03998 152.56268L190.03998 152.56268C 178.9888 163.61388 165.64886 169.13945 150.02014 169.13945L150.02014 169.13945L150.02014 169.13945C 134.39139 169.13945 121.05142 163.61388 110.000275 152.56268L110.000275 152.56268L110.000275 152.56268C 98.9491 141.5115 93.42349 128.17154 93.42349 112.542816L93.42349 112.542816L93.42349 112.542816C 93.42349 96.91409 98.9491 83.57416 110.000275 72.52298L110.000275 72.52298L110.000275 72.52298C 121.05142 61.47177 134.39139 55.946198 150.02014 55.946198" stroke="#000037" stroke-width="6.8607244" fill="#FFFFFF" fill-rule="evenodd" />
    <path id=""  transform="matrix(1 0 0 -1 0 225)"  d="M150.02014 64.0925C 163.39932 64.0925 174.81915 68.822754 184.2797 78.283264L184.2797 78.283264L184.2797 78.283264C 193.74017 87.743774 198.47046 99.163635 198.47046 112.542816L198.47046 112.542816L198.47046 112.542816C 198.47046 125.92201 193.74017 137.34187 184.2797 146.80238L184.2797 146.80238L184.2797 146.80238C 174.81915 156.26288 163.39932 160.99313 150.02014 160.99313L150.02014 160.99313L150.02014 160.99313C 136.64096 160.99313 125.2211 156.26288 115.76059 146.80238L115.76059 146.80238L115.76059 146.80238C 106.30005 137.34187 101.569824 125.92201 101.569824 112.542816L101.569824 112.542816L101.569824 112.542816C 101.569824 99.163635 106.30005 87.743774 115.76059 78.283264L115.76059 78.283264L115.76059 78.283264C 125.2211 68.822754 136.64096 64.0925 150.02014 64.0925" stroke="none" fill="#B93C3C" fill-rule="evenodd" />
    <path id=""  transform="matrix(1 0 0 -1 0 225)"  d="M162.09927 111.769196C 168.75912 113.87662 183.91974 131.57953 184.8891 112.58801L184.8891 112.58801L184.8891 112.58801C 183.81668 92.91043 169.12488 112.00421 161.98984 113.7395" stroke="#FFFFFF" stroke-width="15.483332" fill="none" />
    <path id=""  transform="matrix(1 0 0 -1 0 225)"  d="M161.46512 112.661285L161.46512 112.661285L161.46512 112.661285L178.65558 112.661285" stroke="#B93C3C" stroke-width="4.019956" stroke-linecap="square" fill="none" />
    <path id=""  transform="matrix(1 0 0 -1 0 225)"  d="M179.79471 109.43283C 180.68622 109.4328 181.44717 109.74802 182.07758 110.37842L182.07758 110.37842L182.07758 110.37842C 182.70798 111.00882 183.02313 111.769775 183.02316 112.661285L183.02316 112.661285L183.02316 112.661285C 183.02313 113.552795 182.70798 114.31375 182.07758 114.94415L182.07758 114.94415L182.07758 114.94415C 181.44717 115.574554 180.68622 115.88974 179.79471 115.88974L179.79471 115.88974L179.79471 115.88974C 178.9032 115.88974 178.14224 115.574554 177.51184 114.94415L177.51184 114.94415L177.51184 114.94415C 176.88144 114.31375 176.56625 113.552795 176.56625 112.661285L176.56625 112.661285L176.56625 112.661285C 176.56625 111.769775 176.88144 111.00882 177.51184 110.37842L177.51184 110.37842L177.51184 110.37842C 178.14224 109.74802 178.9032 109.4328 179.79471 109.43283" stroke="none" fill="#B93C3C" fill-rule="evenodd" />
    <path id=""  transform="matrix(1 0 0 -1 0 225)"  d="M159.927 109.52069L159.927 109.52069L159.927 109.52069L170.72025 105.12213" stroke="#B93C3C" stroke-width="2.6799707" stroke-linecap="square" fill="none" />
    <path id=""  transform="matrix(1 0 0 -1 0 225)"  d="M159.92706 115.84381L159.92706 115.84381L159.92706 115.84381L170.7203 120.24237" stroke="#B93C3C" stroke-width="2.6799707" stroke-linecap="square" fill="none" />
    <path id=""  transform="matrix(1 0 0 -1 0 225)"  d="M150.02014 101.799805C 152.98676 101.799805 155.51889 102.84866 157.61661 104.94635L157.61661 104.94635L157.61661 104.94635C 159.71432 107.04407 160.76315 109.57623 160.76315 112.542816L160.76315 112.542816L160.76315 112.542816C 160.76315 115.50943 159.71432 118.041595 157.61661 120.13928L157.61661 120.13928L157.61661 120.13928C 155.51889 122.237 152.98676 123.28586 150.02014 123.28586L150.02014 123.28586L150.02014 123.28586C 147.05353 123.28586 144.5214 122.237 142.42368 120.13928L142.42368 120.13928L142.42368 120.13928C 140.32596 118.041595 139.2771 115.50943 139.2771 112.542816L139.2771 112.542816L139.2771 112.542816C 139.2771 109.57623 140.32596 107.04407 142.42368 104.94635L142.42368 104.94635L142.42368 104.94635C 144.5214 102.84866 147.05353 101.799805 150.02014 101.799805" stroke="#B93C3C" stroke-width="4.4685683" fill="#FFFFFF" fill-rule="evenodd" />
    <path id=""  transform="matrix(1 0 0 -1 0 225)"  d="M150.02014 106.823395C 151.59952 106.823395 152.9476 107.381775 154.06439 108.498566L154.06439 108.498566L154.06439 108.498566C 155.18115 109.61536 155.73953 110.96341 155.73956 112.542816L155.73956 112.542816L155.73956 112.542816C 155.73953 114.12219 155.18115 115.470276 154.06439 116.58707L154.06439 116.58707L154.06439 116.58707C 152.9476 117.70386 151.59952 118.26224 150.02014 118.26224L150.02014 118.26224L150.02014 118.26224C 148.44073 118.26224 147.09265 117.70386 145.97589 116.58707L145.97589 116.58707L145.97589 116.58707C 144.8591 115.470276 144.30069 114.12219 144.30072 112.542816L144.30072 112.542816L144.30072 112.542816C 144.30069 110.96341 144.8591 109.61536 145.97589 108.498566L145.97589 108.498566L145.97589 108.498566C 147.09265 107.381775 148.44073 106.823395 150.02014 106.823395" stroke="none" fill="#B93C3C" fill-rule="evenodd" />
    <path id=""  transform="matrix(1 0 0 -1 0 225)"  d="M71.7935 411.66025C 71.84151 417.9002 60.9862 435.6676 77.38901 431.24854L77.38901 431.24854L77.38901 431.24854C 93.81105 424.9054 73.53326 417.6941 70.08931 412.11115" stroke="#FFFFFF" stroke-width="13.831625" fill="none" />
    <path id=""  transform="matrix(1 0 0 -1 0 225)"  d="M70.860504 411.3677L70.860504 411.3677L70.860504 411.3677L75.60597 425.97275" stroke="#B93C3C" stroke-width="3.5911214" stroke-linecap="square" fill="none" />
    <path id=""  transform="matrix(1 0 0 -1 0 225)"  d="M78.66333 426.04935C 78.909454 426.80676 78.851715 427.54028 78.49014 428.2499L78.49014 428.2499L78.49014 428.2499C 78.12857 428.95947 77.56909 429.43735 76.811646 429.68344L76.811646 429.68344L76.811646 429.68344C 76.05423 429.92957 75.32071 429.87183 74.611084 429.51028L74.611084 429.51028L74.611084 429.51028C 73.90149 429.14868 73.42362 428.5892 73.17753 427.8318L73.17753 427.8318L73.17753 427.8318C 72.93142 427.07434 72.98917 426.34082 73.35071 425.63123L73.35071 425.63123L73.35071 425.63123C 73.71228 424.9216 74.27179 424.4438 75.029205 424.19766L75.029205 424.19766L75.029205 424.19766C 75.78665 423.95157 76.52014 424.00928 77.22977 424.37085L77.22977 424.37085L77.22977 424.37085C 77.93939 424.73242 78.41724 425.29187 78.66333 426.04935" stroke="none" fill="#B93C3C" fill-rule="evenodd" />
    <path id=""  transform="matrix(1 0 0 -1 0 225)"  d="M73.10417 409.19397L73.10417 409.19397L73.10417 409.19397L79.820694 417.14972" stroke="#B93C3C" stroke-width="2.3940809" stroke-linecap="square" fill="none" />
    <path id=""  transform="matrix(1 0 0 -1 0 225)"  d="M67.732086 410.93954L67.732086 410.93954L67.732086 410.93954L66.97455 421.32373" stroke="#B93C3C" stroke-width="2.394081" stroke-linecap="square" fill="none" />
	</g>
</g>
</svg>