<?xml version="1.0" standalone="no"?>
<!DOCTYPE svg PUBLIC "-//W3C//DTD SVG 1.0//EN" "http://www.w3.org/TR/2001/REC-SVG-20010904/DTD/svg10.dtd">
<svg xmlns="http://www.w3.org/2000/svg" xmlns:xlink="http://www.w3.org/1999/xlink" id="body_6" width="400" height="300">

<defs>
    <clipPath  id="1">

    <path id=""  clip-rule="evenodd" transform="matrix(1 0 0 1 0 0)"  d="M0 0L300 0L300 0L300 225L300 225L1.3777277E-14 225L1.3777277E-14 225L0 0z" />    </clipPath>
</defs>

<g transform="matrix(1.3333 0 0 1.3333 0 0)">
	<g clip-path="url(#1)" >
    <path id=""  transform="matrix(1 0 0 -1 0 225)"  d="M226.01723 50.712006C 243.07855 50.712006 257.6413 56.74411 269.7055 68.80827L269.7055 68.80827L269.7055 68.80827C 281.7697 80.87248 287.80182 95.43524 287.80182 112.49658L287.80182 112.49658L287.80182 112.49658C 287.80182 129.55792 281.7697 144.1207 269.7055 156.18488L269.7055 156.18488L269.7055 156.18488C 257.6413 168.24905 243.07855 174.28116 226.01723 174.28113L226.01723 174.28113L226.01723 174.28113C 208.9559 174.28116 194.39311 168.24905 182.32895 156.18488L182.32895 156.18488L182.32895 156.18488C 170.26474 144.1207 164.23267 129.55792 164.23267 112.49658L164.23267 112.49658L164.23267 112.49658C 164.23267 95.43524 170.26474 80.87248 182.32895 68.80827L182.32895 68.80827L182.32895 68.80827C 194.39311 56.74411 208.9559 50.712006 226.01723 50.712006" stroke="#000000" stroke-width="9.8891945" fill="#FFFFFF" fill-rule="evenodd" />
    <path id=""  transform="matrix(1 0 0 -1 0 225)"  d="M225.8042 62.058167C 239.73236 62.058167 251.62082 66.98253 261.46954 76.83124L261.46954 76.83124L261.46954 76.83124C 271.31824 86.67996 276.2426 98.56839 276.2426 112.49658L276.2426 112.49658L276.2426 112.49658C 276.2426 126.424774 271.31824 138.3132 261.46954 148.1619L261.46954 148.1619L261.46954 148.1619C 251.62082 158.01062 239.73236 162.93497 225.8042 162.93497L225.8042 162.93497L225.8042 162.93497C 211.87599 162.93497 199.98756 158.01062 190.13887 148.1619L190.13887 148.1619L190.13887 148.1619C 180.29015 138.3132 175.36578 126.424774 175.36578 112.49658L175.36578 112.49658L175.36578 112.49658C 175.36578 98.56839 180.29015 86.67996 190.13887 76.83124L190.13887 76.83124L190.13887 76.83124C 199.98756 66.98253 211.87599 62.058167 225.8042 62.058167" stroke="none" fill="#000037" fill-rule="evenodd" />
    <path id=""  transform="matrix(1 0 0 -1 0 225)"  d="M219.41966 137.3811C 216.66675 141.38394 216.9497 147.31151 220.0649 150.89735L220.0649 150.89735L220.0649 150.89735C 223.18008 154.4832 228.04668 154.4832 231.16187 150.89735L231.16187 150.89735L231.16187 150.89735C 234.27707 147.31151 234.56003 141.38394 231.8071 137.3811" stroke="#FFFFFF" stroke-width="7.5653033" stroke-linecap="square" fill="none" />
    <path id=""  transform="matrix(1 0 0 -1 0 225)"  d="M586.2599 59.89746C 582.5509 59.604385 578.72784 62.06185 577.5424 65.50106L577.5424 65.50106L577.5424 65.50106C 576.35706 68.94027 578.2206 72.167984 581.7917 72.861L581.7917 72.861L581.7917 72.861C 585.36285 73.55402 589.4026 71.47191 591.0033 68.11329" stroke="#FFFFFF" stroke-width="5.79383" stroke-linecap="square" fill="none" />
    <path id=""  transform="matrix(1 0 0 -1 0 225)"  d="M225.86781 102.134C 228.7527 102.134 231.21512 103.15399 233.25505 105.19391L233.25505 105.19391L233.25505 105.19391C 235.29498 107.233826 236.31494 109.69626 236.31496 112.58115L236.31496 112.58115L236.31496 112.58115C 236.31494 115.466064 235.29498 117.92847 233.25505 119.96838L233.25505 119.96838L233.25505 119.96838C 231.21512 122.00833 228.7527 123.02829 225.86781 123.02829L225.86781 123.02829L225.86781 123.02829C 222.98291 123.02829 220.52048 122.00833 218.48058 119.96838L218.48058 119.96838L218.48058 119.96838C 216.44063 117.92847 215.42065 115.466064 215.42065 112.58115L215.42065 112.58115L215.42065 112.58115C 215.42065 109.69626 216.44063 107.233826 218.48058 105.19391L218.48058 105.19391L218.48058 105.19391C 220.52048 103.15399 222.98291 102.134 225.86781 102.134" stroke="#FFFFFF" stroke-width="7.056764" fill="none" />
    <path id=""  transform="matrix(1 0 0 -1 0 225)"  d="M74.14223 50.711975C 91.20355 50.711975 105.76631 56.74408 117.83052 68.80824L117.83052 68.80824L117.83052 68.80824C 129.8947 80.87245 135.9268 95.43521 135.9268 112.49655L135.9268 112.49655L135.9268 112.49655C 135.9268 129.55789 129.8947 144.12067 117.83052 156.18484L117.83052 156.18484L117.83052 156.18484C 105.76631 168.24902 91.20355 174.28113 74.14223 174.2811L74.14223 174.2811L74.14223 174.2811C 57.080902 174.28113 42.518112 168.24902 30.453949 156.18484L30.453949 156.18484L30.453949 156.18484C 18.38974 144.12067 12.357666 129.55789 12.357666 112.49655L12.357666 112.49655L12.357666 112.49655C 12.357666 95.43521 18.38974 80.87245 30.453949 68.80824L30.453949 68.80824L30.453949 68.80824C 42.518112 56.74408 57.080902 50.711975 74.14223 50.711975" stroke="#000000" stroke-width="9.8891945" fill="#FFFFFF" fill-rule="evenodd" />
    <path id=""  transform="matrix(1 0 0 -1 0 225)"  d="M73.9292 62.058136C 87.85736 62.058136 99.74582 66.9825 109.59453 76.83121L109.59453 76.83121L109.59453 76.83121C 119.44324 86.67993 124.3676 98.56836 124.3676 112.49655L124.3676 112.49655L124.3676 112.49655C 124.3676 126.42474 119.44324 138.31317 109.59453 148.16187L109.59453 148.16187L109.59453 148.16187C 99.74582 158.01059 87.85736 162.93494 73.9292 162.93494L73.9292 162.93494L73.9292 162.93494C 60.00099 162.93494 48.112564 158.01059 38.26387 148.16187L38.26387 148.16187L38.26387 148.16187C 28.415146 138.31317 23.490784 126.42474 23.490784 112.49655L23.490784 112.49655L23.490784 112.49655C 23.490784 98.56836 28.415146 86.67993 38.26387 76.83121L38.26387 76.83121L38.26387 76.83121C 48.112564 66.9825 60.00099 62.058136 73.9292 62.058136" stroke="none" fill="#000037" fill-rule="evenodd" />
    <path id=""  transform="matrix(1 0 0 -1 0 225)"  d="M67.54467 137.3811C 64.79174 141.38394 65.07471 147.31151 68.189896 150.89735L68.189896 150.89735L68.189896 150.89735C 71.305084 154.4832 76.171684 154.4832 79.28687 150.89735L79.28687 150.89735L79.28687 150.89735C 82.40206 147.31151 82.68503 141.38394 79.9321 137.3811" stroke="#FFFFFF" stroke-width="7.5653033" stroke-linecap="square" fill="none" />
    <path id=""  transform="matrix(1 0 0 -1 0 225)"  d="M434.3849 59.89746C 430.6759 59.604385 426.85287 62.06185 425.66748 65.50106L425.66748 65.50106L425.66748 65.50106C 424.4821 68.94027 426.34558 72.167984 429.91675 72.861L429.91675 72.861L429.91675 72.861C 433.48788 73.55402 437.52762 71.47191 439.12833 68.11329" stroke="#FFFFFF" stroke-width="5.79383" stroke-linecap="square" fill="none" />
    <path id=""  transform="matrix(1 0 0 -1 0 225)"  d="M73.99281 102.13397C 76.8777 102.13397 79.34012 103.15396 81.38005 105.19388L81.38005 105.19388L81.38005 105.19388C 83.41998 107.233795 84.43994 109.69623 84.43996 112.581116L84.43996 112.581116L84.43996 112.581116C 84.43994 115.466034 83.41998 117.92844 81.38005 119.96835L81.38005 119.96835L81.38005 119.96835C 79.34012 122.0083 76.8777 123.02826 73.99281 123.02826L73.99281 123.02826L73.99281 123.02826C 71.10791 123.02826 68.64548 122.0083 66.605576 119.96835L66.605576 119.96835L66.605576 119.96835C 64.56563 117.92844 63.545654 115.466034 63.545654 112.581116L63.545654 112.581116L63.545654 112.581116C 63.545654 109.69623 64.56563 107.233795 66.605576 105.19388L66.605576 105.19388L66.605576 105.19388C 68.64548 103.15396 71.10791 102.13397 73.99281 102.13397" stroke="#FFFFFF" stroke-width="7.056764" fill="none" />
	</g>
</g>
</svg>