<?xml version="1.0" standalone="no"?>
<!DOCTYPE svg PUBLIC "-//W3C//DTD SVG 1.0//EN" "http://www.w3.org/TR/2001/REC-SVG-20010904/DTD/svg10.dtd">
<svg xmlns="http://www.w3.org/2000/svg" xmlns:xlink="http://www.w3.org/1999/xlink" id="body_5" width="400" height="300">

<defs>
    <clipPath  id="1">

    <path id=""  clip-rule="evenodd" transform="matrix(1 0 0 1 0 0)"  d="M0 0L300 0L300 0L300 225L300 225L1.3777277E-14 225L1.3777277E-14 225L0 0z" />    </clipPath>
</defs>

<g transform="matrix(1.3333 0 0 1.3333 0 0)">
	<g clip-path="url(#1)" >
    <path id=""  transform="matrix(1 0 0 -1 0 225)"  d="M243.33954 122.52955C 255.9974 122.52955 266.80157 127.00478 275.75208 135.95526L275.75208 135.95526L275.75208 135.95526C 284.70255 144.90573 289.1778 155.70995 289.1778 168.36781L289.1778 168.36781L289.1778 168.36781C 289.1778 181.02571 284.70255 191.8299 275.75208 200.78036L275.75208 200.78036L275.75208 200.78036C 266.80157 209.73087 255.9974 214.2061 243.33954 214.20609L243.33954 214.20609L243.33954 214.20609C 230.68161 214.2061 219.87744 209.73087 210.927 200.78036L210.927 200.78036L210.927 200.78036C 201.9765 191.8299 197.50128 181.02571 197.50128 168.36781L197.50128 168.36781L197.50128 168.36781C 197.50128 155.70995 201.9765 144.90573 210.927 135.95526L210.927 135.95526L210.927 135.95526C 219.87744 127.00478 230.68161 122.52955 243.33954 122.52955" stroke="none" fill="#000000" fill-rule="evenodd" />
    <path id=""  transform="matrix(1 0 0 -1 0 225)"  d="M243.33954 133.79688C 252.88605 133.79688 261.03445 137.17206 267.7849 143.92247L267.7849 143.92247L267.7849 143.92247C 274.53528 150.67287 277.91046 158.8213 277.91046 168.36781L277.91046 168.36781L277.91046 168.36781C 277.91046 177.91432 274.53528 186.06279 267.7849 192.81317L267.7849 192.81317L267.7849 192.81317C 261.03445 199.56357 252.88605 202.93878 243.33954 202.93878L243.33954 202.93878L243.33954 202.93878C 233.79303 202.93878 225.64453 199.56357 218.89417 192.81317L218.89417 192.81317L218.89417 192.81317C 212.1438 186.06279 208.76859 177.91432 208.76859 168.36781L208.76859 168.36781L208.76859 168.36781C 208.76859 158.8213 212.1438 150.67287 218.89417 143.92247L218.89417 143.92247L218.89417 143.92247C 225.64453 137.17206 233.79303 133.79688 243.33954 133.79688" stroke="none" fill="#FFFFFF" fill-rule="evenodd" />
    <path id=""  transform="matrix(1 0 0 -1 0 225)"  d="M243.33954 138.59816C 251.56018 138.59816 258.57697 141.5046 264.3899 147.31749L264.3899 147.31749L264.3899 147.31749C 270.20276 153.13039 273.1092 160.14716 273.1092 168.36781L273.1092 168.36781L273.1092 168.36781C 273.1092 176.5885 270.20276 183.60526 264.3899 189.41815L264.3899 189.41815L264.3899 189.41815C 258.57697 195.23103 251.56018 198.13748 243.33954 198.13748L243.33954 198.13748L243.33954 198.13748C 235.11887 198.13748 228.10205 195.23103 222.28918 189.41815L222.28918 189.41815L222.28918 189.41815C 216.47632 183.60526 213.56989 176.5885 213.56989 168.36781L213.56989 168.36781L213.56989 168.36781C 213.56989 160.14716 216.47632 153.13039 222.28918 147.31749L222.28918 147.31749L222.28918 147.31749C 228.10205 141.5046 235.11887 138.59816 243.33954 138.59816" stroke="none" fill="#000037" fill-rule="evenodd" />
    <path id=""  transform="matrix(1 0 0 -1 0 225)"  d="M243.45099 152.20624C 252.25769 152.26694 259.39435 159.36787 259.49924 168.17418L259.49924 168.17418L259.49924 168.17418C 259.60413 176.98045 252.63864 184.24936 243.83588 184.5198L243.83588 184.5198L243.83588 184.5198C 235.03311 184.79024 227.63452 177.96263 227.19864 169.16649L227.19864 169.16649L227.19864 169.16649C 226.76273 160.37036 233.45004 152.84473 242.23645 152.24355" stroke="#FFFFFF" stroke-width="5.062837" stroke-linecap="square" stroke-dasharray="9.900581,9.900581" fill="none" />
    <path id=""  transform="matrix(1 0 0 -1 0 225)"  d="M243.33954 162.34409C 245.00293 162.34409 246.42273 162.93219 247.59897 164.1084L247.59897 164.1084L247.59897 164.1084C 248.77515 165.2846 249.36328 166.7044 249.36328 168.36781L249.36328 168.36781L249.36328 168.36781C 249.36328 170.03123 248.77515 171.45103 247.59897 172.62724L247.59897 172.62724L247.59897 172.62724C 246.42273 173.80345 245.00293 174.39156 243.33954 174.39156L243.33954 174.39156L243.33954 174.39156C 241.67612 174.39156 240.25632 173.80345 239.08011 172.62724L239.08011 172.62724L239.08011 172.62724C 237.90387 171.45103 237.3158 170.03123 237.3158 168.36781L237.3158 168.36781L237.3158 168.36781C 237.3158 166.7044 237.90387 165.2846 239.08011 164.1084L239.08011 164.1084L239.08011 164.1084C 240.25632 162.93219 241.67612 162.34409 243.33954 162.34409" stroke="none" fill="#FFFFFF" fill-rule="evenodd" />
    <path id=""  transform="matrix(1 0 0 -1 0 225)"  d="M243.33954 165.6171C 244.09909 165.6171 244.74747 165.88565 245.2846 166.42278L245.2846 166.42278L245.2846 166.42278C 245.82172 166.95988 246.09027 167.60823 246.09027 168.36781L246.09027 168.36781L246.09027 168.36781C 246.09027 169.12741 245.82172 169.77577 245.2846 170.31287L245.2846 170.31287L245.2846 170.31287C 244.74747 170.84999 244.09909 171.11855 243.33954 171.11855L243.33954 171.11855L243.33954 171.11855C 242.57996 171.11855 241.93158 170.84999 241.39447 170.31287L241.39447 170.31287L241.39447 170.31287C 240.85736 169.77577 240.5888 169.12741 240.5888 168.36781L240.5888 168.36781L240.5888 168.36781C 240.5888 167.60823 240.85736 166.95988 241.39447 166.42278L241.39447 166.42278L241.39447 166.42278C 241.93158 165.88565 242.57996 165.6171 243.33954 165.6171" stroke="none" fill="#000037" fill-rule="evenodd" />
    <path id=""  transform="matrix(1 0 0 -1 0 225)"  d="M150.03497 66.66767C 162.69284 66.66767 173.49701 71.14291 182.44751 80.09339L182.44751 80.09339L182.44751 80.09339C 191.39798 89.04385 195.87323 99.84807 195.87323 112.505936L195.87323 112.505936L195.87323 112.505936C 195.87323 125.16383 191.39798 135.96802 182.44751 144.91849L182.44751 144.91849L182.44751 144.91849C 173.49701 153.86899 162.69284 158.34422 150.03497 158.34421L150.03497 158.34421L150.03497 158.34421C 137.37704 158.34422 126.572876 153.86899 117.62244 144.91849L117.62244 144.91849L117.62244 144.91849C 108.671936 135.96802 104.19672 125.16383 104.19672 112.505936L104.19672 112.505936L104.19672 112.505936C 104.19672 99.84807 108.671936 89.04385 117.62244 80.09339L117.62244 80.09339L117.62244 80.09339C 126.572876 71.14291 137.37704 66.66767 150.03497 66.66767" stroke="none" fill="#000000" fill-rule="evenodd" />
    <path id=""  transform="matrix(1 0 0 -1 0 225)"  d="M150.03497 77.93499C 159.58148 77.93499 167.72989 81.31019 174.48035 88.06059L174.48035 88.06059L174.48035 88.06059C 181.23071 94.81099 184.6059 102.95943 184.6059 112.505936L184.6059 112.505936L184.6059 112.505936C 184.6059 122.052444 181.23071 130.20091 174.48035 136.9513L174.48035 136.9513L174.48035 136.9513C 167.72989 143.70169 159.58148 147.0769 150.03497 147.0769L150.03497 147.0769L150.03497 147.0769C 140.48846 147.0769 132.33997 143.70169 125.5896 136.9513L125.5896 136.9513L125.5896 136.9513C 118.83923 130.20091 115.46402 122.052444 115.46402 112.505936L115.46402 112.505936L115.46402 112.505936C 115.46402 102.95943 118.83923 94.81099 125.5896 88.06059L125.5896 88.06059L125.5896 88.06059C 132.33997 81.31019 140.48846 77.93499 150.03497 77.93499" stroke="none" fill="#FFFFFF" fill-rule="evenodd" />
    <path id=""  transform="matrix(1 0 0 -1 0 225)"  d="M150.03497 82.73628C 158.25562 82.73628 165.2724 85.642715 171.08533 91.45561L171.08533 91.45561L171.08533 91.45561C 176.8982 97.26851 179.80463 104.28528 179.80463 112.505936L179.80463 112.505936L179.80463 112.505936C 179.80463 120.72662 176.8982 127.74338 171.08533 133.55627L171.08533 133.55627L171.08533 133.55627C 165.2724 139.36916 158.25562 142.2756 150.03497 142.2756L150.03497 142.2756L150.03497 142.2756C 141.8143 142.2756 134.79749 139.36916 128.98462 133.55627L128.98462 133.55627L128.98462 133.55627C 123.17175 127.74338 120.26532 120.72662 120.26532 112.505936L120.26532 112.505936L120.26532 112.505936C 120.26532 104.28528 123.17175 97.26851 128.98462 91.45561L128.98462 91.45561L128.98462 91.45561C 134.79749 85.642715 141.8143 82.73628 150.03497 82.73628" stroke="none" fill="#B93C3C" fill-rule="evenodd" />
    <path id=""  transform="matrix(1 0 0 -1 0 225)"  d="M150.14642 96.34436C 158.95312 96.40506 166.08978 103.506 166.19467 112.3123L166.19467 112.3123L166.19467 112.3123C 166.29956 121.118576 159.33408 128.38748 150.53131 128.65793L150.53131 128.65793L150.53131 128.65793C 141.72855 128.92836 134.32996 122.10075 133.89407 113.30461L133.89407 113.30461L133.89407 113.30461C 133.45816 104.508484 140.14548 96.98285 148.93188 96.38167" stroke="#FFFFFF" stroke-width="5.062837" stroke-linecap="square" stroke-dasharray="9.900581,9.900581" fill="none" />
    <path id=""  transform="matrix(1 0 0 -1 0 225)"  d="M150.03497 106.48221C 151.69836 106.48221 153.11816 107.07031 154.2944 108.24652L154.2944 108.24652L154.2944 108.24652C 155.47058 109.42273 156.05872 110.84253 156.05872 112.505936L156.05872 112.505936L156.05872 112.505936C 156.05872 114.16936 155.47058 115.58916 154.2944 116.765366L154.2944 116.765366L154.2944 116.765366C 153.11816 117.941574 151.69836 118.52968 150.03497 118.52968L150.03497 118.52968L150.03497 118.52968C 148.37155 118.52968 146.95175 117.941574 145.77554 116.765366L145.77554 116.765366L145.77554 116.765366C 144.5993 115.58916 144.01123 114.16936 144.01123 112.505936L144.01123 112.505936L144.01123 112.505936C 144.01123 110.84253 144.5993 109.42273 145.77554 108.24652L145.77554 108.24652L145.77554 108.24652C 146.95175 107.07031 148.37155 106.48221 150.03497 106.48221" stroke="none" fill="#FFFFFF" fill-rule="evenodd" />
    <path id=""  transform="matrix(1 0 0 -1 0 225)"  d="M150.03497 109.75522C 150.79453 109.75522 151.4429 110.02377 151.98004 110.5609L151.98004 110.5609L151.98004 110.5609C 152.51715 111.09801 152.7857 111.74635 152.7857 112.505936L152.7857 112.505936L152.7857 112.505936C 152.7857 113.26553 152.51715 113.913895 151.98004 114.45099L151.98004 114.45099L151.98004 114.45099C 151.4429 114.98811 150.79453 115.25667 150.03497 115.25667L150.03497 115.25667L150.03497 115.25667C 149.27539 115.25667 148.62701 114.98811 148.0899 114.45099L148.0899 114.45099L148.0899 114.45099C 147.5528 113.913895 147.28424 113.26553 147.28424 112.505936L147.28424 112.505936L147.28424 112.505936C 147.28424 111.74635 147.5528 111.09801 148.0899 110.5609L148.0899 110.5609L148.0899 110.5609C 148.62701 110.02377 149.27539 109.75522 150.03497 109.75522" stroke="none" fill="#B93C3C" fill-rule="evenodd" />
    <path id=""  transform="matrix(1 0 0 -1 0 225)"  d="M56.636383 10.802986C 69.29425 10.802986 80.09842 15.278221 89.04892 24.228706L89.04892 24.228706L89.04892 24.228706C 97.99939 33.17917 102.47464 43.983383 102.47464 56.64125L102.47464 56.64125L102.47464 56.64125C 102.47464 69.29915 97.99939 80.10333 89.04892 89.0538L89.04892 89.0538L89.04892 89.0538C 80.09842 98.0043 69.29425 102.47954 56.636383 102.47952L56.636383 102.47952L56.636383 102.47952C 43.978455 102.47954 33.174286 98.0043 24.223846 89.0538L24.223846 89.0538L24.223846 89.0538C 15.273346 80.10333 10.798126 69.29915 10.798126 56.64125L10.798126 56.64125L10.798126 56.64125C 10.798126 43.983383 15.273346 33.17917 24.223846 24.228706L24.223846 24.228706L24.223846 24.228706C 33.174286 15.278221 43.978455 10.802986 56.636383 10.802986" stroke="none" fill="#000000" fill-rule="evenodd" />
    <path id=""  transform="matrix(1 0 0 -1 0 225)"  d="M56.636383 22.070305C 66.18289 22.070305 74.3313 25.445503 81.08176 32.195908L81.08176 32.195908L81.08176 32.195908C 87.83212 38.946304 91.207306 47.09474 91.207306 56.64125L91.207306 56.64125L91.207306 56.64125C 91.207306 66.18776 87.83212 74.33623 81.08176 81.08661L81.08176 81.08661L81.08176 81.08661C 74.3313 87.837006 66.18289 91.21222 56.636383 91.21222L56.636383 91.21222L56.636383 91.21222C 47.089874 91.21222 38.941376 87.837006 32.19101 81.08661L32.19101 81.08661L32.19101 81.08661C 25.440643 74.33623 22.06543 66.18776 22.06543 56.64125L22.06543 56.64125L22.06543 56.64125C 22.06543 47.09474 25.440643 38.946304 32.19101 32.195908L32.19101 32.195908L32.19101 32.195908C 38.941376 25.445503 47.089874 22.070305 56.636383 22.070305" stroke="none" fill="#FFFFFF" fill-rule="evenodd" />
    <path id=""  transform="matrix(1 0 0 -1 0 225)"  d="M56.636383 26.871597C 64.857025 26.871597 71.87381 29.77803 77.68674 35.590927L77.68674 35.590927L77.68674 35.590927C 83.4996 41.403824 86.40604 48.420593 86.40604 56.64125L86.40604 56.64125L86.40604 56.64125C 86.40604 64.86194 83.4996 71.87869 77.68674 77.69159L77.68674 77.69159L77.68674 77.69159C 71.87381 83.50447 64.857025 86.41092 56.636383 86.41092L56.636383 86.41092L56.636383 86.41092C 48.41571 86.41092 41.398895 83.50447 35.58603 77.69159L35.58603 77.69159L35.58603 77.69159C 29.773163 71.87869 26.86673 64.86194 26.86673 56.64125L26.86673 56.64125L26.86673 56.64125C 26.86673 48.420593 29.773163 41.403824 35.58603 35.590927L35.58603 35.590927L35.58603 35.590927C 41.398895 29.77803 48.41571 26.871597 56.636383 26.871597" stroke="none" fill="#000037" fill-rule="evenodd" />
    <path id=""  transform="matrix(1 0 0 -1 0 225)"  d="M56.747833 40.479675C 65.554535 40.540375 72.69119 47.64131 72.79608 56.447617L72.79608 56.447617L72.79608 56.447617C 72.90097 65.25389 65.935486 72.5228 57.13272 72.79324L57.13272 72.79324L57.13272 72.79324C 48.329956 73.063675 40.931366 66.23607 40.495483 57.439926L40.495483 57.439926L40.495483 57.439926C 40.05957 48.6438 46.746887 41.118164 55.533295 40.516983" stroke="#FFFFFF" stroke-width="5.062837" stroke-linecap="square" stroke-dasharray="9.900581,9.900581" fill="none" />
    <path id=""  transform="matrix(1 0 0 -1 0 225)"  d="M56.636383 50.617523C 58.299774 50.617523 59.719574 51.205627 60.895813 52.381836L60.895813 52.381836L60.895813 52.381836C 62.07199 53.558044 62.660126 54.977844 62.660126 56.64125L62.660126 56.64125L62.660126 56.64125C 62.660126 58.304672 62.07199 59.724472 60.895813 60.90068L60.895813 60.90068L60.895813 60.90068C 59.719574 62.07689 58.299774 62.664993 56.636383 62.664993L56.636383 62.664993L56.636383 62.664993C 54.97296 62.664993 53.55316 62.07689 52.376953 60.90068L52.376953 60.90068L52.376953 60.90068C 51.200714 59.724472 50.61264 58.304672 50.61264 56.64125L50.61264 56.64125L50.61264 56.64125C 50.61264 54.977844 51.200714 53.558044 52.376953 52.381836L52.376953 52.381836L52.376953 52.381836C 53.55316 51.205627 54.97296 50.617523 56.636383 50.617523" stroke="none" fill="#FFFFFF" fill-rule="evenodd" />
    <path id=""  transform="matrix(1 0 0 -1 0 225)"  d="M56.636383 53.890533C 57.395935 53.890533 58.04431 54.15909 58.58145 54.696213L58.58145 54.696213L58.58145 54.696213C 59.11856 55.233322 59.387115 55.881668 59.387115 56.64125L59.387115 56.64125L59.387115 56.64125C 59.387115 57.40085 59.11856 58.04921 58.58145 58.586304L58.58145 58.586304L58.58145 58.586304C 58.04431 59.12343 57.395935 59.391983 56.636383 59.391983L56.636383 59.391983L56.636383 59.391983C 55.8768 59.391983 55.228424 59.12343 54.691315 58.586304L54.691315 58.586304L54.691315 58.586304C 54.154205 58.04921 53.88565 57.40085 53.88565 56.64125L53.88565 56.64125L53.88565 56.64125C 53.88565 55.881668 54.154205 55.233322 54.691315 54.696213L54.691315 54.696213L54.691315 54.696213C 55.228424 54.15909 55.8768 53.890533 56.636383 53.890533" stroke="none" fill="#000037" fill-rule="evenodd" />
	</g>
</g>
</svg>