<?xml version="1.0" standalone="no"?>
<!DOCTYPE svg PUBLIC "-//W3C//DTD SVG 1.0//EN" "http://www.w3.org/TR/2001/REC-SVG-20010904/DTD/svg10.dtd">
<svg xmlns="http://www.w3.org/2000/svg" xmlns:xlink="http://www.w3.org/1999/xlink" id="body_4" width="400" height="300">

<defs>
    <clipPath  id="1">

    <path id=""  clip-rule="evenodd" transform="matrix(1 0 0 1 0 0)"  d="M0 0L300 0L300 0L300 225L300 225L1.3777277E-14 225L1.3777277E-14 225L0 0z" />    </clipPath>
</defs>

<g transform="matrix(1.3333 0 0 1.3333 0 0)">
	<g clip-path="url(#1)" >
    <path id=""  transform="matrix(1 0 0 -1 0 225)"  d="M232.60474 120.9119C 245.2626 120.9119 256.06677 125.38714 265.01727 134.33762L265.01727 134.33762L265.01727 134.33762C 273.96774 143.28809 278.443 154.0923 278.443 166.75017L278.443 166.75017L278.443 166.75017C 278.443 179.40807 273.96774 190.21225 265.01727 199.16272L265.01727 199.16272L265.01727 199.16272C 256.06677 208.11322 245.2626 212.58846 232.60474 212.58844L232.60474 212.58844L232.60474 212.58844C 219.94681 212.58846 209.14264 208.11322 200.1922 199.16272L200.1922 199.16272L200.1922 199.16272C 191.2417 190.21225 186.76648 179.40807 186.76648 166.75017L186.76648 166.75017L186.76648 166.75017C 186.76648 154.0923 191.2417 143.28809 200.1922 134.33762L200.1922 134.33762L200.1922 134.33762C 209.14264 125.38714 219.94681 120.9119 232.60474 120.9119" stroke="none" fill="#000000" fill-rule="evenodd" />
    <path id=""  transform="matrix(1 0 0 -1 0 225)"  d="M232.60474 132.17923C 242.15125 132.17923 250.29965 135.55441 257.0501 142.30482L257.0501 142.30482L257.0501 142.30482C 263.80048 149.05522 267.17566 157.20366 267.17566 166.75017L267.17566 166.75017L267.17566 166.75017C 267.17566 176.29668 263.80048 184.44514 257.0501 191.19553L257.0501 191.19553L257.0501 191.19553C 250.29965 197.94592 242.15125 201.32114 232.60474 201.32114L232.60474 201.32114L232.60474 201.32114C 223.05823 201.32114 214.90973 197.94592 208.15936 191.19553L208.15936 191.19553L208.15936 191.19553C 201.409 184.44514 198.03378 176.29668 198.03378 166.75017L198.03378 166.75017L198.03378 166.75017C 198.03378 157.20366 201.409 149.05522 208.15936 142.30482L208.15936 142.30482L208.15936 142.30482C 214.90973 135.55441 223.05823 132.17923 232.60474 132.17923" stroke="none" fill="#FFFFFF" fill-rule="evenodd" />
    <path id=""  transform="matrix(1 0 0 -1 0 225)"  d="M232.60474 136.98051C 240.82538 136.98051 247.84216 139.88695 253.65509 145.69984L253.65509 145.69984L253.65509 145.69984C 259.46796 151.51274 262.3744 158.52951 262.3744 166.75017L262.3744 166.75017L262.3744 166.75017C 262.3744 174.97086 259.46796 181.98761 253.65509 187.8005L253.65509 187.8005L253.65509 187.8005C 247.84216 193.61339 240.82538 196.51984 232.60474 196.51984L232.60474 196.51984L232.60474 196.51984C 224.38406 196.51984 217.36725 193.61339 211.55438 187.8005L211.55438 187.8005L211.55438 187.8005C 205.74152 181.98761 202.83508 174.97086 202.83508 166.75017L202.83508 166.75017L202.83508 166.75017C 202.83508 158.52951 205.74152 151.51274 211.55438 145.69984L211.55438 145.69984L211.55438 145.69984C 217.36725 139.88695 224.38406 136.98051 232.60474 136.98051" stroke="none" fill="#000037" fill-rule="evenodd" />
    <path id=""  transform="matrix(1 0 0 -1 0 225)"  d="M232.71619 150.5886C 241.52289 150.64929 248.65955 157.75023 248.76443 166.55653L248.76443 166.55653L248.76443 166.55653C 248.86932 175.36281 241.90384 182.63171 233.10107 182.90216L233.10107 182.90216L233.10107 182.90216C 224.29831 183.17259 216.89972 176.34499 216.46384 167.54884L216.46384 167.54884L216.46384 167.54884C 216.02792 158.75272 222.71524 151.22708 231.50165 150.6259" stroke="#FFFFFF" stroke-width="5.062837" stroke-linecap="square" stroke-dasharray="9.900581,9.900581" fill="none" />
    <path id=""  transform="matrix(1 0 0 -1 0 225)"  d="M232.60474 160.72644C 234.26813 160.72644 235.68793 161.31454 236.86417 162.49075L236.86417 162.49075L236.86417 162.49075C 238.04034 163.66696 238.62848 165.08676 238.62848 166.75017L238.62848 166.75017L238.62848 166.75017C 238.62848 168.41359 238.04034 169.83339 236.86417 171.0096L236.86417 171.0096L236.86417 171.0096C 235.68793 172.1858 234.26813 172.77391 232.60474 172.77391L232.60474 172.77391L232.60474 172.77391C 230.94131 172.77391 229.52151 172.1858 228.3453 171.0096L228.3453 171.0096L228.3453 171.0096C 227.16907 169.83339 226.581 168.41359 226.581 166.75017L226.581 166.75017L226.581 166.75017C 226.581 165.08676 227.16907 163.66696 228.3453 162.49075L228.3453 162.49075L228.3453 162.49075C 229.52151 161.31454 230.94131 160.72644 232.60474 160.72644" stroke="none" fill="#FFFFFF" fill-rule="evenodd" />
    <path id=""  transform="matrix(1 0 0 -1 0 225)"  d="M232.60474 163.99945C 233.36429 163.99945 234.01266 164.268 234.5498 164.80513L234.5498 164.80513L234.5498 164.80513C 235.08691 165.34224 235.35547 165.99059 235.35547 166.75017L235.35547 166.75017L235.35547 166.75017C 235.35547 167.50977 235.08691 168.15813 234.5498 168.69522L234.5498 168.69522L234.5498 168.69522C 234.01266 169.23235 233.36429 169.5009 232.60474 169.5009L232.60474 169.5009L232.60474 169.5009C 231.84515 169.5009 231.19678 169.23235 230.65967 168.69522L230.65967 168.69522L230.65967 168.69522C 230.12256 168.15813 229.854 167.50977 229.854 166.75017L229.854 166.75017L229.854 166.75017C 229.854 165.99059 230.12256 165.34224 230.65967 164.80513L230.65967 164.80513L230.65967 164.80513C 231.19678 164.268 231.84515 163.99945 232.60474 163.99945" stroke="none" fill="#000037" fill-rule="evenodd" />
    <path id=""  transform="matrix(1 0 0 -1 0 225)"  d="M232.60474 12.823341C 245.2626 12.823341 256.06677 17.298576 265.01727 26.249062L265.01727 26.249062L265.01727 26.249062C 273.96774 35.199524 278.443 46.00374 278.443 58.661606L278.443 58.661606L278.443 58.661606C 278.443 71.3195 273.96774 82.12369 265.01727 91.07416L265.01727 91.07416L265.01727 91.07416C 256.06677 100.02466 245.2626 104.49989 232.60474 104.49988L232.60474 104.49988L232.60474 104.49988C 219.94681 104.49989 209.14264 100.02466 200.1922 91.07416L200.1922 91.07416L200.1922 91.07416C 191.2417 82.12369 186.76648 71.3195 186.76648 58.661606L186.76648 58.661606L186.76648 58.661606C 186.76648 46.00374 191.2417 35.199524 200.1922 26.249062L200.1922 26.249062L200.1922 26.249062C 209.14264 17.298576 219.94681 12.823341 232.60474 12.823341" stroke="none" fill="#000000" fill-rule="evenodd" />
    <path id=""  transform="matrix(1 0 0 -1 0 225)"  d="M232.60474 24.09066C 242.15125 24.09066 250.29965 27.465858 257.0501 34.216263L257.0501 34.216263L257.0501 34.216263C 263.80048 40.96666 267.17566 49.115097 267.17566 58.661606L267.17566 58.661606L267.17566 58.661606C 267.17566 68.208115 263.80048 76.35658 257.0501 83.106964L257.0501 83.106964L257.0501 83.106964C 250.29965 89.85736 242.15125 93.232574 232.60474 93.232574L232.60474 93.232574L232.60474 93.232574C 223.05823 93.232574 214.90973 89.85736 208.15936 83.106964L208.15936 83.106964L208.15936 83.106964C 201.409 76.35658 198.03378 68.208115 198.03378 58.661606L198.03378 58.661606L198.03378 58.661606C 198.03378 49.115097 201.409 40.96666 208.15936 34.216263L208.15936 34.216263L208.15936 34.216263C 214.90973 27.465858 223.05823 24.09066 232.60474 24.09066" stroke="none" fill="#FFFFFF" fill-rule="evenodd" />
    <path id=""  transform="matrix(1 0 0 -1 0 225)"  d="M232.60474 28.891953C 240.82538 28.891953 247.84216 31.798386 253.65509 37.611282L253.65509 37.611282L253.65509 37.611282C 259.46796 43.42418 262.3744 50.44095 262.3744 58.661606L262.3744 58.661606L262.3744 58.661606C 262.3744 66.88229 259.46796 73.89905 253.65509 79.711945L253.65509 79.711945L253.65509 79.711945C 247.84216 85.524826 240.82538 88.431274 232.60474 88.431274L232.60474 88.431274L232.60474 88.431274C 224.38406 88.431274 217.36725 85.524826 211.55438 79.711945L211.55438 79.711945L211.55438 79.711945C 205.74152 73.89905 202.83508 66.88229 202.83508 58.661606L202.83508 58.661606L202.83508 58.661606C 202.83508 50.44095 205.74152 43.42418 211.55438 37.611282L211.55438 37.611282L211.55438 37.611282C 217.36725 31.798386 224.38406 28.891953 232.60474 28.891953" stroke="none" fill="#000037" fill-rule="evenodd" />
    <path id=""  transform="matrix(1 0 0 -1 0 225)"  d="M232.71619 42.50003C 241.52289 42.56073 248.65955 49.661667 248.76443 58.46797L248.76443 58.46797L248.76443 58.46797C 248.86932 67.27425 241.90384 74.54315 233.10107 74.8136L233.10107 74.8136L233.10107 74.8136C 224.29831 75.08403 216.89972 68.256424 216.46384 59.46028L216.46384 59.46028L216.46384 59.46028C 216.02792 50.664154 222.71524 43.13852 231.50165 42.53734" stroke="#FFFFFF" stroke-width="5.062837" stroke-linecap="square" stroke-dasharray="9.900581,9.900581" fill="none" />
    <path id=""  transform="matrix(1 0 0 -1 0 225)"  d="M232.60474 52.63788C 234.26813 52.63788 235.68793 53.225983 236.86417 54.40219L236.86417 54.40219L236.86417 54.40219C 238.04034 55.5784 238.62848 56.9982 238.62848 58.661606L238.62848 58.661606L238.62848 58.661606C 238.62848 60.325027 238.04034 61.744827 236.86417 62.921036L236.86417 62.921036L236.86417 62.921036C 235.68793 64.097244 234.26813 64.68535 232.60474 64.68535L232.60474 64.68535L232.60474 64.68535C 230.94131 64.68535 229.52151 64.097244 228.3453 62.921036L228.3453 62.921036L228.3453 62.921036C 227.16907 61.744827 226.581 60.325027 226.581 58.661606L226.581 58.661606L226.581 58.661606C 226.581 56.9982 227.16907 55.5784 228.3453 54.40219L228.3453 54.40219L228.3453 54.40219C 229.52151 53.225983 230.94131 52.63788 232.60474 52.63788" stroke="none" fill="#FFFFFF" fill-rule="evenodd" />
    <path id=""  transform="matrix(1 0 0 -1 0 225)"  d="M232.60474 55.91089C 233.36429 55.91089 234.01266 56.179443 234.5498 56.716568L234.5498 56.716568L234.5498 56.716568C 235.08691 57.253677 235.35547 57.902023 235.35547 58.661606L235.35547 58.661606L235.35547 58.661606C 235.35547 59.421204 235.08691 60.069565 234.5498 60.60666L234.5498 60.60666L234.5498 60.60666C 234.01266 61.143784 233.36429 61.41234 232.60474 61.41234L232.60474 61.41234L232.60474 61.41234C 231.84515 61.41234 231.19678 61.143784 230.65967 60.60666L230.65967 60.60666L230.65967 60.60666C 230.12256 60.069565 229.854 59.421204 229.854 58.661606L229.854 58.661606L229.854 58.661606C 229.854 57.902023 230.12256 57.253677 230.65967 56.716568L230.65967 56.716568L230.65967 56.716568C 231.19678 56.179443 231.84515 55.91089 232.60474 55.91089" stroke="none" fill="#000037" fill-rule="evenodd" />
    <path id=""  transform="matrix(1 0 0 -1 0 225)"  d="M67.656494 120.9119C 80.31436 120.9119 91.11853 125.38714 100.06903 134.33762L100.06903 134.33762L100.06903 134.33762C 109.0195 143.28809 113.49475 154.0923 113.49475 166.75017L113.49475 166.75017L113.49475 166.75017C 113.49475 179.40807 109.0195 190.21225 100.06903 199.16272L100.06903 199.16272L100.06903 199.16272C 91.11853 208.11322 80.31436 212.58846 67.656494 212.58844L67.656494 212.58844L67.656494 212.58844C 54.998566 212.58846 44.194397 208.11322 35.243958 199.16272L35.243958 199.16272L35.243958 199.16272C 26.293457 190.21225 21.818237 179.40807 21.818237 166.75017L21.818237 166.75017L21.818237 166.75017C 21.818237 154.0923 26.293457 143.28809 35.243958 134.33762L35.243958 134.33762L35.243958 134.33762C 44.194397 125.38714 54.998566 120.9119 67.656494 120.9119" stroke="none" fill="#000000" fill-rule="evenodd" />
    <path id=""  transform="matrix(1 0 0 -1 0 225)"  d="M67.656494 132.17923C 77.203 132.17923 85.35141 135.55441 92.10187 142.30482L92.10187 142.30482L92.10187 142.30482C 98.852234 149.05522 102.22742 157.20366 102.22742 166.75017L102.22742 166.75017L102.22742 166.75017C 102.22742 176.29668 98.852234 184.44514 92.10187 191.19553L92.10187 191.19553L92.10187 191.19553C 85.35141 197.94592 77.203 201.32114 67.656494 201.32114L67.656494 201.32114L67.656494 201.32114C 58.109985 201.32114 49.961487 197.94592 43.21112 191.19553L43.21112 191.19553L43.21112 191.19553C 36.460754 184.44514 33.08554 176.29668 33.08554 166.75017L33.08554 166.75017L33.08554 166.75017C 33.08554 157.20366 36.460754 149.05522 43.21112 142.30482L43.21112 142.30482L43.21112 142.30482C 49.961487 135.55441 58.109985 132.17923 67.656494 132.17923" stroke="none" fill="#FFFFFF" fill-rule="evenodd" />
    <path id=""  transform="matrix(1 0 0 -1 0 225)"  d="M67.656494 136.98051C 75.87714 136.98051 82.89392 139.88695 88.70685 145.69984L88.70685 145.69984L88.70685 145.69984C 94.519714 151.51274 97.42615 158.52951 97.42615 166.75017L97.42615 166.75017L97.42615 166.75017C 97.42615 174.97086 94.519714 181.98761 88.70685 187.8005L88.70685 187.8005L88.70685 187.8005C 82.89392 193.61339 75.87714 196.51984 67.656494 196.51984L67.656494 196.51984L67.656494 196.51984C 59.43582 196.51984 52.419006 193.61339 46.60614 187.8005L46.60614 187.8005L46.60614 187.8005C 40.793274 181.98761 37.88684 174.97086 37.88684 166.75017L37.88684 166.75017L37.88684 166.75017C 37.88684 158.52951 40.793274 151.51274 46.60614 145.69984L46.60614 145.69984L46.60614 145.69984C 52.419006 139.88695 59.43582 136.98051 67.656494 136.98051" stroke="none" fill="#000037" fill-rule="evenodd" />
    <path id=""  transform="matrix(1 0 0 -1 0 225)"  d="M67.767944 150.5886C 76.574646 150.64929 83.7113 157.75023 83.81619 166.55653L83.81619 166.55653L83.81619 166.55653C 83.92108 175.36281 76.9556 182.63171 68.15283 182.90216L68.15283 182.90216L68.15283 182.90216C 59.350067 183.17259 51.951477 176.34499 51.515594 167.54884L51.515594 167.54884L51.515594 167.54884C 51.07968 158.75272 57.767 151.22708 66.553406 150.6259" stroke="#FFFFFF" stroke-width="5.062837" stroke-linecap="square" stroke-dasharray="9.900581,9.900581" fill="none" />
    <path id=""  transform="matrix(1 0 0 -1 0 225)"  d="M67.656494 160.72644C 69.319885 160.72644 70.739685 161.31454 71.915924 162.49075L71.915924 162.49075L71.915924 162.49075C 73.0921 163.66696 73.68024 165.08676 73.68024 166.75017L73.68024 166.75017L73.68024 166.75017C 73.68024 168.41359 73.0921 169.83339 71.915924 171.0096L71.915924 171.0096L71.915924 171.0096C 70.739685 172.1858 69.319885 172.77391 67.656494 172.77391L67.656494 172.77391L67.656494 172.77391C 65.99307 172.77391 64.57327 172.1858 63.397064 171.0096L63.397064 171.0096L63.397064 171.0096C 62.220825 169.83339 61.63275 168.41359 61.63275 166.75017L61.63275 166.75017L61.63275 166.75017C 61.63275 165.08676 62.220825 163.66696 63.397064 162.49075L63.397064 162.49075L63.397064 162.49075C 64.57327 161.31454 65.99307 160.72644 67.656494 160.72644" stroke="none" fill="#FFFFFF" fill-rule="evenodd" />
    <path id=""  transform="matrix(1 0 0 -1 0 225)"  d="M67.656494 163.99945C 68.416046 163.99945 69.06442 164.268 69.60156 164.80513L69.60156 164.80513L69.60156 164.80513C 70.13867 165.34224 70.40723 165.99059 70.40723 166.75017L70.40723 166.75017L70.40723 166.75017C 70.40723 167.50977 70.13867 168.15813 69.60156 168.69522L69.60156 168.69522L69.60156 168.69522C 69.06442 169.23235 68.416046 169.5009 67.656494 169.5009L67.656494 169.5009L67.656494 169.5009C 66.89691 169.5009 66.248535 169.23235 65.711426 168.69522L65.711426 168.69522L65.711426 168.69522C 65.17432 168.15813 64.90576 167.50977 64.90576 166.75017L64.90576 166.75017L64.90576 166.75017C 64.90576 165.99059 65.17432 165.34224 65.711426 164.80513L65.711426 164.80513L65.711426 164.80513C 66.248535 164.268 66.89691 163.99945 67.656494 163.99945" stroke="none" fill="#000037" fill-rule="evenodd" />
    <path id=""  transform="matrix(1 0 0 -1 0 225)"  d="M67.656494 12.823341C 80.31436 12.823341 91.11853 17.298576 100.06903 26.249062L100.06903 26.249062L100.06903 26.249062C 109.0195 35.199524 113.49475 46.00374 113.49475 58.661606L113.49475 58.661606L113.49475 58.661606C 113.49475 71.3195 109.0195 82.12369 100.06903 91.07416L100.06903 91.07416L100.06903 91.07416C 91.11853 100.02466 80.31436 104.49989 67.656494 104.49988L67.656494 104.49988L67.656494 104.49988C 54.998566 104.49989 44.194397 100.02466 35.243958 91.07416L35.243958 91.07416L35.243958 91.07416C 26.293457 82.12369 21.818237 71.3195 21.818237 58.661606L21.818237 58.661606L21.818237 58.661606C 21.818237 46.00374 26.293457 35.199524 35.243958 26.249062L35.243958 26.249062L35.243958 26.249062C 44.194397 17.298576 54.998566 12.823341 67.656494 12.823341" stroke="none" fill="#000000" fill-rule="evenodd" />
    <path id=""  transform="matrix(1 0 0 -1 0 225)"  d="M67.656494 24.09066C 77.203 24.09066 85.35141 27.465858 92.10187 34.216263L92.10187 34.216263L92.10187 34.216263C 98.852234 40.96666 102.22742 49.115097 102.22742 58.661606L102.22742 58.661606L102.22742 58.661606C 102.22742 68.208115 98.852234 76.35658 92.10187 83.106964L92.10187 83.106964L92.10187 83.106964C 85.35141 89.85736 77.203 93.232574 67.656494 93.232574L67.656494 93.232574L67.656494 93.232574C 58.109985 93.232574 49.961487 89.85736 43.21112 83.106964L43.21112 83.106964L43.21112 83.106964C 36.460754 76.35658 33.08554 68.208115 33.08554 58.661606L33.08554 58.661606L33.08554 58.661606C 33.08554 49.115097 36.460754 40.96666 43.21112 34.216263L43.21112 34.216263L43.21112 34.216263C 49.961487 27.465858 58.109985 24.09066 67.656494 24.09066" stroke="none" fill="#FFFFFF" fill-rule="evenodd" />
    <path id=""  transform="matrix(1 0 0 -1 0 225)"  d="M67.656494 28.891953C 75.87714 28.891953 82.89392 31.798386 88.70685 37.611282L88.70685 37.611282L88.70685 37.611282C 94.519714 43.42418 97.42615 50.44095 97.42615 58.661606L97.42615 58.661606L97.42615 58.661606C 97.42615 66.88229 94.519714 73.89905 88.70685 79.711945L88.70685 79.711945L88.70685 79.711945C 82.89392 85.524826 75.87714 88.431274 67.656494 88.431274L67.656494 88.431274L67.656494 88.431274C 59.43582 88.431274 52.419006 85.524826 46.60614 79.711945L46.60614 79.711945L46.60614 79.711945C 40.793274 73.89905 37.88684 66.88229 37.88684 58.661606L37.88684 58.661606L37.88684 58.661606C 37.88684 50.44095 40.793274 43.42418 46.60614 37.611282L46.60614 37.611282L46.60614 37.611282C 52.419006 31.798386 59.43582 28.891953 67.656494 28.891953" stroke="none" fill="#000037" fill-rule="evenodd" />
    <path id=""  transform="matrix(1 0 0 -1 0 225)"  d="M67.767944 42.50003C 76.574646 42.56073 83.7113 49.661667 83.81619 58.46797L83.81619 58.46797L83.81619 58.46797C 83.92108 67.27425 76.9556 74.54315 68.15283 74.8136L68.15283 74.8136L68.15283 74.8136C 59.350067 75.08403 51.951477 68.256424 51.515594 59.46028L51.515594 59.46028L51.515594 59.46028C 51.07968 50.664154 57.767 43.13852 66.553406 42.53734" stroke="#FFFFFF" stroke-width="5.062837" stroke-linecap="square" stroke-dasharray="9.900581,9.900581" fill="none" />
    <path id=""  transform="matrix(1 0 0 -1 0 225)"  d="M67.656494 52.63788C 69.319885 52.63788 70.739685 53.225983 71.915924 54.40219L71.915924 54.40219L71.915924 54.40219C 73.0921 55.5784 73.68024 56.9982 73.68024 58.661606L73.68024 58.661606L73.68024 58.661606C 73.68024 60.325027 73.0921 61.744827 71.915924 62.921036L71.915924 62.921036L71.915924 62.921036C 70.739685 64.097244 69.319885 64.68535 67.656494 64.68535L67.656494 64.68535L67.656494 64.68535C 65.99307 64.68535 64.57327 64.097244 63.397064 62.921036L63.397064 62.921036L63.397064 62.921036C 62.220825 61.744827 61.63275 60.325027 61.63275 58.661606L61.63275 58.661606L61.63275 58.661606C 61.63275 56.9982 62.220825 55.5784 63.397064 54.40219L63.397064 54.40219L63.397064 54.40219C 64.57327 53.225983 65.99307 52.63788 67.656494 52.63788" stroke="none" fill="#FFFFFF" fill-rule="evenodd" />
    <path id=""  transform="matrix(1 0 0 -1 0 225)"  d="M67.656494 55.91089C 68.416046 55.91089 69.06442 56.179443 69.60156 56.716568L69.60156 56.716568L69.60156 56.716568C 70.13867 57.253677 70.40723 57.902023 70.40723 58.661606L70.40723 58.661606L70.40723 58.661606C 70.40723 59.421204 70.13867 60.069565 69.60156 60.60666L69.60156 60.60666L69.60156 60.60666C 69.06442 61.143784 68.416046 61.41234 67.656494 61.41234L67.656494 61.41234L67.656494 61.41234C 66.89691 61.41234 66.248535 61.143784 65.711426 60.60666L65.711426 60.60666L65.711426 60.60666C 65.17432 60.069565 64.90576 59.421204 64.90576 58.661606L64.90576 58.661606L64.90576 58.661606C 64.90576 57.902023 65.17432 57.253677 65.711426 56.716568L65.711426 56.716568L65.711426 56.716568C 66.248535 56.179443 66.89691 55.91089 67.656494 55.91089" stroke="none" fill="#000037" fill-rule="evenodd" />
	</g>
</g>
</svg>