<?xml version="1.0" standalone="no"?>
<!DOCTYPE svg PUBLIC "-//W3C//DTD SVG 1.0//EN" "http://www.w3.org/TR/2001/REC-SVG-20010904/DTD/svg10.dtd">
<svg xmlns="http://www.w3.org/2000/svg" xmlns:xlink="http://www.w3.org/1999/xlink" id="body_2" width="400" height="300">

<defs>
    <clipPath  id="1">

    <path id=""  clip-rule="evenodd" transform="matrix(1 0 0 1 0 0)"  d="M0 0L300 0L300 0L300 225L300 225L1.3777277E-14 225L1.3777277E-14 225L0 0z" />    </clipPath>
</defs>

<g transform="matrix(1.3333 0 0 1.3333 0 0)">
	<g clip-path="url(#1)" >
    <path id=""  transform="matrix(1 0 0 -1 0 225)"  d="M232.60455 120.9119C 245.26242 120.9119 256.0666 125.38714 265.0171 134.33762L265.0171 134.33762L265.0171 134.33762C 273.96756 143.28809 278.4428 154.0923 278.4428 166.75017L278.4428 166.75017L278.4428 166.75017C 278.4428 179.40807 273.96756 190.21225 265.0171 199.16272L265.0171 199.16272L265.0171 199.16272C 256.0666 208.11322 245.26242 212.58846 232.60455 212.58844L232.60455 212.58844L232.60455 212.58844C 219.94662 212.58846 209.14246 208.11322 200.19202 199.16272L200.19202 199.16272L200.19202 199.16272C 191.24152 190.21225 186.7663 179.40807 186.7663 166.75017L186.7663 166.75017L186.7663 166.75017C 186.7663 154.0923 191.24152 143.28809 200.19202 134.33762L200.19202 134.33762L200.19202 134.33762C 209.14246 125.38714 219.94662 120.9119 232.60455 120.9119" stroke="none" fill="#000000" fill-rule="evenodd" />
    <path id=""  transform="matrix(1 0 0 -1 0 225)"  d="M232.60455 132.17923C 242.15106 132.17923 250.29947 135.55441 257.04993 142.30482L257.04993 142.30482L257.04993 142.30482C 263.8003 149.05522 267.17548 157.20366 267.17548 166.75017L267.17548 166.75017L267.17548 166.75017C 267.17548 176.29668 263.8003 184.44514 257.04993 191.19553L257.04993 191.19553L257.04993 191.19553C 250.29947 197.94592 242.15106 201.32114 232.60455 201.32114L232.60455 201.32114L232.60455 201.32114C 223.05804 201.32114 214.90955 197.94592 208.15918 191.19553L208.15918 191.19553L208.15918 191.19553C 201.40881 184.44514 198.0336 176.29668 198.0336 166.75017L198.0336 166.75017L198.0336 166.75017C 198.0336 157.20366 201.40881 149.05522 208.15918 142.30482L208.15918 142.30482L208.15918 142.30482C 214.90955 135.55441 223.05804 132.17923 232.60455 132.17923" stroke="none" fill="#FFFFFF" fill-rule="evenodd" />
    <path id=""  transform="matrix(1 0 0 -1 0 225)"  d="M232.60455 136.98051C 240.8252 136.98051 247.84198 139.88695 253.6549 145.69984L253.6549 145.69984L253.6549 145.69984C 259.46777 151.51274 262.3742 158.52951 262.3742 166.75017L262.3742 166.75017L262.3742 166.75017C 262.3742 174.97086 259.46777 181.98761 253.6549 187.8005L253.6549 187.8005L253.6549 187.8005C 247.84198 193.61339 240.8252 196.51984 232.60455 196.51984L232.60455 196.51984L232.60455 196.51984C 224.38388 196.51984 217.36707 193.61339 211.5542 187.8005L211.5542 187.8005L211.5542 187.8005C 205.74133 181.98761 202.8349 174.97086 202.8349 166.75017L202.8349 166.75017L202.8349 166.75017C 202.8349 158.52951 205.74133 151.51274 211.5542 145.69984L211.5542 145.69984L211.5542 145.69984C 217.36707 139.88695 224.38388 136.98051 232.60455 136.98051" stroke="none" fill="#000037" fill-rule="evenodd" />
    <path id=""  transform="matrix(1 0 0 -1 0 225)"  d="M232.716 150.5886C 241.5227 150.64929 248.65936 157.75023 248.76425 166.55653L248.76425 166.55653L248.76425 166.55653C 248.86914 175.36281 241.90366 182.63171 233.10089 182.90216L233.10089 182.90216L233.10089 182.90216C 224.29813 183.17259 216.89954 176.34499 216.46365 167.54884L216.46365 167.54884L216.46365 167.54884C 216.02774 158.75272 222.71506 151.22708 231.50146 150.6259" stroke="#FFFFFF" stroke-width="5.062837" stroke-linecap="square" stroke-dasharray="9.900581,9.900581" fill="none" />
    <path id=""  transform="matrix(1 0 0 -1 0 225)"  d="M232.60455 160.72644C 234.26794 160.72644 235.68774 161.31454 236.86398 162.49075L236.86398 162.49075L236.86398 162.49075C 238.04016 163.66696 238.6283 165.08676 238.6283 166.75017L238.6283 166.75017L238.6283 166.75017C 238.6283 168.41359 238.04016 169.83339 236.86398 171.0096L236.86398 171.0096L236.86398 171.0096C 235.68774 172.1858 234.26794 172.77391 232.60455 172.77391L232.60455 172.77391L232.60455 172.77391C 230.94113 172.77391 229.52133 172.1858 228.34512 171.0096L228.34512 171.0096L228.34512 171.0096C 227.16888 169.83339 226.58081 168.41359 226.58081 166.75017L226.58081 166.75017L226.58081 166.75017C 226.58081 165.08676 227.16888 163.66696 228.34512 162.49075L228.34512 162.49075L228.34512 162.49075C 229.52133 161.31454 230.94113 160.72644 232.60455 160.72644" stroke="none" fill="#FFFFFF" fill-rule="evenodd" />
    <path id=""  transform="matrix(1 0 0 -1 0 225)"  d="M232.60455 163.99945C 233.3641 163.99945 234.01248 164.268 234.54962 164.80513L234.54962 164.80513L234.54962 164.80513C 235.08673 165.34224 235.35529 165.99059 235.35529 166.75017L235.35529 166.75017L235.35529 166.75017C 235.35529 167.50977 235.08673 168.15813 234.54962 168.69522L234.54962 168.69522L234.54962 168.69522C 234.01248 169.23235 233.3641 169.5009 232.60455 169.5009L232.60455 169.5009L232.60455 169.5009C 231.84497 169.5009 231.1966 169.23235 230.65948 168.69522L230.65948 168.69522L230.65948 168.69522C 230.12238 168.15813 229.85382 167.50977 229.85382 166.75017L229.85382 166.75017L229.85382 166.75017C 229.85382 165.99059 230.12238 165.34224 230.65948 164.80513L230.65948 164.80513L230.65948 164.80513C 231.1966 164.268 231.84497 163.99945 232.60455 163.99945" stroke="none" fill="#000037" fill-rule="evenodd" />
    <path id=""  transform="matrix(1 0 0 -1 0 225)"  d="M232.60455 12.823341C 245.26242 12.823341 256.0666 17.298576 265.0171 26.249062L265.0171 26.249062L265.0171 26.249062C 273.96756 35.199524 278.4428 46.00374 278.4428 58.661606L278.4428 58.661606L278.4428 58.661606C 278.4428 71.3195 273.96756 82.12369 265.0171 91.07416L265.0171 91.07416L265.0171 91.07416C 256.0666 100.02466 245.26242 104.49989 232.60455 104.49988L232.60455 104.49988L232.60455 104.49988C 219.94662 104.49989 209.14246 100.02466 200.19202 91.07416L200.19202 91.07416L200.19202 91.07416C 191.24152 82.12369 186.7663 71.3195 186.7663 58.661606L186.7663 58.661606L186.7663 58.661606C 186.7663 46.00374 191.24152 35.199524 200.19202 26.249062L200.19202 26.249062L200.19202 26.249062C 209.14246 17.298576 219.94662 12.823341 232.60455 12.823341" stroke="none" fill="#000000" fill-rule="evenodd" />
    <path id=""  transform="matrix(1 0 0 -1 0 225)"  d="M232.60455 24.09066C 242.15106 24.09066 250.29947 27.465858 257.04993 34.216263L257.04993 34.216263L257.04993 34.216263C 263.8003 40.96666 267.17548 49.115097 267.17548 58.661606L267.17548 58.661606L267.17548 58.661606C 267.17548 68.208115 263.8003 76.35658 257.04993 83.106964L257.04993 83.106964L257.04993 83.106964C 250.29947 89.85736 242.15106 93.232574 232.60455 93.232574L232.60455 93.232574L232.60455 93.232574C 223.05804 93.232574 214.90955 89.85736 208.15918 83.106964L208.15918 83.106964L208.15918 83.106964C 201.40881 76.35658 198.0336 68.208115 198.0336 58.661606L198.0336 58.661606L198.0336 58.661606C 198.0336 49.115097 201.40881 40.96666 208.15918 34.216263L208.15918 34.216263L208.15918 34.216263C 214.90955 27.465858 223.05804 24.09066 232.60455 24.09066" stroke="none" fill="#FFFFFF" fill-rule="evenodd" />
    <path id=""  transform="matrix(1 0 0 -1 0 225)"  d="M232.60455 28.891953C 240.8252 28.891953 247.84198 31.798386 253.6549 37.611282L253.6549 37.611282L253.6549 37.611282C 259.46777 43.42418 262.3742 50.44095 262.3742 58.661606L262.3742 58.661606L262.3742 58.661606C 262.3742 66.88229 259.46777 73.89905 253.6549 79.711945L253.6549 79.711945L253.6549 79.711945C 247.84198 85.524826 240.8252 88.431274 232.60455 88.431274L232.60455 88.431274L232.60455 88.431274C 224.38388 88.431274 217.36707 85.524826 211.5542 79.711945L211.5542 79.711945L211.5542 79.711945C 205.74133 73.89905 202.8349 66.88229 202.8349 58.661606L202.8349 58.661606L202.8349 58.661606C 202.8349 50.44095 205.74133 43.42418 211.5542 37.611282L211.5542 37.611282L211.5542 37.611282C 217.36707 31.798386 224.38388 28.891953 232.60455 28.891953" stroke="none" fill="#000037" fill-rule="evenodd" />
    <path id=""  transform="matrix(1 0 0 -1 0 225)"  d="M232.716 42.50003C 241.5227 42.56073 248.65936 49.661667 248.76425 58.46797L248.76425 58.46797L248.76425 58.46797C 248.86914 67.27425 241.90366 74.54315 233.10089 74.8136L233.10089 74.8136L233.10089 74.8136C 224.29813 75.08403 216.89954 68.256424 216.46365 59.46028L216.46365 59.46028L216.46365 59.46028C 216.02774 50.664154 222.71506 43.13852 231.50146 42.53734" stroke="#FFFFFF" stroke-width="5.062837" stroke-linecap="square" stroke-dasharray="9.900581,9.900581" fill="none" />
    <path id=""  transform="matrix(1 0 0 -1 0 225)"  d="M232.60455 52.63788C 234.26794 52.63788 235.68774 53.225983 236.86398 54.40219L236.86398 54.40219L236.86398 54.40219C 238.04016 55.5784 238.6283 56.9982 238.6283 58.661606L238.6283 58.661606L238.6283 58.661606C 238.6283 60.325027 238.04016 61.744827 236.86398 62.921036L236.86398 62.921036L236.86398 62.921036C 235.68774 64.097244 234.26794 64.68535 232.60455 64.68535L232.60455 64.68535L232.60455 64.68535C 230.94113 64.68535 229.52133 64.097244 228.34512 62.921036L228.34512 62.921036L228.34512 62.921036C 227.16888 61.744827 226.58081 60.325027 226.58081 58.661606L226.58081 58.661606L226.58081 58.661606C 226.58081 56.9982 227.16888 55.5784 228.34512 54.40219L228.34512 54.40219L228.34512 54.40219C 229.52133 53.225983 230.94113 52.63788 232.60455 52.63788" stroke="none" fill="#FFFFFF" fill-rule="evenodd" />
    <path id=""  transform="matrix(1 0 0 -1 0 225)"  d="M232.60455 55.91089C 233.3641 55.91089 234.01248 56.179443 234.54962 56.716568L234.54962 56.716568L234.54962 56.716568C 235.08673 57.253677 235.35529 57.902023 235.35529 58.661606L235.35529 58.661606L235.35529 58.661606C 235.35529 59.421204 235.08673 60.069565 234.54962 60.60666L234.54962 60.60666L234.54962 60.60666C 234.01248 61.143784 233.3641 61.41234 232.60455 61.41234L232.60455 61.41234L232.60455 61.41234C 231.84497 61.41234 231.1966 61.143784 230.65948 60.60666L230.65948 60.60666L230.65948 60.60666C 230.12238 60.069565 229.85382 59.421204 229.85382 58.661606L229.85382 58.661606L229.85382 58.661606C 229.85382 57.902023 230.12238 57.253677 230.65948 56.716568L230.65948 56.716568L230.65948 56.716568C 231.1966 56.179443 231.84497 55.91089 232.60455 55.91089" stroke="none" fill="#000037" fill-rule="evenodd" />
    <path id=""  transform="matrix(1 0 0 -1 0 225)"  d="M67.65631 120.9119C 80.31418 120.9119 91.11835 125.38714 100.06885 134.33762L100.06885 134.33762L100.06885 134.33762C 109.01932 143.28809 113.49457 154.0923 113.49457 166.75017L113.49457 166.75017L113.49457 166.75017C 113.49457 179.40807 109.01932 190.21225 100.06885 199.16272L100.06885 199.16272L100.06885 199.16272C 91.11835 208.11322 80.31418 212.58846 67.65631 212.58844L67.65631 212.58844L67.65631 212.58844C 54.998383 212.58846 44.194214 208.11322 35.243774 199.16272L35.243774 199.16272L35.243774 199.16272C 26.293274 190.21225 21.818054 179.40807 21.818054 166.75017L21.818054 166.75017L21.818054 166.75017C 21.818054 154.0923 26.293274 143.28809 35.243774 134.33762L35.243774 134.33762L35.243774 134.33762C 44.194214 125.38714 54.998383 120.9119 67.65631 120.9119" stroke="none" fill="#000000" fill-rule="evenodd" />
    <path id=""  transform="matrix(1 0 0 -1 0 225)"  d="M67.65631 132.17923C 77.20282 132.17923 85.35123 135.55441 92.101685 142.30482L92.101685 142.30482L92.101685 142.30482C 98.85205 149.05522 102.227234 157.20366 102.227234 166.75017L102.227234 166.75017L102.227234 166.75017C 102.227234 176.29668 98.85205 184.44514 92.101685 191.19553L92.101685 191.19553L92.101685 191.19553C 85.35123 197.94592 77.20282 201.32114 67.65631 201.32114L67.65631 201.32114L67.65631 201.32114C 58.109802 201.32114 49.961304 197.94592 43.210938 191.19553L43.210938 191.19553L43.210938 191.19553C 36.46057 184.44514 33.085358 176.29668 33.085358 166.75017L33.085358 166.75017L33.085358 166.75017C 33.085358 157.20366 36.46057 149.05522 43.210938 142.30482L43.210938 142.30482L43.210938 142.30482C 49.961304 135.55441 58.109802 132.17923 67.65631 132.17923" stroke="none" fill="#FFFFFF" fill-rule="evenodd" />
    <path id=""  transform="matrix(1 0 0 -1 0 225)"  d="M67.65631 136.98051C 75.87695 136.98051 82.89374 139.88695 88.706665 145.69984L88.706665 145.69984L88.706665 145.69984C 94.51953 151.51274 97.425964 158.52951 97.425964 166.75017L97.425964 166.75017L97.425964 166.75017C 97.425964 174.97086 94.51953 181.98761 88.706665 187.8005L88.706665 187.8005L88.706665 187.8005C 82.89374 193.61339 75.87695 196.51984 67.65631 196.51984L67.65631 196.51984L67.65631 196.51984C 59.43564 196.51984 52.418823 193.61339 46.605957 187.8005L46.605957 187.8005L46.605957 187.8005C 40.79309 181.98761 37.886658 174.97086 37.886658 166.75017L37.886658 166.75017L37.886658 166.75017C 37.886658 158.52951 40.79309 151.51274 46.605957 145.69984L46.605957 145.69984L46.605957 145.69984C 52.418823 139.88695 59.43564 136.98051 67.65631 136.98051" stroke="none" fill="#000037" fill-rule="evenodd" />
    <path id=""  transform="matrix(1 0 0 -1 0 225)"  d="M67.76776 150.5886C 76.57446 150.64929 83.71112 157.75023 83.81601 166.55653L83.81601 166.55653L83.81601 166.55653C 83.9209 175.36281 76.955414 182.63171 68.15265 182.90216L68.15265 182.90216L68.15265 182.90216C 59.349884 183.17259 51.951294 176.34499 51.51541 167.54884L51.51541 167.54884L51.51541 167.54884C 51.0795 158.75272 57.766815 151.22708 66.55322 150.6259" stroke="#FFFFFF" stroke-width="5.062837" stroke-linecap="square" stroke-dasharray="9.900581,9.900581" fill="none" />
    <path id=""  transform="matrix(1 0 0 -1 0 225)"  d="M67.65631 160.72644C 69.3197 160.72644 70.7395 161.31454 71.91574 162.49075L71.91574 162.49075L71.91574 162.49075C 73.09192 163.66696 73.68005 165.08676 73.68005 166.75017L73.68005 166.75017L73.68005 166.75017C 73.68005 168.41359 73.09192 169.83339 71.91574 171.0096L71.91574 171.0096L71.91574 171.0096C 70.7395 172.1858 69.3197 172.77391 67.65631 172.77391L67.65631 172.77391L67.65631 172.77391C 65.99289 172.77391 64.57309 172.1858 63.39688 171.0096L63.39688 171.0096L63.39688 171.0096C 62.220642 169.83339 61.63257 168.41359 61.63257 166.75017L61.63257 166.75017L61.63257 166.75017C 61.63257 165.08676 62.220642 163.66696 63.39688 162.49075L63.39688 162.49075L63.39688 162.49075C 64.57309 161.31454 65.99289 160.72644 67.65631 160.72644" stroke="none" fill="#FFFFFF" fill-rule="evenodd" />
    <path id=""  transform="matrix(1 0 0 -1 0 225)"  d="M67.65631 163.99945C 68.41586 163.99945 69.06424 164.268 69.60138 164.80513L69.60138 164.80513L69.60138 164.80513C 70.13849 165.34224 70.40704 165.99059 70.40704 166.75017L70.40704 166.75017L70.40704 166.75017C 70.40704 167.50977 70.13849 168.15813 69.60138 168.69522L69.60138 168.69522L69.60138 168.69522C 69.06424 169.23235 68.41586 169.5009 67.65631 169.5009L67.65631 169.5009L67.65631 169.5009C 66.89673 169.5009 66.24835 169.23235 65.71124 168.69522L65.71124 168.69522L65.71124 168.69522C 65.17413 168.15813 64.90558 167.50977 64.90558 166.75017L64.90558 166.75017L64.90558 166.75017C 64.90558 165.99059 65.17413 165.34224 65.71124 164.80513L65.71124 164.80513L65.71124 164.80513C 66.24835 164.268 66.89673 163.99945 67.65631 163.99945" stroke="none" fill="#000037" fill-rule="evenodd" />
    <path id=""  transform="matrix(1 0 0 -1 0 225)"  d="M67.65631 12.823341C 80.31418 12.823341 91.11835 17.298576 100.06885 26.249062L100.06885 26.249062L100.06885 26.249062C 109.01932 35.199524 113.49457 46.00374 113.49457 58.661606L113.49457 58.661606L113.49457 58.661606C 113.49457 71.3195 109.01932 82.12369 100.06885 91.07416L100.06885 91.07416L100.06885 91.07416C 91.11835 100.02466 80.31418 104.49989 67.65631 104.49988L67.65631 104.49988L67.65631 104.49988C 54.998383 104.49989 44.194214 100.02466 35.243774 91.07416L35.243774 91.07416L35.243774 91.07416C 26.293274 82.12369 21.818054 71.3195 21.818054 58.661606L21.818054 58.661606L21.818054 58.661606C 21.818054 46.00374 26.293274 35.199524 35.243774 26.249062L35.243774 26.249062L35.243774 26.249062C 44.194214 17.298576 54.998383 12.823341 67.65631 12.823341" stroke="none" fill="#000000" fill-rule="evenodd" />
    <path id=""  transform="matrix(1 0 0 -1 0 225)"  d="M67.65631 24.09066C 77.20282 24.09066 85.35123 27.465858 92.101685 34.216263L92.101685 34.216263L92.101685 34.216263C 98.85205 40.96666 102.227234 49.115097 102.227234 58.661606L102.227234 58.661606L102.227234 58.661606C 102.227234 68.208115 98.85205 76.35658 92.101685 83.106964L92.101685 83.106964L92.101685 83.106964C 85.35123 89.85736 77.20282 93.232574 67.65631 93.232574L67.65631 93.232574L67.65631 93.232574C 58.109802 93.232574 49.961304 89.85736 43.210938 83.106964L43.210938 83.106964L43.210938 83.106964C 36.46057 76.35658 33.085358 68.208115 33.085358 58.661606L33.085358 58.661606L33.085358 58.661606C 33.085358 49.115097 36.46057 40.96666 43.210938 34.216263L43.210938 34.216263L43.210938 34.216263C 49.961304 27.465858 58.109802 24.09066 67.65631 24.09066" stroke="none" fill="#FFFFFF" fill-rule="evenodd" />
    <path id=""  transform="matrix(1 0 0 -1 0 225)"  d="M67.65631 28.891953C 75.87695 28.891953 82.89374 31.798386 88.706665 37.611282L88.706665 37.611282L88.706665 37.611282C 94.51953 43.42418 97.425964 50.44095 97.425964 58.661606L97.425964 58.661606L97.425964 58.661606C 97.425964 66.88229 94.51953 73.89905 88.706665 79.711945L88.706665 79.711945L88.706665 79.711945C 82.89374 85.524826 75.87695 88.431274 67.65631 88.431274L67.65631 88.431274L67.65631 88.431274C 59.43564 88.431274 52.418823 85.524826 46.605957 79.711945L46.605957 79.711945L46.605957 79.711945C 40.79309 73.89905 37.886658 66.88229 37.886658 58.661606L37.886658 58.661606L37.886658 58.661606C 37.886658 50.44095 40.79309 43.42418 46.605957 37.611282L46.605957 37.611282L46.605957 37.611282C 52.418823 31.798386 59.43564 28.891953 67.65631 28.891953" stroke="none" fill="#000037" fill-rule="evenodd" />
    <path id=""  transform="matrix(1 0 0 -1 0 225)"  d="M67.76776 42.50003C 76.57446 42.56073 83.71112 49.661667 83.81601 58.46797L83.81601 58.46797L83.81601 58.46797C 83.9209 67.27425 76.955414 74.54315 68.15265 74.8136L68.15265 74.8136L68.15265 74.8136C 59.349884 75.08403 51.951294 68.256424 51.51541 59.46028L51.51541 59.46028L51.51541 59.46028C 51.0795 50.664154 57.766815 43.13852 66.55322 42.53734" stroke="#FFFFFF" stroke-width="5.062837" stroke-linecap="square" stroke-dasharray="9.900581,9.900581" fill="none" />
    <path id=""  transform="matrix(1 0 0 -1 0 225)"  d="M67.65631 52.63788C 69.3197 52.63788 70.7395 53.225983 71.91574 54.40219L71.91574 54.40219L71.91574 54.40219C 73.09192 55.5784 73.68005 56.9982 73.68005 58.661606L73.68005 58.661606L73.68005 58.661606C 73.68005 60.325027 73.09192 61.744827 71.91574 62.921036L71.91574 62.921036L71.91574 62.921036C 70.7395 64.097244 69.3197 64.68535 67.65631 64.68535L67.65631 64.68535L67.65631 64.68535C 65.99289 64.68535 64.57309 64.097244 63.39688 62.921036L63.39688 62.921036L63.39688 62.921036C 62.220642 61.744827 61.63257 60.325027 61.63257 58.661606L61.63257 58.661606L61.63257 58.661606C 61.63257 56.9982 62.220642 55.5784 63.39688 54.40219L63.39688 54.40219L63.39688 54.40219C 64.57309 53.225983 65.99289 52.63788 67.65631 52.63788" stroke="none" fill="#FFFFFF" fill-rule="evenodd" />
    <path id=""  transform="matrix(1 0 0 -1 0 225)"  d="M67.65631 55.91089C 68.41586 55.91089 69.06424 56.179443 69.60138 56.716568L69.60138 56.716568L69.60138 56.716568C 70.13849 57.253677 70.40704 57.902023 70.40704 58.661606L70.40704 58.661606L70.40704 58.661606C 70.40704 59.421204 70.13849 60.069565 69.60138 60.60666L69.60138 60.60666L69.60138 60.60666C 69.06424 61.143784 68.41586 61.41234 67.65631 61.41234L67.65631 61.41234L67.65631 61.41234C 66.89673 61.41234 66.24835 61.143784 65.71124 60.60666L65.71124 60.60666L65.71124 60.60666C 65.17413 60.069565 64.90558 59.421204 64.90558 58.661606L64.90558 58.661606L64.90558 58.661606C 64.90558 57.902023 65.17413 57.253677 65.71124 56.716568L65.71124 56.716568L65.71124 56.716568C 66.24835 56.179443 66.89673 55.91089 67.65631 55.91089" stroke="none" fill="#000037" fill-rule="evenodd" />
    <path id=""  transform="matrix(1 0 0 -1 0 225)"  d="M149.49207 66.67597C 162.14993 66.67597 172.9541 71.15121 181.9046 80.10169L181.9046 80.10169L181.9046 80.10169C 190.85507 89.052155 195.33032 99.85637 195.33032 112.51424L195.33032 112.51424L195.33032 112.51424C 195.33032 125.172134 190.85507 135.97632 181.9046 144.92679L181.9046 144.92679L181.9046 144.92679C 172.9541 153.87729 162.14993 158.35252 149.49207 158.35251L149.49207 158.35251L149.49207 158.35251C 136.83414 158.35252 126.02997 153.87729 117.07953 144.92679L117.07953 144.92679L117.07953 144.92679C 108.12903 135.97632 103.65381 125.172134 103.65381 112.51424L103.65381 112.51424L103.65381 112.51424C 103.65381 99.85637 108.12903 89.052155 117.07953 80.10169L117.07953 80.10169L117.07953 80.10169C 126.02997 71.15121 136.83414 66.67597 149.49207 66.67597" stroke="none" fill="#000000" fill-rule="evenodd" />
    <path id=""  transform="matrix(1 0 0 -1 0 225)"  d="M149.49207 77.94329C 159.03857 77.94329 167.18698 81.31849 173.93744 88.06889L173.93744 88.06889L173.93744 88.06889C 180.6878 94.81929 184.06299 102.96773 184.06299 112.51424L184.06299 112.51424L184.06299 112.51424C 184.06299 122.060745 180.6878 130.20921 173.93744 136.9596L173.93744 136.9596L173.93744 136.9596C 167.18698 143.70999 159.03857 147.0852 149.49207 147.0852L149.49207 147.0852L149.49207 147.0852C 139.94556 147.0852 131.79706 143.70999 125.04669 136.9596L125.04669 136.9596L125.04669 136.9596C 118.296326 130.20921 114.92111 122.060745 114.92111 112.51424L114.92111 112.51424L114.92111 112.51424C 114.92111 102.96773 118.296326 94.81929 125.04669 88.06889L125.04669 88.06889L125.04669 88.06889C 131.79706 81.31849 139.94556 77.94329 149.49207 77.94329" stroke="none" fill="#FFFFFF" fill-rule="evenodd" />
    <path id=""  transform="matrix(1 0 0 -1 0 225)"  d="M149.49207 82.74458C 157.7127 82.74458 164.72949 85.65102 170.54242 91.46391L170.54242 91.46391L170.54242 91.46391C 176.35529 97.27681 179.26172 104.29358 179.26172 112.51424L179.26172 112.51424L179.26172 112.51424C 179.26172 120.734924 176.35529 127.75168 170.54242 133.56458L170.54242 133.56458L170.54242 133.56458C 164.72949 139.37746 157.7127 142.2839 149.49207 142.2839L149.49207 142.2839L149.49207 142.2839C 141.2714 142.2839 134.25458 139.37746 128.44171 133.56458L128.44171 133.56458L128.44171 133.56458C 122.628845 127.75168 119.72241 120.734924 119.72241 112.51424L119.72241 112.51424L119.72241 112.51424C 119.72241 104.29358 122.628845 97.27681 128.44171 91.46391L128.44171 91.46391L128.44171 91.46391C 134.25458 85.65102 141.2714 82.74458 149.49207 82.74458" stroke="none" fill="#B93C3C" fill-rule="evenodd" />
    <path id=""  transform="matrix(1 0 0 -1 0 225)"  d="M149.60352 96.35266C 158.41022 96.41336 165.54688 103.5143 165.65176 112.3206L165.65176 112.3206L165.65176 112.3206C 165.75665 121.12688 158.79117 128.39578 149.9884 128.66623L149.9884 128.66623L149.9884 128.66623C 141.18564 128.93666 133.78705 122.109055 133.35117 113.31291L133.35117 113.31291L133.35117 113.31291C 132.91525 104.516785 139.60257 96.99115 148.38898 96.38997" stroke="#FFFFFF" stroke-width="5.062837" stroke-linecap="square" stroke-dasharray="9.900581,9.900581" fill="none" />
    <path id=""  transform="matrix(1 0 0 -1 0 225)"  d="M149.49207 106.49051C 151.15546 106.49051 152.57526 107.07861 153.7515 108.25482L153.7515 108.25482L153.7515 108.25482C 154.92767 109.43103 155.51581 110.85083 155.51581 112.51424L155.51581 112.51424L155.51581 112.51424C 155.51581 114.17766 154.92767 115.59746 153.7515 116.77367L153.7515 116.77367L153.7515 116.77367C 152.57526 117.949875 151.15546 118.53798 149.49207 118.53798L149.49207 118.53798L149.49207 118.53798C 147.82864 118.53798 146.40884 117.949875 145.23264 116.77367L145.23264 116.77367L145.23264 116.77367C 144.0564 115.59746 143.46832 114.17766 143.46832 112.51424L143.46832 112.51424L143.46832 112.51424C 143.46832 110.85083 144.0564 109.43103 145.23264 108.25482L145.23264 108.25482L145.23264 108.25482C 146.40884 107.07861 147.82864 106.49051 149.49207 106.49051" stroke="none" fill="#FFFFFF" fill-rule="evenodd" />
    <path id=""  transform="matrix(1 0 0 -1 0 225)"  d="M149.49207 109.76352C 150.25162 109.76352 150.9 110.032074 151.43713 110.5692L151.43713 110.5692L151.43713 110.5692C 151.97424 111.10631 152.2428 111.754654 152.2428 112.51424L152.2428 112.51424L152.2428 112.51424C 152.2428 113.273834 151.97424 113.922195 151.43713 114.45929L151.43713 114.45929L151.43713 114.45929C 150.9 114.996414 150.25162 115.26497 149.49207 115.26497L149.49207 115.26497L149.49207 115.26497C 148.73248 115.26497 148.0841 114.996414 147.547 114.45929L147.547 114.45929L147.547 114.45929C 147.00989 113.922195 146.74133 113.273834 146.74133 112.51424L146.74133 112.51424L146.74133 112.51424C 146.74133 111.754654 147.00989 111.10631 147.547 110.5692L147.547 110.5692L147.547 110.5692C 148.0841 110.032074 148.73248 109.76352 149.49207 109.76352" stroke="none" fill="#B93C3C" fill-rule="evenodd" />
	</g>
</g>
</svg>