<?xml version="1.0" standalone="no"?>
<!DOCTYPE svg PUBLIC "-//W3C//DTD SVG 1.0//EN" "http://www.w3.org/TR/2001/REC-SVG-20010904/DTD/svg10.dtd">
<svg xmlns="http://www.w3.org/2000/svg" xmlns:xlink="http://www.w3.org/1999/xlink" id="body_1" width="400" height="300">

<defs>
    <clipPath  id="1">

    <path id=""  clip-rule="evenodd" transform="matrix(1 0 0 1 0 0)"  d="M0 0L300 0L300 0L300 225L300 225L1.3777277E-14 225L1.3777277E-14 225L0 0z" />    </clipPath>
</defs>

<g transform="matrix(1.3333 0 0 1.3333 0 0)">
	<g clip-path="url(#1)" >
    <path id=""  transform="matrix(1 0 0 -1 0 225)"  d="M244.4411 103.820595C 257.09894 103.82059 267.90314 108.29583 276.85364 117.246315L276.85364 117.246315L276.85364 117.246315C 285.8041 126.19679 290.27936 137.00098 290.27936 149.65887L290.27936 149.65887L290.27936 149.65887C 290.27936 162.31674 285.8041 173.12094 276.85364 182.07141L276.85364 182.07141L276.85364 182.07141C 267.90314 191.0219 257.09894 195.49713 244.4411 195.49713L244.4411 195.49713L244.4411 195.49713C 231.7832 195.49713 220.979 191.0219 212.02856 182.07141L212.02856 182.07141L212.02856 182.07141C 203.07806 173.12094 198.60284 162.31674 198.60284 149.65887L198.60284 149.65887L198.60284 149.65887C 198.60284 137.00098 203.07806 126.19679 212.02856 117.246315L212.02856 117.246315L212.02856 117.246315C 220.979 108.29583 231.7832 103.82059 244.4411 103.820595" stroke="none" fill="#000000" fill-rule="evenodd" />
    <path id=""  transform="matrix(1 0 0 -1 0 225)"  d="M55.67755 103.73537C 68.33539 103.73537 79.13959 108.2106 88.09009 117.16109L88.09009 117.16109L88.09009 117.16109C 97.04059 126.111565 101.51581 136.91574 101.51581 149.57364L101.51581 149.57364L101.51581 149.57364C 101.51581 162.23152 97.04059 173.0357 88.09009 181.98619L88.09009 181.98619L88.09009 181.98619C 79.13959 190.93668 68.33539 195.41191 55.67755 195.41191L55.67755 195.41191L55.67755 195.41191C 43.019653 195.41191 32.215515 190.93668 23.265015 181.98619L23.265015 181.98619L23.265015 181.98619C 14.314514 173.0357 9.839233 162.23152 9.839294 149.57364L9.839294 149.57364L9.839294 149.57364C 9.839233 136.91574 14.314514 126.111565 23.265015 117.16109L23.265015 117.16109L23.265015 117.16109C 32.215515 108.2106 43.019653 103.73537 55.67755 103.73537" stroke="none" fill="#000000" fill-rule="evenodd" />
    <path id=""  transform="matrix(1 0 0 -1 0 225)"  d="M55.67755 29.538208C 68.33539 29.538193 79.13959 34.013443 88.09009 42.96393L88.09009 42.96393L88.09009 42.96393C 97.04059 51.914413 101.51581 62.718582 101.51581 75.37648L101.51581 75.37648L101.51581 75.37648C 101.51581 88.03436 97.04059 98.83855 88.09009 107.78903L88.09009 107.78903L88.09009 107.78903C 79.13959 116.73951 68.33539 121.21475 55.67755 121.21475L55.67755 121.21475L55.67755 121.21475C 43.019653 121.21475 32.215515 116.73951 23.265015 107.78903L23.265015 107.78903L23.265015 107.78903C 14.314514 98.83855 9.839233 88.03436 9.839294 75.37648L9.839294 75.37648L9.839294 75.37648C 9.839233 62.718582 14.314514 51.914413 23.265015 42.96393L23.265015 42.96393L23.265015 42.96393C 32.215515 34.013443 43.019653 29.538193 55.67755 29.538208" stroke="none" fill="#000000" fill-rule="evenodd" />
    <path id=""  transform="matrix(1 0 0 -1 0 225)"  d="M121.17334 29.538208C 133.83124 29.538193 144.63538 34.013443 153.58588 42.96393L153.58588 42.96393L153.58588 42.96393C 162.53632 51.914413 167.01154 62.718582 167.0116 75.37648L167.0116 75.37648L167.0116 75.37648C 167.01154 88.03436 162.53632 98.83855 153.58588 107.78903L153.58588 107.78903L153.58588 107.78903C 144.63538 116.73951 133.83124 121.21475 121.17334 121.21475L121.17334 121.21475L121.17334 121.21475C 108.51544 121.21475 97.71124 116.73951 88.7608 107.78903L88.7608 107.78903L88.7608 107.78903C 79.8103 98.83855 75.33502 88.03436 75.33508 75.37648L75.33508 75.37648L75.33508 75.37648C 75.33502 62.718582 79.8103 51.914413 88.7608 42.96393L88.7608 42.96393L88.7608 42.96393C 97.71124 34.013443 108.51544 29.538193 121.17334 29.538208" stroke="none" fill="#000000" fill-rule="evenodd" />
    <path id=""  transform="matrix(1 0 0 -1 0 225)"  d="M121.17334 103.73537C 133.83124 103.73537 144.63538 108.2106 153.58588 117.16109L153.58588 117.16109L153.58588 117.16109C 162.53632 126.111565 167.01154 136.91574 167.0116 149.57364L167.0116 149.57364L167.0116 149.57364C 167.01154 162.23152 162.53632 173.0357 153.58588 181.98619L153.58588 181.98619L153.58588 181.98619C 144.63538 190.93668 133.83124 195.41191 121.17334 195.41191L121.17334 195.41191L121.17334 195.41191C 108.51544 195.41191 97.71124 190.93668 88.7608 181.98619L88.7608 181.98619L88.7608 181.98619C 79.8103 173.0357 75.33502 162.23152 75.33508 149.57364L75.33508 149.57364L75.33508 149.57364C 75.33502 136.91574 79.8103 126.111565 88.7608 117.16109L88.7608 117.16109L88.7608 117.16109C 97.71124 108.2106 108.51544 103.73537 121.17334 103.73537" stroke="none" fill="#000000" fill-rule="evenodd" />
    <path id=""  transform="matrix(1 0 0 -1 0 225)"  d="M121.17334 115.002686C 130.71979 115.002686 138.86829 118.377884 145.61871 125.12828L145.61871 125.12828L145.61871 125.12828C 152.36908 131.87868 155.74432 140.02713 155.74432 149.57364L155.74432 149.57364L155.74432 149.57364C 155.74432 159.12015 152.36908 167.2686 145.61871 174.019L145.61871 174.019L145.61871 174.019C 138.86829 180.7694 130.71979 184.14459 121.17334 184.14459L121.17334 184.14459L121.17334 184.14459C 111.62677 184.14459 103.47833 180.7694 96.72797 174.019L96.72797 174.019L96.72797 174.019C 89.97754 167.2686 86.602356 159.12015 86.602356 149.57364L86.602356 149.57364L86.602356 149.57364C 86.602356 140.02713 89.97754 131.87868 96.72797 125.12828L96.72797 125.12828L96.72797 125.12828C 103.47833 118.377884 111.62677 115.002686 121.17334 115.002686" stroke="none" fill="#FFFFFF" fill-rule="evenodd" />
    <path id=""  transform="matrix(1 0 0 -1 0 225)"  d="M121.17334 119.80397C 129.39398 119.80397 136.41077 122.71042 142.2237 128.52332L142.2237 128.52332L142.2237 128.52332C 148.03656 134.3362 150.94293 141.35297 150.943 149.57364L150.943 149.57364L150.943 149.57364C 150.94293 157.79431 148.03656 164.81108 142.2237 170.62396L142.2237 170.62396L142.2237 170.62396C 136.41077 176.43686 129.39398 179.3433 121.17334 179.3433L121.17334 179.3433L121.17334 179.3433C 112.9527 179.3433 105.93585 176.43686 100.122986 170.62396L100.122986 170.62396L100.122986 170.62396C 94.31012 164.81108 91.403625 157.79431 91.40369 149.57364L91.40369 149.57364L91.40369 149.57364C 91.403625 141.35297 94.31012 134.3362 100.122986 128.52332L100.122986 128.52332L100.122986 128.52332C 105.93585 122.71042 112.9527 119.80397 121.17334 119.80397" stroke="none" fill="#B93C3C" fill-rule="evenodd" />
    <path id=""  transform="matrix(1 0 0 -1 0 225)"  d="M121.28485 133.41206C 130.09149 133.47278 137.22815 140.5737 137.33301 149.38L137.33301 149.38L137.33301 149.38C 137.43793 158.18628 130.47247 165.45518 121.66968 165.72563L121.66968 165.72563L121.66968 165.72563C 112.86694 165.99605 105.468445 159.16843 105.03247 150.37231L105.03247 150.37231L105.03247 150.37231C 104.59662 141.57619 111.283936 134.05055 120.07031 133.44937" stroke="#FFFFFF" stroke-width="5.0628366" stroke-linecap="square" stroke-dasharray="10.12567,10.12567" fill="none" />
    <path id=""  transform="matrix(1 0 0 -1 0 225)"  d="M121.17334 143.5499C 122.83673 143.5499 124.25653 144.138 125.43274 145.31421L125.43274 145.31421L125.43274 145.31421C 126.60895 146.49042 127.19708 147.91023 127.19708 149.57364L127.19708 149.57364L127.19708 149.57364C 127.19708 151.23705 126.60895 152.65685 125.43274 153.83307L125.43274 153.83307L125.43274 153.83307C 124.25653 155.00926 122.83673 155.59737 121.17334 155.59738L121.17334 155.59738L121.17334 155.59738C 119.50995 155.59737 118.09015 155.00926 116.91394 153.83307L116.91394 153.83307L116.91394 153.83307C 115.73773 152.65685 115.1496 151.23705 115.1496 149.57364L115.1496 149.57364L115.1496 149.57364C 115.1496 147.91023 115.73773 146.49042 116.91394 145.31421L116.91394 145.31421L116.91394 145.31421C 118.09015 144.138 119.50995 143.5499 121.17334 143.5499" stroke="none" fill="#FFFFFF" fill-rule="evenodd" />
    <path id=""  transform="matrix(1 0 0 -1 0 225)"  d="M121.17334 146.82292C 121.93292 146.82292 122.5813 147.09148 123.11841 147.62859L123.11841 147.62859L123.11841 147.62859C 123.65552 148.1657 123.92407 148.81406 123.92407 149.57364L123.92407 149.57364L123.92407 149.57364C 123.92407 150.33322 123.65552 150.98157 123.11841 151.51869L123.11841 151.51869L123.11841 151.51869C 122.5813 152.0558 121.93292 152.32436 121.17334 152.32436L121.17334 152.32436L121.17334 152.32436C 120.41376 152.32436 119.76538 152.0558 119.22827 151.51869L119.22827 151.51869L119.22827 151.51869C 118.69116 150.98157 118.42261 150.33322 118.42261 149.57364L118.42261 149.57364L118.42261 149.57364C 118.42261 148.81406 118.69116 148.1657 119.22827 147.62859L119.22827 147.62859L119.22827 147.62859C 119.76538 147.09148 120.41376 146.82292 121.17334 146.82292" stroke="none" fill="#B93C3C" fill-rule="evenodd" />
    <path id=""  transform="matrix(1 0 0 -1 0 225)"  d="M121.17334 40.805527C 130.71979 40.805527 138.86829 44.18071 145.61871 50.93112L145.61871 50.93112L145.61871 50.93112C 152.36908 57.681503 155.74432 65.82997 155.74432 75.37648L155.74432 75.37648L155.74432 75.37648C 155.74432 84.92299 152.36908 93.07143 145.61871 99.82184L145.61871 99.82184L145.61871 99.82184C 138.86829 106.57223 130.71979 109.947426 121.17334 109.94743L121.17334 109.94743L121.17334 109.94743C 111.62677 109.947426 103.47833 106.57223 96.72797 99.82184L96.72797 99.82184L96.72797 99.82184C 89.97754 93.07143 86.602356 84.92299 86.602356 75.37648L86.602356 75.37648L86.602356 75.37648C 86.602356 65.82997 89.97754 57.681503 96.72797 50.93112L96.72797 50.93112L96.72797 50.93112C 103.47833 44.18071 111.62677 40.805527 121.17334 40.805527" stroke="none" fill="#FFFFFF" fill-rule="evenodd" />
    <path id=""  transform="matrix(1 0 0 -1 0 225)"  d="M121.17334 45.60681C 129.39398 45.60681 136.41077 48.51326 142.2237 54.326157L142.2237 54.326157L142.2237 54.326157C 148.03656 60.139038 150.94293 67.15581 150.943 75.37648L150.943 75.37648L150.943 75.37648C 150.94293 83.59714 148.03656 90.61391 142.2237 96.4268L142.2237 96.4268L142.2237 96.4268C 136.41077 102.2397 129.39398 105.14615 121.17334 105.14615L121.17334 105.14615L121.17334 105.14615C 112.9527 105.14615 105.93585 102.2397 100.122986 96.4268L100.122986 96.4268L100.122986 96.4268C 94.31012 90.61391 91.403625 83.59714 91.40369 75.37648L91.40369 75.37648L91.40369 75.37648C 91.403625 67.15581 94.31012 60.139038 100.122986 54.326157L100.122986 54.326157L100.122986 54.326157C 105.93585 48.51326 112.9527 45.60681 121.17334 45.60681" stroke="none" fill="#B93C3C" fill-rule="evenodd" />
    <path id=""  transform="matrix(1 0 0 -1 0 225)"  d="M121.28485 59.214905C 130.09155 59.275604 137.22827 66.37656 137.33307 75.182846L137.33307 75.182846L137.33307 75.182846C 137.43787 83.989136 130.47241 91.25804 121.66974 91.52847L121.66974 91.52847L121.66974 91.52847C 112.86694 91.79889 105.46838 84.97127 105.03247 76.17517L105.03247 76.17517L105.03247 76.17517C 104.59656 67.37903 111.283936 59.85341 120.07031 59.252228" stroke="#FFFFFF" stroke-width="5.0628366" stroke-linecap="square" stroke-dasharray="10.12567,10.12567" fill="none" />
    <path id=""  transform="matrix(1 0 0 -1 0 225)"  d="M121.17334 69.35274C 122.83673 69.35274 124.25653 69.94084 125.43274 71.11705L125.43274 71.11705L125.43274 71.11705C 126.60895 72.29326 127.19708 73.71306 127.19708 75.37648L127.19708 75.37648L127.19708 75.37648C 127.19708 77.03989 126.60895 78.4597 125.43274 79.63591L125.43274 79.63591L125.43274 79.63591C 124.25653 80.81212 122.83673 81.40022 121.17334 81.40022L121.17334 81.40022L121.17334 81.40022C 119.50995 81.40022 118.09015 80.81212 116.91394 79.63591L116.91394 79.63591L116.91394 79.63591C 115.73773 78.4597 115.1496 77.03989 115.1496 75.37648L115.1496 75.37648L115.1496 75.37648C 115.1496 73.71306 115.73773 72.29326 116.91394 71.11705L116.91394 71.11705L116.91394 71.11705C 118.09015 69.94084 119.50995 69.35274 121.17334 69.35274" stroke="none" fill="#FFFFFF" fill-rule="evenodd" />
    <path id=""  transform="matrix(1 0 0 -1 0 225)"  d="M121.17334 72.62576C 121.93292 72.62576 122.5813 72.89432 123.11841 73.43143L123.11841 73.43143L123.11841 73.43143C 123.65552 73.96854 123.92407 74.61688 123.92407 75.37648L123.92407 75.37648L123.92407 75.37648C 123.92407 76.13606 123.65552 76.784424 123.11841 77.32153L123.11841 77.32153L123.11841 77.32153C 122.5813 77.85864 121.93292 78.1272 121.17334 78.1272L121.17334 78.1272L121.17334 78.1272C 120.41376 78.1272 119.76538 77.85864 119.22827 77.32153L119.22827 77.32153L119.22827 77.32153C 118.69116 76.784424 118.42261 76.13606 118.42261 75.37648L118.42261 75.37648L118.42261 75.37648C 118.42261 74.61688 118.69116 73.96854 119.22827 73.43143L119.22827 73.43143L119.22827 73.43143C 119.76538 72.89432 120.41376 72.62576 121.17334 72.62576" stroke="none" fill="#B93C3C" fill-rule="evenodd" />
    <path id=""  transform="matrix(1 0 0 -1 0 225)"  d="M55.67755 115.002686C 65.22406 115.002686 73.3725 118.377884 80.122925 125.12828L80.122925 125.12828L80.122925 125.12828C 86.87323 131.87868 90.248474 140.02713 90.248474 149.57364L90.248474 149.57364L90.248474 149.57364C 90.248474 159.12015 86.87323 167.2686 80.122925 174.019L80.122925 174.019L80.122925 174.019C 73.3725 180.7694 65.22406 184.14459 55.67755 184.14459L55.67755 184.14459L55.67755 184.14459C 46.131042 184.14459 37.982605 180.7694 31.232178 174.019L31.232178 174.019L31.232178 174.019C 24.481812 167.2686 21.106628 159.12015 21.106628 149.57364L21.106628 149.57364L21.106628 149.57364C 21.106628 140.02713 24.481812 131.87868 31.232178 125.12828L31.232178 125.12828L31.232178 125.12828C 37.982605 118.377884 46.131042 115.002686 55.67755 115.002686" stroke="none" fill="#FFFFFF" fill-rule="evenodd" />
    <path id=""  transform="matrix(1 0 0 -1 0 225)"  d="M55.67755 119.80397C 63.898193 119.80397 70.91498 122.71042 76.727905 128.52332L76.727905 128.52332L76.727905 128.52332C 82.54077 134.3362 85.447205 141.35297 85.447205 149.57364L85.447205 149.57364L85.447205 149.57364C 85.447205 157.79431 82.54077 164.81108 76.727905 170.62396L76.727905 170.62396L76.727905 170.62396C 70.91498 176.43686 63.898193 179.3433 55.67755 179.3433L55.67755 179.3433L55.67755 179.3433C 47.45685 179.3433 40.440063 176.43686 34.627197 170.62396L34.627197 170.62396L34.627197 170.62396C 28.81427 164.81108 25.907837 157.79431 25.907898 149.57364L25.907898 149.57364L25.907898 149.57364C 25.907837 141.35297 28.81427 134.3362 34.627197 128.52332L34.627197 128.52332L34.627197 128.52332C 40.440063 122.71042 47.45685 119.80397 55.67755 119.80397" stroke="none" fill="#B93C3C" fill-rule="evenodd" />
    <path id=""  transform="matrix(1 0 0 -1 0 225)"  d="M55.789062 133.41206C 64.595825 133.47278 71.73248 140.5737 71.83734 149.38L71.83734 149.38L71.83734 149.38C 71.94214 158.18628 64.97662 165.45517 56.17395 165.72563L56.17395 165.72563L56.17395 165.72563C 47.371094 165.9961 39.972534 159.16846 39.53662 150.37231L39.53662 150.37231L39.53662 150.37231C 39.10083 141.57617 45.788147 134.05055 54.574524 133.44937" stroke="#FFFFFF" stroke-width="5.0628366" stroke-linecap="square" stroke-dasharray="10.12567,10.12567" fill="none" />
    <path id=""  transform="matrix(1 0 0 -1 0 225)"  d="M55.67755 143.5499C 57.340942 143.5499 58.760742 144.138 59.93695 145.31421L59.93695 145.31421L59.93695 145.31421C 61.11316 146.49042 61.701294 147.91023 61.701294 149.57364L61.701294 149.57364L61.701294 149.57364C 61.701294 151.23705 61.11316 152.65685 59.93695 153.83307L59.93695 153.83307L59.93695 153.83307C 58.760742 155.00926 57.340942 155.59737 55.67755 155.59738L55.67755 155.59738L55.67755 155.59738C 54.0141 155.59737 52.5943 155.00926 51.41815 153.83307L51.41815 153.83307L51.41815 153.83307C 50.241882 152.65685 49.653748 151.23705 49.65381 149.57364L49.65381 149.57364L49.65381 149.57364C 49.653748 147.91023 50.241882 146.49042 51.41815 145.31421L51.41815 145.31421L51.41815 145.31421C 52.5943 144.138 54.0141 143.5499 55.67755 143.5499" stroke="none" fill="#FFFFFF" fill-rule="evenodd" />
    <path id=""  transform="matrix(1 0 0 -1 0 225)"  d="M55.67755 146.82292C 56.437134 146.82292 57.08551 147.09148 57.62262 147.62859L57.62262 147.62859L57.62262 147.62859C 58.15973 148.1657 58.428284 148.81406 58.428284 149.57364L58.428284 149.57364L58.428284 149.57364C 58.428284 150.33322 58.15973 150.98157 57.62262 151.51869L57.62262 151.51869L57.62262 151.51869C 57.08551 152.0558 56.437134 152.32436 55.67755 152.32436L55.67755 152.32436L55.67755 152.32436C 54.917908 152.32436 54.269592 152.0558 53.732483 151.51869L53.732483 151.51869L53.732483 151.51869C 53.195374 150.98157 52.92682 150.33322 52.92682 149.57364L52.92682 149.57364L52.92682 149.57364C 52.92682 148.81406 53.195374 148.1657 53.732483 147.62859L53.732483 147.62859L53.732483 147.62859C 54.269592 147.09148 54.917908 146.82292 55.67755 146.82292" stroke="none" fill="#B93C3C" fill-rule="evenodd" />
    <path id=""  transform="matrix(1 0 0 -1 0 225)"  d="M55.67755 40.805527C 65.22406 40.805527 73.3725 44.18071 80.122925 50.93112L80.122925 50.93112L80.122925 50.93112C 86.87323 57.681503 90.248474 65.82997 90.248474 75.37648L90.248474 75.37648L90.248474 75.37648C 90.248474 84.92299 86.87323 93.07143 80.122925 99.82184L80.122925 99.82184L80.122925 99.82184C 73.3725 106.57223 65.22406 109.947426 55.67755 109.94743L55.67755 109.94743L55.67755 109.94743C 46.131042 109.947426 37.982605 106.57223 31.232178 99.82184L31.232178 99.82184L31.232178 99.82184C 24.481812 93.07143 21.106628 84.92299 21.106628 75.37648L21.106628 75.37648L21.106628 75.37648C 21.106628 65.82997 24.481812 57.681503 31.232178 50.93112L31.232178 50.93112L31.232178 50.93112C 37.982605 44.18071 46.131042 40.805527 55.67755 40.805527" stroke="none" fill="#FFFFFF" fill-rule="evenodd" />
    <path id=""  transform="matrix(1 0 0 -1 0 225)"  d="M55.67755 45.60681C 63.898193 45.60681 70.91498 48.51326 76.727905 54.326157L76.727905 54.326157L76.727905 54.326157C 82.54077 60.139038 85.447205 67.15581 85.447205 75.37648L85.447205 75.37648L85.447205 75.37648C 85.447205 83.59714 82.54077 90.61391 76.727905 96.4268L76.727905 96.4268L76.727905 96.4268C 70.91498 102.2397 63.898193 105.14615 55.67755 105.14615L55.67755 105.14615L55.67755 105.14615C 47.45685 105.14615 40.440063 102.2397 34.627197 96.4268L34.627197 96.4268L34.627197 96.4268C 28.81427 90.61391 25.907837 83.59714 25.907898 75.37648L25.907898 75.37648L25.907898 75.37648C 25.907837 67.15581 28.81427 60.139038 34.627197 54.326157L34.627197 54.326157L34.627197 54.326157C 40.440063 48.51326 47.45685 45.60681 55.67755 45.60681" stroke="none" fill="#B93C3C" fill-rule="evenodd" />
    <path id=""  transform="matrix(1 0 0 -1 0 225)"  d="M55.789 59.21492C 64.5957 59.275604 71.73242 66.37654 71.83734 75.18283L71.83734 75.18283L71.83734 75.18283C 71.9422 83.98912 64.976746 91.258026 56.17395 91.52847L56.17395 91.52847L56.17395 91.52847C 47.371216 91.79889 39.972656 84.97128 39.536804 76.175156L39.536804 76.175156L39.536804 76.175156C 39.10083 67.37906 45.788086 59.85344 54.574524 59.252213" stroke="#FFFFFF" stroke-width="5.0628366" stroke-linecap="square" stroke-dasharray="10.12567,10.12567" fill="none" />
    <path id=""  transform="matrix(1 0 0 -1 0 225)"  d="M55.67755 69.35274C 57.340942 69.35274 58.760742 69.94084 59.93695 71.11705L59.93695 71.11705L59.93695 71.11705C 61.11316 72.29326 61.701294 73.71306 61.701294 75.37648L61.701294 75.37648L61.701294 75.37648C 61.701294 77.03989 61.11316 78.4597 59.93695 79.63591L59.93695 79.63591L59.93695 79.63591C 58.760742 80.81212 57.340942 81.40022 55.67755 81.40022L55.67755 81.40022L55.67755 81.40022C 54.0141 81.40022 52.5943 80.81212 51.41815 79.63591L51.41815 79.63591L51.41815 79.63591C 50.241882 78.4597 49.653748 77.03989 49.65381 75.37648L49.65381 75.37648L49.65381 75.37648C 49.653748 73.71306 50.241882 72.29326 51.41815 71.11705L51.41815 71.11705L51.41815 71.11705C 52.5943 69.94084 54.0141 69.35274 55.67755 69.35274" stroke="none" fill="#FFFFFF" fill-rule="evenodd" />
    <path id=""  transform="matrix(1 0 0 -1 0 225)"  d="M55.67755 72.62576C 56.437134 72.62576 57.08551 72.89432 57.62262 73.43143L57.62262 73.43143L57.62262 73.43143C 58.15973 73.96854 58.428284 74.61688 58.428284 75.37648L58.428284 75.37648L58.428284 75.37648C 58.428284 76.13606 58.15973 76.784424 57.62262 77.32153L57.62262 77.32153L57.62262 77.32153C 57.08551 77.85864 56.437134 78.1272 55.67755 78.1272L55.67755 78.1272L55.67755 78.1272C 54.917908 78.1272 54.269592 77.85864 53.732483 77.32153L53.732483 77.32153L53.732483 77.32153C 53.195374 76.784424 52.92682 76.13606 52.92682 75.37648L52.92682 75.37648L52.92682 75.37648C 52.92682 74.61688 53.195374 73.96854 53.732483 73.43143L53.732483 73.43143L53.732483 73.43143C 54.269592 72.89432 54.917908 72.62576 55.67755 72.62576" stroke="none" fill="#B93C3C" fill-rule="evenodd" />
    <path id=""  transform="matrix(1 0 0 -1 0 225)"  d="M244.4411 29.441803C 257.09894 29.441788 267.90314 33.917038 276.85364 42.867523L276.85364 42.867523L276.85364 42.867523C 285.8041 51.81801 290.27936 62.622177 290.27936 75.280075L290.27936 75.280075L290.27936 75.280075C 290.27936 87.93796 285.8041 98.74214 276.85364 107.69263L276.85364 107.69263L276.85364 107.69263C 267.90314 116.643105 257.09894 121.11835 244.4411 121.11835L244.4411 121.11835L244.4411 121.11835C 231.7832 121.11835 220.979 116.643105 212.02856 107.69263L212.02856 107.69263L212.02856 107.69263C 203.07806 98.74214 198.60284 87.93796 198.60284 75.280075L198.60284 75.280075L198.60284 75.280075C 198.60284 62.622177 203.07806 51.81801 212.02856 42.867523L212.02856 42.867523L212.02856 42.867523C 220.979 33.917038 231.7832 29.441788 244.4411 29.441803" stroke="none" fill="#000000" fill-rule="evenodd" />
    <path id=""  transform="matrix(1 0 0 -1 0 225)"  d="M244.4411 40.70912C 253.98761 40.70912 262.13605 44.084305 268.88647 50.834717L268.88647 50.834717L268.88647 50.834717C 275.63684 57.5851 279.01202 65.73357 279.01202 75.280075L279.01202 75.280075L279.01202 75.280075C 279.01202 84.826584 275.63684 92.97502 268.88647 99.72543L268.88647 99.72543L268.88647 99.72543C 262.13605 106.47582 253.98761 109.85102 244.4411 109.85103L244.4411 109.85103L244.4411 109.85103C 234.89459 109.85102 226.74615 106.47582 219.99573 99.72543L219.99573 99.72543L219.99573 99.72543C 213.2453 92.97502 209.87018 84.826584 209.87018 75.280075L209.87018 75.280075L209.87018 75.280075C 209.87018 65.73357 213.2453 57.5851 219.99573 50.834717L219.99573 50.834717L219.99573 50.834717C 226.74615 44.084305 234.89459 40.70912 244.4411 40.70912" stroke="none" fill="#FFFFFF" fill-rule="evenodd" />
    <path id=""  transform="matrix(1 0 0 -1 0 225)"  d="M244.4411 45.510406C 252.66174 45.510406 259.67853 48.416855 265.49146 54.22975L265.49146 54.22975L265.49146 54.22975C 271.30432 60.042633 274.21075 67.0594 274.21075 75.280075L274.21075 75.280075L274.21075 75.280075C 274.21075 83.50073 271.30432 90.5175 265.49146 96.3304L265.49146 96.3304L265.49146 96.3304C 259.67853 102.143295 252.66174 105.04974 244.4411 105.04974L244.4411 105.04974L244.4411 105.04974C 236.2204 105.04974 229.20367 102.143295 223.39075 96.3304L223.39075 96.3304L223.39075 96.3304C 217.57788 90.5175 214.67145 83.50073 214.67145 75.280075L214.67145 75.280075L214.67145 75.280075C 214.67145 67.0594 217.57788 60.042633 223.39075 54.22975L223.39075 54.22975L223.39075 54.22975C 229.20367 48.416855 236.2204 45.510406 244.4411 45.510406" stroke="none" fill="#000037" fill-rule="evenodd" />
    <path id=""  transform="matrix(1 0 0 -1 0 225)"  d="M244.55255 59.1185C 253.35919 59.1792 260.49585 66.28012 260.6007 75.08641L260.6007 75.08641L260.6007 75.08641C 260.70563 83.892715 253.74017 91.161606 244.93738 91.43205L244.93738 91.43205L244.93738 91.43205C 236.13464 91.70247 228.73608 84.87485 228.30017 76.078735L228.30017 76.078735L228.30017 76.078735C 227.86432 67.28261 234.5517 59.756973 243.33801 59.155807" stroke="#FFFFFF" stroke-width="5.0628366" stroke-linecap="square" stroke-dasharray="10.12567,10.12567" fill="none" />
    <path id=""  transform="matrix(1 0 0 -1 0 225)"  d="M244.4411 69.25633C 246.10449 69.25633 247.52429 69.84444 248.7005 71.020645L248.7005 71.020645L248.7005 71.020645C 249.87671 72.19685 250.46478 73.61665 250.46484 75.280075L250.46484 75.280075L250.46484 75.280075C 250.46478 76.94348 249.87671 78.3633 248.7005 79.539505L248.7005 79.539505L248.7005 79.539505C 247.52429 80.71571 246.10449 81.30382 244.4411 81.30382L244.4411 81.30382L244.4411 81.30382C 242.77765 81.30382 241.35785 80.71571 240.1817 79.539505L240.1817 79.539505L240.1817 79.539505C 239.00543 78.3633 238.41736 76.94348 238.41736 75.280075L238.41736 75.280075L238.41736 75.280075C 238.41736 73.61665 239.00543 72.19685 240.1817 71.020645L240.1817 71.020645L240.1817 71.020645C 241.35785 69.84444 242.77765 69.25633 244.4411 69.25633" stroke="none" fill="#FFFFFF" fill-rule="evenodd" />
    <path id=""  transform="matrix(1 0 0 -1 0 225)"  d="M244.4411 72.52936C 245.20068 72.52936 245.84906 72.79791 246.38617 73.33502L246.38617 73.33502L246.38617 73.33502C 246.92328 73.87213 247.19183 74.52048 247.19183 75.280075L247.19183 75.280075L247.19183 75.280075C 247.19183 76.03966 246.92328 76.68802 246.38617 77.22513L246.38617 77.22513L246.38617 77.22513C 245.84906 77.76224 245.20068 78.03079 244.4411 78.03079L244.4411 78.03079L244.4411 78.03079C 243.68146 78.03079 243.03314 77.76224 242.49603 77.22513L242.49603 77.22513L242.49603 77.22513C 241.95892 76.68802 241.69037 76.03966 241.69037 75.280075L241.69037 75.280075L241.69037 75.280075C 241.69037 74.52048 241.95892 73.87213 242.49603 73.33502L242.49603 73.33502L242.49603 73.33502C 243.03314 72.79791 243.68146 72.52936 244.4411 72.52936" stroke="none" fill="#000037" fill-rule="evenodd" />
    <path id=""  transform="matrix(1 0 0 -1 0 225)"  d="M244.4411 115.08791C 253.98761 115.087906 262.13605 118.463104 268.88647 125.21352L268.88647 125.21352L268.88647 125.21352C 275.63684 131.96391 279.01202 140.11237 279.01202 149.65887L279.01202 149.65887L279.01202 149.65887C 279.01202 159.20537 275.63684 167.35382 268.88647 174.10422L268.88647 174.10422L268.88647 174.10422C 262.13605 180.85461 253.98761 184.22983 244.4411 184.22983L244.4411 184.22983L244.4411 184.22983C 234.89459 184.22983 226.74615 180.85461 219.99573 174.10422L219.99573 174.10422L219.99573 174.10422C 213.2453 167.35382 209.87018 159.20537 209.87018 149.65887L209.87018 149.65887L209.87018 149.65887C 209.87018 140.11237 213.2453 131.96391 219.99573 125.21352L219.99573 125.21352L219.99573 125.21352C 226.74615 118.463104 234.89459 115.087906 244.4411 115.08791" stroke="none" fill="#FFFFFF" fill-rule="evenodd" />
    <path id=""  transform="matrix(1 0 0 -1 0 225)"  d="M244.4411 119.889206C 252.66174 119.889206 259.67853 122.79565 265.49146 128.60854L265.49146 128.60854L265.49146 128.60854C 271.30432 134.42142 274.21075 141.4382 274.21075 149.65887L274.21075 149.65887L274.21075 149.65887C 274.21075 157.87953 271.30432 164.8963 265.49146 170.7092L265.49146 170.7092L265.49146 170.7092C 259.67853 176.5221 252.66174 179.42853 244.4411 179.42853L244.4411 179.42853L244.4411 179.42853C 236.2204 179.42853 229.20367 176.5221 223.39075 170.7092L223.39075 170.7092L223.39075 170.7092C 217.57788 164.8963 214.67145 157.87953 214.67145 149.65887L214.67145 149.65887L214.67145 149.65887C 214.67145 141.4382 217.57788 134.42142 223.39075 128.60854L223.39075 128.60854L223.39075 128.60854C 229.20367 122.79565 236.2204 119.889206 244.4411 119.889206" stroke="none" fill="#000037" fill-rule="evenodd" />
    <path id=""  transform="matrix(1 0 0 -1 0 225)"  d="M244.55261 133.49728C 253.35925 133.55797 260.49597 140.6589 260.6009 149.46521L260.6009 149.46521L260.6009 149.46521C 260.7058 158.27148 253.7403 165.54039 244.9375 165.81085L244.9375 165.81085L244.9375 165.81085C 236.13483 166.08127 228.73627 159.25365 228.30035 150.45753L228.30035 150.45753L228.30035 150.45753C 227.86444 141.66139 234.55176 134.13577 243.33813 133.5346" stroke="#FFFFFF" stroke-width="5.0628366" stroke-linecap="square" stroke-dasharray="10.12567,10.12567" fill="none" />
    <path id=""  transform="matrix(1 0 0 -1 0 225)"  d="M244.4411 143.63513C 246.10449 143.63513 247.52429 144.22324 248.7005 145.39944L248.7005 145.39944L248.7005 145.39944C 249.87671 146.57565 250.46478 147.99545 250.46484 149.65887L250.46484 149.65887L250.46484 149.65887C 250.46478 151.32227 249.87671 152.74208 248.7005 153.91829L248.7005 153.91829L248.7005 153.91829C 247.52429 155.0945 246.10449 155.6826 244.4411 155.6826L244.4411 155.6826L244.4411 155.6826C 242.77765 155.6826 241.35785 155.0945 240.1817 153.91829L240.1817 153.91829L240.1817 153.91829C 239.00543 152.74208 238.41736 151.32227 238.41736 149.65887L238.41736 149.65887L238.41736 149.65887C 238.41736 147.99545 239.00543 146.57565 240.1817 145.39944L240.1817 145.39944L240.1817 145.39944C 241.35785 144.22324 242.77765 143.63513 244.4411 143.63513" stroke="none" fill="#FFFFFF" fill-rule="evenodd" />
    <path id=""  transform="matrix(1 0 0 -1 0 225)"  d="M244.4411 146.90814C 245.20068 146.90814 245.84906 147.1767 246.38617 147.7138L246.38617 147.7138L246.38617 147.7138C 246.92328 148.25093 247.19183 148.89928 247.19183 149.65887L247.19183 149.65887L247.19183 149.65887C 247.19183 150.41846 246.92328 151.0668 246.38617 151.60391L246.38617 151.60391L246.38617 151.60391C 245.84906 152.14102 245.20068 152.40958 244.4411 152.40958L244.4411 152.40958L244.4411 152.40958C 243.68146 152.40958 243.03314 152.14102 242.49603 151.60391L242.49603 151.60391L242.49603 151.60391C 241.95892 151.0668 241.69037 150.41846 241.69037 149.65887L241.69037 149.65887L241.69037 149.65887C 241.69037 148.89928 241.95892 148.25093 242.49603 147.7138L242.49603 147.7138L242.49603 147.7138C 243.03314 147.1767 243.68146 146.90814 244.4411 146.90814" stroke="none" fill="#000037" fill-rule="evenodd" />
	</g>
</g>
</svg>