<?xml version="1.0" standalone="no"?>
<!DOCTYPE svg PUBLIC "-//W3C//DTD SVG 1.0//EN" "http://www.w3.org/TR/2001/REC-SVG-20010904/DTD/svg10.dtd">
<svg xmlns="http://www.w3.org/2000/svg" xmlns:xlink="http://www.w3.org/1999/xlink" id="body_2" width="400" height="300">

<defs>
    <clipPath  id="1">

    <path id=""  clip-rule="evenodd" transform="matrix(1 0 0 1 0 0)"  d="M0 0L300 0L300 0L300 225L300 225L1.3777277E-14 225L1.3777277E-14 225L0 0z" />    </clipPath>
</defs>

<g transform="matrix(1.3333 0 0 1.3333 0 0)">
	<g clip-path="url(#1)" >
    <path id=""  transform="matrix(1 0 0 -1 0 225)"  d="M48.140137 103.73537C 60.79785 103.73537 71.60205 108.2106 80.552734 117.16109L80.552734 117.16109L80.552734 117.16109C 89.503174 126.111565 93.978516 136.91574 93.978516 149.57364L93.978516 149.57364L93.978516 149.57364C 93.978516 162.23152 89.503174 173.0357 80.552734 181.98619L80.552734 181.98619L80.552734 181.98619C 71.60205 190.93668 60.79785 195.41191 48.140137 195.41191L48.140137 195.41191L48.140137 195.41191C 35.482178 195.41191 24.677979 190.93668 15.727539 181.98619L15.727539 181.98619L15.727539 181.98619C 6.7768555 173.0357 2.3017578 162.23152 2.3017578 149.57364L2.3017578 149.57364L2.3017578 149.57364C 2.3017578 136.91574 6.7768555 126.111565 15.727539 117.16109L15.727539 117.16109L15.727539 117.16109C 24.677979 108.2106 35.482178 103.73537 48.140137 103.73537" stroke="none" fill="#000000" fill-rule="evenodd" />
    <path id=""  transform="matrix(1 0 0 -1 0 225)"  d="M48.140137 29.538208C 60.79785 29.538193 71.60205 34.013443 80.552734 42.96393L80.552734 42.96393L80.552734 42.96393C 89.503174 51.914413 93.978516 62.718582 93.978516 75.37648L93.978516 75.37648L93.978516 75.37648C 93.978516 88.03436 89.503174 98.83855 80.552734 107.78903L80.552734 107.78903L80.552734 107.78903C 71.60205 116.73951 60.79785 121.21475 48.140137 121.21475L48.140137 121.21475L48.140137 121.21475C 35.482178 121.21475 24.677979 116.73951 15.727539 107.78903L15.727539 107.78903L15.727539 107.78903C 6.7768555 98.83855 2.3017578 88.03436 2.3017578 75.37648L2.3017578 75.37648L2.3017578 75.37648C 2.3017578 62.718582 6.7768555 51.914413 15.727539 42.96393L15.727539 42.96393L15.727539 42.96393C 24.677979 34.013443 35.482178 29.538193 48.140137 29.538208" stroke="none" fill="#000000" fill-rule="evenodd" />
    <path id=""  transform="matrix(1 0 0 -1 0 225)"  d="M113.63574 29.538208C 126.29346 29.538193 137.09766 34.013443 146.04834 42.96393L146.04834 42.96393L146.04834 42.96393C 154.99878 51.914413 159.47412 62.718582 159.47412 75.37648L159.47412 75.37648L159.47412 75.37648C 159.47412 88.03436 154.99878 98.83855 146.04834 107.78903L146.04834 107.78903L146.04834 107.78903C 137.09766 116.73951 126.29346 121.21475 113.63574 121.21475L113.63574 121.21475L113.63574 121.21475C 100.97778 121.21475 90.173584 116.73951 81.223145 107.78903L81.223145 107.78903L81.223145 107.78903C 72.27246 98.83855 67.79736 88.03436 67.79736 75.37648L67.79736 75.37648L67.79736 75.37648C 67.79736 62.718582 72.27246 51.914413 81.223145 42.96393L81.223145 42.96393L81.223145 42.96393C 90.173584 34.013443 100.97778 29.538193 113.63574 29.538208" stroke="none" fill="#000000" fill-rule="evenodd" />
    <path id=""  transform="matrix(1 0 0 -1 0 225)"  d="M175.55566 5.0167847C 188.21338 5.0167694 199.01758 9.49202 207.96826 18.442505L207.96826 18.442505L207.96826 18.442505C 216.9187 27.392975 221.39404 38.19716 221.39404 50.855057L221.39404 50.855057L221.39404 50.855057C 221.39404 63.51294 216.9187 74.31712 207.96826 83.26761L207.96826 83.26761L207.96826 83.26761C 199.01758 92.218094 188.21338 96.69333 175.55566 96.69333L175.55566 96.69333L175.55566 96.69333C 162.8977 96.69333 152.0935 92.218094 143.14307 83.26761L143.14307 83.26761L143.14307 83.26761C 134.19238 74.31712 129.71729 63.51294 129.71729 50.855057L129.71729 50.855057L129.71729 50.855057C 129.71729 38.19716 134.19238 27.392975 143.14307 18.442505L143.14307 18.442505L143.14307 18.442505C 152.0935 9.49202 162.8977 5.0167694 175.55566 5.0167847" stroke="none" fill="#000000" fill-rule="evenodd" />
    <path id=""  transform="matrix(1 0 0 -1 0 225)"  d="M213.77246 66.64243C 226.43033 66.64243 237.2345 71.11767 246.185 80.06815L246.185 80.06815L246.185 80.06815C 255.13547 89.018616 259.61072 99.82283 259.61072 112.4807L259.61072 112.4807L259.61072 112.4807C 259.61072 125.138596 255.13547 135.94278 246.185 144.89325L246.185 144.89325L246.185 144.89325C 237.2345 153.84375 226.43033 158.31898 213.77246 158.31897L213.77246 158.31897L213.77246 158.31897C 201.11453 158.31898 190.31036 153.84375 181.35992 144.89325L181.35992 144.89325L181.35992 144.89325C 172.40942 135.94278 167.9342 125.138596 167.9342 112.4807L167.9342 112.4807L167.9342 112.4807C 167.9342 99.82283 172.40942 89.018616 181.35992 80.06815L181.35992 80.06815L181.35992 80.06815C 190.31036 71.11767 201.11453 66.64243 213.77246 66.64243" stroke="none" fill="#000000" fill-rule="evenodd" />
    <path id=""  transform="matrix(1 0 0 -1 0 225)"  d="M213.77246 77.90975C 223.31897 77.90975 231.46738 81.28495 238.21783 88.035355L238.21783 88.035355L238.21783 88.035355C 244.9682 94.78575 248.34338 102.93419 248.34338 112.4807L248.34338 112.4807L248.34338 112.4807C 248.34338 122.02721 244.9682 130.17567 238.21783 136.92606L238.21783 136.92606L238.21783 136.92606C 231.46738 143.67645 223.31897 147.05167 213.77246 147.05167L213.77246 147.05167L213.77246 147.05167C 204.22595 147.05167 196.07745 143.67645 189.32709 136.92606L189.32709 136.92606L189.32709 136.92606C 182.57672 130.17567 179.2015 122.02721 179.2015 112.4807L179.2015 112.4807L179.2015 112.4807C 179.2015 102.93419 182.57672 94.78575 189.32709 88.035355L189.32709 88.035355L189.32709 88.035355C 196.07745 81.28495 204.22595 77.90975 213.77246 77.90975" stroke="none" fill="#FFFFFF" fill-rule="evenodd" />
    <path id=""  transform="matrix(1 0 0 -1 0 225)"  d="M213.77246 82.711044C 221.9931 82.711044 229.00989 85.61748 234.82281 91.430374L234.82281 91.430374L234.82281 91.430374C 240.63568 97.24327 243.54211 104.26004 243.54211 112.4807L243.54211 112.4807L243.54211 112.4807C 243.54211 120.701385 240.63568 127.71814 234.82281 133.53104L234.82281 133.53104L234.82281 133.53104C 229.00989 139.34392 221.9931 142.25037 213.77246 142.25037L213.77246 142.25037L213.77246 142.25037C 205.55179 142.25037 198.53497 139.34392 192.7221 133.53104L192.7221 133.53104L192.7221 133.53104C 186.90924 127.71814 184.0028 120.701385 184.0028 112.4807L184.0028 112.4807L184.0028 112.4807C 184.0028 104.26004 186.90924 97.24327 192.7221 91.430374L192.7221 91.430374L192.7221 91.430374C 198.53497 85.61748 205.55179 82.711044 213.77246 82.711044" stroke="none" fill="#000037" fill-rule="evenodd" />
    <path id=""  transform="matrix(1 0 0 -1 0 225)"  d="M213.88391 96.31912C 222.69061 96.37982 229.82727 103.48076 229.93216 112.28706L229.93216 112.28706L229.93216 112.28706C 230.03705 121.09334 223.07156 128.36224 214.2688 128.63269L214.2688 128.63269L214.2688 128.63269C 205.46603 128.90312 198.06744 122.075516 197.63156 113.27937L197.63156 113.27937L197.63156 113.27937C 197.19565 104.483246 203.88297 96.95761 212.66937 96.35643" stroke="#FFFFFF" stroke-width="5.062837" stroke-linecap="square" stroke-dasharray="9.900581,9.900581" fill="none" />
    <path id=""  transform="matrix(1 0 0 -1 0 225)"  d="M213.77246 106.45697C 215.43585 106.45697 216.85565 107.045074 218.03189 108.22128L218.03189 108.22128L218.03189 108.22128C 219.20807 109.39749 219.7962 110.81729 219.7962 112.4807L219.7962 112.4807L219.7962 112.4807C 219.7962 114.14412 219.20807 115.56392 218.03189 116.74013L218.03189 116.74013L218.03189 116.74013C 216.85565 117.916336 215.43585 118.50444 213.77246 118.50444L213.77246 118.50444L213.77246 118.50444C 212.10904 118.50444 210.68924 117.916336 209.51303 116.74013L209.51303 116.74013L209.51303 116.74013C 208.33679 115.56392 207.74872 114.14412 207.74872 112.4807L207.74872 112.4807L207.74872 112.4807C 207.74872 110.81729 208.33679 109.39749 209.51303 108.22128L209.51303 108.22128L209.51303 108.22128C 210.68924 107.045074 212.10904 106.45697 213.77246 106.45697" stroke="none" fill="#FFFFFF" fill-rule="evenodd" />
    <path id=""  transform="matrix(1 0 0 -1 0 225)"  d="M213.77246 109.72998C 214.53201 109.72998 215.18039 109.998535 215.71753 110.53566L215.71753 110.53566L215.71753 110.53566C 216.25464 111.07277 216.5232 111.721115 216.5232 112.4807L216.5232 112.4807L216.5232 112.4807C 216.5232 113.240295 216.25464 113.88866 215.71753 114.42575L215.71753 114.42575L215.71753 114.42575C 215.18039 114.962875 214.53201 115.23143 213.77246 115.23143L213.77246 115.23143L213.77246 115.23143C 213.01288 115.23143 212.3645 114.962875 211.8274 114.42575L211.8274 114.42575L211.8274 114.42575C 211.29028 113.88866 211.02173 113.240295 211.02173 112.4807L211.02173 112.4807L211.02173 112.4807C 211.02173 111.721115 211.29028 111.07277 211.8274 110.53566L211.8274 110.53566L211.8274 110.53566C 212.3645 109.998535 213.01288 109.72998 213.77246 109.72998" stroke="none" fill="#000037" fill-rule="evenodd" />
    <path id=""  transform="matrix(1 0 0 -1 0 225)"  d="M213.77246 66.64241C 226.43018 66.64241 237.23438 71.117645 246.18506 80.06813L246.18506 80.06813L246.18506 80.06813C 255.1355 89.0186 259.61084 99.822784 259.61084 112.48068L259.61084 112.48068L259.61084 112.48068C 259.61084 125.138565 255.1355 135.94275 246.18506 144.89323L246.18506 144.89323L246.18506 144.89323C 237.23438 153.84372 226.43018 158.31895 213.77246 158.31895L213.77246 158.31895L213.77246 158.31895C 201.1145 158.31895 190.3103 153.84372 181.35986 144.89323L181.35986 144.89323L181.35986 144.89323C 172.40918 135.94275 167.93408 125.138565 167.93408 112.48068L167.93408 112.48068L167.93408 112.48068C 167.93408 99.822784 172.40918 89.0186 181.35986 80.06813L181.35986 80.06813L181.35986 80.06813C 190.3103 71.117645 201.1145 66.64241 213.77246 66.64241" stroke="none" fill="#000000" fill-rule="evenodd" />
    <path id=""  transform="matrix(1 0 0 -1 0 225)"  d="M113.63574 103.73537C 126.29346 103.73537 137.09766 108.2106 146.04834 117.16109L146.04834 117.16109L146.04834 117.16109C 154.99878 126.111565 159.47412 136.91574 159.47412 149.57364L159.47412 149.57364L159.47412 149.57364C 159.47412 162.23152 154.99878 173.0357 146.04834 181.98619L146.04834 181.98619L146.04834 181.98619C 137.09766 190.93668 126.29346 195.41191 113.63574 195.41191L113.63574 195.41191L113.63574 195.41191C 100.97778 195.41191 90.173584 190.93668 81.223145 181.98619L81.223145 181.98619L81.223145 181.98619C 72.27246 173.0357 67.79736 162.23152 67.79736 149.57364L67.79736 149.57364L67.79736 149.57364C 67.79736 136.91574 72.27246 126.111565 81.223145 117.16109L81.223145 117.16109L81.223145 117.16109C 90.173584 108.2106 100.97778 103.73537 113.63574 103.73537" stroke="none" fill="#000000" fill-rule="evenodd" />
    <path id=""  transform="matrix(1 0 0 -1 0 225)"  d="M113.63574 115.002686C 123.18213 115.002686 131.33057 118.377884 138.08105 125.12828L138.08105 125.12828L138.08105 125.12828C 144.83154 131.87868 148.20654 140.02713 148.20679 149.57364L148.20679 149.57364L148.20679 149.57364C 148.20654 159.12015 144.83154 167.2686 138.08105 174.019L138.08105 174.019L138.08105 174.019C 131.33057 180.7694 123.18213 184.14459 113.63574 184.14459L113.63574 184.14459L113.63574 184.14459C 104.08911 184.14459 95.940674 180.7694 89.19043 174.019L89.19043 174.019L89.19043 174.019C 82.43994 167.2686 79.06445 159.12015 79.0647 149.57364L79.0647 149.57364L79.0647 149.57364C 79.06445 140.02713 82.43994 131.87868 89.19043 125.12828L89.19043 125.12828L89.19043 125.12828C 95.940674 118.377884 104.08911 115.002686 113.63574 115.002686" stroke="none" fill="#FFFFFF" fill-rule="evenodd" />
    <path id=""  transform="matrix(1 0 0 -1 0 225)"  d="M113.63574 119.80397C 121.856445 119.80397 128.87305 122.71042 134.68604 128.52332L134.68604 128.52332L134.68604 128.52332C 140.49902 134.3362 143.40552 141.35297 143.40552 149.57364L143.40552 149.57364L143.40552 149.57364C 143.40552 157.79431 140.49902 164.81108 134.68604 170.62396L134.68604 170.62396L134.68604 170.62396C 128.87305 176.43686 121.856445 179.3433 113.63574 179.3433L113.63574 179.3433L113.63574 179.3433C 105.41504 179.3433 98.39819 176.43686 92.58545 170.62396L92.58545 170.62396L92.58545 170.62396C 86.77246 164.81108 83.86597 157.79431 83.86597 149.57364L83.86597 149.57364L83.86597 149.57364C 83.86597 141.35297 86.77246 134.3362 92.58545 128.52332L92.58545 128.52332L92.58545 128.52332C 98.39819 122.71042 105.41504 119.80397 113.63574 119.80397" stroke="none" fill="#B93C3C" fill-rule="evenodd" />
    <path id=""  transform="matrix(1 0 0 -1 0 225)"  d="M113.74756 133.41208C 122.5542 133.47275 129.69092 140.57368 129.79565 149.38L129.79565 149.38L129.79565 149.38C 129.90063 158.18626 122.93506 165.45515 114.13257 165.72565L114.13257 165.72565L114.13257 165.72565C 105.32959 165.9961 97.93091 159.16846 97.49512 150.37231L97.49512 150.37231L97.49512 150.37231C 97.05908 141.57617 103.74658 134.05054 112.53296 133.44939" stroke="#FFFFFF" stroke-width="5.0628366" stroke-linecap="square" stroke-dasharray="10.12567,10.12567" fill="none" />
    <path id=""  transform="matrix(1 0 0 -1 0 225)"  d="M113.63574 143.5499C 115.29907 143.5499 116.718994 144.138 117.89526 145.31421L117.89526 145.31421L117.89526 145.31421C 119.07129 146.49042 119.659424 147.91023 119.659424 149.57364L119.659424 149.57364L119.659424 149.57364C 119.659424 151.23705 119.07129 152.65685 117.89526 153.83307L117.89526 153.83307L117.89526 153.83307C 116.718994 155.00926 115.29907 155.59737 113.63574 155.59738L113.63574 155.59738L113.63574 155.59738C 111.97217 155.59737 110.55249 155.00926 109.37622 153.83307L109.37622 153.83307L109.37622 153.83307C 108.200195 152.65685 107.61206 151.23705 107.61206 149.57364L107.61206 149.57364L107.61206 149.57364C 107.61206 147.91023 108.200195 146.49042 109.37622 145.31421L109.37622 145.31421L109.37622 145.31421C 110.55249 144.138 111.97217 143.5499 113.63574 143.5499" stroke="none" fill="#FFFFFF" fill-rule="evenodd" />
    <path id=""  transform="matrix(1 0 0 -1 0 225)"  d="M113.63574 146.82292C 114.39526 146.82292 115.0437 147.09148 115.58081 147.62859L115.58081 147.62859L115.58081 147.62859C 116.11792 148.1657 116.386475 148.81406 116.386475 149.57364L116.386475 149.57364L116.386475 149.57364C 116.386475 150.33322 116.11792 150.98157 115.58081 151.51869L115.58081 151.51869L115.58081 151.51869C 115.0437 152.0558 114.39526 152.32436 113.63574 152.32436L113.63574 152.32436L113.63574 152.32436C 112.87598 152.32436 112.22778 152.0558 111.690674 151.51869L111.690674 151.51869L111.690674 151.51869C 111.153564 150.98157 110.88501 150.33322 110.88501 149.57364L110.88501 149.57364L110.88501 149.57364C 110.88501 148.81406 111.153564 148.1657 111.690674 147.62859L111.690674 147.62859L111.690674 147.62859C 112.22778 147.09148 112.87598 146.82292 113.63574 146.82292" stroke="none" fill="#B93C3C" fill-rule="evenodd" />
    <path id=""  transform="matrix(1 0 0 -1 0 225)"  d="M252.02246 128.31853C 264.68018 128.31853 275.48438 132.79376 284.43506 141.74425L284.43506 141.74425L284.43506 141.74425C 293.3855 150.69473 297.86084 161.4989 297.86084 174.1568L297.86084 174.1568L297.86084 174.1568C 297.86084 186.8147 293.3855 197.61887 284.43506 206.56935L284.43506 206.56935L284.43506 206.56935C 275.48438 215.51984 264.68018 219.99507 252.02246 219.99507L252.02246 219.99507L252.02246 219.99507C 239.3645 219.99507 228.5603 215.51984 219.60986 206.56935L219.60986 206.56935L219.60986 206.56935C 210.65918 197.61887 206.18408 186.8147 206.18408 174.1568L206.18408 174.1568L206.18408 174.1568C 206.18408 161.4989 210.65918 150.69473 219.60986 141.74425L219.60986 141.74425L219.60986 141.74425C 228.5603 132.79376 239.3645 128.31853 252.02246 128.31853" stroke="none" fill="#000000" fill-rule="evenodd" />
    <path id=""  transform="matrix(1 0 0 -1 0 225)"  d="M252.02246 139.58585C 261.56885 139.58585 269.7173 142.96104 276.46777 149.71144L276.46777 149.71144L276.46777 149.71144C 283.21826 156.46184 286.59326 164.61029 286.5935 174.1568L286.5935 174.1568L286.5935 174.1568C 286.59326 183.70331 283.21826 191.85176 276.46777 198.60216L276.46777 198.60216L276.46777 198.60216C 269.7173 205.35255 261.56885 208.72775 252.02246 208.72775L252.02246 208.72775L252.02246 208.72775C 242.47583 208.72775 234.3274 205.35255 227.57715 198.60216L227.57715 198.60216L227.57715 198.60216C 220.82666 191.85176 217.45117 183.70331 217.45142 174.1568L217.45142 174.1568L217.45142 174.1568C 217.45117 164.61029 220.82666 156.46184 227.57715 149.71144L227.57715 149.71144L227.57715 149.71144C 234.3274 142.96104 242.47583 139.58585 252.02246 139.58585" stroke="none" fill="#FFFFFF" fill-rule="evenodd" />
    <path id=""  transform="matrix(1 0 0 -1 0 225)"  d="M252.02246 144.38713C 260.24316 144.38713 267.25977 147.29358 273.07275 153.10648L273.07275 153.10648L273.07275 153.10648C 278.88574 158.91934 281.79224 165.93613 281.79224 174.1568L281.79224 174.1568L281.79224 174.1568C 281.79224 182.37747 278.88574 189.39424 273.07275 195.20712L273.07275 195.20712L273.07275 195.20712C 267.25977 201.02002 260.24316 203.92647 252.02246 203.92647L252.02246 203.92647L252.02246 203.92647C 243.80176 203.92647 236.78491 201.02002 230.97217 195.20712L230.97217 195.20712L230.97217 195.20712C 225.15918 189.39424 222.25269 182.37747 222.25269 174.1568L222.25269 174.1568L222.25269 174.1568C 222.25269 165.93613 225.15918 158.91934 230.97217 153.10648L230.97217 153.10648L230.97217 153.10648C 236.78491 147.29358 243.80176 144.38713 252.02246 144.38713" stroke="none" fill="#000037" fill-rule="evenodd" />
    <path id=""  transform="matrix(1 0 0 -1 0 225)"  d="M252.13403 157.99522C 260.94067 158.05591 268.07764 165.15685 268.18237 173.96315L268.18237 173.96315L268.18237 173.96315C 268.28735 182.7695 261.32153 190.03844 252.5188 190.30878L252.5188 190.30878L252.5188 190.30878C 243.71582 190.57924 236.31738 183.75162 235.88159 174.95547L235.88159 174.95547L235.88159 174.95547C 235.44556 166.15932 242.13281 158.63368 250.91919 158.03253" stroke="#FFFFFF" stroke-width="5.0628366" stroke-linecap="square" stroke-dasharray="10.12567,10.12567" fill="none" />
    <path id=""  transform="matrix(1 0 0 -1 0 225)"  d="M252.02246 168.13306C 253.68579 168.13306 255.10571 168.72116 256.28198 169.89737L256.28198 169.89737L256.28198 169.89737C 257.458 171.07358 258.04614 172.49338 258.04614 174.1568L258.04614 174.1568L258.04614 174.1568C 258.04614 175.8202 257.458 177.24002 256.28198 178.41623L256.28198 178.41623L256.28198 178.41623C 255.10571 179.59244 253.68579 180.18054 252.02246 180.18054L252.02246 180.18054L252.02246 180.18054C 250.35889 180.18054 248.93921 179.59244 247.76294 178.41623L247.76294 178.41623L247.76294 178.41623C 246.58691 177.24002 245.99878 175.8202 245.99878 174.1568L245.99878 174.1568L245.99878 174.1568C 245.99878 172.49338 246.58691 171.07358 247.76294 169.89737L247.76294 169.89737L247.76294 169.89737C 248.93921 168.72116 250.35889 168.13306 252.02246 168.13306" stroke="none" fill="#FFFFFF" fill-rule="evenodd" />
    <path id=""  transform="matrix(1 0 0 -1 0 225)"  d="M252.02246 171.40608C 252.78198 171.40608 253.43042 171.67464 253.96753 172.21175L253.96753 172.21175L253.96753 172.21175C 254.50464 172.74886 254.7732 173.39722 254.7732 174.1568L254.7732 174.1568L254.7732 174.1568C 254.7732 174.91638 254.50464 175.56474 253.96753 176.10185L253.96753 176.10185L253.96753 176.10185C 253.43042 176.63896 252.78198 176.90752 252.02246 176.90752L252.02246 176.90752L252.02246 176.90752C 251.2627 176.90752 250.6145 176.63896 250.0774 176.10185L250.0774 176.10185L250.0774 176.10185C 249.54028 175.56474 249.27173 174.91638 249.27173 174.1568L249.27173 174.1568L249.27173 174.1568C 249.27173 173.39722 249.54028 172.74886 250.0774 172.21175L250.0774 172.21175L250.0774 172.21175C 250.6145 171.67464 251.2627 171.40608 252.02246 171.40608" stroke="none" fill="#000037" fill-rule="evenodd" />
    <path id=""  transform="matrix(1 0 0 -1 0 225)"  d="M213.77246 77.90973C 223.31885 77.90973 231.46729 81.28493 238.21777 88.035324L238.21777 88.035324L238.21777 88.035324C 244.96826 94.78572 248.34326 102.93417 248.3435 112.48068L248.3435 112.48068L248.3435 112.48068C 248.34326 122.027176 244.96826 130.17563 238.21777 136.92604L238.21777 136.92604L238.21777 136.92604C 231.46729 143.67644 223.31885 147.05164 213.77246 147.05164L213.77246 147.05164L213.77246 147.05164C 204.22583 147.05164 196.0774 143.67644 189.32715 136.92604L189.32715 136.92604L189.32715 136.92604C 182.57666 130.17563 179.20117 122.027176 179.20142 112.48068L179.20142 112.48068L179.20142 112.48068C 179.20117 102.93417 182.57666 94.78572 189.32715 88.035324L189.32715 88.035324L189.32715 88.035324C 196.0774 81.28493 204.22583 77.90973 213.77246 77.90973" stroke="none" fill="#FFFFFF" fill-rule="evenodd" />
    <path id=""  transform="matrix(1 0 0 -1 0 225)"  d="M213.77246 82.71101C 221.99316 82.71101 229.00977 85.61745 234.82275 91.43034L234.82275 91.43034L234.82275 91.43034C 240.63574 97.24323 243.54224 104.26001 243.54224 112.48068L243.54224 112.48068L243.54224 112.48068C 243.54224 120.70134 240.63574 127.718124 234.82275 133.531L234.82275 133.531L234.82275 133.531C 229.00977 139.3439 221.99316 142.25035 213.77246 142.25035L213.77246 142.25035L213.77246 142.25035C 205.55176 142.25035 198.53491 139.3439 192.72217 133.531L192.72217 133.531L192.72217 133.531C 186.90918 127.718124 184.00269 120.70134 184.00269 112.48068L184.00269 112.48068L184.00269 112.48068C 184.00269 104.26001 186.90918 97.24323 192.72217 91.43034L192.72217 91.43034L192.72217 91.43034C 198.53491 85.61745 205.55176 82.71101 213.77246 82.71101" stroke="none" fill="#000037" fill-rule="evenodd" />
    <path id=""  transform="matrix(1 0 0 -1 0 225)"  d="M213.88403 96.31911C 222.69092 96.37979 229.82764 103.480736 229.93237 112.28704L229.93237 112.28704L229.93237 112.28704C 230.03711 121.093315 223.07153 128.3622 214.26904 128.63268L214.26904 128.63268L214.26904 128.63268C 205.46631 128.90314 198.06763 122.07551 197.63184 113.27936L197.63184 113.27936L197.63184 113.27936C 197.1958 104.483215 203.88306 96.957565 212.66968 96.35643" stroke="#FFFFFF" stroke-width="5.0628366" stroke-linecap="square" stroke-dasharray="10.12567,10.12567" fill="none" />
    <path id=""  transform="matrix(1 0 0 -1 0 225)"  d="M213.77246 106.45695C 215.43579 106.45694 216.85571 107.045044 218.03198 108.22126L218.03198 108.22126L218.03198 108.22126C 219.20801 109.39746 219.79614 110.817276 219.79614 112.48068L219.79614 112.48068L219.79614 112.48068C 219.79614 114.14409 219.20801 115.56389 218.03198 116.740105L218.03198 116.740105L218.03198 116.740105C 216.85571 117.916306 215.43579 118.50441 213.77246 118.50442L213.77246 118.50442L213.77246 118.50442C 212.10889 118.50441 210.68921 117.916306 209.51294 116.740105L209.51294 116.740105L209.51294 116.740105C 208.33691 115.56389 207.74878 114.14409 207.74878 112.48068L207.74878 112.48068L207.74878 112.48068C 207.74878 110.817276 208.33691 109.39746 209.51294 108.22126L209.51294 108.22126L209.51294 108.22126C 210.68921 107.045044 212.10889 106.45694 213.77246 106.45695" stroke="none" fill="#FFFFFF" fill-rule="evenodd" />
    <path id=""  transform="matrix(1 0 0 -1 0 225)"  d="M213.77246 109.729965C 214.53198 109.729965 215.18042 109.99852 215.71753 110.53563L215.71753 110.53563L215.71753 110.53563C 216.25464 111.07274 216.5232 111.721085 216.5232 112.48068L216.5232 112.48068L216.5232 112.48068C 216.5232 113.240265 216.25464 113.88862 215.71753 114.425735L215.71753 114.425735L215.71753 114.425735C 215.18042 114.96284 214.53198 115.23139 213.77246 115.2314L213.77246 115.2314L213.77246 115.2314C 213.0127 115.23139 212.3645 114.96284 211.8274 114.425735L211.8274 114.425735L211.8274 114.425735C 211.29028 113.88862 211.02173 113.240265 211.02173 112.48068L211.02173 112.48068L211.02173 112.48068C 211.02173 111.721085 211.29028 111.07274 211.8274 110.53563L211.8274 110.53563L211.8274 110.53563C 212.3645 109.99852 213.0127 109.729965 213.77246 109.729965" stroke="none" fill="#000037" fill-rule="evenodd" />
    <path id=""  transform="matrix(1 0 0 -1 0 225)"  d="M175.55566 16.284103C 185.10205 16.284103 193.25049 19.659302 200.00098 26.409698L200.00098 26.409698L200.00098 26.409698C 206.75146 33.160095 210.12671 41.308548 210.12671 50.855057L210.12671 50.855057L210.12671 50.855057C 210.12671 60.401566 206.75146 68.55002 200.00098 75.300415L200.00098 75.300415L200.00098 75.300415C 193.25049 82.05081 185.10205 85.42601 175.55566 85.42601L175.55566 85.42601L175.55566 85.42601C 166.00903 85.42601 157.8606 82.05081 151.11035 75.300415L151.11035 75.300415L151.11035 75.300415C 144.35986 68.55002 140.98462 60.401566 140.98462 50.855057L140.98462 50.855057L140.98462 50.855057C 140.98462 41.308548 144.35986 33.160095 151.11035 26.409698L151.11035 26.409698L151.11035 26.409698C 157.8606 19.659302 166.00903 16.284103 175.55566 16.284103" stroke="none" fill="#FFFFFF" fill-rule="evenodd" />
    <path id=""  transform="matrix(1 0 0 -1 0 225)"  d="M175.55566 21.085388C 183.77637 21.085373 190.79297 23.991837 196.60596 29.804733L196.60596 29.804733L196.60596 29.804733C 202.41895 35.617615 205.3252 42.634384 205.32544 50.855057L205.32544 50.855057L205.32544 50.855057C 205.3252 59.075714 202.41895 66.09248 196.60596 71.90538L196.60596 71.90538L196.60596 71.90538C 190.79297 77.71828 183.77637 80.624725 175.55566 80.624725L175.55566 80.624725L175.55566 80.624725C 167.33496 80.624725 160.31812 77.71828 154.50537 71.90538L154.50537 71.90538L154.50537 71.90538C 148.69238 66.09248 145.78589 59.075714 145.78589 50.855057L145.78589 50.855057L145.78589 50.855057C 145.78589 42.634384 148.69238 35.617615 154.50537 29.804733L154.50537 29.804733L154.50537 29.804733C 160.31812 23.991837 167.33496 21.085373 175.55566 21.085388" stroke="none" fill="#000037" fill-rule="evenodd" />
    <path id=""  transform="matrix(1 0 0 -1 0 225)"  d="M175.66724 34.69348C 184.47412 34.754166 191.61084 41.855103 191.71558 50.661392L191.71558 50.661392L191.71558 50.661392C 191.82031 59.46768 184.85474 66.73656 176.05225 67.007034L176.05225 67.007034L176.05225 67.007034C 167.24951 67.27748 159.85059 60.44986 159.4148 51.653717L159.4148 51.653717L159.4148 51.653717C 158.97876 42.857544 165.66626 35.331924 174.45288 34.730774" stroke="#FFFFFF" stroke-width="5.0628366" stroke-linecap="square" stroke-dasharray="10.12567,10.12567" fill="none" />
    <path id=""  transform="matrix(1 0 0 -1 0 225)"  d="M175.55566 44.831314C 177.219 44.831314 178.63867 45.41942 179.81519 46.595627L179.81519 46.595627L179.81519 46.595627C 180.99121 47.771835 181.57935 49.191635 181.57935 50.855057L181.57935 50.855057L181.57935 50.855057C 181.57935 52.518463 180.99121 53.93828 179.81519 55.114487L179.81519 55.114487L179.81519 55.114487C 178.63867 56.290695 177.219 56.8788 175.55566 56.8788L175.55566 56.8788L175.55566 56.8788C 173.89209 56.8788 172.47241 56.290695 171.29614 55.114487L171.29614 55.114487L171.29614 55.114487C 170.11987 53.93828 169.53174 52.518463 169.53198 50.855057L169.53198 50.855057L169.53198 50.855057C 169.53174 49.191635 170.11987 47.771835 171.29614 46.595627L171.29614 46.595627L171.29614 46.595627C 172.47241 45.41942 173.89209 44.831314 175.55566 44.831314" stroke="none" fill="#FFFFFF" fill-rule="evenodd" />
    <path id=""  transform="matrix(1 0 0 -1 0 225)"  d="M175.55566 48.10434C 176.31519 48.104324 176.96338 48.37288 177.50073 48.910004L177.50073 48.910004L177.50073 48.910004C 178.0376 49.447098 178.30615 50.09546 178.3064 50.855057L178.3064 50.855057L178.3064 50.855057C 178.30615 51.61464 178.0376 52.263 177.50073 52.80011L177.50073 52.80011L177.50073 52.80011C 176.96338 53.33722 176.31519 53.605774 175.55566 53.605774L175.55566 53.605774L175.55566 53.605774C 174.7959 53.605774 174.1477 53.33722 173.6106 52.80011L173.6106 52.80011L173.6106 52.80011C 173.07349 52.263 172.80493 51.61464 172.80493 50.855057L172.80493 50.855057L172.80493 50.855057C 172.80493 50.09546 173.07349 49.447098 173.6106 48.910004L173.6106 48.910004L173.6106 48.910004C 174.1477 48.37288 174.7959 48.104324 175.55566 48.10434" stroke="none" fill="#000037" fill-rule="evenodd" />
    <path id=""  transform="matrix(1 0 0 -1 0 225)"  d="M113.63574 40.805527C 123.18213 40.805527 131.33057 44.18071 138.08105 50.93112L138.08105 50.93112L138.08105 50.93112C 144.83154 57.681503 148.20654 65.82997 148.20679 75.37648L148.20679 75.37648L148.20679 75.37648C 148.20654 84.92299 144.83154 93.07143 138.08105 99.82184L138.08105 99.82184L138.08105 99.82184C 131.33057 106.57223 123.18213 109.947426 113.63574 109.94743L113.63574 109.94743L113.63574 109.94743C 104.08911 109.947426 95.940674 106.57223 89.19043 99.82184L89.19043 99.82184L89.19043 99.82184C 82.43994 93.07143 79.06445 84.92299 79.0647 75.37648L79.0647 75.37648L79.0647 75.37648C 79.06445 65.82997 82.43994 57.681503 89.19043 50.93112L89.19043 50.93112L89.19043 50.93112C 95.940674 44.18071 104.08911 40.805527 113.63574 40.805527" stroke="none" fill="#FFFFFF" fill-rule="evenodd" />
    <path id=""  transform="matrix(1 0 0 -1 0 225)"  d="M113.63574 45.60681C 121.856445 45.60681 128.87305 48.51326 134.68604 54.326157L134.68604 54.326157L134.68604 54.326157C 140.49902 60.139038 143.40552 67.15581 143.40552 75.37648L143.40552 75.37648L143.40552 75.37648C 143.40552 83.59714 140.49902 90.61391 134.68604 96.4268L134.68604 96.4268L134.68604 96.4268C 128.87305 102.2397 121.856445 105.14615 113.63574 105.14615L113.63574 105.14615L113.63574 105.14615C 105.41504 105.14615 98.39819 102.2397 92.58545 96.4268L92.58545 96.4268L92.58545 96.4268C 86.77246 90.61391 83.86597 83.59714 83.86597 75.37648L83.86597 75.37648L83.86597 75.37648C 83.86597 67.15581 86.77246 60.139038 92.58545 54.326157L92.58545 54.326157L92.58545 54.326157C 98.39819 48.51326 105.41504 45.60681 113.63574 45.60681" stroke="none" fill="#B93C3C" fill-rule="evenodd" />
    <path id=""  transform="matrix(1 0 0 -1 0 225)"  d="M113.74756 59.214905C 122.5542 59.275574 129.69092 66.376526 129.79565 75.18283L129.79565 75.18283L129.79565 75.18283C 129.90063 83.98918 122.93506 91.2581 114.132324 91.52847L114.132324 91.52847L114.132324 91.52847C 105.32959 91.79892 97.930664 84.9713 97.49487 76.175156L97.49487 76.175156L97.49487 76.175156C 97.05884 67.379 103.74634 59.853363 112.53296 59.252228" stroke="#FFFFFF" stroke-width="5.0628366" stroke-linecap="square" stroke-dasharray="10.12567,10.12567" fill="none" />
    <path id=""  transform="matrix(1 0 0 -1 0 225)"  d="M113.63574 69.35274C 115.29907 69.35274 116.718994 69.94084 117.89526 71.11705L117.89526 71.11705L117.89526 71.11705C 119.07129 72.29326 119.659424 73.71306 119.659424 75.37648L119.659424 75.37648L119.659424 75.37648C 119.659424 77.03989 119.07129 78.4597 117.89526 79.63591L117.89526 79.63591L117.89526 79.63591C 116.718994 80.81212 115.29907 81.40022 113.63574 81.40022L113.63574 81.40022L113.63574 81.40022C 111.97217 81.40022 110.55249 80.81212 109.37622 79.63591L109.37622 79.63591L109.37622 79.63591C 108.200195 78.4597 107.61206 77.03989 107.61206 75.37648L107.61206 75.37648L107.61206 75.37648C 107.61206 73.71306 108.200195 72.29326 109.37622 71.11705L109.37622 71.11705L109.37622 71.11705C 110.55249 69.94084 111.97217 69.35274 113.63574 69.35274" stroke="none" fill="#FFFFFF" fill-rule="evenodd" />
    <path id=""  transform="matrix(1 0 0 -1 0 225)"  d="M113.63574 72.62576C 114.39526 72.62576 115.0437 72.89432 115.58081 73.43143L115.58081 73.43143L115.58081 73.43143C 116.11792 73.96854 116.386475 74.61688 116.386475 75.37648L116.386475 75.37648L116.386475 75.37648C 116.386475 76.13606 116.11792 76.784424 115.58081 77.32153L115.58081 77.32153L115.58081 77.32153C 115.0437 77.85864 114.39526 78.1272 113.63574 78.1272L113.63574 78.1272L113.63574 78.1272C 112.87598 78.1272 112.22778 77.85864 111.690674 77.32153L111.690674 77.32153L111.690674 77.32153C 111.153564 76.784424 110.88501 76.13606 110.88501 75.37648L110.88501 75.37648L110.88501 75.37648C 110.88501 74.61688 111.153564 73.96854 111.690674 73.43143L111.690674 73.43143L111.690674 73.43143C 112.22778 72.89432 112.87598 72.62576 113.63574 72.62576" stroke="none" fill="#B93C3C" fill-rule="evenodd" />
    <path id=""  transform="matrix(1 0 0 -1 0 225)"  d="M48.140137 115.002686C 57.686523 115.002686 65.83496 118.377884 72.58545 125.12828L72.58545 125.12828L72.58545 125.12828C 79.33594 131.87868 82.71118 140.02713 82.71118 149.57364L82.71118 149.57364L82.71118 149.57364C 82.71118 159.12015 79.33594 167.2686 72.58545 174.019L72.58545 174.019L72.58545 174.019C 65.83496 180.7694 57.686523 184.14459 48.140137 184.14459L48.140137 184.14459L48.140137 184.14459C 38.593506 184.14459 30.445068 180.7694 23.694824 174.019L23.694824 174.019L23.694824 174.019C 16.944336 167.2686 13.569092 159.12015 13.569092 149.57364L13.569092 149.57364L13.569092 149.57364C 13.569092 140.02713 16.944336 131.87868 23.694824 125.12828L23.694824 125.12828L23.694824 125.12828C 30.445068 118.377884 38.593506 115.002686 48.140137 115.002686" stroke="none" fill="#FFFFFF" fill-rule="evenodd" />
    <path id=""  transform="matrix(1 0 0 -1 0 225)"  d="M48.140137 119.80397C 56.36084 119.80397 63.37744 122.71042 69.19043 128.52332L69.19043 128.52332L69.19043 128.52332C 75.00342 134.3362 77.90991 141.35297 77.90991 149.57364L77.90991 149.57364L77.90991 149.57364C 77.90991 157.79431 75.00342 164.81108 69.19043 170.62396L69.19043 170.62396L69.19043 170.62396C 63.37744 176.43686 56.36084 179.3433 48.140137 179.3433L48.140137 179.3433L48.140137 179.3433C 39.919434 179.3433 32.902588 176.43686 27.089844 170.62396L27.089844 170.62396L27.089844 170.62396C 21.276855 164.81108 18.370117 157.79431 18.370361 149.57364L18.370361 149.57364L18.370361 149.57364C 18.370117 141.35297 21.276855 134.3362 27.089844 128.52332L27.089844 128.52332L27.089844 128.52332C 32.902588 122.71042 39.919434 119.80397 48.140137 119.80397" stroke="none" fill="#B93C3C" fill-rule="evenodd" />
    <path id=""  transform="matrix(1 0 0 -1 0 225)"  d="M48.251465 133.41208C 57.05835 133.47275 64.19531 140.57368 64.299805 149.37999L64.299805 149.37999L64.299805 149.37999C 64.404785 158.18626 57.438965 165.45515 48.636475 165.72563L48.636475 165.72563L48.636475 165.72563C 39.83374 165.9961 32.43506 159.16846 31.999268 150.37231L31.999268 150.37231L31.999268 150.37231C 31.563232 141.57617 38.25049 134.05052 47.03711 133.44937" stroke="#FFFFFF" stroke-width="5.0628366" stroke-linecap="square" stroke-dasharray="10.12567,10.12567" fill="none" />
    <path id=""  transform="matrix(1 0 0 -1 0 225)"  d="M48.140137 143.5499C 49.803467 143.5499 51.22339 144.138 52.39966 145.31421L52.39966 145.31421L52.39966 145.31421C 53.575684 146.49042 54.163574 147.91023 54.16382 149.57364L54.16382 149.57364L54.16382 149.57364C 54.163574 151.23705 53.575684 152.65685 52.39966 153.83307L52.39966 153.83307L52.39966 153.83307C 51.22339 155.00926 49.803467 155.59737 48.140137 155.59738L48.140137 155.59738L48.140137 155.59738C 46.476562 155.59737 45.05664 155.00926 43.880615 153.83307L43.880615 153.83307L43.880615 153.83307C 42.70459 152.65685 42.116455 151.23705 42.116455 149.57364L42.116455 149.57364L42.116455 149.57364C 42.116455 147.91023 42.70459 146.49042 43.880615 145.31421L43.880615 145.31421L43.880615 145.31421C 45.05664 144.138 46.476562 143.5499 48.140137 143.5499" stroke="none" fill="#FFFFFF" fill-rule="evenodd" />
    <path id=""  transform="matrix(1 0 0 -1 0 225)"  d="M48.140137 146.82292C 48.89966 146.82292 49.548096 147.09148 50.085205 147.62859L50.085205 147.62859L50.085205 147.62859C 50.622314 148.1657 50.89087 148.81406 50.89087 149.57364L50.89087 149.57364L50.89087 149.57364C 50.89087 150.33322 50.622314 150.98157 50.085205 151.51869L50.085205 151.51869L50.085205 151.51869C 49.548096 152.0558 48.89966 152.32436 48.140137 152.32436L48.140137 152.32436L48.140137 152.32436C 47.38037 152.32436 46.731934 152.0558 46.19507 151.51869L46.19507 151.51869L46.19507 151.51869C 45.657715 150.98157 45.38916 150.33322 45.389404 149.57364L45.389404 149.57364L45.389404 149.57364C 45.38916 148.81406 45.657715 148.1657 46.19507 147.62859L46.19507 147.62859L46.19507 147.62859C 46.731934 147.09148 47.38037 146.82292 48.140137 146.82292" stroke="none" fill="#B93C3C" fill-rule="evenodd" />
    <path id=""  transform="matrix(1 0 0 -1 0 225)"  d="M48.140137 40.805527C 57.686523 40.805527 65.83496 44.18071 72.58545 50.93112L72.58545 50.93112L72.58545 50.93112C 79.33594 57.681503 82.71118 65.82997 82.71118 75.37648L82.71118 75.37648L82.71118 75.37648C 82.71118 84.92299 79.33594 93.07143 72.58545 99.82184L72.58545 99.82184L72.58545 99.82184C 65.83496 106.57223 57.686523 109.947426 48.140137 109.94743L48.140137 109.94743L48.140137 109.94743C 38.593506 109.947426 30.445068 106.57223 23.694824 99.82184L23.694824 99.82184L23.694824 99.82184C 16.944336 93.07143 13.569092 84.92299 13.569092 75.37648L13.569092 75.37648L13.569092 75.37648C 13.569092 65.82997 16.944336 57.681503 23.694824 50.93112L23.694824 50.93112L23.694824 50.93112C 30.445068 44.18071 38.593506 40.805527 48.140137 40.805527" stroke="none" fill="#FFFFFF" fill-rule="evenodd" />
    <path id=""  transform="matrix(1 0 0 -1 0 225)"  d="M48.140137 45.60681C 56.36084 45.60681 63.37744 48.51326 69.19043 54.326157L69.19043 54.326157L69.19043 54.326157C 75.00342 60.139038 77.90991 67.15581 77.90991 75.37648L77.90991 75.37648L77.90991 75.37648C 77.90991 83.59714 75.00342 90.61391 69.19043 96.4268L69.19043 96.4268L69.19043 96.4268C 63.37744 102.2397 56.36084 105.14615 48.140137 105.14615L48.140137 105.14615L48.140137 105.14615C 39.919434 105.14615 32.902588 102.2397 27.089844 96.4268L27.089844 96.4268L27.089844 96.4268C 21.276855 90.61391 18.370117 83.59714 18.370361 75.37648L18.370361 75.37648L18.370361 75.37648C 18.370117 67.15581 21.276855 60.139038 27.089844 54.326157L27.089844 54.326157L27.089844 54.326157C 32.902588 48.51326 39.919434 45.60681 48.140137 45.60681" stroke="none" fill="#B93C3C" fill-rule="evenodd" />
    <path id=""  transform="matrix(1 0 0 -1 0 225)"  d="M48.251465 59.21492C 57.05835 59.27559 64.19531 66.37654 64.30005 75.182846L64.30005 75.182846L64.30005 75.182846C 64.40503 83.98921 57.439453 91.25813 48.63623 91.52849L48.63623 91.52849L48.63623 91.52849C 39.833496 91.79895 32.434814 84.97131 31.999023 76.17517L31.999023 76.17517L31.999023 76.17517C 31.563232 67.37903 38.250244 59.85338 47.036865 59.252243" stroke="#FFFFFF" stroke-width="5.0628366" stroke-linecap="square" stroke-dasharray="10.12567,10.12567" fill="none" />
    <path id=""  transform="matrix(1 0 0 -1 0 225)"  d="M48.140137 69.35274C 49.803467 69.35274 51.22339 69.94084 52.39966 71.11705L52.39966 71.11705L52.39966 71.11705C 53.575684 72.29326 54.163574 73.71306 54.16382 75.37648L54.16382 75.37648L54.16382 75.37648C 54.163574 77.03989 53.575684 78.4597 52.39966 79.63591L52.39966 79.63591L52.39966 79.63591C 51.22339 80.81212 49.803467 81.40022 48.140137 81.40022L48.140137 81.40022L48.140137 81.40022C 46.476562 81.40022 45.05664 80.81212 43.880615 79.63591L43.880615 79.63591L43.880615 79.63591C 42.70459 78.4597 42.116455 77.03989 42.116455 75.37648L42.116455 75.37648L42.116455 75.37648C 42.116455 73.71306 42.70459 72.29326 43.880615 71.11705L43.880615 71.11705L43.880615 71.11705C 45.05664 69.94084 46.476562 69.35274 48.140137 69.35274" stroke="none" fill="#FFFFFF" fill-rule="evenodd" />
    <path id=""  transform="matrix(1 0 0 -1 0 225)"  d="M48.140137 72.62576C 48.89966 72.62576 49.548096 72.89432 50.085205 73.43143L50.085205 73.43143L50.085205 73.43143C 50.622314 73.96854 50.89087 74.61688 50.89087 75.37648L50.89087 75.37648L50.89087 75.37648C 50.89087 76.13606 50.622314 76.784424 50.085205 77.32153L50.085205 77.32153L50.085205 77.32153C 49.548096 77.85864 48.89966 78.1272 48.140137 78.1272L48.140137 78.1272L48.140137 78.1272C 47.38037 78.1272 46.731934 77.85864 46.19507 77.32153L46.19507 77.32153L46.19507 77.32153C 45.657715 76.784424 45.38916 76.13606 45.389404 75.37648L45.389404 75.37648L45.389404 75.37648C 45.38916 74.61688 45.657715 73.96854 46.19507 73.43143L46.19507 73.43143L46.19507 73.43143C 46.731934 72.89432 47.38037 72.62576 48.140137 72.62576" stroke="none" fill="#B93C3C" fill-rule="evenodd" />
	</g>
</g>
</svg>