<?xml version="1.0" standalone="no"?>
<!DOCTYPE svg PUBLIC "-//W3C//DTD SVG 1.0//EN" "http://www.w3.org/TR/2001/REC-SVG-20010904/DTD/svg10.dtd">
<svg xmlns="http://www.w3.org/2000/svg" xmlns:xlink="http://www.w3.org/1999/xlink" id="body_1" width="400" height="300">

<defs>
    <clipPath  id="1">

    <path id=""  clip-rule="evenodd" transform="matrix(1 0 0 1 0 0)"  d="M0 0L300 0L300 0L300 225L300 225L1.3777277E-14 225L1.3777277E-14 225L0 0z" />    </clipPath>
</defs>

<g transform="matrix(1.3333 0 0 1.3333 0 0)">
	<g clip-path="url(#1)" >
    <path id=""  transform="matrix(1 0 0 -1 0 225)"  d="M250.68011 105.822426C 263.33795 105.82242 274.14215 110.29766 283.09265 119.248146L283.09265 119.248146L283.09265 119.248146C 292.0431 128.19862 296.51834 139.0028 296.51837 151.6607L296.51837 151.6607L296.51837 151.6607C 296.51834 164.31859 292.0431 175.12277 283.09265 184.07324L283.09265 184.07324L283.09265 184.07324C 274.14215 193.02373 263.33795 197.49896 250.68011 197.49896L250.68011 197.49896L250.68011 197.49896C 238.02222 197.49896 227.21808 193.02373 218.26758 184.07324L218.26758 184.07324L218.26758 184.07324C 209.31708 175.12277 204.84186 164.31859 204.84186 151.6607L204.84186 151.6607L204.84186 151.6607C 204.84186 139.0028 209.31708 128.19862 218.26758 119.248146L218.26758 119.248146L218.26758 119.248146C 227.21808 110.29766 238.02222 105.82242 250.68011 105.822426" stroke="none" fill="#000000" fill-rule="evenodd" />
    <path id=""  transform="matrix(1 0 0 -1 0 225)"  d="M183.18011 105.822426C 195.83795 105.82242 206.64215 110.29766 215.59265 119.248146L215.59265 119.248146L215.59265 119.248146C 224.54309 128.19862 229.01837 139.0028 229.01837 151.6607L229.01837 151.6607L229.01837 151.6607C 229.01837 164.31859 224.54309 175.12277 215.59265 184.07324L215.59265 184.07324L215.59265 184.07324C 206.64215 193.02373 195.83795 197.49896 183.18011 197.49896L183.18011 197.49896L183.18011 197.49896C 170.52222 197.49896 159.71808 193.02373 150.76758 184.07324L150.76758 184.07324L150.76758 184.07324C 141.81708 175.12277 137.34186 164.31859 137.34186 151.6607L137.34186 151.6607L137.34186 151.6607C 137.34186 139.0028 141.81708 128.19862 150.76758 119.248146L150.76758 119.248146L150.76758 119.248146C 159.71808 110.29766 170.52222 105.82242 183.18011 105.822426" stroke="none" fill="#000000" fill-rule="evenodd" />
    <path id=""  transform="matrix(1 0 0 -1 0 225)"  d="M116.805115 105.822426C 129.46295 105.82242 140.26715 110.29766 149.21765 119.248146L149.21765 119.248146L149.21765 119.248146C 158.16809 128.19862 162.64337 139.0028 162.64337 151.6607L162.64337 151.6607L162.64337 151.6607C 162.64337 164.31859 158.16809 175.12277 149.21765 184.07324L149.21765 184.07324L149.21765 184.07324C 140.26715 193.02373 129.46295 197.49896 116.805115 197.49896L116.805115 197.49896L116.805115 197.49896C 104.14722 197.49896 93.34308 193.02373 84.39258 184.07324L84.39258 184.07324L84.39258 184.07324C 75.44208 175.12277 70.96686 164.31859 70.96686 151.6607L70.96686 151.6607L70.96686 151.6607C 70.96686 139.0028 75.44208 128.19862 84.39258 119.248146L84.39258 119.248146L84.39258 119.248146C 93.34308 110.29766 104.14722 105.82242 116.805115 105.822426" stroke="none" fill="#000000" fill-rule="evenodd" />
    <path id=""  transform="matrix(1 0 0 -1 0 225)"  d="M49.305115 105.822426C 61.96295 105.82242 72.76715 110.29766 81.71765 119.248146L81.71765 119.248146L81.71765 119.248146C 90.66809 128.19862 95.14337 139.0028 95.14337 151.6607L95.14337 151.6607L95.14337 151.6607C 95.14337 164.31859 90.66809 175.12277 81.71765 184.07324L81.71765 184.07324L81.71765 184.07324C 72.76715 193.02373 61.96295 197.49896 49.305115 197.49896L49.305115 197.49896L49.305115 197.49896C 36.647217 197.49896 25.843079 193.02373 16.892578 184.07324L16.892578 184.07324L16.892578 184.07324C 7.9420776 175.12277 3.466858 164.31859 3.466858 151.6607L3.466858 151.6607L3.466858 151.6607C 3.466858 139.0028 7.9420776 128.19862 16.892578 119.248146L16.892578 119.248146L16.892578 119.248146C 25.843079 110.29766 36.647217 105.82242 49.305115 105.822426" stroke="none" fill="#000000" fill-rule="evenodd" />
    <path id=""  transform="matrix(1 0 0 -1 0 225)"  d="M250.68011 27.501373C 263.33795 27.501373 274.14215 31.976608 283.09265 40.927094L283.09265 40.927094L283.09265 40.927094C 292.0431 49.877563 296.51834 60.681763 296.51837 73.339645L296.51837 73.339645L296.51837 73.339645C 296.51834 85.99753 292.0431 96.80171 283.09265 105.7522L283.09265 105.7522L283.09265 105.7522C 274.14215 114.702675 263.33795 119.17792 250.68011 119.17792L250.68011 119.17792L250.68011 119.17792C 238.02222 119.17792 227.21808 114.702675 218.26758 105.7522L218.26758 105.7522L218.26758 105.7522C 209.31708 96.80171 204.84186 85.99753 204.84186 73.339645L204.84186 73.339645L204.84186 73.339645C 204.84186 60.681763 209.31708 49.877563 218.26758 40.927094L218.26758 40.927094L218.26758 40.927094C 227.21808 31.976608 238.02222 27.501373 250.68011 27.501373" stroke="none" fill="#000000" fill-rule="evenodd" />
    <path id=""  transform="matrix(1 0 0 -1 0 225)"  d="M183.18011 27.501373C 195.83795 27.501373 206.64215 31.976608 215.59265 40.927094L215.59265 40.927094L215.59265 40.927094C 224.54309 49.877563 229.01837 60.681763 229.01837 73.339645L229.01837 73.339645L229.01837 73.339645C 229.01837 85.99753 224.54309 96.80171 215.59265 105.7522L215.59265 105.7522L215.59265 105.7522C 206.64215 114.702675 195.83795 119.17792 183.18011 119.17792L183.18011 119.17792L183.18011 119.17792C 170.52222 119.17792 159.71808 114.702675 150.76758 105.7522L150.76758 105.7522L150.76758 105.7522C 141.81708 96.80171 137.34186 85.99753 137.34186 73.339645L137.34186 73.339645L137.34186 73.339645C 137.34186 60.681763 141.81708 49.877563 150.76758 40.927094L150.76758 40.927094L150.76758 40.927094C 159.71808 31.976608 170.52222 27.501373 183.18011 27.501373" stroke="none" fill="#000000" fill-rule="evenodd" />
    <path id=""  transform="matrix(1 0 0 -1 0 225)"  d="M116.805115 27.501373C 129.46295 27.501373 140.26715 31.976608 149.21765 40.927094L149.21765 40.927094L149.21765 40.927094C 158.16809 49.877563 162.64337 60.681763 162.64337 73.339645L162.64337 73.339645L162.64337 73.339645C 162.64337 85.99753 158.16809 96.80171 149.21765 105.7522L149.21765 105.7522L149.21765 105.7522C 140.26715 114.702675 129.46295 119.17792 116.805115 119.17792L116.805115 119.17792L116.805115 119.17792C 104.14722 119.17792 93.34308 114.702675 84.39258 105.7522L84.39258 105.7522L84.39258 105.7522C 75.44208 96.80171 70.96686 85.99753 70.96686 73.339645L70.96686 73.339645L70.96686 73.339645C 70.96686 60.681763 75.44208 49.877563 84.39258 40.927094L84.39258 40.927094L84.39258 40.927094C 93.34308 31.976608 104.14722 27.501373 116.805115 27.501373" stroke="none" fill="#000000" fill-rule="evenodd" />
    <path id=""  transform="matrix(1 0 0 -1 0 225)"  d="M49.305115 27.501373C 61.96295 27.501373 72.76715 31.976608 81.71765 40.927094L81.71765 40.927094L81.71765 40.927094C 90.66809 49.877563 95.14337 60.681763 95.14337 73.339645L95.14337 73.339645L95.14337 73.339645C 95.14337 85.99753 90.66809 96.80171 81.71765 105.7522L81.71765 105.7522L81.71765 105.7522C 72.76715 114.702675 61.96295 119.17792 49.305115 119.17792L49.305115 119.17792L49.305115 119.17792C 36.647217 119.17792 25.843079 114.702675 16.892578 105.7522L16.892578 105.7522L16.892578 105.7522C 7.9420776 96.80171 3.466858 85.99753 3.466858 73.339645L3.466858 73.339645L3.466858 73.339645C 3.466858 60.681763 7.9420776 49.877563 16.892578 40.927094L16.892578 40.927094L16.892578 40.927094C 25.843079 31.976608 36.647217 27.501373 49.305115 27.501373" stroke="none" fill="#000000" fill-rule="evenodd" />
    <path id=""  transform="matrix(1 0 0 -1 0 225)"  d="M250.68011 117.089745C 260.22662 117.089745 268.37506 120.46494 275.1255 127.21535L275.1255 127.21535L275.1255 127.21535C 281.87585 133.96574 285.25104 142.1142 285.25107 151.6607L285.25107 151.6607L285.25107 151.6607C 285.25104 161.2072 281.87585 169.35565 275.1255 176.10605L275.1255 176.10605L275.1255 176.10605C 268.37506 182.85645 260.22662 186.23166 250.68011 186.23166L250.68011 186.23166L250.68011 186.23166C 241.1336 186.23166 232.9851 182.85645 226.23474 176.10605L226.23474 176.10605L226.23474 176.10605C 219.48438 169.35565 216.10919 161.2072 216.10919 151.6607L216.10919 151.6607L216.10919 151.6607C 216.10919 142.1142 219.48438 133.96574 226.23474 127.21535L226.23474 127.21535L226.23474 127.21535C 232.9851 120.46494 241.1336 117.089745 250.68011 117.089745" stroke="none" fill="#FFFFFF" fill-rule="evenodd" />
    <path id=""  transform="matrix(1 0 0 -1 0 225)"  d="M250.68011 121.89104C 258.90076 121.89104 265.91754 124.79748 271.73047 130.61037L271.73047 130.61037L271.73047 130.61037C 277.5433 136.42325 280.44974 143.44003 280.44977 151.6607L280.44977 151.6607L280.44977 151.6607C 280.44974 159.88136 277.5433 166.89813 271.73047 172.71103L271.73047 172.71103L271.73047 172.71103C 265.91754 178.52393 258.90076 181.43036 250.68011 181.43036L250.68011 181.43036L250.68011 181.43036C 242.45941 181.43036 235.44269 178.52393 229.62976 172.71103L229.62976 172.71103L229.62976 172.71103C 223.81683 166.89813 220.91046 159.88136 220.91046 151.6607L220.91046 151.6607L220.91046 151.6607C 220.91046 143.44003 223.81683 136.42325 229.62976 130.61037L229.62976 130.61037L229.62976 130.61037C 235.44269 124.79748 242.45941 121.89104 250.68011 121.89104" stroke="none" fill="#000037" fill-rule="evenodd" />
    <path id=""  transform="matrix(1 0 0 -1 0 225)"  d="M250.79156 135.49913C 259.59827 135.5598 266.735 142.66074 266.8399 151.46704L266.8399 151.46704L266.8399 151.46704C 266.94476 160.27333 259.97925 167.54224 251.17651 167.81268L251.17651 167.81268L251.17651 167.81268C 242.37378 168.0831 234.97522 161.2555 234.53925 152.45938L234.53925 152.45938L234.53925 152.45938C 234.10345 143.66324 240.79077 136.1376 249.57715 135.53644" stroke="#FFFFFF" stroke-width="5.0628366" stroke-linecap="square" stroke-dasharray="10.12567,10.12567" fill="none" />
    <path id=""  transform="matrix(1 0 0 -1 0 225)"  d="M250.68011 145.63696C 252.3435 145.63696 253.7633 146.22507 254.93951 147.40128L254.93951 147.40128L254.93951 147.40128C 256.11572 148.57748 256.70386 149.99728 256.70386 151.6607L256.70386 151.6607L256.70386 151.6607C 256.70386 153.3241 256.11572 154.74391 254.93951 155.92012L254.93951 155.92012L254.93951 155.92012C 253.7633 157.09633 252.3435 157.68443 250.68011 157.68443L250.68011 157.68443L250.68011 157.68443C 249.01666 157.68443 247.59686 157.09633 246.42072 155.92012L246.42072 155.92012L246.42072 155.92012C 245.24445 154.74391 244.65637 153.3241 244.65637 151.6607L244.65637 151.6607L244.65637 151.6607C 244.65637 149.99728 245.24445 148.57748 246.42072 147.40128L246.42072 147.40128L246.42072 147.40128C 247.59686 146.22507 249.01666 145.63696 250.68011 145.63696" stroke="none" fill="#FFFFFF" fill-rule="evenodd" />
    <path id=""  transform="matrix(1 0 0 -1 0 225)"  d="M250.68011 148.90997C 251.4397 148.90997 252.08807 149.17853 252.62518 149.71564L252.62518 149.71564L252.62518 149.71564C 253.1623 150.25275 253.43085 150.90111 253.43085 151.6607L253.43085 151.6607L253.43085 151.6607C 253.43085 152.42029 253.1623 153.06863 252.62518 153.60574L252.62518 153.60574L252.62518 153.60574C 252.08807 154.14285 251.4397 154.4114 250.68011 154.4114L250.68011 154.4114L250.68011 154.4114C 249.92047 154.4114 249.27216 154.14285 248.73505 153.60574L248.73505 153.60574L248.73505 153.60574C 248.19794 153.06863 247.92938 152.42029 247.92938 151.6607L247.92938 151.6607L247.92938 151.6607C 247.92938 150.90111 248.19794 150.25275 248.73505 149.71564L248.73505 149.71564L248.73505 149.71564C 249.27216 149.17853 249.92047 148.90997 250.68011 148.90997" stroke="none" fill="#000037" fill-rule="evenodd" />
    <path id=""  transform="matrix(1 0 0 -1 0 225)"  d="M183.18011 117.089745C 192.72662 117.089745 200.87506 120.46494 207.62549 127.21535L207.62549 127.21535L207.62549 127.21535C 214.37585 133.96574 217.75104 142.1142 217.75104 151.6607L217.75104 151.6607L217.75104 151.6607C 217.75104 161.2072 214.37585 169.35565 207.62549 176.10605L207.62549 176.10605L207.62549 176.10605C 200.87506 182.85645 192.72662 186.23166 183.18011 186.23166L183.18011 186.23166L183.18011 186.23166C 173.6336 186.23166 165.4851 182.85645 158.73474 176.10605L158.73474 176.10605L158.73474 176.10605C 151.98438 169.35565 148.60919 161.2072 148.60919 151.6607L148.60919 151.6607L148.60919 151.6607C 148.60919 142.1142 151.98438 133.96574 158.73474 127.21535L158.73474 127.21535L158.73474 127.21535C 165.4851 120.46494 173.6336 117.089745 183.18011 117.089745" stroke="none" fill="#FFFFFF" fill-rule="evenodd" />
    <path id=""  transform="matrix(1 0 0 -1 0 225)"  d="M183.18011 121.89104C 191.40076 121.89104 198.41754 124.79748 204.23047 130.61037L204.23047 130.61037L204.23047 130.61037C 210.04327 136.42325 212.94977 143.44003 212.94977 151.6607L212.94977 151.6607L212.94977 151.6607C 212.94977 159.88136 210.04327 166.89813 204.23047 172.71103L204.23047 172.71103L204.23047 172.71103C 198.41754 178.52393 191.40076 181.43036 183.18011 181.43036L183.18011 181.43036L183.18011 181.43036C 174.95941 181.43036 167.94269 178.52393 162.12976 172.71103L162.12976 172.71103L162.12976 172.71103C 156.31683 166.89813 153.41046 159.88136 153.41046 151.6607L153.41046 151.6607L153.41046 151.6607C 153.41046 143.44003 156.31683 136.42325 162.12976 130.61037L162.12976 130.61037L162.12976 130.61037C 167.94269 124.79748 174.95941 121.89104 183.18011 121.89104" stroke="none" fill="#000037" fill-rule="evenodd" />
    <path id=""  transform="matrix(1 0 0 -1 0 225)"  d="M183.29156 135.49911C 192.09833 135.55983 199.23492 142.66077 199.33978 151.46704L199.33978 151.46704L199.33978 151.46704C 199.44464 160.27333 192.47919 167.54224 183.67639 167.81268L183.67639 167.81268L183.67639 167.81268C 174.87366 168.0831 167.47504 161.2555 167.03925 152.45937L167.03925 152.45937L167.03925 152.45937C 166.60333 143.66324 173.29065 136.1376 182.07703 135.53644" stroke="#FFFFFF" stroke-width="5.0628366" stroke-linecap="square" stroke-dasharray="10.12567,10.12567" fill="none" />
    <path id=""  transform="matrix(1 0 0 -1 0 225)"  d="M183.18011 145.63696C 184.8435 145.63696 186.2633 146.22507 187.43951 147.40128L187.43951 147.40128L187.43951 147.40128C 188.61572 148.57748 189.20386 149.99728 189.20386 151.6607L189.20386 151.6607L189.20386 151.6607C 189.20386 153.3241 188.61572 154.74391 187.43951 155.92012L187.43951 155.92012L187.43951 155.92012C 186.2633 157.09633 184.8435 157.68443 183.18011 157.68443L183.18011 157.68443L183.18011 157.68443C 181.51666 157.68443 180.09686 157.09633 178.92072 155.92012L178.92072 155.92012L178.92072 155.92012C 177.74445 154.74391 177.15637 153.3241 177.15637 151.6607L177.15637 151.6607L177.15637 151.6607C 177.15637 149.99728 177.74445 148.57748 178.92072 147.40128L178.92072 147.40128L178.92072 147.40128C 180.09686 146.22507 181.51666 145.63696 183.18011 145.63696" stroke="none" fill="#FFFFFF" fill-rule="evenodd" />
    <path id=""  transform="matrix(1 0 0 -1 0 225)"  d="M183.18011 148.90997C 183.9397 148.90997 184.58807 149.17853 185.12518 149.71564L185.12518 149.71564L185.12518 149.71564C 185.6623 150.25275 185.93085 150.90111 185.93085 151.6607L185.93085 151.6607L185.93085 151.6607C 185.93085 152.42029 185.6623 153.06863 185.12518 153.60574L185.12518 153.60574L185.12518 153.60574C 184.58807 154.14285 183.9397 154.4114 183.18011 154.4114L183.18011 154.4114L183.18011 154.4114C 182.42047 154.4114 181.77216 154.14285 181.23505 153.60574L181.23505 153.60574L181.23505 153.60574C 180.69794 153.06863 180.42938 152.42029 180.42938 151.6607L180.42938 151.6607L180.42938 151.6607C 180.42938 150.90111 180.69794 150.25275 181.23505 149.71564L181.23505 149.71564L181.23505 149.71564C 181.77216 149.17853 182.42047 148.90997 183.18011 148.90997" stroke="none" fill="#000037" fill-rule="evenodd" />
    <path id=""  transform="matrix(1 0 0 -1 0 225)"  d="M116.805115 117.089745C 126.35162 117.089745 134.50006 120.46494 141.25049 127.21535L141.25049 127.21535L141.25049 127.21535C 148.00085 133.96574 151.37604 142.1142 151.37604 151.6607L151.37604 151.6607L151.37604 151.6607C 151.37604 161.2072 148.00085 169.35565 141.25049 176.10605L141.25049 176.10605L141.25049 176.10605C 134.50006 182.85645 126.35162 186.23166 116.805115 186.23166L116.805115 186.23166L116.805115 186.23166C 107.258606 186.23166 99.11011 182.85645 92.35974 176.10605L92.35974 176.10605L92.35974 176.10605C 85.609375 169.35565 82.23419 161.2072 82.23419 151.6607L82.23419 151.6607L82.23419 151.6607C 82.23419 142.1142 85.609375 133.96574 92.35974 127.21535L92.35974 127.21535L92.35974 127.21535C 99.11011 120.46494 107.258606 117.089745 116.805115 117.089745" stroke="none" fill="#FFFFFF" fill-rule="evenodd" />
    <path id=""  transform="matrix(1 0 0 -1 0 225)"  d="M116.805115 121.89104C 125.02576 121.89104 132.04254 124.79748 137.85547 130.61037L137.85547 130.61037L137.85547 130.61037C 143.66827 136.42325 146.57477 143.44003 146.57477 151.6607L146.57477 151.6607L146.57477 151.6607C 146.57477 159.88136 143.66827 166.89813 137.85547 172.71103L137.85547 172.71103L137.85547 172.71103C 132.04254 178.52393 125.02576 181.43036 116.805115 181.43036L116.805115 181.43036L116.805115 181.43036C 108.58441 181.43036 101.56769 178.52393 95.75476 172.71103L95.75476 172.71103L95.75476 172.71103C 89.94183 166.89813 87.03546 159.88136 87.03546 151.6607L87.03546 151.6607L87.03546 151.6607C 87.03546 143.44003 89.94183 136.42325 95.75476 130.61037L95.75476 130.61037L95.75476 130.61037C 101.56769 124.79748 108.58441 121.89104 116.805115 121.89104" stroke="none" fill="#000037" fill-rule="evenodd" />
    <path id=""  transform="matrix(1 0 0 -1 0 225)"  d="M116.916565 135.49911C 125.72327 135.55978 132.85999 142.66074 132.9649 151.46704L132.9649 151.46704L132.9649 151.46704C 133.06976 160.27335 126.10431 167.54224 117.30151 167.81268L117.30151 167.81268L117.30151 167.81268C 108.49872 168.0831 101.10022 161.2555 100.66431 152.45938L100.66431 152.45938L100.66431 152.45938C 100.228455 143.66324 106.91577 136.13762 115.70215 135.53644" stroke="#FFFFFF" stroke-width="5.0628366" stroke-linecap="square" stroke-dasharray="10.12567,10.12567" fill="none" />
    <path id=""  transform="matrix(1 0 0 -1 0 225)"  d="M116.805115 145.63696C 118.468506 145.63696 119.888306 146.22507 121.064514 147.40128L121.064514 147.40128L121.064514 147.40128C 122.24072 148.57748 122.82886 149.99728 122.82886 151.6607L122.82886 151.6607L122.82886 151.6607C 122.82886 153.3241 122.24072 154.74391 121.064514 155.92012L121.064514 155.92012L121.064514 155.92012C 119.888306 157.09633 118.468506 157.68443 116.805115 157.68443L116.805115 157.68443L116.805115 157.68443C 115.14166 157.68443 113.72186 157.09633 112.545715 155.92012L112.545715 155.92012L112.545715 155.92012C 111.369446 154.74391 110.78137 153.3241 110.78137 151.6607L110.78137 151.6607L110.78137 151.6607C 110.78137 149.99728 111.369446 148.57748 112.545715 147.40128L112.545715 147.40128L112.545715 147.40128C 113.72186 146.22507 115.14166 145.63696 116.805115 145.63696" stroke="none" fill="#FFFFFF" fill-rule="evenodd" />
    <path id=""  transform="matrix(1 0 0 -1 0 225)"  d="M116.805115 148.90997C 117.5647 148.90997 118.21307 149.17853 118.75018 149.71564L118.75018 149.71564L118.75018 149.71564C 119.28729 150.25275 119.55585 150.90111 119.55585 151.6607L119.55585 151.6607L119.55585 151.6607C 119.55585 152.42029 119.28729 153.06863 118.75018 153.60574L118.75018 153.60574L118.75018 153.60574C 118.21307 154.14285 117.5647 154.4114 116.805115 154.4114L116.805115 154.4114L116.805115 154.4114C 116.04547 154.4114 115.397156 154.14285 114.86005 153.60574L114.86005 153.60574L114.86005 153.60574C 114.32294 153.06863 114.05438 152.42029 114.05438 151.6607L114.05438 151.6607L114.05438 151.6607C 114.05438 150.90111 114.32294 150.25275 114.86005 149.71564L114.86005 149.71564L114.86005 149.71564C 115.397156 149.17853 116.04547 148.90997 116.805115 148.90997" stroke="none" fill="#000037" fill-rule="evenodd" />
    <path id=""  transform="matrix(1 0 0 -1 0 225)"  d="M49.305115 117.089745C 58.851624 117.089745 67.00006 120.46494 73.75049 127.21535L73.75049 127.21535L73.75049 127.21535C 80.500854 133.96574 83.87604 142.1142 83.87604 151.6607L83.87604 151.6607L83.87604 151.6607C 83.87604 161.2072 80.500854 169.35565 73.75049 176.10605L73.75049 176.10605L73.75049 176.10605C 67.00006 182.85645 58.851624 186.23166 49.305115 186.23166L49.305115 186.23166L49.305115 186.23166C 39.758606 186.23166 31.610107 182.85645 24.859741 176.10605L24.859741 176.10605L24.859741 176.10605C 18.109314 169.35565 14.734131 161.2072 14.734192 151.6607L14.734192 151.6607L14.734192 151.6607C 14.734131 142.1142 18.109314 133.96574 24.859741 127.21535L24.859741 127.21535L24.859741 127.21535C 31.610107 120.46494 39.758606 117.089745 49.305115 117.089745" stroke="none" fill="#FFFFFF" fill-rule="evenodd" />
    <path id=""  transform="matrix(1 0 0 -1 0 225)"  d="M49.305115 121.89104C 57.525757 121.89104 64.54254 124.79748 70.35547 130.61037L70.35547 130.61037L70.35547 130.61037C 76.168274 136.42325 79.07477 143.44003 79.07477 151.6607L79.07477 151.6607L79.07477 151.6607C 79.07477 159.88136 76.168274 166.89813 70.35547 172.71103L70.35547 172.71103L70.35547 172.71103C 64.54254 178.52393 57.525757 181.43036 49.305115 181.43036L49.305115 181.43036L49.305115 181.43036C 41.08441 181.43036 34.067688 178.52393 28.25476 172.71103L28.25476 172.71103L28.25476 172.71103C 22.441833 166.89813 19.535461 159.88136 19.535461 151.6607L19.535461 151.6607L19.535461 151.6607C 19.535461 143.44003 22.441833 136.42325 28.25476 130.61037L28.25476 130.61037L28.25476 130.61037C 34.067688 124.79748 41.08441 121.89104 49.305115 121.89104" stroke="none" fill="#000037" fill-rule="evenodd" />
    <path id=""  transform="matrix(1 0 0 -1 0 225)"  d="M49.416565 135.49911C 58.223267 135.55981 65.359924 142.66077 65.46478 151.46704L65.46478 151.46704L65.46478 151.46704C 65.56964 160.27335 58.604187 167.54224 49.80139 167.81268L49.80139 167.81268L49.80139 167.81268C 40.998657 168.0831 33.600098 161.2555 33.164246 152.45937L33.164246 152.45937L33.164246 152.45937C 32.728333 143.66327 39.415527 136.13765 48.201965 135.53644" stroke="#FFFFFF" stroke-width="5.0628366" stroke-linecap="square" stroke-dasharray="10.12567,10.12567" fill="none" />
    <path id=""  transform="matrix(1 0 0 -1 0 225)"  d="M49.305115 145.63696C 50.968506 145.63696 52.388306 146.22507 53.564514 147.40128L53.564514 147.40128L53.564514 147.40128C 54.740723 148.57748 55.328857 149.99728 55.328857 151.6607L55.328857 151.6607L55.328857 151.6607C 55.328857 153.3241 54.740723 154.74391 53.564514 155.92012L53.564514 155.92012L53.564514 155.92012C 52.388306 157.09633 50.968506 157.68443 49.305115 157.68443L49.305115 157.68443L49.305115 157.68443C 47.641663 157.68443 46.221863 157.09633 45.045715 155.92012L45.045715 155.92012L45.045715 155.92012C 43.869446 154.74391 43.281372 153.3241 43.281372 151.6607L43.281372 151.6607L43.281372 151.6607C 43.281372 149.99728 43.869446 148.57748 45.045715 147.40128L45.045715 147.40128L45.045715 147.40128C 46.221863 146.22507 47.641663 145.63696 49.305115 145.63696" stroke="none" fill="#FFFFFF" fill-rule="evenodd" />
    <path id=""  transform="matrix(1 0 0 -1 0 225)"  d="M49.305115 148.90997C 50.064697 148.90997 50.713074 149.17853 51.250183 149.71564L51.250183 149.71564L51.250183 149.71564C 51.787292 150.25275 52.055847 150.90111 52.055847 151.6607L52.055847 151.6607L52.055847 151.6607C 52.055847 152.42029 51.787292 153.06863 51.250183 153.60574L51.250183 153.60574L51.250183 153.60574C 50.713074 154.14285 50.064697 154.4114 49.305115 154.4114L49.305115 154.4114L49.305115 154.4114C 48.54547 154.4114 47.897156 154.14285 47.360046 153.60574L47.360046 153.60574L47.360046 153.60574C 46.822937 153.06863 46.554382 152.42029 46.554382 151.6607L46.554382 151.6607L46.554382 151.6607C 46.554382 150.90111 46.822937 150.25275 47.360046 149.71564L47.360046 149.71564L47.360046 149.71564C 47.897156 149.17853 48.54547 148.90997 49.305115 148.90997" stroke="none" fill="#000037" fill-rule="evenodd" />
    <path id=""  transform="matrix(1 0 0 -1 0 225)"  d="M250.68011 38.768692C 260.22662 38.768692 268.37506 42.14389 275.1255 48.894287L275.1255 48.894287L275.1255 48.894287C 281.87585 55.644684 285.25104 63.793137 285.25107 73.339645L285.25107 73.339645L285.25107 73.339645C 285.25104 82.886154 281.87585 91.03461 275.1255 97.785L275.1255 97.785L275.1255 97.785C 268.37506 104.5354 260.22662 107.9106 250.68011 107.9106L250.68011 107.9106L250.68011 107.9106C 241.1336 107.9106 232.9851 104.5354 226.23474 97.785L226.23474 97.785L226.23474 97.785C 219.48438 91.03461 216.10919 82.886154 216.10919 73.339645L216.10919 73.339645L216.10919 73.339645C 216.10919 63.793137 219.48438 55.644684 226.23474 48.894287L226.23474 48.894287L226.23474 48.894287C 232.9851 42.14389 241.1336 38.768692 250.68011 38.768692" stroke="none" fill="#FFFFFF" fill-rule="evenodd" />
    <path id=""  transform="matrix(1 0 0 -1 0 225)"  d="M250.68011 43.569977C 258.90076 43.569977 265.91754 46.47641 271.73047 52.289307L271.73047 52.289307L271.73047 52.289307C 277.5433 58.102203 280.44974 65.11899 280.44977 73.339645L280.44977 73.339645L280.44977 73.339645C 280.44974 81.5603 277.5433 88.57709 271.73047 94.389984L271.73047 94.389984L271.73047 94.389984C 265.91754 100.202866 258.90076 103.109314 250.68011 103.109314L250.68011 103.109314L250.68011 103.109314C 242.45941 103.109314 235.44269 100.202866 229.62976 94.389984L229.62976 94.389984L229.62976 94.389984C 223.81683 88.57709 220.91046 81.5603 220.91046 73.339645L220.91046 73.339645L220.91046 73.339645C 220.91046 65.11899 223.81683 58.102203 229.62976 52.289307L229.62976 52.289307L229.62976 52.289307C 235.44269 46.47641 242.45941 43.569977 250.68011 43.569977" stroke="none" fill="#000037" fill-rule="evenodd" />
    <path id=""  transform="matrix(1 0 0 -1 0 225)"  d="M250.7915 57.178055C 259.5982 57.238724 266.73492 64.339676 266.83978 73.145966L266.83978 73.145966L266.83978 73.145966C 266.9447 81.95227 259.97925 89.22116 251.17645 89.49161L251.17645 89.49161L251.17645 89.49161C 242.37366 89.762024 234.9751 82.9344 234.53925 74.138306L234.53925 74.138306L234.53925 74.138306C 234.1034 65.34216 240.79071 57.81656 249.57709 57.215378" stroke="#FFFFFF" stroke-width="5.0628366" stroke-linecap="square" stroke-dasharray="10.12567,10.12567" fill="none" />
    <path id=""  transform="matrix(1 0 0 -1 0 225)"  d="M250.68011 67.31592C 252.3435 67.31592 253.7633 67.90401 254.93951 69.080215L254.93951 69.080215L254.93951 69.080215C 256.11572 70.256424 256.70386 71.67624 256.70386 73.339645L256.70386 73.339645L256.70386 73.339645C 256.70386 75.00305 256.11572 76.42285 254.93951 77.599075L254.93951 77.599075L254.93951 77.599075C 253.7633 78.77527 252.3435 79.36337 250.68011 79.36337L250.68011 79.36337L250.68011 79.36337C 249.01666 79.36337 247.59686 78.77527 246.42072 77.599075L246.42072 77.599075L246.42072 77.599075C 245.24445 76.42285 244.65637 75.00305 244.65637 73.339645L244.65637 73.339645L244.65637 73.339645C 244.65637 71.67624 245.24445 70.256424 246.42072 69.080215L246.42072 69.080215L246.42072 69.080215C 247.59686 67.90401 249.01666 67.31592 250.68011 67.31592" stroke="none" fill="#FFFFFF" fill-rule="evenodd" />
    <path id=""  transform="matrix(1 0 0 -1 0 225)"  d="M250.68011 70.58893C 251.4397 70.58893 252.08807 70.85748 252.62518 71.39459L252.62518 71.39459L252.62518 71.39459C 253.1623 71.9317 253.43085 72.58005 253.43085 73.339645L253.43085 73.339645L253.43085 73.339645C 253.43085 74.09924 253.1623 74.74759 252.62518 75.2847L252.62518 75.2847L252.62518 75.2847C 252.08807 75.82181 251.4397 76.09036 250.68011 76.09036L250.68011 76.09036L250.68011 76.09036C 249.92047 76.09036 249.27216 75.82181 248.73505 75.2847L248.73505 75.2847L248.73505 75.2847C 248.19794 74.74759 247.92938 74.09924 247.92938 73.339645L247.92938 73.339645L247.92938 73.339645C 247.92938 72.58005 248.19794 71.9317 248.73505 71.39459L248.73505 71.39459L248.73505 71.39459C 249.27216 70.85748 249.92047 70.58893 250.68011 70.58893" stroke="none" fill="#000037" fill-rule="evenodd" />
    <path id=""  transform="matrix(1 0 0 -1 0 225)"  d="M183.18011 38.768692C 192.72662 38.768692 200.87506 42.14389 207.62549 48.894287L207.62549 48.894287L207.62549 48.894287C 214.37585 55.644684 217.75104 63.793137 217.75104 73.339645L217.75104 73.339645L217.75104 73.339645C 217.75104 82.886154 214.37585 91.03461 207.62549 97.785L207.62549 97.785L207.62549 97.785C 200.87506 104.5354 192.72662 107.9106 183.18011 107.9106L183.18011 107.9106L183.18011 107.9106C 173.6336 107.9106 165.4851 104.5354 158.73474 97.785L158.73474 97.785L158.73474 97.785C 151.98438 91.03461 148.60919 82.886154 148.60919 73.339645L148.60919 73.339645L148.60919 73.339645C 148.60919 63.793137 151.98438 55.644684 158.73474 48.894287L158.73474 48.894287L158.73474 48.894287C 165.4851 42.14389 173.6336 38.768692 183.18011 38.768692" stroke="none" fill="#FFFFFF" fill-rule="evenodd" />
    <path id=""  transform="matrix(1 0 0 -1 0 225)"  d="M183.18011 43.569977C 191.40076 43.569977 198.41754 46.47641 204.23047 52.289307L204.23047 52.289307L204.23047 52.289307C 210.04327 58.102203 212.94977 65.11899 212.94977 73.339645L212.94977 73.339645L212.94977 73.339645C 212.94977 81.5603 210.04327 88.57709 204.23047 94.389984L204.23047 94.389984L204.23047 94.389984C 198.41754 100.202866 191.40076 103.109314 183.18011 103.109314L183.18011 103.109314L183.18011 103.109314C 174.95941 103.109314 167.94269 100.202866 162.12976 94.389984L162.12976 94.389984L162.12976 94.389984C 156.31683 88.57709 153.41046 81.5603 153.41046 73.339645L153.41046 73.339645L153.41046 73.339645C 153.41046 65.11899 156.31683 58.102203 162.12976 52.289307L162.12976 52.289307L162.12976 52.289307C 167.94269 46.47641 174.95941 43.569977 183.18011 43.569977" stroke="none" fill="#000037" fill-rule="evenodd" />
    <path id=""  transform="matrix(1 0 0 -1 0 225)"  d="M183.29156 57.17807C 192.0982 57.23874 199.23492 64.33969 199.33984 73.14601L199.33984 73.14601L199.33984 73.14601C 199.4447 81.9523 192.47925 89.22121 183.67645 89.49164L183.67645 89.49164L183.67645 89.49164C 174.87372 89.762085 167.47516 82.93445 167.0393 74.138336L167.0393 74.138336L167.0393 74.138336C 166.6034 65.342224 173.29065 57.816574 182.07709 57.215393" stroke="#FFFFFF" stroke-width="5.0628366" stroke-linecap="square" stroke-dasharray="10.12567,10.12567" fill="none" />
    <path id=""  transform="matrix(1 0 0 -1 0 225)"  d="M183.18011 67.31592C 184.8435 67.31592 186.2633 67.90401 187.43951 69.080215L187.43951 69.080215L187.43951 69.080215C 188.61572 70.256424 189.20386 71.67624 189.20386 73.339645L189.20386 73.339645L189.20386 73.339645C 189.20386 75.00305 188.61572 76.42285 187.43951 77.599075L187.43951 77.599075L187.43951 77.599075C 186.2633 78.77527 184.8435 79.36337 183.18011 79.36337L183.18011 79.36337L183.18011 79.36337C 181.51666 79.36337 180.09686 78.77527 178.92072 77.599075L178.92072 77.599075L178.92072 77.599075C 177.74445 76.42285 177.15637 75.00305 177.15637 73.339645L177.15637 73.339645L177.15637 73.339645C 177.15637 71.67624 177.74445 70.256424 178.92072 69.080215L178.92072 69.080215L178.92072 69.080215C 180.09686 67.90401 181.51666 67.31592 183.18011 67.31592" stroke="none" fill="#FFFFFF" fill-rule="evenodd" />
    <path id=""  transform="matrix(1 0 0 -1 0 225)"  d="M183.18011 70.58893C 183.9397 70.58893 184.58807 70.85748 185.12518 71.39459L185.12518 71.39459L185.12518 71.39459C 185.6623 71.9317 185.93085 72.58005 185.93085 73.339645L185.93085 73.339645L185.93085 73.339645C 185.93085 74.09924 185.6623 74.74759 185.12518 75.2847L185.12518 75.2847L185.12518 75.2847C 184.58807 75.82181 183.9397 76.09036 183.18011 76.09036L183.18011 76.09036L183.18011 76.09036C 182.42047 76.09036 181.77216 75.82181 181.23505 75.2847L181.23505 75.2847L181.23505 75.2847C 180.69794 74.74759 180.42938 74.09924 180.42938 73.339645L180.42938 73.339645L180.42938 73.339645C 180.42938 72.58005 180.69794 71.9317 181.23505 71.39459L181.23505 71.39459L181.23505 71.39459C 181.77216 70.85748 182.42047 70.58893 183.18011 70.58893" stroke="none" fill="#000037" fill-rule="evenodd" />
    <path id=""  transform="matrix(1 0 0 -1 0 225)"  d="M116.805115 38.768692C 126.35162 38.768692 134.50006 42.14389 141.25049 48.894287L141.25049 48.894287L141.25049 48.894287C 148.00085 55.644684 151.37604 63.793137 151.37604 73.339645L151.37604 73.339645L151.37604 73.339645C 151.37604 82.886154 148.00085 91.03461 141.25049 97.785L141.25049 97.785L141.25049 97.785C 134.50006 104.5354 126.35162 107.9106 116.805115 107.9106L116.805115 107.9106L116.805115 107.9106C 107.258606 107.9106 99.11011 104.5354 92.35974 97.785L92.35974 97.785L92.35974 97.785C 85.609375 91.03461 82.23419 82.886154 82.23419 73.339645L82.23419 73.339645L82.23419 73.339645C 82.23419 63.793137 85.609375 55.644684 92.35974 48.894287L92.35974 48.894287L92.35974 48.894287C 99.11011 42.14389 107.258606 38.768692 116.805115 38.768692" stroke="none" fill="#FFFFFF" fill-rule="evenodd" />
    <path id=""  transform="matrix(1 0 0 -1 0 225)"  d="M116.805115 43.569977C 125.02576 43.569977 132.04254 46.47641 137.85547 52.289307L137.85547 52.289307L137.85547 52.289307C 143.66827 58.102203 146.57477 65.11899 146.57477 73.339645L146.57477 73.339645L146.57477 73.339645C 146.57477 81.5603 143.66827 88.57709 137.85547 94.389984L137.85547 94.389984L137.85547 94.389984C 132.04254 100.202866 125.02576 103.109314 116.805115 103.109314L116.805115 103.109314L116.805115 103.109314C 108.58441 103.109314 101.56769 100.202866 95.75476 94.389984L95.75476 94.389984L95.75476 94.389984C 89.94183 88.57709 87.03546 81.5603 87.03546 73.339645L87.03546 73.339645L87.03546 73.339645C 87.03546 65.11899 89.94183 58.102203 95.75476 52.289307L95.75476 52.289307L95.75476 52.289307C 101.56769 46.47641 108.58441 43.569977 116.805115 43.569977" stroke="none" fill="#000037" fill-rule="evenodd" />
    <path id=""  transform="matrix(1 0 0 -1 0 225)"  d="M116.916626 57.17807C 125.72339 57.238785 132.85999 64.33972 132.96484 73.145996L132.96484 73.145996L132.96484 73.145996C 133.0697 81.952286 126.10425 89.22119 117.30151 89.49162L117.30151 89.49162L117.30151 89.49162C 108.49872 89.76207 101.10016 82.93443 100.66431 74.13832L100.66431 74.13832L100.66431 74.13832C 100.22839 65.34221 106.91571 57.81659 115.70209 57.215393" stroke="#FFFFFF" stroke-width="5.0628366" stroke-linecap="square" stroke-dasharray="10.12567,10.12567" fill="none" />
    <path id=""  transform="matrix(1 0 0 -1 0 225)"  d="M116.805115 67.31592C 118.468506 67.31592 119.888306 67.90401 121.064514 69.080215L121.064514 69.080215L121.064514 69.080215C 122.24072 70.256424 122.82886 71.67624 122.82886 73.339645L122.82886 73.339645L122.82886 73.339645C 122.82886 75.00305 122.24072 76.42285 121.064514 77.599075L121.064514 77.599075L121.064514 77.599075C 119.888306 78.77527 118.468506 79.36337 116.805115 79.36337L116.805115 79.36337L116.805115 79.36337C 115.14166 79.36337 113.72186 78.77527 112.545715 77.599075L112.545715 77.599075L112.545715 77.599075C 111.369446 76.42285 110.78137 75.00305 110.78137 73.339645L110.78137 73.339645L110.78137 73.339645C 110.78137 71.67624 111.369446 70.256424 112.545715 69.080215L112.545715 69.080215L112.545715 69.080215C 113.72186 67.90401 115.14166 67.31592 116.805115 67.31592" stroke="none" fill="#FFFFFF" fill-rule="evenodd" />
    <path id=""  transform="matrix(1 0 0 -1 0 225)"  d="M116.805115 70.58893C 117.5647 70.58893 118.21307 70.85748 118.75018 71.39459L118.75018 71.39459L118.75018 71.39459C 119.28729 71.9317 119.55585 72.58005 119.55585 73.339645L119.55585 73.339645L119.55585 73.339645C 119.55585 74.09924 119.28729 74.74759 118.75018 75.2847L118.75018 75.2847L118.75018 75.2847C 118.21307 75.82181 117.5647 76.09036 116.805115 76.09036L116.805115 76.09036L116.805115 76.09036C 116.04547 76.09036 115.397156 75.82181 114.86005 75.2847L114.86005 75.2847L114.86005 75.2847C 114.32294 74.74759 114.05438 74.09924 114.05438 73.339645L114.05438 73.339645L114.05438 73.339645C 114.05438 72.58005 114.32294 71.9317 114.86005 71.39459L114.86005 71.39459L114.86005 71.39459C 115.397156 70.85748 116.04547 70.58893 116.805115 70.58893" stroke="none" fill="#000037" fill-rule="evenodd" />
    <path id=""  transform="matrix(1 0 0 -1 0 225)"  d="M49.305115 38.768692C 58.851624 38.768692 67.00006 42.14389 73.75049 48.894287L73.75049 48.894287L73.75049 48.894287C 80.500854 55.644684 83.87604 63.793137 83.87604 73.339645L83.87604 73.339645L83.87604 73.339645C 83.87604 82.886154 80.500854 91.03461 73.75049 97.785L73.75049 97.785L73.75049 97.785C 67.00006 104.5354 58.851624 107.9106 49.305115 107.9106L49.305115 107.9106L49.305115 107.9106C 39.758606 107.9106 31.610107 104.5354 24.859741 97.785L24.859741 97.785L24.859741 97.785C 18.109314 91.03461 14.734131 82.886154 14.734192 73.339645L14.734192 73.339645L14.734192 73.339645C 14.734131 63.793137 18.109314 55.644684 24.859741 48.894287L24.859741 48.894287L24.859741 48.894287C 31.610107 42.14389 39.758606 38.768692 49.305115 38.768692" stroke="none" fill="#FFFFFF" fill-rule="evenodd" />
    <path id=""  transform="matrix(1 0 0 -1 0 225)"  d="M49.305115 43.569977C 57.525757 43.569977 64.54254 46.47641 70.35547 52.289307L70.35547 52.289307L70.35547 52.289307C 76.168274 58.102203 79.07477 65.11899 79.07477 73.339645L79.07477 73.339645L79.07477 73.339645C 79.07477 81.5603 76.168274 88.57709 70.35547 94.389984L70.35547 94.389984L70.35547 94.389984C 64.54254 100.202866 57.525757 103.109314 49.305115 103.109314L49.305115 103.109314L49.305115 103.109314C 41.08441 103.109314 34.067688 100.202866 28.25476 94.389984L28.25476 94.389984L28.25476 94.389984C 22.441833 88.57709 19.535461 81.5603 19.535461 73.339645L19.535461 73.339645L19.535461 73.339645C 19.535461 65.11899 22.441833 58.102203 28.25476 52.289307L28.25476 52.289307L28.25476 52.289307C 34.067688 46.47641 41.08441 43.569977 49.305115 43.569977" stroke="none" fill="#000037" fill-rule="evenodd" />
    <path id=""  transform="matrix(1 0 0 -1 0 225)"  d="M49.416626 57.17807C 58.223267 57.238754 65.359985 64.33971 65.464905 73.14598L65.464905 73.14598L65.464905 73.14598C 65.569824 81.952286 58.60431 89.221176 49.801514 89.49162L49.801514 89.49162L49.801514 89.49162C 40.99878 89.762085 33.60016 82.93446 33.164307 74.138306L33.164307 74.138306L33.164307 74.138306C 32.728333 65.34216 39.41577 57.816513 48.20215 57.215378" stroke="#FFFFFF" stroke-width="5.0628366" stroke-linecap="square" stroke-dasharray="10.12567,10.12567" fill="none" />
    <path id=""  transform="matrix(1 0 0 -1 0 225)"  d="M49.305115 67.31592C 50.968506 67.31592 52.388306 67.90401 53.564514 69.080215L53.564514 69.080215L53.564514 69.080215C 54.740723 70.256424 55.328857 71.67624 55.328857 73.339645L55.328857 73.339645L55.328857 73.339645C 55.328857 75.00305 54.740723 76.42285 53.564514 77.599075L53.564514 77.599075L53.564514 77.599075C 52.388306 78.77527 50.968506 79.36337 49.305115 79.36337L49.305115 79.36337L49.305115 79.36337C 47.641663 79.36337 46.221863 78.77527 45.045715 77.599075L45.045715 77.599075L45.045715 77.599075C 43.869446 76.42285 43.281372 75.00305 43.281372 73.339645L43.281372 73.339645L43.281372 73.339645C 43.281372 71.67624 43.869446 70.256424 45.045715 69.080215L45.045715 69.080215L45.045715 69.080215C 46.221863 67.90401 47.641663 67.31592 49.305115 67.31592" stroke="none" fill="#FFFFFF" fill-rule="evenodd" />
    <path id=""  transform="matrix(1 0 0 -1 0 225)"  d="M49.305115 70.58893C 50.064697 70.58893 50.713074 70.85748 51.250183 71.39459L51.250183 71.39459L51.250183 71.39459C 51.787292 71.9317 52.055847 72.58005 52.055847 73.339645L52.055847 73.339645L52.055847 73.339645C 52.055847 74.09924 51.787292 74.74759 51.250183 75.2847L51.250183 75.2847L51.250183 75.2847C 50.713074 75.82181 50.064697 76.09036 49.305115 76.09036L49.305115 76.09036L49.305115 76.09036C 48.54547 76.09036 47.897156 75.82181 47.360046 75.2847L47.360046 75.2847L47.360046 75.2847C 46.822937 74.74759 46.554382 74.09924 46.554382 73.339645L46.554382 73.339645L46.554382 73.339645C 46.554382 72.58005 46.822937 71.9317 47.360046 71.39459L47.360046 71.39459L47.360046 71.39459C 47.897156 70.85748 48.54547 70.58893 49.305115 70.58893" stroke="none" fill="#000037" fill-rule="evenodd" />
	</g>
</g>
</svg>