<?xml version="1.0" standalone="no"?>
<!DOCTYPE svg PUBLIC "-//W3C//DTD SVG 1.0//EN" "http://www.w3.org/TR/2001/REC-SVG-20010904/DTD/svg10.dtd">
<svg xmlns="http://www.w3.org/2000/svg" xmlns:xlink="http://www.w3.org/1999/xlink" id="body_1" width="400" height="300">

<defs>
    <clipPath  id="1">

    <path id=""  clip-rule="evenodd" transform="matrix(1 0 0 1 0 0)"  d="M0 0L300 0L300 0L300 225L300 225L1.3777277E-14 225L1.3777277E-14 225L0 0z" />    </clipPath>
</defs>

<g transform="matrix(1.3333 0 0 1.3333 0 0)">
	<g clip-path="url(#1)" >
    <path id=""  transform="matrix(1 0 0 -1 0 225)"  d="M252.74951 1.0937805C 265.40735 1.0937653 276.21155 5.5690155 285.16205 14.519501L285.16205 14.519501L285.16205 14.519501C 294.11252 23.469986 298.58777 34.274155 298.58777 46.932053L298.58777 46.932053L298.58777 46.932053C 298.58777 59.589935 294.11252 70.39412 285.16205 79.344604L285.16205 79.344604L285.16205 79.344604C 276.21155 88.29509 265.40735 92.770325 252.74951 92.770325L252.74951 92.770325L252.74951 92.770325C 240.09161 92.770325 229.28748 88.29509 220.33698 79.344604L220.33698 79.344604L220.33698 79.344604C 211.38647 70.39412 206.91125 59.589935 206.91125 46.932053L206.91125 46.932053L206.91125 46.932053C 206.91125 34.274155 211.38647 23.469986 220.33698 14.519501L220.33698 14.519501L220.33698 14.519501C 229.28748 5.5690155 240.09161 1.0937653 252.74951 1.0937805" stroke="none" fill="#000000" fill-rule="evenodd" />
    <path id=""  transform="matrix(1 0 0 -1 0 225)"  d="M252.74951 132.0853C 265.40735 132.0853 276.21155 136.56055 285.16205 145.51102L285.16205 145.51102L285.16205 145.51102C 294.11252 154.4615 298.58777 165.26569 298.58777 177.92358L298.58777 177.92358L298.58777 177.92358C 298.58777 190.58147 294.11252 201.38565 285.16205 210.33612L285.16205 210.33612L285.16205 210.33612C 276.21155 219.2866 265.40735 223.76184 252.74951 223.76184L252.74951 223.76184L252.74951 223.76184C 240.09161 223.76184 229.28748 219.2866 220.33698 210.33612L220.33698 210.33612L220.33698 210.33612C 211.38647 201.38565 206.91125 190.58147 206.91125 177.92358L206.91125 177.92358L206.91125 177.92358C 206.91125 165.26569 211.38647 154.4615 220.33698 145.51102L220.33698 145.51102L220.33698 145.51102C 229.28748 136.56055 240.09161 132.0853 252.74951 132.0853" stroke="none" fill="#000000" fill-rule="evenodd" />
    <path id=""  transform="matrix(1 0 0 -1 0 225)"  d="M252.74951 66.58954C 265.40735 66.58954 276.21155 71.06477 285.16205 80.01526L285.16205 80.01526L285.16205 80.01526C 294.11252 88.96573 298.58777 99.76991 298.58777 112.42781L298.58777 112.42781L298.58777 112.42781C 298.58777 125.08569 294.11252 135.88988 285.16205 144.84036L285.16205 144.84036L285.16205 144.84036C 276.21155 153.79083 265.40735 158.26608 252.74951 158.26608L252.74951 158.26608L252.74951 158.26608C 240.09161 158.26608 229.28748 153.79083 220.33698 144.84036L220.33698 144.84036L220.33698 144.84036C 211.38647 135.88988 206.91125 125.08569 206.91125 112.42781L206.91125 112.42781L206.91125 112.42781C 206.91125 99.76991 211.38647 88.96573 220.33698 80.01526L220.33698 80.01526L220.33698 80.01526C 229.28748 71.06477 240.09161 66.58954 252.74951 66.58954" stroke="none" fill="#000000" fill-rule="evenodd" />
    <path id=""  transform="matrix(1 0 0 -1 0 225)"  d="M252.74951 77.85686C 262.29602 77.85686 270.44446 81.232056 277.19485 87.98245L277.19485 87.98245L277.19485 87.98245C 283.94525 94.73285 287.32043 102.8813 287.32047 112.42781L287.32047 112.42781L287.32047 112.42781C 287.32043 121.974304 283.94525 130.12276 277.19485 136.87317L277.19485 136.87317L277.19485 136.87317C 270.44446 143.62357 262.29602 146.99876 252.74951 146.99876L252.74951 146.99876L252.74951 146.99876C 243.203 146.99876 235.05457 143.62357 228.30414 136.87317L228.30414 136.87317L228.30414 136.87317C 221.55377 130.12276 218.17859 121.974304 218.17859 112.42781L218.17859 112.42781L218.17859 112.42781C 218.17859 102.8813 221.55377 94.73285 228.30414 87.98245L228.30414 87.98245L228.30414 87.98245C 235.05457 81.232056 243.203 77.85686 252.74951 77.85686" stroke="none" fill="#FFFFFF" fill-rule="evenodd" />
    <path id=""  transform="matrix(1 0 0 -1 0 225)"  d="M252.74951 82.65814C 260.97015 82.65814 267.98694 85.56459 273.79987 91.37749L273.79987 91.37749L273.79987 91.37749C 279.61273 97.19037 282.51917 104.20714 282.51917 112.42781L282.51917 112.42781L282.51917 112.42781C 282.51917 120.64847 279.61273 127.66525 273.79987 133.47815L273.79987 133.47815L273.79987 133.47815C 267.98694 139.29103 260.97015 142.19748 252.74951 142.19748L252.74951 142.19748L252.74951 142.19748C 244.52881 142.19748 237.51202 139.29103 231.69916 133.47815L231.69916 133.47815L231.69916 133.47815C 225.88629 127.66525 222.97986 120.64847 222.97986 112.42781L222.97986 112.42781L222.97986 112.42781C 222.97986 104.20714 225.88629 97.19037 231.69916 91.37749L231.69916 91.37749L231.69916 91.37749C 237.51202 85.56459 244.52881 82.65814 252.74951 82.65814" stroke="none" fill="#000037" fill-rule="evenodd" />
    <path id=""  transform="matrix(1 0 0 -1 0 225)"  d="M252.86096 96.266235C 261.66766 96.32692 268.80438 103.42786 268.9093 112.23416L268.9093 112.23416L268.9093 112.23416C 269.01422 121.04046 262.04877 128.30936 253.24591 128.5798L253.24591 128.5798L253.24591 128.5798C 244.44318 128.85022 237.04462 122.0226 236.60876 113.22649L236.60876 113.22649L236.60876 113.22649C 236.17291 104.43035 242.86023 96.904724 251.64655 96.30356" stroke="#FFFFFF" stroke-width="5.0628366" stroke-linecap="square" stroke-dasharray="10.12567,10.12567" fill="none" />
    <path id=""  transform="matrix(1 0 0 -1 0 225)"  d="M252.74951 106.404076C 254.4129 106.40407 255.8327 106.99217 257.0089 108.16839L257.0089 108.16839L257.0089 108.16839C 258.18512 109.34459 258.77325 110.764404 258.77325 112.42781L258.77325 112.42781L258.77325 112.42781C 258.77325 114.09122 258.18512 115.51102 257.0089 116.68723L257.0089 116.68723L257.0089 116.68723C 255.8327 117.863434 254.4129 118.45154 252.74951 118.451546L252.74951 118.451546L252.74951 118.451546C 251.08606 118.45154 249.66626 117.863434 248.49011 116.68723L248.49011 116.68723L248.49011 116.68723C 247.31384 115.51102 246.72571 114.09122 246.72577 112.42781L246.72577 112.42781L246.72577 112.42781C 246.72571 110.764404 247.31384 109.34459 248.49011 108.16839L248.49011 108.16839L248.49011 108.16839C 249.66626 106.99217 251.08606 106.40407 252.74951 106.404076" stroke="none" fill="#FFFFFF" fill-rule="evenodd" />
    <path id=""  transform="matrix(1 0 0 -1 0 225)"  d="M252.74951 109.67709C 253.5091 109.67709 254.15747 109.94565 254.69458 110.48276L254.69458 110.48276L254.69458 110.48276C 255.23169 111.01987 255.50024 111.66821 255.50024 112.42781L255.50024 112.42781L255.50024 112.42781C 255.50024 113.18739 255.23169 113.83575 254.69458 114.37286L254.69458 114.37286L254.69458 114.37286C 254.15747 114.909966 253.5091 115.17852 252.74951 115.17853L252.74951 115.17853L252.74951 115.17853C 251.98987 115.17852 251.34155 114.909966 250.80444 114.37286L250.80444 114.37286L250.80444 114.37286C 250.26733 113.83575 249.99878 113.18739 249.99878 112.42781L249.99878 112.42781L249.99878 112.42781C 249.99878 111.66821 250.26733 111.01987 250.80444 110.48276L250.80444 110.48276L250.80444 110.48276C 251.34155 109.94565 251.98987 109.67709 252.74951 109.67709" stroke="none" fill="#000037" fill-rule="evenodd" />
    <path id=""  transform="matrix(1 0 0 -1 0 225)"  d="M252.74951 143.35263C 262.29602 143.35263 270.44446 146.72781 277.19485 153.47823L277.19485 153.47823L277.19485 153.47823C 283.94525 160.22862 287.32043 168.37708 287.32047 177.92358L287.32047 177.92358L287.32047 177.92358C 287.32043 187.47008 283.94525 195.61853 277.19485 202.36893L277.19485 202.36893L277.19485 202.36893C 270.44446 209.11932 262.29602 212.49454 252.74951 212.49454L252.74951 212.49454L252.74951 212.49454C 243.203 212.49454 235.05457 209.11932 228.30414 202.36893L228.30414 202.36893L228.30414 202.36893C 221.55377 195.61853 218.17859 187.47008 218.17859 177.92358L218.17859 177.92358L218.17859 177.92358C 218.17859 168.37708 221.55377 160.22862 228.30414 153.47823L228.30414 153.47823L228.30414 153.47823C 235.05457 146.72781 243.203 143.35263 252.74951 143.35263" stroke="none" fill="#FFFFFF" fill-rule="evenodd" />
    <path id=""  transform="matrix(1 0 0 -1 0 225)"  d="M252.74951 148.15392C 260.97015 148.15392 267.98694 151.06036 273.79987 156.87325L273.79987 156.87325L273.79987 156.87325C 279.61273 162.68613 282.51917 169.70291 282.51917 177.92358L282.51917 177.92358L282.51917 177.92358C 282.51917 186.14424 279.61273 193.16103 273.79987 198.9739L273.79987 198.9739L273.79987 198.9739C 267.98694 204.7868 260.97015 207.69324 252.74951 207.69324L252.74951 207.69324L252.74951 207.69324C 244.52881 207.69324 237.51202 204.7868 231.69916 198.9739L231.69916 198.9739L231.69916 198.9739C 225.88629 193.16103 222.97986 186.14424 222.97986 177.92358L222.97986 177.92358L222.97986 177.92358C 222.97986 169.70291 225.88629 162.68613 231.69916 156.87325L231.69916 156.87325L231.69916 156.87325C 237.51202 151.06036 244.52881 148.15392 252.74951 148.15392" stroke="none" fill="#000037" fill-rule="evenodd" />
    <path id=""  transform="matrix(1 0 0 -1 0 225)"  d="M252.86096 161.76201C 261.66766 161.82268 268.80432 168.92361 268.90924 177.72993L268.90924 177.72993L268.90924 177.72993C 269.01416 186.53622 262.04865 193.80511 253.24591 194.07556L253.24591 194.07556L253.24591 194.07556C 244.44312 194.34598 237.04456 187.51837 236.60864 178.72226L236.60864 178.72226L236.60864 178.72226C 236.17285 169.92612 242.86017 162.4005 251.64655 161.79932" stroke="#FFFFFF" stroke-width="5.0628366" stroke-linecap="square" stroke-dasharray="10.12567,10.12567" fill="none" />
    <path id=""  transform="matrix(1 0 0 -1 0 225)"  d="M252.74951 171.89984C 254.4129 171.89984 255.8327 172.48795 257.0089 173.66415L257.0089 173.66415L257.0089 173.66415C 258.18512 174.84036 258.77325 176.26016 258.77325 177.92358L258.77325 177.92358L258.77325 177.92358C 258.77325 179.58698 258.18512 181.00679 257.0089 182.183L257.0089 182.183L257.0089 182.183C 255.8327 183.3592 254.4129 183.94731 252.74951 183.94731L252.74951 183.94731L252.74951 183.94731C 251.08606 183.94731 249.66626 183.3592 248.49011 182.183L248.49011 182.183L248.49011 182.183C 247.31384 181.00679 246.72571 179.58698 246.72577 177.92358L246.72577 177.92358L246.72577 177.92358C 246.72571 176.26016 247.31384 174.84036 248.49011 173.66415L248.49011 173.66415L248.49011 173.66415C 249.66626 172.48795 251.08606 171.89984 252.74951 171.89984" stroke="none" fill="#FFFFFF" fill-rule="evenodd" />
    <path id=""  transform="matrix(1 0 0 -1 0 225)"  d="M252.74951 175.17285C 253.5091 175.17285 254.15747 175.4414 254.69458 175.97852L254.69458 175.97852L254.69458 175.97852C 255.23169 176.51562 255.50024 177.16399 255.50024 177.92358L255.50024 177.92358L255.50024 177.92358C 255.50024 178.68317 255.23169 179.33151 254.69458 179.86862L254.69458 179.86862L254.69458 179.86862C 254.15747 180.40573 253.5091 180.67429 252.74951 180.67429L252.74951 180.67429L252.74951 180.67429C 251.98987 180.67429 251.34155 180.40573 250.80444 179.86862L250.80444 179.86862L250.80444 179.86862C 250.26733 179.33151 249.99878 178.68317 249.99878 177.92358L249.99878 177.92358L249.99878 177.92358C 249.99878 177.16399 250.26733 176.51562 250.80444 175.97852L250.80444 175.97852L250.80444 175.97852C 251.34155 175.4414 251.98987 175.17285 252.74951 175.17285" stroke="none" fill="#000037" fill-rule="evenodd" />
    <path id=""  transform="matrix(1 0 0 -1 0 225)"  d="M252.74951 12.361099C 262.29602 12.361099 270.44446 15.736282 277.19485 22.486694L277.19485 22.486694L277.19485 22.486694C 283.94525 29.237076 287.32043 37.385544 287.32047 46.932053L287.32047 46.932053L287.32047 46.932053C 287.32043 56.47856 283.94525 64.627 277.19485 71.37741L277.19485 71.37741L277.19485 71.37741C 270.44446 78.12779 262.29602 81.503006 252.74951 81.503006L252.74951 81.503006L252.74951 81.503006C 243.203 81.503006 235.05457 78.12779 228.30414 71.37741L228.30414 71.37741L228.30414 71.37741C 221.55377 64.627 218.17859 56.47856 218.17859 46.932053L218.17859 46.932053L218.17859 46.932053C 218.17859 37.385544 221.55377 29.237076 228.30414 22.486694L228.30414 22.486694L228.30414 22.486694C 235.05457 15.736282 243.203 12.361099 252.74951 12.361099" stroke="none" fill="#FFFFFF" fill-rule="evenodd" />
    <path id=""  transform="matrix(1 0 0 -1 0 225)"  d="M252.74951 17.162384C 260.97015 17.162369 267.98694 20.068817 273.79987 25.88173L273.79987 25.88173L273.79987 25.88173C 279.61273 31.69461 282.51917 38.71138 282.51917 46.932053L282.51917 46.932053L282.51917 46.932053C 282.51917 55.15271 279.61273 62.16948 273.79987 67.982376L273.79987 67.982376L273.79987 67.982376C 267.98694 73.79527 260.97015 76.70172 252.74951 76.70172L252.74951 76.70172L252.74951 76.70172C 244.52881 76.70172 237.51202 73.79527 231.69916 67.982376L231.69916 67.982376L231.69916 67.982376C 225.88629 62.16948 222.97986 55.15271 222.97986 46.932053L222.97986 46.932053L222.97986 46.932053C 222.97986 38.71138 225.88629 31.69461 231.69916 25.88173L231.69916 25.88173L231.69916 25.88173C 237.51202 20.068817 244.52881 17.162369 252.74951 17.162384" stroke="none" fill="#000037" fill-rule="evenodd" />
    <path id=""  transform="matrix(1 0 0 -1 0 225)"  d="M252.8609 30.770477C 261.66766 30.831177 268.80432 37.9321 268.90918 46.738403L268.90918 46.738403L268.90918 46.738403C 269.01404 55.544693 262.04852 62.813583 253.24579 63.08403L253.24579 63.08403L253.24579 63.08403C 244.44305 63.35443 237.0445 56.526825 236.60864 47.73073L236.60864 47.73073L236.60864 47.73073C 236.17267 38.93457 242.85999 31.408966 251.64642 30.807785" stroke="#FFFFFF" stroke-width="5.0628366" stroke-linecap="square" stroke-dasharray="10.12567,10.12567" fill="none" />
    <path id=""  transform="matrix(1 0 0 -1 0 225)"  d="M252.74951 40.90831C 254.4129 40.90831 255.8327 41.496414 257.0089 42.672623L257.0089 42.672623L257.0089 42.672623C 258.18512 43.84883 258.77325 45.26863 258.77325 46.932053L258.77325 46.932053L258.77325 46.932053C 258.77325 48.59546 258.18512 50.015274 257.0089 51.191483L257.0089 51.191483L257.0089 51.191483C 255.8327 52.36769 254.4129 52.955795 252.74951 52.955795L252.74951 52.955795L252.74951 52.955795C 251.08606 52.955795 249.66626 52.36769 248.49011 51.191483L248.49011 51.191483L248.49011 51.191483C 247.31384 50.015274 246.72571 48.59546 246.72577 46.932053L246.72577 46.932053L246.72577 46.932053C 246.72571 45.26863 247.31384 43.84883 248.49011 42.672623L248.49011 42.672623L248.49011 42.672623C 249.66626 41.496414 251.08606 40.90831 252.74951 40.90831" stroke="none" fill="#FFFFFF" fill-rule="evenodd" />
    <path id=""  transform="matrix(1 0 0 -1 0 225)"  d="M252.74951 44.181335C 253.5091 44.181335 254.15747 44.44989 254.69458 44.987L254.69458 44.987L254.69458 44.987C 255.23169 45.52411 255.50024 46.172455 255.50024 46.932053L255.50024 46.932053L255.50024 46.932053C 255.50024 47.691635 255.23169 48.339996 254.69458 48.877106L254.69458 48.877106L254.69458 48.877106C 254.15747 49.414215 253.5091 49.68277 252.74951 49.68277L252.74951 49.68277L252.74951 49.68277C 251.98987 49.68277 251.34155 49.414215 250.80444 48.877106L250.80444 48.877106L250.80444 48.877106C 250.26733 48.339996 249.99878 47.691635 249.99878 46.932053L249.99878 46.932053L249.99878 46.932053C 249.99878 46.172455 250.26733 45.52411 250.80444 44.987L250.80444 44.987L250.80444 44.987C 251.34155 44.44989 251.98987 44.181335 252.74951 44.181335" stroke="none" fill="#000037" fill-rule="evenodd" />
    <path id=""  transform="matrix(1 0 0 -1 0 225)"  d="M47.24951 1.0937805C 59.90735 1.0937653 70.71155 5.5690155 79.66205 14.519501L79.66205 14.519501L79.66205 14.519501C 88.61252 23.469986 93.08777 34.274155 93.08777 46.932053L93.08777 46.932053L93.08777 46.932053C 93.08777 59.589935 88.61252 70.39412 79.66205 79.344604L79.66205 79.344604L79.66205 79.344604C 70.71155 88.29509 59.90735 92.770325 47.24951 92.770325L47.24951 92.770325L47.24951 92.770325C 34.591614 92.770325 23.787476 88.29509 14.836975 79.344604L14.836975 79.344604L14.836975 79.344604C 5.8864746 70.39412 1.4112549 59.589935 1.4112549 46.932053L1.4112549 46.932053L1.4112549 46.932053C 1.4112549 34.274155 5.8864746 23.469986 14.836975 14.519501L14.836975 14.519501L14.836975 14.519501C 23.787476 5.5690155 34.591614 1.0937653 47.24951 1.0937805" stroke="none" fill="#000000" fill-rule="evenodd" />
    <path id=""  transform="matrix(1 0 0 -1 0 225)"  d="M47.24951 132.0853C 59.90735 132.0853 70.71155 136.56055 79.66205 145.51102L79.66205 145.51102L79.66205 145.51102C 88.61252 154.4615 93.08777 165.26569 93.08777 177.92358L93.08777 177.92358L93.08777 177.92358C 93.08777 190.58147 88.61252 201.38565 79.66205 210.33612L79.66205 210.33612L79.66205 210.33612C 70.71155 219.2866 59.90735 223.76184 47.24951 223.76184L47.24951 223.76184L47.24951 223.76184C 34.591614 223.76184 23.787476 219.2866 14.836975 210.33612L14.836975 210.33612L14.836975 210.33612C 5.8864746 201.38565 1.4112549 190.58147 1.4112549 177.92358L1.4112549 177.92358L1.4112549 177.92358C 1.4112549 165.26569 5.8864746 154.4615 14.836975 145.51102L14.836975 145.51102L14.836975 145.51102C 23.787476 136.56055 34.591614 132.0853 47.24951 132.0853" stroke="none" fill="#000000" fill-rule="evenodd" />
    <path id=""  transform="matrix(1 0 0 -1 0 225)"  d="M47.24951 66.58954C 59.90735 66.58954 70.71155 71.06477 79.66205 80.01526L79.66205 80.01526L79.66205 80.01526C 88.61252 88.96573 93.08777 99.76991 93.08777 112.42781L93.08777 112.42781L93.08777 112.42781C 93.08777 125.08569 88.61252 135.88988 79.66205 144.84036L79.66205 144.84036L79.66205 144.84036C 70.71155 153.79083 59.90735 158.26608 47.24951 158.26608L47.24951 158.26608L47.24951 158.26608C 34.591614 158.26608 23.787476 153.79083 14.836975 144.84036L14.836975 144.84036L14.836975 144.84036C 5.8864746 135.88988 1.4112549 125.08569 1.4112549 112.42781L1.4112549 112.42781L1.4112549 112.42781C 1.4112549 99.76991 5.8864746 88.96573 14.836975 80.01526L14.836975 80.01526L14.836975 80.01526C 23.787476 71.06477 34.591614 66.58954 47.24951 66.58954" stroke="none" fill="#000000" fill-rule="evenodd" />
    <path id=""  transform="matrix(1 0 0 -1 0 225)"  d="M47.24951 77.85686C 56.79602 77.85686 64.94446 81.232056 71.694855 87.98245L71.694855 87.98245L71.694855 87.98245C 78.44525 94.73285 81.820435 102.8813 81.820465 112.42781L81.820465 112.42781L81.820465 112.42781C 81.820435 121.974304 78.44525 130.12276 71.694855 136.87317L71.694855 136.87317L71.694855 136.87317C 64.94446 143.62357 56.79602 146.99876 47.24951 146.99876L47.24951 146.99876L47.24951 146.99876C 37.703003 146.99876 29.554565 143.62357 22.804138 136.87317L22.804138 136.87317L22.804138 136.87317C 16.053772 130.12276 12.678589 121.974304 12.678589 112.42781L12.678589 112.42781L12.678589 112.42781C 12.678589 102.8813 16.053772 94.73285 22.804138 87.98245L22.804138 87.98245L22.804138 87.98245C 29.554565 81.232056 37.703003 77.85686 47.24951 77.85686" stroke="none" fill="#FFFFFF" fill-rule="evenodd" />
    <path id=""  transform="matrix(1 0 0 -1 0 225)"  d="M47.24951 82.65814C 55.470154 82.65814 62.48694 85.56459 68.299866 91.37749L68.299866 91.37749L68.299866 91.37749C 74.11273 97.19037 77.019165 104.20714 77.019165 112.42781L77.019165 112.42781L77.019165 112.42781C 77.019165 120.64847 74.11273 127.66525 68.299866 133.47815L68.299866 133.47815L68.299866 133.47815C 62.48694 139.29103 55.470154 142.19748 47.24951 142.19748L47.24951 142.19748L47.24951 142.19748C 39.02881 142.19748 32.012024 139.29103 26.199158 133.47815L26.199158 133.47815L26.199158 133.47815C 20.386292 127.66525 17.479858 120.64847 17.479858 112.42781L17.479858 112.42781L17.479858 112.42781C 17.479858 104.20714 20.386292 97.19037 26.199158 91.37749L26.199158 91.37749L26.199158 91.37749C 32.012024 85.56459 39.02881 82.65814 47.24951 82.65814" stroke="none" fill="#000037" fill-rule="evenodd" />
    <path id=""  transform="matrix(1 0 0 -1 0 225)"  d="M47.360962 96.266235C 56.167664 96.32692 63.304382 103.42786 63.4093 112.23416L63.4093 112.23416L63.4093 112.23416C 63.51422 121.04046 56.548767 128.30936 47.74591 128.5798L47.74591 128.5798L47.74591 128.5798C 38.943176 128.85022 31.544617 122.0226 31.108765 113.22649L31.108765 113.22649L31.108765 113.22649C 30.672913 104.43035 37.36023 96.904724 46.146545 96.30356" stroke="#FFFFFF" stroke-width="5.0628366" stroke-linecap="square" stroke-dasharray="10.12567,10.12567" fill="none" />
    <path id=""  transform="matrix(1 0 0 -1 0 225)"  d="M47.24951 106.404076C 48.912903 106.40407 50.332703 106.99217 51.50891 108.16839L51.50891 108.16839L51.50891 108.16839C 52.68512 109.34459 53.273254 110.764404 53.273254 112.42781L53.273254 112.42781L53.273254 112.42781C 53.273254 114.09122 52.68512 115.51102 51.50891 116.68723L51.50891 116.68723L51.50891 116.68723C 50.332703 117.863434 48.912903 118.45154 47.24951 118.451546L47.24951 118.451546L47.24951 118.451546C 45.58606 118.45154 44.16626 117.863434 42.990112 116.68723L42.990112 116.68723L42.990112 116.68723C 41.813843 115.51102 41.225708 114.09122 41.22577 112.42781L41.22577 112.42781L41.22577 112.42781C 41.225708 110.764404 41.813843 109.34459 42.990112 108.16839L42.990112 108.16839L42.990112 108.16839C 44.16626 106.99217 45.58606 106.40407 47.24951 106.404076" stroke="none" fill="#FFFFFF" fill-rule="evenodd" />
    <path id=""  transform="matrix(1 0 0 -1 0 225)"  d="M47.24951 109.67709C 48.009094 109.67709 48.65747 109.94565 49.19458 110.48276L49.19458 110.48276L49.19458 110.48276C 49.73169 111.01987 50.000244 111.66821 50.000244 112.42781L50.000244 112.42781L50.000244 112.42781C 50.000244 113.18739 49.73169 113.83575 49.19458 114.37286L49.19458 114.37286L49.19458 114.37286C 48.65747 114.909966 48.009094 115.17852 47.24951 115.17853L47.24951 115.17853L47.24951 115.17853C 46.48987 115.17852 45.841553 114.909966 45.304443 114.37286L45.304443 114.37286L45.304443 114.37286C 44.767334 113.83575 44.49878 113.18739 44.49878 112.42781L44.49878 112.42781L44.49878 112.42781C 44.49878 111.66821 44.767334 111.01987 45.304443 110.48276L45.304443 110.48276L45.304443 110.48276C 45.841553 109.94565 46.48987 109.67709 47.24951 109.67709" stroke="none" fill="#000037" fill-rule="evenodd" />
    <path id=""  transform="matrix(1 0 0 -1 0 225)"  d="M47.24951 143.35263C 56.79602 143.35263 64.94446 146.72781 71.694855 153.47823L71.694855 153.47823L71.694855 153.47823C 78.44525 160.22862 81.820435 168.37708 81.820465 177.92358L81.820465 177.92358L81.820465 177.92358C 81.820435 187.47008 78.44525 195.61853 71.694855 202.36893L71.694855 202.36893L71.694855 202.36893C 64.94446 209.11932 56.79602 212.49454 47.24951 212.49454L47.24951 212.49454L47.24951 212.49454C 37.703003 212.49454 29.554565 209.11932 22.804138 202.36893L22.804138 202.36893L22.804138 202.36893C 16.053772 195.61853 12.678589 187.47008 12.678589 177.92358L12.678589 177.92358L12.678589 177.92358C 12.678589 168.37708 16.053772 160.22862 22.804138 153.47823L22.804138 153.47823L22.804138 153.47823C 29.554565 146.72781 37.703003 143.35263 47.24951 143.35263" stroke="none" fill="#FFFFFF" fill-rule="evenodd" />
    <path id=""  transform="matrix(1 0 0 -1 0 225)"  d="M47.24951 148.15392C 55.470154 148.15392 62.48694 151.06036 68.299866 156.87325L68.299866 156.87325L68.299866 156.87325C 74.11273 162.68613 77.019165 169.70291 77.019165 177.92358L77.019165 177.92358L77.019165 177.92358C 77.019165 186.14424 74.11273 193.16103 68.299866 198.9739L68.299866 198.9739L68.299866 198.9739C 62.48694 204.7868 55.470154 207.69324 47.24951 207.69324L47.24951 207.69324L47.24951 207.69324C 39.02881 207.69324 32.012024 204.7868 26.199158 198.9739L26.199158 198.9739L26.199158 198.9739C 20.386292 193.16103 17.479858 186.14424 17.479858 177.92358L17.479858 177.92358L17.479858 177.92358C 17.479858 169.70291 20.386292 162.68613 26.199158 156.87325L26.199158 156.87325L26.199158 156.87325C 32.012024 151.06036 39.02881 148.15392 47.24951 148.15392" stroke="none" fill="#000037" fill-rule="evenodd" />
    <path id=""  transform="matrix(1 0 0 -1 0 225)"  d="M47.360962 161.76201C 56.167664 161.82268 63.30432 168.92361 63.40924 177.72993L63.40924 177.72993L63.40924 177.72993C 63.51416 186.53622 56.548645 193.80511 47.74591 194.07556L47.74591 194.07556L47.74591 194.07556C 38.943115 194.34598 31.544556 187.51837 31.108643 178.72226L31.108643 178.72226L31.108643 178.72226C 30.672852 169.92612 37.36017 162.4005 46.146545 161.79932" stroke="#FFFFFF" stroke-width="5.0628366" stroke-linecap="square" stroke-dasharray="10.12567,10.12567" fill="none" />
    <path id=""  transform="matrix(1 0 0 -1 0 225)"  d="M47.24951 171.89984C 48.912903 171.89984 50.332703 172.48795 51.50891 173.66415L51.50891 173.66415L51.50891 173.66415C 52.68512 174.84036 53.273254 176.26016 53.273254 177.92358L53.273254 177.92358L53.273254 177.92358C 53.273254 179.58698 52.68512 181.00679 51.50891 182.183L51.50891 182.183L51.50891 182.183C 50.332703 183.3592 48.912903 183.94731 47.24951 183.94731L47.24951 183.94731L47.24951 183.94731C 45.58606 183.94731 44.16626 183.3592 42.990112 182.183L42.990112 182.183L42.990112 182.183C 41.813843 181.00679 41.225708 179.58698 41.22577 177.92358L41.22577 177.92358L41.22577 177.92358C 41.225708 176.26016 41.813843 174.84036 42.990112 173.66415L42.990112 173.66415L42.990112 173.66415C 44.16626 172.48795 45.58606 171.89984 47.24951 171.89984" stroke="none" fill="#FFFFFF" fill-rule="evenodd" />
    <path id=""  transform="matrix(1 0 0 -1 0 225)"  d="M47.24951 175.17285C 48.009094 175.17285 48.65747 175.4414 49.19458 175.97852L49.19458 175.97852L49.19458 175.97852C 49.73169 176.51562 50.000244 177.16399 50.000244 177.92358L50.000244 177.92358L50.000244 177.92358C 50.000244 178.68317 49.73169 179.33151 49.19458 179.86862L49.19458 179.86862L49.19458 179.86862C 48.65747 180.40573 48.009094 180.67429 47.24951 180.67429L47.24951 180.67429L47.24951 180.67429C 46.48987 180.67429 45.841553 180.40573 45.304443 179.86862L45.304443 179.86862L45.304443 179.86862C 44.767334 179.33151 44.49878 178.68317 44.49878 177.92358L44.49878 177.92358L44.49878 177.92358C 44.49878 177.16399 44.767334 176.51562 45.304443 175.97852L45.304443 175.97852L45.304443 175.97852C 45.841553 175.4414 46.48987 175.17285 47.24951 175.17285" stroke="none" fill="#000037" fill-rule="evenodd" />
    <path id=""  transform="matrix(1 0 0 -1 0 225)"  d="M47.24951 12.361099C 56.79602 12.361099 64.94446 15.736282 71.694855 22.486694L71.694855 22.486694L71.694855 22.486694C 78.44525 29.237076 81.820435 37.385544 81.820465 46.932053L81.820465 46.932053L81.820465 46.932053C 81.820435 56.47856 78.44525 64.627 71.694855 71.37741L71.694855 71.37741L71.694855 71.37741C 64.94446 78.12779 56.79602 81.503006 47.24951 81.503006L47.24951 81.503006L47.24951 81.503006C 37.703003 81.503006 29.554565 78.12779 22.804138 71.37741L22.804138 71.37741L22.804138 71.37741C 16.053772 64.627 12.678589 56.47856 12.678589 46.932053L12.678589 46.932053L12.678589 46.932053C 12.678589 37.385544 16.053772 29.237076 22.804138 22.486694L22.804138 22.486694L22.804138 22.486694C 29.554565 15.736282 37.703003 12.361099 47.24951 12.361099" stroke="none" fill="#FFFFFF" fill-rule="evenodd" />
    <path id=""  transform="matrix(1 0 0 -1 0 225)"  d="M47.24951 17.162384C 55.470154 17.162369 62.48694 20.068817 68.299866 25.88173L68.299866 25.88173L68.299866 25.88173C 74.11273 31.69461 77.019165 38.71138 77.019165 46.932053L77.019165 46.932053L77.019165 46.932053C 77.019165 55.15271 74.11273 62.16948 68.299866 67.982376L68.299866 67.982376L68.299866 67.982376C 62.48694 73.79527 55.470154 76.70172 47.24951 76.70172L47.24951 76.70172L47.24951 76.70172C 39.02881 76.70172 32.012024 73.79527 26.199158 67.982376L26.199158 67.982376L26.199158 67.982376C 20.386292 62.16948 17.479858 55.15271 17.479858 46.932053L17.479858 46.932053L17.479858 46.932053C 17.479858 38.71138 20.386292 31.69461 26.199158 25.88173L26.199158 25.88173L26.199158 25.88173C 32.012024 20.068817 39.02881 17.162369 47.24951 17.162384" stroke="none" fill="#000037" fill-rule="evenodd" />
    <path id=""  transform="matrix(1 0 0 -1 0 225)"  d="M47.3609 30.770477C 56.167664 30.831177 63.30432 37.9321 63.40918 46.738403L63.40918 46.738403L63.40918 46.738403C 63.514038 55.544693 56.548523 62.813583 47.74579 63.08403L47.74579 63.08403L47.74579 63.08403C 38.943054 63.35443 31.544495 56.526825 31.108643 47.73073L31.108643 47.73073L31.108643 47.73073C 30.672668 38.93457 37.359985 31.408966 46.146423 30.807785" stroke="#FFFFFF" stroke-width="5.0628366" stroke-linecap="square" stroke-dasharray="10.12567,10.12567" fill="none" />
    <path id=""  transform="matrix(1 0 0 -1 0 225)"  d="M47.24951 40.90831C 48.912903 40.90831 50.332703 41.496414 51.50891 42.672623L51.50891 42.672623L51.50891 42.672623C 52.68512 43.84883 53.273254 45.26863 53.273254 46.932053L53.273254 46.932053L53.273254 46.932053C 53.273254 48.59546 52.68512 50.015274 51.50891 51.191483L51.50891 51.191483L51.50891 51.191483C 50.332703 52.36769 48.912903 52.955795 47.24951 52.955795L47.24951 52.955795L47.24951 52.955795C 45.58606 52.955795 44.16626 52.36769 42.990112 51.191483L42.990112 51.191483L42.990112 51.191483C 41.813843 50.015274 41.225708 48.59546 41.22577 46.932053L41.22577 46.932053L41.22577 46.932053C 41.225708 45.26863 41.813843 43.84883 42.990112 42.672623L42.990112 42.672623L42.990112 42.672623C 44.16626 41.496414 45.58606 40.90831 47.24951 40.90831" stroke="none" fill="#FFFFFF" fill-rule="evenodd" />
    <path id=""  transform="matrix(1 0 0 -1 0 225)"  d="M47.24951 44.181335C 48.009094 44.181335 48.65747 44.44989 49.19458 44.987L49.19458 44.987L49.19458 44.987C 49.73169 45.52411 50.000244 46.172455 50.000244 46.932053L50.000244 46.932053L50.000244 46.932053C 50.000244 47.691635 49.73169 48.339996 49.19458 48.877106L49.19458 48.877106L49.19458 48.877106C 48.65747 49.414215 48.009094 49.68277 47.24951 49.68277L47.24951 49.68277L47.24951 49.68277C 46.48987 49.68277 45.841553 49.414215 45.304443 48.877106L45.304443 48.877106L45.304443 48.877106C 44.767334 48.339996 44.49878 47.691635 44.49878 46.932053L44.49878 46.932053L44.49878 46.932053C 44.49878 46.172455 44.767334 45.52411 45.304443 44.987L45.304443 44.987L45.304443 44.987C 45.841553 44.44989 46.48987 44.181335 47.24951 44.181335" stroke="none" fill="#000037" fill-rule="evenodd" />
    <path id=""  transform="matrix(1 0 0 -1 0 225)"  d="M149.69061 131.89021C 162.34845 131.89021 173.15265 136.36545 182.10315 145.31593L182.10315 145.31593L182.10315 145.31593C 191.05359 154.26642 195.52887 165.07059 195.52887 177.72849L195.52887 177.72849L195.52887 177.72849C 195.52887 190.38637 191.05359 201.19055 182.10315 210.14104L182.10315 210.14104L182.10315 210.14104C 173.15265 219.09152 162.34845 223.56676 149.69061 223.56676L149.69061 223.56676L149.69061 223.56676C 137.03271 223.56676 126.228516 219.09152 117.278076 210.14104L117.278076 210.14104L117.278076 210.14104C 108.327576 201.19055 103.852356 190.38637 103.852356 177.72849L103.852356 177.72849L103.852356 177.72849C 103.852356 165.07059 108.327576 154.26642 117.278076 145.31593L117.278076 145.31593L117.278076 145.31593C 126.228516 136.36545 137.03271 131.89021 149.69061 131.89021" stroke="none" fill="#000000" fill-rule="evenodd" />
    <path id=""  transform="matrix(1 0 0 -1 0 225)"  d="M149.69061 0.89868164C 162.34845 0.8986664 173.15265 5.3739166 182.10315 14.324402L182.10315 14.324402L182.10315 14.324402C 191.05359 23.274887 195.52887 34.079056 195.52887 46.736954L195.52887 46.736954L195.52887 46.736954C 195.52887 59.394836 191.05359 70.19902 182.10315 79.149506L182.10315 79.149506L182.10315 79.149506C 173.15265 88.09999 162.34845 92.575226 149.69061 92.575226L149.69061 92.575226L149.69061 92.575226C 137.03271 92.575226 126.228516 88.09999 117.278076 79.149506L117.278076 79.149506L117.278076 79.149506C 108.327576 70.19902 103.852356 59.394836 103.852356 46.736954L103.852356 46.736954L103.852356 46.736954C 103.852356 34.079056 108.327576 23.274887 117.278076 14.324402L117.278076 14.324402L117.278076 14.324402C 126.228516 5.3739166 137.03271 0.8986664 149.69061 0.89868164" stroke="none" fill="#000000" fill-rule="evenodd" />
    <path id=""  transform="matrix(1 0 0 -1 0 225)"  d="M149.69061 66.65962C 162.34845 66.65962 173.15265 71.13486 182.10315 80.08534L182.10315 80.08534L182.10315 80.08534C 191.05359 89.03581 195.52887 99.84 195.52887 112.497894L195.52887 112.497894L195.52887 112.497894C 195.52887 125.15578 191.05359 135.95996 182.10315 144.91045L182.10315 144.91045L182.10315 144.91045C 173.15265 153.86093 162.34845 158.33617 149.69061 158.33617L149.69061 158.33617L149.69061 158.33617C 137.03271 158.33617 126.228516 153.86093 117.278076 144.91045L117.278076 144.91045L117.278076 144.91045C 108.327576 135.95996 103.852356 125.15578 103.852356 112.497894L103.852356 112.497894L103.852356 112.497894C 103.852356 99.84 108.327576 89.03581 117.278076 80.08534L117.278076 80.08534L117.278076 80.08534C 126.228516 71.13486 137.03271 66.65962 149.69061 66.65962" stroke="none" fill="#000000" fill-rule="evenodd" />
    <path id=""  transform="matrix(1 0 0 -1 0 225)"  d="M149.69061 77.92694C 159.23712 77.92694 167.38556 81.30214 174.13599 88.052536L174.13599 88.052536L174.13599 88.052536C 180.88635 94.80293 184.2616 102.951385 184.2616 112.497894L184.2616 112.497894L184.2616 112.497894C 184.2616 122.04439 180.88635 130.19284 174.13599 136.94325L174.13599 136.94325L174.13599 136.94325C 167.38556 143.69365 159.23712 147.06885 149.69061 147.06885L149.69061 147.06885L149.69061 147.06885C 140.1441 147.06885 131.9956 143.69365 125.24524 136.94325L125.24524 136.94325L125.24524 136.94325C 118.49481 130.19284 115.11963 122.04439 115.11963 112.497894L115.11963 112.497894L115.11963 112.497894C 115.11963 102.951385 118.49481 94.80293 125.24524 88.052536L125.24524 88.052536L125.24524 88.052536C 131.9956 81.30214 140.1441 77.92694 149.69061 77.92694" stroke="none" fill="#FFFFFF" fill-rule="evenodd" />
    <path id=""  transform="matrix(1 0 0 -1 0 225)"  d="M149.69061 82.728226C 157.91125 82.728226 164.92804 85.63466 170.74097 91.447556L170.74097 91.447556L170.74097 91.447556C 176.55383 97.260445 179.46027 104.27722 179.46027 112.497894L179.46027 112.497894L179.46027 112.497894C 179.46027 120.71855 176.55383 127.73534 170.74097 133.54822L170.74097 133.54822L170.74097 133.54822C 164.92804 139.36111 157.91125 142.26756 149.69061 142.26756L149.69061 142.26756L149.69061 142.26756C 141.46991 142.26756 134.45312 139.36111 128.64026 133.54822L128.64026 133.54822L128.64026 133.54822C 122.82739 127.73534 119.92096 120.71855 119.92096 112.497894L119.92096 112.497894L119.92096 112.497894C 119.92096 104.27722 122.82739 97.260445 128.64026 91.447556L128.64026 91.447556L128.64026 91.447556C 134.45312 85.63466 141.46991 82.728226 149.69061 82.728226" stroke="none" fill="#B93C3C" fill-rule="evenodd" />
    <path id=""  transform="matrix(1 0 0 -1 0 225)"  d="M149.802 96.33632C 158.60876 96.39703 165.74542 103.49796 165.85028 112.304245L165.85028 112.304245L165.85028 112.304245C 165.95514 121.11055 158.98969 128.37946 150.18689 128.64989L150.18689 128.64989L150.18689 128.64989C 141.38416 128.9203 133.98553 122.09268 133.54974 113.29657L133.54974 113.29657L133.54974 113.29657C 133.11383 104.500435 139.80109 96.97481 148.58752 96.37363" stroke="#FFFFFF" stroke-width="5.0628366" stroke-linecap="square" stroke-dasharray="10.12567,10.12567" fill="none" />
    <path id=""  transform="matrix(1 0 0 -1 0 225)"  d="M149.69061 106.47416C 151.354 106.47415 152.7738 107.062256 153.95001 108.23847L153.95001 108.23847L153.95001 108.23847C 155.12622 109.41467 155.71436 110.83449 155.71436 112.497894L155.71436 112.497894L155.71436 112.497894C 155.71436 114.1613 155.12622 115.5811 153.95001 116.75732L153.95001 116.75732L153.95001 116.75732C 152.7738 117.93352 151.354 118.52162 149.69061 118.52163L149.69061 118.52163L149.69061 118.52163C 148.02716 118.52162 146.60736 117.93352 145.43121 116.75732L145.43121 116.75732L145.43121 116.75732C 144.25494 115.5811 143.66687 114.1613 143.66687 112.497894L143.66687 112.497894L143.66687 112.497894C 143.66687 110.83449 144.25494 109.41467 145.43121 108.23847L145.43121 108.23847L145.43121 108.23847C 146.60736 107.062256 148.02716 106.47415 149.69061 106.47416" stroke="none" fill="#FFFFFF" fill-rule="evenodd" />
    <path id=""  transform="matrix(1 0 0 -1 0 225)"  d="M149.69061 109.74718C 150.4502 109.74718 151.09857 110.01573 151.63568 110.55284L151.63568 110.55284L151.63568 110.55284C 152.17279 111.08995 152.44135 111.7383 152.44135 112.497894L152.44135 112.497894L152.44135 112.497894C 152.44135 113.25748 152.17279 113.90583 151.63568 114.44295L151.63568 114.44295L151.63568 114.44295C 151.09857 114.98005 150.4502 115.248604 149.69061 115.24861L149.69061 115.24861L149.69061 115.24861C 148.93097 115.248604 148.2826 114.98005 147.74554 114.44295L147.74554 114.44295L147.74554 114.44295C 147.20837 113.90583 146.93982 113.25748 146.93988 112.497894L146.93988 112.497894L146.93988 112.497894C 146.93982 111.7383 147.20837 111.08995 147.74554 110.55284L147.74554 110.55284L147.74554 110.55284C 148.2826 110.01573 148.93097 109.74718 149.69061 109.74718" stroke="none" fill="#B93C3C" fill-rule="evenodd" />
    <path id=""  transform="matrix(1 0 0 -1 0 225)"  d="M149.69061 143.15753C 159.23712 143.15753 167.38556 146.53273 174.13599 153.28313L174.13599 153.28313L174.13599 153.28313C 180.88635 160.03352 184.2616 168.18198 184.2616 177.72849L184.2616 177.72849L184.2616 177.72849C 184.2616 187.275 180.88635 195.42345 174.13599 202.17384L174.13599 202.17384L174.13599 202.17384C 167.38556 208.92424 159.23712 212.29944 149.69061 212.29944L149.69061 212.29944L149.69061 212.29944C 140.1441 212.29944 131.9956 208.92424 125.24524 202.17384L125.24524 202.17384L125.24524 202.17384C 118.49481 195.42345 115.11963 187.275 115.11963 177.72849L115.11963 177.72849L115.11963 177.72849C 115.11963 168.18198 118.49481 160.03352 125.24524 153.28313L125.24524 153.28313L125.24524 153.28313C 131.9956 146.53273 140.1441 143.15753 149.69061 143.15753" stroke="none" fill="#FFFFFF" fill-rule="evenodd" />
    <path id=""  transform="matrix(1 0 0 -1 0 225)"  d="M149.69061 147.95882C 157.91125 147.95882 164.92804 150.86526 170.74097 156.67816L170.74097 156.67816L170.74097 156.67816C 176.55383 162.49104 179.46027 169.50781 179.46027 177.72849L179.46027 177.72849L179.46027 177.72849C 179.46027 185.94916 176.55383 192.96593 170.74097 198.77881L170.74097 198.77881L170.74097 198.77881C 164.92804 204.5917 157.91125 207.49815 149.69061 207.49815L149.69061 207.49815L149.69061 207.49815C 141.46991 207.49815 134.45312 204.5917 128.64026 198.77881L128.64026 198.77881L128.64026 198.77881C 122.82739 192.96593 119.92096 185.94916 119.92096 177.72849L119.92096 177.72849L119.92096 177.72849C 119.92096 169.50781 122.82739 162.49104 128.64026 156.67816L128.64026 156.67816L128.64026 156.67816C 134.45312 150.86526 141.46991 147.95882 149.69061 147.95882" stroke="none" fill="#B93C3C" fill-rule="evenodd" />
    <path id=""  transform="matrix(1 0 0 -1 0 225)"  d="M149.80212 161.56691C 158.60883 161.6276 165.74548 168.72853 165.8504 177.53484L165.8504 177.53484L165.8504 177.53484C 165.95532 186.34113 158.98987 193.61003 150.18701 193.88048L150.18701 193.88048L150.18701 193.88048C 141.38428 194.1509 133.98572 187.32327 133.54987 178.52716L133.54987 178.52716L133.54987 178.52716C 133.11401 169.73103 139.80133 162.20541 148.58765 161.60423" stroke="#FFFFFF" stroke-width="5.0628366" stroke-linecap="square" stroke-dasharray="10.12567,10.12567" fill="none" />
    <path id=""  transform="matrix(1 0 0 -1 0 225)"  d="M149.69061 171.70474C 151.354 171.70474 152.7738 172.29285 153.95001 173.46906L153.95001 173.46906L153.95001 173.46906C 155.12622 174.64526 155.71436 176.06508 155.71436 177.72849L155.71436 177.72849L155.71436 177.72849C 155.71436 179.39189 155.12622 180.8117 153.95001 181.98792L153.95001 181.98792L153.95001 181.98792C 152.7738 183.16412 151.354 183.75223 149.69061 183.75223L149.69061 183.75223L149.69061 183.75223C 148.02716 183.75223 146.60736 183.16412 145.43121 181.98792L145.43121 181.98792L145.43121 181.98792C 144.25494 180.8117 143.66687 179.39189 143.66687 177.72849L143.66687 177.72849L143.66687 177.72849C 143.66687 176.06508 144.25494 174.64526 145.43121 173.46906L145.43121 173.46906L145.43121 173.46906C 146.60736 172.29285 148.02716 171.70474 149.69061 171.70474" stroke="none" fill="#FFFFFF" fill-rule="evenodd" />
    <path id=""  transform="matrix(1 0 0 -1 0 225)"  d="M149.69061 174.97777C 150.4502 174.97777 151.09857 175.24632 151.63568 175.78343L151.63568 175.78343L151.63568 175.78343C 152.17279 176.32054 152.44135 176.96889 152.44135 177.72849L152.44135 177.72849L152.44135 177.72849C 152.44135 178.48807 152.17279 179.13643 151.63568 179.67354L151.63568 179.67354L151.63568 179.67354C 151.09857 180.21065 150.4502 180.4792 149.69061 180.4792L149.69061 180.4792L149.69061 180.4792C 148.93097 180.4792 148.2826 180.21065 147.74554 179.67354L147.74554 179.67354L147.74554 179.67354C 147.20837 179.13643 146.93982 178.48807 146.93988 177.72849L146.93988 177.72849L146.93988 177.72849C 146.93982 176.96889 147.20837 176.32054 147.74554 175.78343L147.74554 175.78343L147.74554 175.78343C 148.2826 175.24632 148.93097 174.97777 149.69061 174.97777" stroke="none" fill="#B93C3C" fill-rule="evenodd" />
    <path id=""  transform="matrix(1 0 0 -1 0 225)"  d="M149.69061 12.166C 159.23712 12.166 167.38556 15.541183 174.13599 22.291595L174.13599 22.291595L174.13599 22.291595C 180.88635 29.041977 184.2616 37.190445 184.2616 46.736954L184.2616 46.736954L184.2616 46.736954C 184.2616 56.283463 180.88635 64.4319 174.13599 71.18231L174.13599 71.18231L174.13599 71.18231C 167.38556 77.93269 159.23712 81.30791 149.69061 81.30791L149.69061 81.30791L149.69061 81.30791C 140.1441 81.30791 131.9956 77.93269 125.24524 71.18231L125.24524 71.18231L125.24524 71.18231C 118.49481 64.4319 115.11963 56.283463 115.11963 46.736954L115.11963 46.736954L115.11963 46.736954C 115.11963 37.190445 118.49481 29.041977 125.24524 22.291595L125.24524 22.291595L125.24524 22.291595C 131.9956 15.541183 140.1441 12.166 149.69061 12.166" stroke="none" fill="#FFFFFF" fill-rule="evenodd" />
    <path id=""  transform="matrix(1 0 0 -1 0 225)"  d="M149.69061 16.967285C 157.91125 16.96727 164.92804 19.873718 170.74097 25.68663L170.74097 25.68663L170.74097 25.68663C 176.55383 31.499512 179.46027 38.51628 179.46027 46.736954L179.46027 46.736954L179.46027 46.736954C 179.46027 54.95761 176.55383 61.97438 170.74097 67.78728L170.74097 67.78728L170.74097 67.78728C 164.92804 73.600174 157.91125 76.50662 149.69061 76.50662L149.69061 76.50662L149.69061 76.50662C 141.46991 76.50662 134.45312 73.600174 128.64026 67.78728L128.64026 67.78728L128.64026 67.78728C 122.82739 61.97438 119.92096 54.95761 119.92096 46.736954L119.92096 46.736954L119.92096 46.736954C 119.92096 38.51628 122.82739 31.499512 128.64026 25.68663L128.64026 25.68663L128.64026 25.68663C 134.45312 19.873718 141.46991 16.96727 149.69061 16.967285" stroke="none" fill="#B93C3C" fill-rule="evenodd" />
    <path id=""  transform="matrix(1 0 0 -1 0 225)"  d="M149.80212 30.575363C 158.60883 30.636078 165.74548 37.737 165.85034 46.54329L165.85034 46.54329L165.85034 46.54329C 165.95514 55.34958 158.98969 62.618484 150.18695 62.88893L150.18695 62.88893L150.18695 62.88893C 141.38422 63.159348 133.98566 56.33171 133.54974 47.535614L133.54974 47.535614L133.54974 47.535614C 133.11383 38.739487 139.80115 31.213852 148.58759 30.61267" stroke="#FFFFFF" stroke-width="5.0628366" stroke-linecap="square" stroke-dasharray="10.12567,10.12567" fill="none" />
    <path id=""  transform="matrix(1 0 0 -1 0 225)"  d="M149.69061 40.71321C 151.354 40.71321 152.7738 41.301315 153.95001 42.477524L153.95001 42.477524L153.95001 42.477524C 155.12622 43.653732 155.71436 45.073532 155.71436 46.736954L155.71436 46.736954L155.71436 46.736954C 155.71436 48.40036 155.12622 49.820175 153.95001 50.996384L153.95001 50.996384L153.95001 50.996384C 152.7738 52.172592 151.354 52.760696 149.69061 52.760696L149.69061 52.760696L149.69061 52.760696C 148.02716 52.760696 146.60736 52.172592 145.43121 50.996384L145.43121 50.996384L145.43121 50.996384C 144.25494 49.820175 143.66687 48.40036 143.66687 46.736954L143.66687 46.736954L143.66687 46.736954C 143.66687 45.073532 144.25494 43.653732 145.43121 42.477524L145.43121 42.477524L145.43121 42.477524C 146.60736 41.301315 148.02716 40.71321 149.69061 40.71321" stroke="none" fill="#FFFFFF" fill-rule="evenodd" />
    <path id=""  transform="matrix(1 0 0 -1 0 225)"  d="M149.69061 43.986237C 150.4502 43.986237 151.09857 44.25479 151.63568 44.7919L151.63568 44.7919L151.63568 44.7919C 152.17279 45.32901 152.44135 45.977356 152.44135 46.736954L152.44135 46.736954L152.44135 46.736954C 152.44135 47.496536 152.17279 48.144897 151.63568 48.682007L151.63568 48.682007L151.63568 48.682007C 151.09857 49.219116 150.4502 49.48767 149.69061 49.48767L149.69061 49.48767L149.69061 49.48767C 148.93097 49.48767 148.2826 49.219116 147.74554 48.682007L147.74554 48.682007L147.74554 48.682007C 147.20837 48.144897 146.93982 47.496536 146.93988 46.736954L146.93988 46.736954L146.93988 46.736954C 146.93982 45.977356 147.20837 45.32901 147.74554 44.7919L147.74554 44.7919L147.74554 44.7919C 148.2826 44.25479 148.93097 43.986237 149.69061 43.986237" stroke="none" fill="#B93C3C" fill-rule="evenodd" />
	</g>
</g>
</svg>