<?xml version="1.0" standalone="no"?>
<!DOCTYPE svg PUBLIC "-//W3C//DTD SVG 1.0//EN" "http://www.w3.org/TR/2001/REC-SVG-20010904/DTD/svg10.dtd">
<svg xmlns="http://www.w3.org/2000/svg" xmlns:xlink="http://www.w3.org/1999/xlink" id="body_2" width="400" height="300">

<defs>
    <clipPath  id="1">

    <path id=""  clip-rule="evenodd" transform="matrix(1 0 0 1 0 0)"  d="M0 0L300 0L300 0L300 225L300 225L1.3777277E-14 225L1.3777277E-14 225L0 0z" />    </clipPath>
</defs>

<g transform="matrix(1.3333 0 0 1.3333 0 0)">
	<g clip-path="url(#1)" >
    <path id=""  transform="matrix(1 0 0 -1 0 225)"  d="M215.65527 198.68254C 214.776 204.79433 223.4632 212.0995 225.93988 203.36507L225.93988 203.36507L225.93988 203.36507C 231.8645 175.50981 248.32861 81.10321 253.27866 70.29527L253.27866 70.29527L253.27866 70.29527C 256.4192 60.807022 239.49622 39.195145 231.65472 25.81128L231.65472 25.81128L231.65472 25.81128C 226.30487 17.500458 220.23767 21.286133 217.50122 27.68428L217.50122 27.68428L217.50122 27.68428C 215.7843 32.86432 212.69788 63.375595 214.8642 79.718124L214.8642 79.718124L214.8642 79.718124C 215.21497 82.83565 223.49908 81.65259 224.68726 88.61565L224.68726 88.61565L224.68726 88.61565C 231.21875 120.5605 220.05035 166.21703 215.65527 198.68254z" stroke="none" fill="#19328C" fill-rule="evenodd" />
    <path id=""  transform="matrix(1 0 0 -1 0 225)"  d="M216.6687 81.37181C 214.01086 82.18509 210.31342 82.59897 209.43073 84.31932L209.43073 84.31932L209.43073 84.31932C 208.18433 87.62148 209.03625 91.289734 205.92249 93.1226L205.92249 93.1226L205.92249 93.1226C 201.20001 95.79373 187.81366 112.128716 177.93616 123.45872L177.93616 123.45872L177.93616 123.45872C 175.13544 126.671234 177.1947 132.10321 182.4165 132.45392L182.4165 132.45392L163.14917 132.49771L163.14917 132.49771L163.58679 124.45166L163.58679 124.45166L163.58679 124.45166C 169.61224 117.4464 189.79553 98.13349 190.03223 89.4936L190.03223 89.4936L190.03223 89.4936C 190.63196 82.625885 192.95514 74.67561 197.987 72.78308L197.987 72.78308L197.987 72.78308C 202.48206 71.18933 205.65479 75.91623 208.16235 75.479126L208.16235 75.479126L208.16235 75.479126C 211.09247 74.79726 214.112 69.14424 214.1352 67.2482L214.1352 67.2482L214.1352 67.2482C 214.17468 64.01175 219.49854 80.5629 216.66882 81.371796z" stroke="none" fill="#19328C" fill-rule="evenodd" />
    <path id=""  transform="matrix(1 0 0 -1 0 225)"  d="M153.18164 181.97185C 161.88141 148.72823 188.85468 70.267044 183.8092 58.770523L183.8092 58.770523L183.8092 58.770523C 176.18274 44.527527 158.24097 18.256866 150.66699 17.89331L150.66699 17.89331L150.66699 17.89331C 143.29779 17.748642 142.67108 17.830582 136.72455 23.47725L136.72455 23.47725L136.72455 23.47725C 127.653015 31.87413 82.57526 58.76889 65.2337 62.686966L65.2337 62.686966L65.2337 62.686966C 60.833984 63.59366 52.324158 62.96936 48.797974 65.98137L48.797974 65.98137L48.797974 65.98137C 43.631042 70.19783 49.590393 122.11649 51.063538 155.91388L51.063538 155.91388L51.063538 155.91388C 51.48529 167.33972 64.380066 172.64629 64.77173 155.57404L64.77173 155.57404L64.77173 155.57404C 65.202515 133.82968 66.19043 96.683525 72.132996 92.279305L72.132996 92.279305L72.132996 92.279305C 77.71234 88.301636 140.49902 60.869873 147.26135 60.806076L147.26135 60.806076L147.26135 60.806076C 151.50262 60.738815 161.43945 67.65073 164.30457 71.76782L164.30457 71.76782L164.30457 71.76782C 168.2124 76.793045 144.6399 147.24771 139.73743 178.60995z" stroke="none" fill="#19328C" fill-rule="evenodd" />
    <path id=""  transform="matrix(1 0 0 -1 0 225)"  d="M143.82251 195.82205C 124.9469 186.95082 90.09546 167.82666 56.470276 160.18825L56.470276 160.18825L57.962036 139.7327C 83.26465 144.7926 126.26001 157.14888 147.35156 169.13887L147.35156 169.13887L147.35156 169.13887C 185.02618 190.73318 180.03955 213.87552 143.82251 195.82205z" stroke="none" fill="#19328C" fill-rule="evenodd" />
    <path id=""  transform="matrix(1 0 0 -1 0 225)"  d="M196.48718 133.10175C 207.39233 135.15 205.54785 142.98087 194.03406 141.7644L194.03406 141.7644L58.36139 129.9925L58.36139 129.9925L58.85199 120.975174z" stroke="none" fill="#19328C" fill-rule="evenodd" />
    <path id=""  transform="matrix(1 0 0 -1 0 225)"  d="M195.65015 89.43301L195.65015 89.43301L195.65015 89.43301L195.65015 97.928116L195.65015 97.928116L61.039978 113.948524L61.039978 113.948524L61.039978 105.71108z" stroke="none" fill="#19328C" fill-rule="evenodd" />
	</g>
</g>
</svg>