<?xml version="1.0" standalone="no"?>
<!DOCTYPE svg PUBLIC "-//W3C//DTD SVG 1.0//EN" "http://www.w3.org/TR/2001/REC-SVG-20010904/DTD/svg10.dtd">
<svg xmlns="http://www.w3.org/2000/svg" xmlns:xlink="http://www.w3.org/1999/xlink" id="body_5" width="400" height="300">

<defs>
    <clipPath  id="1">

    <path id=""  clip-rule="evenodd" transform="matrix(1 0 0 1 0 0)"  d="M0 0L300 0L300 0L300 225L300 225L1.3777277E-14 225L1.3777277E-14 225L0 0z" />    </clipPath>
</defs>

<g transform="matrix(1.3333 0 0 1.3333 0 0)">
	<g clip-path="url(#1)" >
    <path id=""  transform="matrix(1 0 0 -1 0 225)"  d="M69.15164 135.69583L69.15164 135.69583L69.15164 135.69583L47.255188 137.96524L47.255188 137.96524L47.255188 137.96524C 47.607452 144.40947 50.109314 148.92838 51.571716 153.24718L51.571716 153.24718L51.571716 153.24718C 45.982117 150.55075 42.474884 145.69344 39.021973 139.66928L39.021973 139.66928L23.551208 141.91861C 25.299377 151.41245 25.578705 152.9392 26.716248 160.32254L26.716248 160.32254L26.716248 160.32254C 23.937286 153.72386 22.449799 151.38852 20.091614 146.83899L20.091614 146.83899L20.091614 146.83899C 18.669006 154.82303 18.189972 157.20331 15.534851 168.12744L15.534851 168.12744L15.534851 168.12744C 15.985962 156.86487 15.351837 152.95767 15.686188 144.1626L15.686188 144.1626L15.686188 144.1626C 12.696899 147.96234 11.801788 151.75925 6.4779663 155.17798L6.4779663 155.17798L6.4779663 155.17798C 8.450226 146.08139 12.744843 138.81819 15.155548 134.11057L15.155548 134.11057L15.155548 134.11057C 15.790894 129.76549 16.708252 126.719246 17.828644 120.47401L17.828644 120.47401L17.828644 120.47401C 19.653412 123.18099 20.936981 127.96125 22.20346 132.94186L22.20346 132.94186L38.450745 131.03564C 40.026337 122.03731 44.76819 115.77799 46.447937 111.2749L46.447937 111.2749L46.447937 111.2749C 45.089874 118.20463 45.756134 122.41747 46.56079 129.63998L46.56079 129.63998L68.82413 127.26724z" stroke="none" fill="#B93C3C" fill-rule="evenodd" />
    <path id=""  transform="matrix(1 0 0 -1 0 225)"  d="M124.25717 166.28867C 129.1464 175.85748 132.59106 178.42377 136.13118 181.45274L136.13118 181.45274L136.13118 181.45274C 143.27455 187.70688 147.27905 193.73181 152.26085 201.00493L152.26085 201.00493L152.26085 201.00493C 146.56274 194.75836 141.91293 189.30705 131.9854 183.93288L131.9854 183.93288L135.44554 201.25778C 130.77203 188.61021 124.6483 179.01733 117.941895 172.55208z" stroke="none" fill="#000000" fill-rule="evenodd" />
    <path id=""  transform="matrix(1 0 0 -1 0 225)"  d="M101.805725 49.244507C 109.09555 34.677124 118.0137 22.206192 122.90602 3.6977081L122.90602 3.6977081L122.90602 3.6977081C 114.56111 24.375366 106.72603 35.64383 95.391235 45.779083L95.391235 45.779083L95.391235 45.779083C 93.00188 46.871353 90.61252 45.60547 88.22316 45.200134L88.22316 45.200134L106.91617 55.36261C 104.22948 52.961624 100.958084 51.105637 101.80571 49.24449z" stroke="#000000" stroke-width="0.32139465" fill="#000000" fill-rule="evenodd" />
    <path id=""  transform="matrix(1 0 0 -1 0 225)"  d="M125.23047 64.18591C 118.53995 59.95166 139.81085 36.810287 148.16779 24.723602L148.16779 24.723602L128.6094 47.138885L128.6094 47.138885L142.2472 25.303848L142.2472 25.303848L142.2472 25.303848C 131.55417 38.098892 124.469666 53.154297 113.10901 58.13704z" stroke="#000000" stroke-width="0.22531694" fill="#000000" fill-rule="evenodd" />
    <path id=""  transform="matrix(1 0 0 -1 0 225)"  d="M262.02423 140.17365C 262.0776 142.46391 262.21613 144.73785 262.51044 146.96075L262.51044 146.96075L262.51044 146.96075C 262.94373 150.28403 263.73578 153.57352 265.80618 155.88426L265.80618 155.88426L265.80618 155.88426C 265.80618 155.88426 265.78467 155.8747 265.78467 155.87474L265.78467 155.87474L265.78467 155.87474C 265.78467 155.87474 265.78467 155.87474 265.78467 155.87474L265.78467 155.87474L265.78467 155.87474C 263.67032 154.76842 261.03818 154.68054 258.3859 154.75084L258.3859 154.75084L258.3859 154.75084C 258.3859 154.75084 258.3859 154.75084 258.3859 154.75084L258.3859 154.75084L258.3859 154.75084C 255.21979 154.85626 252.05537 154.8693 249.17389 154.18591L249.17389 154.18591L249.17389 154.18591C 249.70163 153.44826 250.2182 152.47198 250.82501 151.31995L250.82501 151.31995L250.82501 151.31995C 251.40355 150.13966 252.25122 148.69186 253.50952 147.08148L253.50952 147.08148L253.50952 147.08148C 255.25266 145.03036 257.07068 143.49379 258.7473 142.34674L258.7473 142.34674L258.7473 142.34674C 259.84113 141.57172 260.93646 140.85098 262.02423 140.17368zM275.3972 131.97461C 276.87836 137.11449 277.3073 142.75037 277.31085 148.42076L277.31085 148.42076L277.31085 148.42076C 275.8671 147.68188 274.4554 146.91196 273.06824 146.12265L273.06824 146.12265L273.06824 146.12265C 269.50943 144.02469 265.91873 141.94655 262.02423 140.17365L262.02423 140.17365L262.02423 140.17365C 263.85703 139.03242 265.66824 138.0145 267.41415 137.06802L267.41415 137.06802L267.41415 137.06802C 270.355 135.43094 273.08957 133.79337 275.3972 131.97461zM281.09763 124.10951C 283.03998 124.61692 284.905 125.586876 286.52145 126.95992L286.52145 126.95992L286.52145 126.95992C 289.17093 129.21675 291.0561 132.44583 292.3274 136.0663L292.3274 136.0663L292.3274 136.0663C 287.7804 136.18245 283.54413 135.14565 279.72458 133.76782L279.72458 133.76782L279.72458 133.76782C 278.2385 133.23007 276.7986 132.62833 275.3972 131.97461L275.3972 131.97461L275.3972 131.97461C 275.8742 131.59863 276.33298 131.21494 276.77158 130.82188L276.77158 130.82188L276.77158 130.82188C 278.84183 128.80994 280.56393 127.02496 280.86908 125.414856L280.86908 125.414856L280.86908 125.414856C 281.00098 124.99281 281.07907 124.5473 281.09763 124.109505zM275.852 113.02803C 281.51093 113.804504 287.38522 113.6792 293.72244 113.73117L293.72244 113.73117L293.72244 113.73117C 293.68134 113.792625 293.64 113.854195 293.59848 113.91587L293.59848 113.91587L293.59848 113.91587C 293.59848 113.91587 293.59848 113.91587 293.59848 113.91587L293.59848 113.91587L293.59848 113.91587C 291.50674 117.83932 288.4916 121.20899 284.83173 122.93669L284.83173 122.93669L284.83173 122.93669C 284.83173 122.93669 284.83173 122.93669 284.83173 122.93669L284.83173 122.93669L284.83173 122.93669C 283.6298 123.500496 282.371 123.891495 281.09763 124.10951L281.09763 124.10951L281.09763 124.10951C 281.10876 123.84669 281.0984 123.58665 281.0655 123.33611L281.0655 123.33611L281.0655 123.33611C 281.00922 122.53607 280.61194 121.57069 280.0632 120.516815L280.0632 120.516815L280.0632 120.516815C 279.12317 117.941124 277.64978 115.47224 275.85202 113.02803zM272.81952 96.441345C 275.86325 101.249054 278.1692 103.92828 279.15775 104.68567L279.15775 104.68567L279.15775 104.68567C 279.69717 104.74457 280.2387 104.79213 280.78253 104.82918L280.78253 104.82918L280.78253 104.82918C 279.54083 106.140625 278.08167 109.142166 275.852 113.02803L275.852 113.02803L275.852 113.02803C 274.03528 110.55806 271.88727 108.1133 269.62357 105.60901L269.62357 105.60901L269.62357 105.60901C 270.81534 102.76547 271.8607 99.67909 272.81952 96.441345zM278.00073 82.720535C 280.14944 84.35016 282.21057 86.151 284.17386 88.08937L284.17386 88.08937L284.17386 88.08937C 286.28265 90.171524 288.282 92.41423 290.1428 94.817L290.1428 94.817L290.1428 94.817C 285.59308 95.51137 281.07816 95.804474 276.67572 95.67055L276.67572 95.67055L276.67572 95.67055C 275.36002 95.81169 274.07236 96.070465 272.81952 96.441345L272.81952 96.441345L272.81952 96.441345C 273.0483 95.66879 273.27216 94.88765 273.4919 94.09912L273.4919 94.09912L273.4919 94.09912C 274.93286 91.54521 276.11304 88.83072 277.04453 86.02289L277.04453 86.02289L277.04453 86.02289C 277.40515 84.92438 277.72595 83.82262 278.00073 82.720535zM278.70596 70.056885C 278.90787 70.09239 279.1099 70.13037 279.31195 70.17073L279.31195 70.17073L279.31195 70.17073C 284.59564 71.267685 289.75238 73.92058 294.4908 77.315704L294.4908 77.315704L294.4908 77.315704C 293.45853 77.82718 292.4171 78.30057 291.3705 78.74049L291.3705 78.74049L291.3705 78.74049C 286.97797 80.59389 282.4911 81.88225 278.00073 82.72055L278.00073 82.72055L278.00073 82.72055C 278.4301 80.99829 278.74716 79.27521 278.92825 77.56236L278.92825 77.56236L278.92825 77.56236C 279.18365 74.95543 279.2078 72.47986 278.75385 70.26466L278.75385 70.26466L278.75385 70.26466C 278.73804 70.19508 278.72208 70.12584 278.70596 70.0569zM273.798 63.41487C 275.33582 61.506744 277.4295 59.87285 279.99823 58.81462L279.99823 58.81462L279.99823 58.81462C 282.59213 57.745667 285.66254 57.274796 288.8825 57.487762L288.8825 57.487762L288.8825 57.487762C 288.8825 57.487762 288.8825 57.487762 288.8825 57.487762L288.8825 57.487762L288.8825 57.487762C 289.15976 57.50682 289.43802 57.530365 289.71713 57.558334L289.71713 57.558334L289.71713 57.558334C 287.71268 63.44966 283.36703 67.38953 278.70596 70.056885L278.70596 70.056885L278.70596 70.056885C 278.27704 68.223206 277.7272 66.623184 276.84668 65.60179L276.84668 65.60179L276.84668 65.60179C 276.44858 65.090805 275.9934 64.638885 275.509 64.29869L275.509 64.29869L275.509 64.29869C 275.03845 63.950592 274.44772 63.65483 273.798 63.414856zM260.12445 63.06453C 262.19836 60.17534 263.84842 57.01335 265.2437 53.611298L265.2437 53.611298L265.2437 53.611298C 266.10236 51.786865 267.13132 49.972244 268.39642 48.23372L268.39642 48.23372L268.39642 48.23372C 271.8958 52.86174 274.23053 58.010574 273.84488 62.95346L273.84488 62.95346L273.84488 62.95346C 273.83185 63.107864 273.81622 63.261703 273.798 63.41487L273.798 63.41487L273.798 63.41487C 273.75888 63.400406 273.71954 63.386154 273.68 63.37213L273.68 63.37213L273.68 63.37213C 271.9134 62.635056 269.34995 62.686966 266.46942 62.920227L266.46942 62.920227L266.46942 62.920227C 264.37482 62.85315 262.25964 62.911194 260.12445 63.06453zM242.65903 58.47534C 246.80908 58.50151 249.65308 58.397034 251.03201 57.75705L251.03201 57.75705L251.03201 57.75705C 252.02435 56.566605 252.91919 55.319458 253.72849 54.017883L253.72849 54.017883L253.72849 54.017883C 254.63913 56.069458 256.95303 59.05829 260.12445 63.064514L260.12445 63.064514L260.12445 63.064514C 256.1634 63.348984 252.13345 63.961395 248.03839 64.711136L248.03839 64.711136L248.03839 64.711136C 246.22946 62.53517 244.46071 60.442947 242.65903 58.475327zM232.88771 48.26657C 232.88771 48.26657 232.90002 48.257492 232.90002 48.257492L232.90002 48.257492L232.90002 48.257492C 237.25644 45.08113 243.30367 43.785736 249.61139 43.63536L249.61139 43.63536L249.61139 43.63536C 248.67941 45.931503 247.5206 48.078796 246.24356 50.091873L246.24356 50.091873L246.24356 50.091873C 244.41994 52.764435 243.1831 55.51332 242.65906 58.475327L242.65906 58.475327L242.65906 58.475327C 241.34117 57.03607 240.00565 55.663498 238.6239 54.373596L238.6239 54.373596L238.6239 54.373596C 236.82169 51.72856 234.99648 49.44954 232.89182 48.269073L232.89182 48.269073L232.89182 48.269073C 232.89182 48.269073 232.88774 48.266617 232.88774 48.266617zM222.81601 47.13971C 223.14374 45.138733 223.67194 43.142654 224.4719 41.17737L224.4719 41.17737L224.4719 41.17737C 225.73776 38.051895 227.72778 34.995056 230.64886 32.37822L230.64886 32.37822L230.64886 32.37822C 231.3479 33.566147 231.93918 34.77736 232.40836 35.999863L232.40836 35.999863L232.40836 35.999863C 234.02164 40.216095 234.06573 44.514328 232.88773 48.266586L232.88773 48.266586L232.88773 48.266586C 231.85884 47.633392 230.72943 47.157227 229.60327 46.912094L229.60327 46.912094L229.60327 46.912094C 228.31378 46.59465 226.78781 46.573273 225.18265 46.73207L225.18265 46.73207L225.18265 46.73207C 224.4132 46.80722 223.62346 46.94745 222.81601 47.13974zM204.79916 51.454193C 209.04535 47.414642 210.95613 42.46025 211.09637 36.575363L211.09637 36.575363L211.09637 36.575363C 211.98532 37.312912 213.04932 38.156113 214.27667 39.109436L214.27667 39.109436L214.27667 39.109436C 217.58348 41.486023 220.5647 44.164017 222.81601 47.13971L222.81601 47.13971L222.81601 47.13971C 221.44077 47.467224 220.01418 47.945786 218.54897 48.511078L218.54897 48.511078L218.54897 48.511078C 213.9404 49.14273 209.37256 50.189774 204.79916 51.454193zM190.33902 41.11241C 194.97763 39.15326 200.12523 37.84433 205.61832 37.38324L205.61832 37.38324L205.61832 37.38324C 206.08865 37.28009 206.51927 37.176987 206.91002 37.0755L206.91002 37.0755L206.91002 37.0755C 203.68178 41.422028 202.7656 46.24646 203.93924 50.747345L203.93924 50.747345L203.93924 50.747345C 204.19507 50.96788 204.48198 51.203415 204.79916 51.454193L204.79916 51.454193L204.79916 51.454193C 204.40408 51.563416 204.00894 51.67427 203.61371 51.78662L203.61371 51.78662L203.61371 51.78662C 201.01138 49.68141 197.97446 47.55986 194.72092 45.40555L194.72092 45.40555L194.72092 45.40555C 193.42429 43.859253 191.949 42.42119 190.339 41.11241zM179.1654 35.50374C 181.2685 32.233307 184.54924 29.391953 188.36177 27.106415L188.36177 27.106415L188.36177 27.106415C 189.67735 26.314835 191.06146 25.583801 192.50256 24.912933L192.50256 24.912933L192.50256 24.912933C 192.86246 29.787811 192.26065 34.464172 191.04367 38.83371L191.04367 38.83371L191.04367 38.83371C 190.82901 39.603043 190.59401 40.36293 190.339 41.112396L190.339 41.112396L190.339 41.112396C 190.0883 40.9086 189.83432 40.707916 189.57724 40.510468L189.57724 40.510468L189.57724 40.510468C 187.63472 39.03546 185.60101 37.777252 183.49773 36.87126L183.49773 36.87126L183.49773 36.87126C 182.00778 36.247116 180.54813 35.756104 179.1654 35.50374zM170.40627 37.814316C 168.78813 34.46222 168.028 30.590378 168.86646 26.463654L168.86646 26.463654L168.86646 26.463654C 169.21 24.82434 169.80038 23.171555 170.616 21.549194L170.616 21.549194L170.616 21.549194C 174.35876 24.26352 176.84503 27.774887 178.12756 31.393509L178.12756 31.393509L178.12756 31.393509C 178.61858 32.75009 178.95657 34.124893 179.1654 35.50374L179.1654 35.50374L179.1654 35.50374C 178.69229 35.41739 178.22818 35.358963 177.77495 35.332703L177.77495 35.332703L177.77495 35.332703C 176.14075 35.227463 174.522 35.40799 173.27402 35.95752L173.27402 35.95752L173.27402 35.95752C 172.30135 36.299194 171.33673 36.96312 170.40627 37.814316zM164.33781 48.349625C 164.12138 48.16075 163.90596 47.970154 163.69154 47.77777L163.69154 47.77777L163.69154 47.77777C 159.79253 44.226715 156.09467 40.184586 153.41986 35.225662L153.41986 35.225662L153.41986 35.225662C 157.04149 34.95848 160.58676 35.066223 163.92813 35.688995L163.92813 35.688995L163.92813 35.688995C 166.24397 36.126465 168.44664 36.83513 170.40627 37.814316L170.40627 37.814316L170.40627 37.814316C 169.90852 38.269653 169.42056 38.77858 168.94637 39.320435L168.94637 39.320435L168.94637 39.320435C 167.01007 41.55815 165.65913 44.617203 164.45647 48.003204L164.45647 48.003204L164.45647 48.003204C 164.41644 48.118423 164.37689 48.233887 164.33781 48.349625zM161.55035 62.19461C 156.67612 59.37677 151.89961 56.205032 147.40863 52.440018L147.40863 52.440018L147.40863 52.440018C 153.03404 50.467377 158.70193 49.021194 164.33781 48.34961L164.33781 48.34961L164.33781 48.34961C 162.87985 52.666977 162.07788 57.33914 161.55035 62.194595zM161.01508 77.93547C 155.9769 74.93642 150.92078 71.93912 145.8428 68.96527L145.8428 68.96527L145.8428 68.96527C 150.11623 67.1051 154.37573 65.23401 158.6192 63.341705L158.6192 63.341705L158.6192 63.341705C 159.5946 62.94658 160.57178 62.563736 161.55034 62.194626L161.55034 62.194626L161.55034 62.194626C 161.50423 62.61908 161.4602 63.044937 161.41803 63.47206L161.41803 63.47206L161.41803 63.47206C 161.35747 68.305984 161.21523 73.12727 161.01508 77.93547zM160.1809 93.72095C 158.08139 92.4568 155.9813 91.192245 153.87909 89.933426L153.87909 89.933426L153.87909 89.933426C 150.989 88.20517 148.09494 86.47119 145.19618 84.73569L145.19618 84.73569L145.19618 84.73569C 150.48332 82.46571 155.7576 80.2052 161.01508 77.93547L161.01508 77.93547L161.01508 77.93547C 160.84354 82.056244 160.62949 86.167404 160.38788 90.26866L160.38788 90.26866L160.38788 90.26866C 160.32022 91.42192 160.25082 92.57266 160.1809 93.72093zM159.30591 109.37941C 154.26537 106.509445 149.25839 103.53169 144.2647 100.52835L144.2647 100.52835L144.2647 100.52835C 149.56534 98.23378 154.87418 95.98886 160.1809 93.72095L160.1809 93.72095L160.1809 93.72095C 159.86 98.99089 159.52829 104.20882 159.30591 109.37941zM159.07648 124.761116C 153.86949 122.205055 148.70876 119.46987 143.59648 116.59429L143.59648 116.59429L143.59648 116.59429C 146.68828 115.089134 149.79337 113.634544 152.90874 112.22406L152.90874 112.22406L152.90874 112.22406C 155.03714 111.2598 157.16975 110.313194 159.30592 109.37941L159.30592 109.37941L159.30592 109.37941C 159.26236 110.39215 159.22299 111.403076 159.18874 112.41223L159.18874 112.41223L159.18874 112.41223C 159.0487 116.541695 159.00198 120.66012 159.07648 124.76112zM159.95258 139.9748C 155.87378 138.33994 151.81276 136.59372 147.77414 134.72287L147.77414 134.72287L147.77414 134.72287C 146.47643 134.12215 145.18166 133.50955 143.8899 132.88562L143.8899 132.88562L143.8899 132.88562C 148.89514 130.00284 153.96214 127.304955 159.07648 124.761116L159.07648 124.761116L159.07648 124.761116C 159.13283 127.86404 159.25859 130.957 159.46585 134.03722L159.46585 134.03722L159.46585 134.03722C 159.59645 136.01576 159.75961 137.99507 159.95258 139.9748zM161.96861 155.14546C 156.44696 153.32294 150.93872 151.34511 145.45442 149.18124L145.45442 149.18124L145.45442 149.18124C 150.22325 145.94843 155.0555 142.87029 159.95258 139.9748L159.95258 139.9748L159.95258 139.9748C 160.44537 145.03067 161.13258 150.08936 161.96861 155.14546zM165.4424 169.4165C 159.73586 168.68762 153.94441 167.21399 148.20769 165.35205L148.20769 165.35205L148.20769 165.35205C 149.738 164.07254 151.29463 162.84326 152.86795 161.65378L152.86795 161.65378L152.86795 161.65378C 155.87648 159.42834 158.90991 157.2563 161.96861 155.14546L161.96861 155.14546L161.96861 155.14546C 162.23198 156.73819 162.5101 158.33066 162.80157 159.9227L162.80157 159.9227L162.80157 159.9227C 163.52603 163.22882 164.35652 166.4212 165.44241 169.4165zM171.76448 180.2388C 171.20378 180.49428 170.62328 180.72647 170.02713 180.93527L170.02713 180.93527L170.02713 180.93527C 165.32358 182.51285 159.88007 182.67664 154.3786 182.09488L154.3786 182.09488L154.3786 182.09488C 155.72739 179.9371 157.25157 177.94315 158.85811 176.0711L158.85811 176.0711L158.85811 176.0711C 160.9177 173.66798 163.12604 171.46457 165.4424 169.4165L165.4424 169.4165L165.4424 169.4165C 165.87234 170.60251 166.34235 171.75763 166.86166 172.87665L166.86166 172.87665L166.86166 172.87665C 168.18813 175.65413 169.5647 178.11522 171.32281 179.82736L171.32281 179.82736L171.32281 179.82736C 171.46999 179.96805 171.61725 180.10542 171.76448 180.2388zM179.7633 182.26299C 179.66039 183.58138 179.42894 184.90186 179.03502 186.2101L179.03502 186.2101L179.03502 186.2101C 177.94 189.97441 175.33372 193.69492 171.0358 196.28171L171.0358 196.28171L171.0358 196.28171C 170.76164 195.69334 170.51952 195.10144 170.31076 194.50821L170.31076 194.50821L170.31076 194.50821C 168.54413 189.26875 169.57907 184.30008 171.76448 180.2388L171.76448 180.2388L171.76448 180.2388C 172.85098 181.22305 173.93466 181.98917 174.94908 182.25513L174.94908 182.25513L174.94908 182.25513C 175.90004 182.61241 177.16641 182.66545 178.4524 182.51208L178.4524 182.51208L178.4524 182.51208C 178.87563 182.46529 179.31313 182.38017 179.76329 182.26299zM191.72968 175.5986C 191.7415 177.4985 191.91203 179.40991 192.23422 181.32722L192.23422 181.32722L192.23422 181.32722C 193.01466 184.79329 193.4583 188.4208 193.30846 192.20132L193.30846 192.20132L193.30846 192.20132C 191.47061 191.40044 189.70998 190.51038 188.0549 189.52226L188.0549 189.52226L188.0549 189.52226C 184.7054 187.52768 181.75388 185.09651 179.7633 182.26299L179.7633 182.26299L179.7633 182.26299C 180.85275 181.97939 182.01636 181.508 183.23108 180.93744L183.23108 180.93744L183.23108 180.93744C 185.08493 180.03967 186.89911 178.8168 188.69664 177.4105L188.69664 177.4105L188.69664 177.4105C 189.72374 176.82562 190.73503 176.22119 191.72968 175.5986zM207.28989 168.37408C 206.07587 169.06357 205.0857 169.68724 204.34651 170.2652L204.34651 170.2652L204.34651 170.2652C 203.62172 173.57138 203.41461 176.9611 203.68939 180.40584L203.68939 180.40584L203.68939 180.40584C 201.23749 179.18857 197.19421 177.56703 191.72968 175.5986L191.72968 175.5986L191.72968 175.5986C 196.06128 172.88725 200.07697 169.83148 203.7067 166.54596L203.7067 166.54596L203.7067 166.54596C 204.91092 167.16316 206.10431 167.7743 207.28989 168.37408zM224.64383 175.78957C 224.64383 175.78957 224.64308 175.79025 224.64308 175.79025L224.64308 175.79025L224.64308 175.79025C 219.25471 179.166 214.77594 181.62169 211.66037 183.49341L211.66037 183.49341L211.66037 183.49341C 211.3406 178.09096 210.04318 173.09901 207.28995 168.37419L207.28995 168.37419L207.28995 168.37419C 213.14587 171.33667 218.81079 174.02165 224.64351 175.78949L224.64351 175.78949L224.64351 175.78949C 224.64351 175.78949 224.64389 175.78967 224.64389 175.78967zM232.83331 176.18451C 233.05598 177.26794 233.23582 178.35658 233.3266 179.46182L233.3266 179.46182L233.3266 179.46182C 233.56967 182.02759 233.29477 184.79037 231.82164 187.43785L231.82164 187.43785L231.82164 187.43785C 231.82164 187.43785 231.82164 187.43785 231.82164 187.43785L231.82164 187.43785L231.82164 187.43785C 230.94527 188.9878 229.7081 190.46097 228.22684 191.7886L228.22684 191.7886L228.22684 191.7886C 227.21135 190.49478 226.45036 189.12717 225.8966 187.74402L225.8966 187.74402L225.8966 187.74402C 224.32404 183.69759 224.35985 179.6717 224.64383 175.78957L224.64383 175.78957L224.64383 175.78957C 226.12764 176.47192 227.39047 177.01703 228.45053 177.20451L228.45053 177.20451L228.45053 177.20451C 229.17871 177.33162 229.78345 177.40178 230.16205 177.3114L230.16205 177.3114L230.16205 177.3114C 230.53522 177.29427 231.09387 177.06445 231.8006 176.74832L231.8006 176.74832L231.8006 176.74832C 232.12517 176.59741 232.46814 176.40698 232.83331 176.1845zM245.38025 167.4114C 245.75479 167.83682 246.081 168.29346 246.3464 168.7785L246.3464 168.7785L246.3464 168.7785C 246.6004 173.80591 247.49203 178.57993 248.29956 183.42514L248.29956 183.42514L248.29956 183.42514C 244.9663 182.01439 241.56927 180.65182 238.28032 179.16942L238.28032 179.16942L238.28032 179.16942C 236.34021 178.28633 234.4635 177.33192 232.83331 176.18451L232.83331 176.18451L232.83331 176.18451C 233.4313 175.82019 234.08882 175.36993 234.82254 174.86653L234.82254 174.86653L234.82254 174.86653C 238.01088 172.6187 241.38431 169.96152 245.3451 167.4075L245.3451 167.4075L245.3451 167.4075C 245.35185 167.42352 245.36363 167.4241 245.38025 167.41142zM249.28885 154.02383C 248.9657 156.0127 249.36783 157.23923 250.05194 158.06464L250.05194 158.06464L250.05194 158.06464C 250.8665 159.19125 251.82742 160.00693 252.81497 160.73718L252.81497 160.73718L252.81497 160.73718C 252.81497 160.73718 252.81497 160.73718 252.81497 160.73718L252.81497 160.73718L252.81497 160.73718C 255.2825 162.57098 257.87064 164.09723 260.2543 166.20901L260.2543 166.20901L260.2543 166.20901C 260.2543 166.20901 260.2543 166.20901 260.2543 166.20901L260.2543 166.20901L260.2543 166.20901C 260.73218 166.62007 261.20087 167.0507 261.6555 167.50592L261.6555 167.50592L261.6555 167.50592C 258.76337 168.65009 255.71968 169.60242 252.78543 169.74692L252.78543 169.74692L252.78543 169.74692C 249.90358 169.88797 247.1386 169.14487 245.38025 167.41139L245.38025 167.41139L245.38025 167.41139C 245.4473 167.36024 245.59341 167.09366 245.81134 166.75655L245.81134 166.75655L245.81134 166.75655C 246.12881 166.2152 246.32059 165.28458 246.5766 164.07402L246.5766 164.07402L246.5766 164.07402C 246.77396 163.01126 246.90417 161.64264 247.15164 159.99295L247.15164 159.99295L247.15164 159.99295C 247.23843 159.33994 247.39322 158.49805 247.66388 157.47995L247.66388 157.47995L247.66388 157.47995C 247.77321 156.75104 248.28645 155.578 249.28885 154.02383z" stroke="none" fill="#004900" fill-rule="evenodd" />
    <path id=""  transform="matrix(1 0 0 -1 0 225)"  d="M57.452362 208.11618C 169.55551 198.61215 151.22255 47.935898 152.21448 47.675797L152.21448 47.675797L128.68526 64.978195C 128.68526 64.978195 62.867737 40.221115 58.89322 13.433151L58.89322 13.433151L58.89322 13.433151C 56.58841 -2.101181 64.15616 54.46283 64.30444 110.14583L64.30444 110.14583L64.30444 110.14583C 64.42679 156.08769 57.261658 202.7716 57.452362 208.1162z" stroke="#000000" stroke-width="0.6980402" fill="#000000" fill-rule="evenodd" />
    <path id=""  transform="matrix(1 0 0 -1 0 225)"  d="M105.978226 167.27519C 103.016495 164.8381 99.22421 166.26245 97.498795 170.45996L97.498795 170.45996L97.498795 170.45996C 95.773346 174.65747 96.765274 180.04568 99.71669 182.50784L99.71669 182.50784L99.71669 182.50784C 102.66809 184.97 106.46631 183.57788 108.209366 179.39508L108.209366 179.39508L108.209366 179.39508C 109.95245 175.21228 108.983246 169.81577 106.04225 167.3286" stroke="none" fill="#FFFFFF" fill-rule="nonzero" />
    <path id=""  transform="matrix(1 0 0 -1 0 225)"  d="M120.1375 151.83682C 117.175766 149.39975 113.3835 150.82408 111.658066 155.0216L111.658066 155.0216L111.658066 155.0216C 109.93263 159.21912 110.924545 164.60732 113.87596 167.06949L113.87596 167.06949L113.87596 167.06949C 116.82738 169.53165 120.62558 168.13953 122.36865 163.95673L122.36865 163.95673L122.36865 163.95673C 124.111725 159.77393 123.14252 154.37741 120.20154 151.89023" stroke="none" fill="#FFFFFF" fill-rule="nonzero" />
    <path id=""  transform="matrix(1 0 0 -1 0 225)"  d="M104.888885 141.89078C 101.92714 139.4537 98.13487 140.87802 96.409454 145.07556L96.409454 145.07556L96.409454 145.07556C 94.684006 149.27307 95.675934 154.66127 98.627335 157.12343L98.627335 157.12343L98.627335 157.12343C 101.57875 159.5856 105.37697 158.19348 107.120026 154.01068L107.120026 154.01068L107.120026 154.01068C 108.86311 149.82788 107.893906 144.43135 104.95291 141.94418" stroke="none" fill="#FFFFFF" fill-rule="nonzero" />
    <path id=""  transform="matrix(1 0 0 -1 0 225)"  d="M90.84543 154.82068C 87.8837 152.3836 84.091415 153.80792 82.366 158.00546L82.366 158.00546L82.366 158.00546C 80.64055 162.20297 81.63248 167.59117 84.58389 170.05333L84.58389 170.05333L84.58389 170.05333C 87.53529 172.5155 91.33351 171.12338 93.07657 166.94057L93.07657 166.94057L93.07657 166.94057C 94.81964 162.75778 93.85043 157.36125 90.90944 154.87408" stroke="none" fill="#FFFFFF" fill-rule="nonzero" />
    <path id=""  transform="matrix(1 0 0 -1 0 225)"  d="M91.067276 179.23729C 88.105545 176.80022 84.31328 178.22455 82.587845 182.42207L82.587845 182.42207L82.587845 182.42207C 80.86241 186.61958 81.854324 192.00778 84.80574 194.46994L84.80574 194.46994L84.80574 194.46994C 87.75716 196.93211 91.55536 195.53998 93.298416 191.35718L93.298416 191.35718L93.298416 191.35718C 95.04149 187.1744 94.07228 181.77786 91.13129 179.29071" stroke="none" fill="#FFFFFF" fill-rule="nonzero" />
    <path id=""  transform="matrix(1 0 0 -1 0 225)"  d="M74.67944 164.23709C 71.71771 161.80002 67.925446 163.22435 66.20003 167.42188L66.20003 167.42188L66.20003 167.42188C 64.47461 171.61938 65.46649 177.0076 68.41791 179.46976L68.41791 179.46976L68.41791 179.46976C 71.36932 181.93192 75.16753 180.5398 76.9106 176.357L76.9106 176.357L76.9106 176.357C 78.65367 172.17421 77.68446 166.7777 74.743484 164.29053" stroke="none" fill="#FFFFFF" fill-rule="nonzero" />
    <path id=""  transform="matrix(1 0 0 -1 0 225)"  d="M75.32851 185.2489C 72.36676 182.81183 68.57449 184.23616 66.849075 188.43369L66.849075 188.43369L66.849075 188.43369C 65.12366 192.6312 66.115555 198.0194 69.066956 200.48155L69.066956 200.48155L69.066956 200.48155C 72.01837 202.94373 75.81659 201.55159 77.55965 197.3688L77.55965 197.3688L77.55965 197.3688C 79.302734 193.186 78.33353 187.78949 75.39253 185.3023" stroke="none" fill="#FFFFFF" fill-rule="nonzero" />
    <path id=""  transform="matrix(1 0 0 -1 0 225)"  d="M100.64076 80.155624C 97.67905 77.71857 93.88678 79.1429 92.16133 83.34041L92.16133 83.34041L92.16133 83.34041C 90.4359 87.53792 91.42781 92.9261 94.37923 95.38829L94.37923 95.38829L94.37923 95.38829C 97.33064 97.850464 101.128845 96.45833 102.87192 92.27553L102.87192 92.27553L102.87192 92.27553C 104.61499 88.09274 103.64578 82.69623 100.70479 80.209045" stroke="none" fill="#FFFFFF" fill-rule="nonzero" />
    <path id=""  transform="matrix(1 0 0 -1 0 225)"  d="M87.46289 71.607285C 84.501175 69.17021 80.70891 70.59454 78.983475 74.79207L78.983475 74.79207L78.983475 74.79207C 77.258026 78.98959 78.24994 84.37778 81.201355 86.839935L81.201355 86.839935L81.201355 86.839935C 84.152756 89.30211 87.95096 87.90999 89.694046 83.72717L89.694046 83.72717L89.694046 83.72717C 91.43712 79.54437 90.46791 74.14787 87.52693 71.660706" stroke="none" fill="#FFFFFF" fill-rule="nonzero" />
    <path id=""  transform="matrix(1 0 0 -1 0 225)"  d="M72.680786 60.91948C 69.71907 58.48242 65.92679 59.906754 64.201355 64.10426L64.201355 64.10426L64.201355 64.10426C 62.475952 68.30177 63.467834 73.68997 66.41925 76.15213L66.41925 76.15213L66.41925 76.15213C 69.37067 78.61429 73.16887 77.22217 74.91194 73.03937L74.91194 73.03937L74.91194 73.03937C 76.655014 68.85657 75.68581 63.460052 72.74483 60.972885" stroke="none" fill="#FFFFFF" fill-rule="nonzero" />
    <path id=""  transform="matrix(1 0 0 -1 0 225)"  d="M101.23244 57.647095C 98.27072 55.210022 94.478424 56.634354 92.753006 60.831863L92.753006 60.831863L92.753006 60.831863C 91.02756 65.02937 92.019485 70.41756 94.9709 72.879745L94.9709 72.879745L94.9709 72.879745C 97.9223 75.34192 101.72052 73.94978 103.46358 69.76698L103.46358 69.76698L103.46358 69.76698C 105.206665 65.5842 104.23746 60.187683 101.29646 57.7005" stroke="none" fill="#FFFFFF" fill-rule="nonzero" />
    <path id=""  transform="matrix(1 0 0 -1 0 225)"  d="M86.73616 48.77652C 83.774445 46.339447 79.98218 47.76378 78.25673 51.961304L78.25673 51.961304L78.25673 51.961304C 76.531296 56.15883 77.52321 61.547012 80.474625 64.00917L80.474625 64.00917L80.474625 64.00917C 83.426025 66.47133 87.22423 65.07921 88.967316 60.896408L88.967316 60.896408L88.967316 60.896408C 90.71039 56.713608 89.74118 51.31711 86.8002 48.82994" stroke="none" fill="#FFFFFF" fill-rule="nonzero" />
    <path id=""  transform="matrix(1 0 0 -1 0 225)"  d="M73.56059 38.794006C 70.59889 36.35695 66.806625 37.78128 65.08118 41.97879L65.08118 41.97879L65.08118 41.97879C 63.355743 46.1763 64.34766 51.564484 67.29907 54.026657L67.29907 54.026657L67.29907 54.026657C 70.25049 56.488846 74.04869 55.09671 75.79176 50.91391L75.79176 50.91391L75.79176 50.91391C 77.534836 46.73111 76.56563 41.33461 73.62465 38.847427" stroke="none" fill="#FFFFFF" fill-rule="nonzero" />
    <path id=""  transform="matrix(1 0 0 -1 0 225)"  d="M116.61623 64.339386C 113.65451 61.90233 109.86224 63.326675 108.136795 67.524185L108.136795 67.524185L108.136795 67.524185C 106.41136 71.72168 107.403275 77.10988 110.35469 79.57205L110.35469 79.57205L110.35469 79.57205C 113.30609 82.034225 117.104294 80.64209 118.84738 76.45929L118.84738 76.45929L118.84738 76.45929C 120.590454 72.276505 119.62125 66.87999 116.68025 64.39281" stroke="none" fill="#FFFFFF" fill-rule="nonzero" />
    <path id=""  transform="matrix(1 0 0 -1 0 225)"  d="M117.293335 85.47203C 114.331604 83.03496 110.53932 84.45929 108.8139 88.6568L108.8139 88.6568L108.8139 88.6568C 107.088455 92.85431 108.08038 98.24249 111.031784 100.70468L111.031784 100.70468L111.031784 100.70468C 113.9832 103.166855 117.78142 101.77472 119.524475 97.59192L119.524475 97.59192L119.524475 97.59192C 121.26756 93.409134 120.298355 88.01262 117.35736 85.52544" stroke="none" fill="#FFFFFF" fill-rule="nonzero" />
    <path id=""  transform="matrix(1 0 0 -1 0 225)"  d="M132.2959 72.574234C 129.33418 70.13716 125.541916 71.56149 123.81647 75.75902L123.81647 75.75902L123.81647 75.75902C 122.091034 79.95654 123.08295 85.34473 126.03436 87.806885L126.03436 87.806885L126.03436 87.806885C 128.98578 90.26906 132.78398 88.87694 134.52705 84.69414L134.52705 84.69414L134.52705 84.69414C 136.27013 80.51134 135.30092 75.11482 132.35994 72.627655" stroke="none" fill="#FFFFFF" fill-rule="nonzero" />
    <path id=""  transform="matrix(1 0 0 -1 0 225)"  d="M147.28647 84.11943C 144.32475 81.68237 140.53247 83.10672 138.80704 87.30423L138.80704 87.30423L138.80704 87.30423C 137.08159 91.501724 138.07352 96.88992 141.02493 99.3521L141.02493 99.3521L141.02493 99.3521C 143.97632 101.81427 147.77454 100.422134 149.51761 96.239334L149.51761 96.239334L149.51761 96.239334C 151.2607 92.05655 150.29149 86.660034 147.3505 84.17285" stroke="none" fill="#FFFFFF" fill-rule="nonzero" />
    <path id=""  transform="matrix(1 0 0 -1 0 225)"  d="M146.49635 61.87349C 143.53464 59.436447 139.74237 60.86078 138.01692 65.05829L138.01692 65.05829L138.01692 65.05829C 136.29149 69.25578 137.2834 74.64398 140.23482 77.106155L140.23482 77.106155L140.23482 77.106155C 143.18622 79.56833 146.98442 78.17619 148.7275 73.99339L148.7275 73.99339L148.7275 73.99339C 150.47058 69.81061 149.50137 64.41409 146.56038 61.92691" stroke="none" fill="#FFFFFF" fill-rule="nonzero" />
    <path id=""  transform="matrix(1 0 0 -1 0 225)"  d="M143.46028 142.7522C 144.00273 150.90775 145.34377 161.1537 146.50266 165.99683L146.50266 165.99683L146.50266 165.99683C 148.49702 174.33151 151.41325 179.83206 155.72067 183.38365L155.72067 183.38365L155.72067 183.38365C 158.98248 186.0731 161.75992 187.02673 166.35541 187.03506L166.35541 187.03506L166.35541 187.03506C 174.16495 187.04924 183.77908 182.87866 192.68121 175.61508L192.68121 175.61508L192.68121 175.61508C 193.6649 174.81244 195.37895 173.76997 196.4902 173.29848L196.4902 173.29848L196.4902 173.29848C 197.60144 172.82698 200.01102 171.70055 201.84482 170.79529L201.84482 170.79529L205.17896 169.14935L205.17896 169.14935L210.49033 173.49696L210.49033 173.49696L210.49033 173.49696C 216.13647 178.1186 218.57738 179.85393 222.4754 182.01755L222.4754 182.01755L222.4754 182.01755C 223.81015 182.75842 225.58475 183.79564 226.41898 184.3225L226.41898 184.3225L226.41898 184.3225C 228.27083 185.49205 229.96857 185.17497 231.67966 185.16754L231.67966 185.16754L231.67966 185.16754C 235.16092 185.15245 239.2565 182.50763 244.24315 176.55759L244.24315 176.55759L244.24315 176.55759C 246.48093 173.88748 247.70493 173.4354 248.09265 165.5389L248.09265 165.5389L248.09265 165.5389C 248.2582 162.1672 248.54984 158.95428 248.74075 158.39908L248.74075 158.39908L248.74075 158.39908C 249.60815 155.8764 252.28366 152.57109 255.09244 150.55222L255.09244 150.55222L255.09244 150.55222C 256.75436 149.35767 258.0973 148.6549 264.1862 145.7934L264.1862 145.7934L264.1862 145.7934C 273.31705 141.50232 280.4384 137.2424 284.43964 133.67798L284.43964 133.67798L284.43964 133.67798C 289.71362 128.97975 291.03262 125.649185 289.17444 121.7224L289.17444 121.7224L289.17444 121.7224C 287.10712 117.353676 284.12497 113.57553 278.95428 108.77417L278.95428 108.77417L276.33536 106.342316L276.33536 106.342316L277.2515 104.10535L277.2515 104.10535L277.2515 104.10535C 277.75537 102.875 278.63354 100.39201 279.20303 98.58757L279.20303 98.58757L279.20303 98.58757C 279.7725 96.78314 280.92175 93.660065 281.75696 91.647415L281.75696 91.647415L281.75696 91.647415C 286.77847 79.54669 286.40057 67.02821 280.85562 61.787476L280.85562 61.787476L280.85562 61.787476C 279.49902 60.50531 277.20065 59.49025 275.10684 59.24855L275.10684 59.24855L275.10684 59.24855C 272.50787 58.948517 261.86667 59.55185 257.66412 60.23752L257.66412 60.23752L257.66412 60.23752C 251.02441 61.320816 251.8967 61.46991 249.67136 58.87137L249.67136 58.87137L249.67136 58.87137C 248.61218 57.634567 246.29153 55.20523 244.51437 53.47284L244.51437 53.47284L244.51437 53.47284C 242.73721 51.740448 240.6773 49.620224 239.93683 48.76123L239.93683 48.76123L239.93683 48.76123C 238.0781 46.605026 235.17804 44.414703 232.96225 43.49356L232.96225 43.49356L232.96225 43.49356C 229.09229 41.88472 225.63464 41.823578 220.431 43.271957L220.431 43.271957L220.431 43.271957C 218.71909 43.748444 215.74858 44.45108 213.82988 44.833344L213.82988 44.833344L213.82988 44.833344C 211.91118 45.215622 208.62631 46.00293 206.53015 46.582947L206.53015 46.582947L202.71895 47.637497L202.71895 47.637497L200.31145 45.76529L200.31145 45.76529L200.31145 45.76529C 198.98732 44.73558 196.92754 43.21826 195.73416 42.393524L195.73416 42.393524L195.73416 42.393524C 194.54079 41.568756 192.87344 40.120926 192.02896 39.176132L192.02896 39.176132L192.02896 39.176132C 186.12648 32.572495 177.91345 28.621735 171.87645 29.48204L171.87645 29.48204L171.87645 29.48204C 168.93674 29.90097 166.79543 30.8835 163.96594 33.11171L163.96594 33.11171L163.96594 33.11171C 158.0562 37.76561 152.82098 46.338562 148.87126 57.829956L148.87126 57.829956L148.87126 57.829956C 147.99393 60.382538 147.95042 60.753235 147.68672 67.92474L147.68672 67.92474L147.68672 67.92474C 147.29205 78.658325 147.08553 81.40837 145.13771 101.86841L145.13771 101.86841L145.13771 101.86841C 144.55627 107.97575 143.93758 114.90329 143.7628 117.26294L143.7628 117.26294L143.7628 117.26294C 143.31493 123.309906 143.14114 137.9539 143.4603 142.75224z" stroke="none" fill="#004900" fill-rule="nonzero" />
    <path id=""  transform="matrix(1 0 0 -1 0 225)"  d="M180.79857 149.97066C 179.83057 156.74384 187.06493 168.99875 186.62294 169.98775L186.62294 169.98775L186.62294 169.98775C 186.4117 170.46045 178.54054 154.70068 178.20291 156.00772L178.20291 156.00772L178.20291 156.00772C 176.61772 162.14423 176.32545 168.86887 175.56142 175.15616L175.56142 175.15616L174.06522 151.69421L174.06522 151.69421L168.08037 175.50633L168.08037 175.50633L168.08037 175.50633C 168.33743 167.39395 170.85603 157.5261 169.10902 151.08142L169.10902 151.08142L169.10902 151.08142C 172.66327 151.9903 177.59184 151.01384 180.79857 149.97066z" stroke="#FFFFFF" stroke-width="1.7321199" fill="#FFFFFF" fill-rule="evenodd" />
    <path id=""  transform="matrix(1 0 0 -1 0 225)"  d="M156.36467 129.87642L156.36467 129.87642L156.36467 129.87642L170.69424 167.10391L170.69424 167.10391L156.76607 150.02997L156.76607 150.02997L160.31027 170.25906L160.31027 170.25906L140.4022 140.70955z" stroke="none" fill="#B93C3C" fill-rule="evenodd" />
    <path id=""  transform="matrix(1 0 0 -1 0 225)"  d="M254.04616 117.81565C 251.99939 115.303055 248.52794 114.20569 245.27312 115.04237L245.27312 115.04237L245.27312 115.04237C 242.01831 115.87906 239.63225 118.48218 239.24307 121.62096L239.24307 121.62096L239.24307 121.62096C 238.85391 124.75975 240.53961 127.80534 243.50317 129.31773L243.50317 129.31773L243.50317 129.31773C 246.46674 130.83015 250.1144 130.50636 252.72151 128.49948" stroke="#FFFFFF" stroke-width="6.5914288" fill="#004900" fill-rule="nonzero" />
    <path id=""  transform="matrix(1 0 0 -1 0 225)"  d="M251.74982 87.32382C 249.12096 85.34195 245.46996 85.053055 242.52304 86.593704L242.52304 86.593704L242.52304 86.593704C 239.57613 88.13434 237.92372 91.19589 238.34709 94.33078L238.34709 94.33078L238.34709 94.33078C 238.77048 97.46568 241.1848 100.045876 244.44856 100.85142L244.44856 100.85142L244.44856 100.85142C 247.71233 101.656944 251.17163 100.52645 253.19089 97.994415" stroke="#FFFFFF" stroke-width="6.4884553" fill="#004900" fill-rule="nonzero" />
    <path id=""  transform="matrix(1 0 0 -1 0 225)"  d="M227.92397 102.913574C 225.54877 100.66851 221.95534 99.998566 218.8426 101.220474L218.8426 101.220474L218.8426 101.220474C 215.72989 102.44238 213.72157 105.31137 213.76718 108.47095L213.76718 108.47095L213.76718 108.47095C 213.81279 111.63051 215.9032 114.44765 219.05003 115.59038L219.05003 115.59038L219.05003 115.59038C 222.19688 116.733116 225.76968 115.97249 228.0792 113.66815" stroke="#FFFFFF" stroke-width="6.5364876" fill="#004900" fill-rule="nonzero" />
    <path id=""  transform="matrix(1 0 0 -1 0 225)"  d="M229.9753 134.8787C 228.65155 131.97202 225.57507 130.10898 222.20044 130.17049L222.20044 130.17049L222.20044 130.17049C 218.82578 130.232 215.82909 132.20572 214.62721 135.15848L214.62721 135.15848L214.62721 135.15848C 213.42534 138.1112 214.25906 141.45139 216.73422 143.59975L216.73422 143.59975L216.73422 143.59975C 219.20938 145.74811 222.83005 146.27422 225.88434 144.92929" stroke="#FFFFFF" stroke-width="6.683835" fill="#004900" fill-rule="nonzero" />
    <path id=""  transform="matrix(1 0 0 -1 0 225)"  d="M226.2886 72.042816C 223.31638 70.54541 219.67065 70.887634 217.07512 72.90765L217.07512 72.90765L217.07512 72.90765C 214.47961 74.927704 213.45436 78.220825 214.48407 81.23004L214.48407 81.23004L214.48407 81.23004C 215.51381 84.23927 218.39224 86.361664 221.75839 86.59375L221.75839 86.59375L221.75839 86.59375C 225.12459 86.82585 228.30408 85.12114 229.79362 82.285614" stroke="#FFFFFF" stroke-width="6.415752" fill="#004900" fill-rule="nonzero" />
    <path id=""  transform="matrix(1 0 0 -1 0 225)"  d="M205.73312 120.084816C 204.40938 117.17813 201.33289 115.3151 197.95825 115.3766L197.95825 115.3766L197.95825 115.3766C 194.58359 115.43812 191.58691 117.41185 190.38503 120.36458L190.38503 120.36458L190.38503 120.36458C 189.18317 123.31732 190.01689 126.65752 192.49203 128.80586L192.49203 128.80586L192.49203 128.80586C 194.9672 130.95422 198.58786 131.48033 201.64215 130.13542" stroke="#FFFFFF" stroke-width="6.683835" fill="#004900" fill-rule="nonzero" />
    <path id=""  transform="matrix(1 0 0 -1 0 225)"  d="M202.37851 88.20906C 199.40628 86.71167 195.76054 87.05388 193.16501 89.07391L193.16501 89.07391L193.16501 89.07391C 190.5695 91.09395 189.54425 94.387085 190.57397 97.3963L190.57397 97.3963L190.57397 97.3963C 191.60371 100.40552 194.48215 102.527916 197.8483 102.76001L197.8483 102.76001L197.8483 102.76001C 201.21448 102.992096 204.39397 101.28739 205.8835 98.45187" stroke="#FFFFFF" stroke-width="6.415752" fill="#004900" fill-rule="nonzero" />
    <path id=""  transform="matrix(1 0 0 -1 0 225)"  d="M178.36273 103.057976C 175.98756 100.81293 172.3941 100.14296 169.28139 101.36487L169.28139 101.36487L169.28139 101.36487C 166.16869 102.5868 164.16037 105.45578 164.20596 108.61534L164.20596 108.61534L164.20596 108.61534C 164.25156 111.7749 166.34196 114.592026 169.48882 115.73477L169.48882 115.73477L169.48882 115.73477C 172.63565 116.87752 176.20845 116.11689 178.51797 113.81256" stroke="#FFFFFF" stroke-width="6.5364876" fill="#004900" fill-rule="nonzero" />
    <path id=""  transform="matrix(1 0 0 -1 0 225)"  d="M199.5701 59.91832C 196.22702 59.482956 192.93643 60.991653 191.25415 63.731064L191.25415 63.731064L191.25415 63.731064C 189.5719 66.47049 189.83502 69.891785 191.91908 72.37735L191.91908 72.37735L191.91908 72.37735C 194.00317 74.862915 197.49068 75.91478 200.73267 75.03558L200.73267 75.03558L200.73267 75.03558C 203.97469 74.15639 206.32166 71.52229 206.6639 68.37872" stroke="#FFFFFF" stroke-width="6.3288355" fill="#004900" fill-rule="nonzero" />
    <path id=""  transform="matrix(1 0 0 -1 0 225)"  d="M173.919 74.72786C 170.57593 74.29248 167.28534 75.80118 165.60306 78.5406L165.60306 78.5406L165.60306 78.5406C 163.9208 81.280014 164.18391 84.701324 166.26799 87.18689L166.26799 87.18689L166.26799 87.18689C 168.35208 89.67247 171.83957 90.724335 175.08156 89.84512L175.08156 89.84512L175.08156 89.84512C 178.32358 88.96594 180.67055 86.33183 181.01282 83.18828" stroke="#FFFFFF" stroke-width="6.3288355" fill="#004900" fill-rule="nonzero" />
    <path id=""  transform="matrix(1 0 0 -1 0 225)"  d="M117.342575 684.4828C 109.7206 684.3616 102.78853 688.88074 99.82391 695.90356L99.82391 695.90356L99.82391 695.90356C 96.85928 702.9264 98.456085 711.0459 103.85933 716.4231L103.85933 716.4231L103.85933 716.4231C 109.26256 721.8003 117.38968 723.3579 124.39813 720.3594L124.39813 720.3594L124.39813 720.3594C 131.4066 717.3609 135.89223 710.4071 135.73418 702.78577" stroke="#FFFFFF" stroke-width="15.251898" fill="#004900" fill-rule="nonzero" />
    <path id=""  transform="matrix(1 0 0 -1 0 225)"  d="M79.09094 741.37836C 71.46895 741.25714 64.53688 745.77625 61.57228 752.79913L61.57228 752.79913L61.57228 752.79913C 58.60768 759.82196 60.204483 767.94147 65.6077 773.31866L65.6077 773.31866L65.6077 773.31866C 71.01094 778.69586 79.13805 780.2535 86.1465 777.25494L86.1465 777.25494L86.1465 777.25494C 93.15495 774.2565 97.64058 767.3027 97.482544 759.68134" stroke="#FFFFFF" stroke-width="15.251898" fill="#004900" fill-rule="nonzero" />
    <path id=""  transform="matrix(1 0 0 -1 0 225)"  d="M132.6532 133.57132C 129.69147 131.13425 125.899185 132.55858 124.17377 136.7561L124.17377 136.7561L124.17377 136.7561C 122.44833 140.95361 123.44025 146.34183 126.39166 148.80399L126.39166 148.80399L126.39166 148.80399C 129.34306 151.26616 133.14127 149.87402 134.88434 145.69122L134.88434 145.69122L134.88434 145.69122C 136.62743 141.50844 135.65822 136.11192 132.71722 133.62476" stroke="none" fill="#FFFFFF" fill-rule="nonzero" />
    <path id=""  transform="matrix(1 0 0 -1 0 225)"  d="M117.9212 121.68515C 114.95947 119.24807 111.167206 120.6724 109.44177 124.869934L109.44177 124.869934L109.44177 124.869934C 107.71634 129.06744 108.70825 134.45564 111.65967 136.9178L111.65967 136.9178L111.65967 136.9178C 114.61107 139.37997 118.40927 137.98785 120.15236 133.80505L120.15236 133.80505L120.15236 133.80505C 121.89543 129.62225 120.92622 124.22574 117.985245 121.73856" stroke="none" fill="#FFFFFF" fill-rule="nonzero" />
    <path id=""  transform="matrix(1 0 0 -1 0 225)"  d="M63.768677 57.4084C 62.882294 75.87535 62.58905 93.183334 67.24446 111.229355L67.24446 111.229355L67.24446 111.229355C 68.297516 121.78597 60.65213 142.42044 60.4216 164.18344L60.4216 164.18344L60.4216 164.18344C 59.228394 178.46237 65.43596 178.50952 74.2283 173.39914L74.2283 173.39914L74.2283 173.39914C 87.08272 165.82422 104.95476 133.5665 120.03525 108.660645L120.03525 108.660645L120.03525 108.660645C 120.30328 117.72849 126.810394 138.1511 137.22539 140.51282L137.22539 140.51282L137.22539 140.51282C 144.28635 142.20312 152.71907 140.23534 154.94933 132.84756L154.94933 132.84756L154.94933 132.84756C 157.30995 125.11046 157.97658 123.325905 154.292 111.7878L154.292 111.7878L154.292 111.7878C 154.15404 107.92117 149.36108 103.75873 147.0272 100.30907L147.0272 100.30907L147.0272 100.30907C 141.04506 95.42523 136.40714 89.520386 125.68959 88.23332L125.68959 88.23332L125.68959 88.23332C 120.94791 88.41757 116.20621 88.73337 111.46452 91.41115L111.46452 91.41115L111.46452 91.41115C 105.349304 97.05931 96.1068 110.06511 92.77641 117.40547L92.77641 117.40547L92.77641 117.40547C 95.15668 110.41782 102.94801 97.339554 106.44389 90.77559L106.44389 90.77559L106.44389 90.77559C 90.081924 80.73523 76.849686 69.11009 63.768677 57.408386z" stroke="#000000" stroke-width="4.354025" fill="#FFFFFF" fill-rule="evenodd" />
    <path id=""  transform="matrix(1 0 0 -1 0 225)"  d="M147.71849 121.997C 146.30692 122.71952 145.5635 123.115265 143.23502 122.90752L143.23502 122.90752L143.23502 122.90752C 141.62804 121.62538 140.05563 120.68987 142.0489 117.882065L142.0489 117.882065L142.0489 117.882065C 143.70515 116.083885 144.82382 116.52525 146.3326 116.638016L146.3326 116.638016L146.3326 116.638016C 148.6092 117.5898 149.37894 117.460945 149.73434 118.74333L149.73434 118.74333L149.73434 118.74333C 150.01869 120.29906 148.39604 121.1719 147.71849 121.997z" stroke="none" fill="#000000" fill-rule="evenodd" />
    <path id=""  transform="matrix(1 0 0 -1 0 225)"  d="M159.34045 178.73987C 160.52563 195.99564 165.20815 205.36345 167.71956 222.20537L167.71956 222.20537L167.71956 222.20537C 167.27734 209.42477 165.99396 203.6136 166.98357 190.6096L166.98357 190.6096L166.98357 190.6096C 171.89827 204.51286 173.18242 203.81929 178.85587 216.77547L178.85587 216.77547L178.85587 216.77547C 172.94038 200.07225 173.97685 196.55975 171.04922 176.41702z" stroke="none" fill="#004900" fill-rule="evenodd" />
    <path id=""  transform="matrix(1 0 0 -1 0 225)"  d="M260.96518 113.84567C 263.57855 116.96 266.71802 117.20592 270.437 114.29228L270.437 114.29228L264.56644 120.49877L264.56644 120.49877L274.21326 116.49162L274.21326 116.49162L266.71634 122.53303L266.71634 122.53303L276.37216 120.98076L276.37216 120.98076L268.11633 124.49755L268.11633 124.49755L276.4238 126.46527L276.4238 126.46527L266.83054 127.55742L266.83054 127.55742L275.90964 130.81137L275.90964 130.81137L275.90964 130.81137C 267.4652 129.00003 264.9059 131.18637 259.53223 133.31927L259.53223 133.31927L259.53223 133.31927C 262.88455 126.487785 264.69482 120.47427 260.96518 113.84567z" stroke="#FFFFFF" stroke-width="1.385798" fill="#FFFFFF" fill-rule="evenodd" />
    <path id=""  transform="matrix(1 0 0 -1 0 225)"  d="M256.1582 71.458435C 258.7974 72.21391 260.96667 73.995834 262.65765 76.82254L262.65765 76.82254L270.86218 72.35013L270.86218 72.35013L264.75546 79.53479L264.75546 79.53479L274.42038 77.406204L274.42038 77.406204L265.50534 82.37251L265.50534 82.37251L275.0205 83.55052L275.0205 83.55052L266.00803 86.06143L266.00803 86.06143L273.6411 90.00661L273.6411 90.00661L273.6411 90.00661C 270.15906 90.35605 266.08023 89.52081 265.46286 95.55766L265.46286 95.55766L265.46286 95.55766C 264.43518 88.34764 259.64444 75.484344 256.1582 71.45845z" stroke="#FFFFFF" stroke-width="1.5466387" fill="#FFFFFF" fill-rule="evenodd" />
    <path id=""  transform="matrix(1 0 0 -1 0 225)"  d="M235.73204 74.182724C 240.75986 71.77539 243.83405 72.11148 247.75958 71.252075L247.75958 71.252075L236.83969 69.58992L236.83969 69.58992L243.80533 63.53984L243.80533 63.53984L234.93417 65.79468L234.93417 65.79468L239.60126 56.80281L239.60126 56.80281L233.22372 62.216614L233.22372 62.216614L232.61752 51.62317L232.61752 51.62317L230.52692 59.872498L230.52692 59.872498L225.68164 51.971466L225.68164 51.971466L225.68164 51.971466C 227.82448 56.102203 228.15437 60.27794 222.8807 64.77377L222.8807 64.77377L222.8807 64.77377C 233.70859 63.91269 234.47177 69.119385 235.73204 74.182724z" stroke="#FFFFFF" stroke-width="1.5259126" fill="#FFFFFF" fill-rule="evenodd" />
    <path id=""  transform="matrix(1 0 0 -1 0 225)"  d="M220.6386 49.390945L220.6386 49.390945L220.6386 49.390945L213.53162 68.825836L213.53162 68.825836L213.53162 68.825836C 211.2704 64.69516 210.11714 62.163544 205.86354 61.296997L205.86354 61.296997L209.60406 49.390945L209.60406 49.390945L208.85596 61.647186L208.85596 61.647186L214.09268 51.141846L214.09268 51.141846L212.59648 62.697723z" stroke="#FFFFFF" stroke-width="1.7321199" fill="#FFFFFF" fill-rule="evenodd" />
    <path id=""  transform="matrix(1 0 0 -1 0 225)"  d="M187.66333 53.750595C 185.95274 49.51248 184.32224 47.739365 184.36223 40.22357L184.36223 40.22357L181.6785 57.95273z" stroke="#FFFFFF" stroke-width="1.7321199" fill="#FFFFFF" fill-rule="evenodd" />
    <path id=""  transform="matrix(1 0 0 -1 0 225)"  d="M171.52219 66.85945C 171.39696 59.72438 173.76915 52.149628 174.95282 45.048996L174.95282 45.048996L174.95282 45.048996C 171.30617 51.268005 170.86191 58.086594 168.97409 64.63492L168.97409 64.63492L168.97409 64.63492C 167.17278 59.3488 165.25087 54.222305 163.27423 47.886826L163.27423 47.886826L163.27423 47.886826C 163.91008 54.53528 165.69516 60.854034 162.89328 65.98944L162.89328 65.98944L162.89328 65.98944C 160.78357 62.097824 158.6356 58.421112 157.06969 51.47502L157.06969 51.47502L158.14609 76.72136C 159.03062 71.72658 168.12468 65.65349 171.52219 66.85945z" stroke="#FFFFFF" stroke-width="1.7321199" fill="#FFFFFF" fill-rule="evenodd" />
    <path id=""  transform="matrix(1 0 0 -1 0 225)"  d="M221.1604 151.41202C 227.90956 151.25119 228.68173 151.08655 231.91537 147.67401L231.91537 147.67401L231.91537 147.67401C 233.16211 154.64777 236.67532 155.77866 239.70091 159.76978L239.70091 159.76978L230.18956 152.86894L230.18956 152.86894L235.4208 168.89665L235.4208 168.89665L228.2873 155.98544L228.2873 155.98544L228.2873 173.34879L228.2873 173.34879L225.90945 158.65674L225.90945 158.65674L225.90945 158.65674C 222.32976 159.41985 222.29144 164.62804 219.72708 170.00969L219.72708 170.00969L219.72708 170.00969C 221.19635 164.33229 223.49278 155.90308 221.1604 151.41202z" stroke="#FFFFFF" stroke-width="1.557195" fill="#FFFFFF" fill-rule="evenodd" />
    <path id=""  transform="matrix(1 0 0 -1 0 225)"  d="M254.797 143.90747C 248.81122 142.60997 243.57332 142.18713 238.6948 138.07458L238.6948 138.07458L238.6948 138.07458C 239.876 140.59363 238.11148 141.12631 237.44484 145.62305L237.44484 145.62305L237.44484 145.62305C 243.38376 143.42445 249.05997 145.19432 254.797 143.90747z" stroke="#FFFFFF" stroke-width="1.4943398" fill="#FFFFFF" fill-rule="evenodd" />
    <path id=""  transform="matrix(1 0 0 -1 0 225)"  d="M211.37979 155.93414C 215.76103 166.27835 214.14035 167.55435 214.14035 167.55435L214.14035 167.55435L209.26274 156.8886z" stroke="#FFFFFF" stroke-width="1.55048" fill="#FFFFFF" fill-rule="evenodd" />
    <path id=""  transform="matrix(1 0 0 -1 0 225)"  d="M86.14659 203.5662C 84.43379 210.5925 79.606064 216.19012 76.322815 220.09404L76.322815 220.09404L76.322815 220.09404C 77.77348 215.84299 79.513794 210.75447 79.97217 206.2591L79.97217 206.2591L79.97217 206.2591C 80.037 203.87086 80.05304 203.94908 78.58328 204.22777L78.58328 204.22777L93.0936 198.74478C 91.75371 199.9422 87.06995 201.67293 86.14659 203.5662z" stroke="#000000" stroke-width="0.16028513" fill="#000000" fill-rule="evenodd" />
	</g>
</g>
</svg>