<?xml version="1.0" standalone="no"?>
<!DOCTYPE svg PUBLIC "-//W3C//DTD SVG 1.0//EN" "http://www.w3.org/TR/2001/REC-SVG-20010904/DTD/svg10.dtd">
<svg xmlns="http://www.w3.org/2000/svg" xmlns:xlink="http://www.w3.org/1999/xlink" id="body_4" width="400" height="300">

<defs>
    <clipPath  id="1">

    <path id=""  clip-rule="evenodd" transform="matrix(1 0 0 1 0 0)"  d="M0 0L300 0L300 0L300 225L300 225L1.3777277E-14 225L1.3777277E-14 225L0 0z" />    </clipPath>
</defs>

<g transform="matrix(1.3333 0 0 1.3333 0 0)">
	<g clip-path="url(#1)" >
    <path id=""  transform="matrix(1 0 0 -1 0 225)"  d="M279.69235 141.01553C 287.27966 141.01553 293.43042 133.06677 293.43042 123.26146L293.43042 123.26146L293.43042 123.26146C 293.43042 113.456154 287.27966 105.50739 279.69235 105.50739L279.69235 105.50739L279.69235 105.50739C 272.10504 105.50739 265.9543 113.456154 265.9543 123.26146L265.9543 123.26146L265.9543 123.26146C 265.9543 133.06677 272.10504 141.01553 279.69235 141.01553" stroke="none" fill="#004900" fill-rule="evenodd" />
    <path id=""  transform="matrix(1 0 0 -1 0 225)"  d="M279.69235 120.17907C 287.27966 120.17907 293.43042 112.2303 293.43042 102.425L293.43042 102.425L293.43042 102.425C 293.43042 92.619705 287.27966 84.67093 279.69235 84.67093L279.69235 84.67093L279.69235 84.67093C 272.10504 84.67093 265.9543 92.619705 265.9543 102.425L265.9543 102.425L265.9543 102.425C 265.9543 112.2303 272.10504 120.17907 279.69235 120.17907" stroke="none" fill="#004900" fill-rule="evenodd" />
    <path id=""  transform="matrix(1 0 0 -1 0 225)"  d="M172.23846 141.89081C 179.82574 141.89081 185.9765 133.94203 185.9765 124.136734L185.9765 124.136734L185.9765 124.136734C 185.9765 114.33143 179.82574 106.38266 172.23846 106.38266L172.23846 106.38266L172.23846 106.38266C 164.65112 106.38266 158.50037 114.33143 158.50037 124.136734L158.50037 124.136734L158.50037 124.136734C 158.50037 133.94203 164.65112 141.89081 172.23846 141.89081" stroke="none" fill="#004900" fill-rule="evenodd" />
    <path id=""  transform="matrix(1 0 0 -1 0 225)"  d="M180.13922 112.80903L180.13922 112.80903L180.13922 112.80903L277.01904 112.80903" stroke="#004900" stroke-width="39.56521" stroke-linecap="square" fill="none" />
    <path id=""  transform="matrix(1 0 0 -1 0 225)"  d="M172.23846 119.01207C 179.82574 119.01207 185.9765 111.0633 185.9765 101.257996L185.9765 101.257996L185.9765 101.257996C 185.9765 91.4527 179.82574 83.50392 172.23846 83.50392L172.23846 83.50392L172.23846 83.50392C 164.65112 83.50392 158.50037 91.4527 158.50037 101.257996L158.50037 101.257996L158.50037 101.257996C 158.50037 111.0633 164.65112 119.01207 172.23846 119.01207" stroke="none" fill="#004900" fill-rule="evenodd" />
    <path id=""  transform="matrix(1 0 0 -1 0 225)"  d="M230.4845 128.18669C 240.56396 128.18669 248.73499 117.627075 248.73499 104.60113L248.73499 104.60113L248.73499 104.60113C 248.73499 91.57518 240.56396 81.015564 230.4845 81.015564L230.4845 81.015564L230.4845 81.015564C 220.40503 81.015564 212.23401 91.57518 212.23401 104.60113L212.23401 104.60113L212.23401 104.60113C 212.23401 117.627075 220.40503 128.18669 230.4845 128.18669" stroke="none" fill="#004900" fill-rule="evenodd" />
    <path id=""  transform="matrix(1 0 0 -1 0 225)"  d="M230.4845 144.49585C 240.56396 144.49585 248.73499 133.93623 248.73499 120.910286L248.73499 120.910286L248.73499 120.910286C 248.73499 107.88434 240.56396 97.324715 230.4845 97.324715L230.4845 97.324715L230.4845 97.324715C 220.40503 97.324715 212.23401 107.88434 212.23401 120.910286L212.23401 120.910286L212.23401 120.910286C 212.23401 133.93623 220.40503 144.49585 230.4845 144.49585" stroke="none" fill="#004900" fill-rule="evenodd" />
    <path id=""  transform="matrix(1 0 0 -1 0 225)"  d="M275.88184 112.80903L275.88184 112.80903L275.88184 112.80903L248.65924 112.80903" stroke="#FFFFFF" stroke-width="8.999999" stroke-linecap="square" fill="none" />
    <path id=""  transform="matrix(1 0 0 -1 0 225)"  d="M209.8161 112.80903L209.8161 112.80903L209.8161 112.80903L176.19739 112.80903" stroke="#FFFFFF" stroke-width="8.999999" stroke-linecap="square" fill="none" />
    <path id=""  transform="matrix(1 0 0 -1 0 225)"  d="M277.45767 119.27757C 280.91318 119.27757 283.7144 116.3815 283.7144 112.80901L283.7144 112.80901L283.7144 112.80901C 283.7144 109.236534 280.91318 106.34046 277.45767 106.34046L277.45767 106.34046L277.45767 106.34046C 274.00223 106.34046 271.201 109.236534 271.201 112.80901L271.201 112.80901L271.201 112.80901C 271.201 116.3815 274.00223 119.27757 277.45767 119.27757" stroke="none" fill="#FFFFFF" fill-rule="evenodd" />
    <path id=""  transform="matrix(1 0 0 -1 0 225)"  d="M221.14221 119.53966C 225.77545 116.49799 225.57574 108.34653 221.14221 105.78664" stroke="#FFFFFF" stroke-width="7.5" stroke-linecap="square" fill="none" />
    <path id=""  transform="matrix(1 0 0 -1 0 225)"  d="M234.29688 119.53966C 238.93011 116.49799 238.73047 108.34653 234.29688 105.78664" stroke="#FFFFFF" stroke-width="7.5" stroke-linecap="square" fill="none" />
    <path id=""  transform="matrix(1 0 0 -1 0 225)"  d="M123.36795 141.01553C 130.95526 141.01553 137.10602 133.06677 137.10602 123.26146L137.10602 123.26146L137.10602 123.26146C 137.10602 113.456154 130.95526 105.50739 123.36795 105.50739L123.36795 105.50739L123.36795 105.50739C 115.78064 105.50739 109.62991 113.456154 109.62991 123.26146L109.62991 123.26146L109.62991 123.26146C 109.62991 133.06677 115.78064 141.01553 123.36795 141.01553" stroke="none" fill="#004900" fill-rule="evenodd" />
    <path id=""  transform="matrix(1 0 0 -1 0 225)"  d="M123.36795 120.17907C 130.95526 120.17907 137.10602 112.2303 137.10602 102.425L137.10602 102.425L137.10602 102.425C 137.10602 92.619705 130.95526 84.67093 123.36795 84.67093L123.36795 84.67093L123.36795 84.67093C 115.78064 84.67093 109.62991 92.619705 109.62991 102.425L109.62991 102.425L109.62991 102.425C 109.62991 112.2303 115.78064 120.17907 123.36795 120.17907" stroke="none" fill="#004900" fill-rule="evenodd" />
    <path id=""  transform="matrix(1 0 0 -1 0 225)"  d="M15.9140625 141.89081C 23.501343 141.89081 29.6521 133.94203 29.6521 124.136734L29.6521 124.136734L29.6521 124.136734C 29.6521 114.33143 23.501343 106.38266 15.9140625 106.38266L15.9140625 106.38266L15.9140625 106.38266C 8.326721 106.38266 2.1759644 114.33143 2.1759644 124.136734L2.1759644 124.136734L2.1759644 124.136734C 2.1759644 133.94203 8.326721 141.89081 15.9140625 141.89081" stroke="none" fill="#004900" fill-rule="evenodd" />
    <path id=""  transform="matrix(1 0 0 -1 0 225)"  d="M23.81482 112.80903L23.81482 112.80903L23.81482 112.80903L120.69464 112.80903" stroke="#004900" stroke-width="39.56521" stroke-linecap="square" fill="none" />
    <path id=""  transform="matrix(1 0 0 -1 0 225)"  d="M15.9140625 119.01207C 23.501343 119.01207 29.6521 111.0633 29.6521 101.257996L29.6521 101.257996L29.6521 101.257996C 29.6521 91.4527 23.501343 83.50392 15.9140625 83.50392L15.9140625 83.50392L15.9140625 83.50392C 8.326721 83.50392 2.1759644 91.4527 2.1759644 101.257996L2.1759644 101.257996L2.1759644 101.257996C 2.1759644 111.0633 8.326721 119.01207 15.9140625 119.01207" stroke="none" fill="#004900" fill-rule="evenodd" />
    <path id=""  transform="matrix(1 0 0 -1 0 225)"  d="M74.160095 128.18669C 84.23956 128.18669 92.41058 117.627075 92.41058 104.60113L92.41058 104.60113L92.41058 104.60113C 92.41058 91.57518 84.23956 81.015564 74.160095 81.015564L74.160095 81.015564L74.160095 81.015564C 64.08063 81.015564 55.909607 91.57518 55.909607 104.60113L55.909607 104.60113L55.909607 104.60113C 55.909607 117.627075 64.08063 128.18669 74.160095 128.18669" stroke="none" fill="#004900" fill-rule="evenodd" />
    <path id=""  transform="matrix(1 0 0 -1 0 225)"  d="M74.160095 144.49585C 84.23956 144.49585 92.41058 133.93623 92.41058 120.910286L92.41058 120.910286L92.41058 120.910286C 92.41058 107.88434 84.23956 97.324715 74.160095 97.324715L74.160095 97.324715L74.160095 97.324715C 64.08063 97.324715 55.909607 107.88434 55.909607 120.910286L55.909607 120.910286L55.909607 120.910286C 55.909607 133.93623 64.08063 144.49585 74.160095 144.49585" stroke="none" fill="#004900" fill-rule="evenodd" />
    <path id=""  transform="matrix(1 0 0 -1 0 225)"  d="M119.557434 112.80903L119.557434 112.80903L119.557434 112.80903L92.33484 112.80903" stroke="#FFFFFF" stroke-width="8.999999" stroke-linecap="square" fill="none" />
    <path id=""  transform="matrix(1 0 0 -1 0 225)"  d="M53.4917 112.80903L53.4917 112.80903L53.4917 112.80903L19.872986 112.80903" stroke="#FFFFFF" stroke-width="8.999999" stroke-linecap="square" fill="none" />
    <path id=""  transform="matrix(1 0 0 -1 0 225)"  d="M121.13327 119.27757C 124.588776 119.27757 127.389984 116.3815 127.389984 112.80901L127.389984 112.80901L127.389984 112.80901C 127.389984 109.236534 124.588776 106.34046 121.13327 106.34046L121.13327 106.34046L121.13327 106.34046C 117.677826 106.34046 114.87659 109.236534 114.87659 112.80901L114.87659 112.80901L114.87659 112.80901C 114.87659 116.3815 117.677826 119.27757 121.13327 119.27757" stroke="none" fill="#FFFFFF" fill-rule="evenodd" />
    <path id=""  transform="matrix(1 0 0 -1 0 225)"  d="M64.81781 119.53966C 69.45105 116.49799 69.25134 108.34653 64.81781 105.78664" stroke="#FFFFFF" stroke-width="7.5" stroke-linecap="square" fill="none" />
    <path id=""  transform="matrix(1 0 0 -1 0 225)"  d="M77.97247 119.53966C 82.60571 116.49799 82.40607 108.34653 77.97247 105.78664" stroke="#FFFFFF" stroke-width="7.5" stroke-linecap="square" fill="none" />
	</g>
</g>
</svg>