<?xml version="1.0" standalone="no"?>
<!DOCTYPE svg PUBLIC "-//W3C//DTD SVG 1.0//EN" "http://www.w3.org/TR/2001/REC-SVG-20010904/DTD/svg10.dtd">
<svg xmlns="http://www.w3.org/2000/svg" xmlns:xlink="http://www.w3.org/1999/xlink" id="body_2" width="400" height="300">

<defs>
    <clipPath  id="1">

    <path id=""  clip-rule="evenodd" transform="matrix(1 0 0 1 0 0)"  d="M0 0L300 0L300 0L300 225L300 225L1.3777277E-14 225L1.3777277E-14 225L0 0z" />    </clipPath>
</defs>

<g transform="matrix(1.3333 0 0 1.3333 0 0)">
	<g clip-path="url(#1)" >
    <path id=""  transform="matrix(1 0 0 -1 0 225)"  d="M123.36789 199.24374C 130.9552 199.24374 137.10596 191.29498 137.10596 181.48969L137.10596 181.48969L137.10596 181.48969C 137.10596 171.68439 130.9552 163.73563 123.36789 163.73563L123.36789 163.73563L123.36789 163.73563C 115.78058 163.73563 109.62985 171.68439 109.62985 181.48969L109.62985 181.48969L109.62985 181.48969C 109.62985 191.29498 115.78058 199.24374 123.36789 199.24374" stroke="none" fill="#004900" fill-rule="evenodd" />
    <path id=""  transform="matrix(1 0 0 -1 0 225)"  d="M123.36789 178.40729C 130.9552 178.40729 137.10596 170.45853 137.10596 160.65323L137.10596 160.65323L137.10596 160.65323C 137.10596 150.84793 130.9552 142.89915 123.36789 142.89915L123.36789 142.89915L123.36789 142.89915C 115.78058 142.89915 109.62985 150.84793 109.62985 160.65323L109.62985 160.65323L109.62985 160.65323C 109.62985 170.45853 115.78058 178.40729 123.36789 178.40729" stroke="none" fill="#004900" fill-rule="evenodd" />
    <path id=""  transform="matrix(1 0 0 -1 0 225)"  d="M15.914001 200.11902C 23.501282 200.11902 29.652039 192.17026 29.652039 182.36496L29.652039 182.36496L29.652039 182.36496C 29.652039 172.55966 23.501282 164.61089 15.914001 164.61089L15.914001 164.61089L15.914001 164.61089C 8.32666 164.61089 2.1759033 172.55966 2.1759033 182.36496L2.1759033 182.36496L2.1759033 182.36496C 2.1759033 192.17026 8.32666 200.11902 15.914001 200.11902" stroke="none" fill="#004900" fill-rule="evenodd" />
    <path id=""  transform="matrix(1 0 0 -1 0 225)"  d="M23.814758 171.03726L23.814758 171.03726L23.814758 171.03726L120.69458 171.03726" stroke="#004900" stroke-width="39.56521" stroke-linecap="square" fill="none" />
    <path id=""  transform="matrix(1 0 0 -1 0 225)"  d="M15.914001 177.2403C 23.501282 177.2403 29.652039 169.29153 29.652039 159.48622L29.652039 159.48622L29.652039 159.48622C 29.652039 149.68092 23.501282 141.73215 15.914001 141.73215L15.914001 141.73215L15.914001 141.73215C 8.32666 141.73215 2.1759033 149.68092 2.1759033 159.48622L2.1759033 159.48622L2.1759033 159.48622C 2.1759033 169.29153 8.32666 177.2403 15.914001 177.2403" stroke="none" fill="#004900" fill-rule="evenodd" />
    <path id=""  transform="matrix(1 0 0 -1 0 225)"  d="M74.160034 186.41492C 84.2395 186.41492 92.41052 175.8553 92.41052 162.82935L92.41052 162.82935L92.41052 162.82935C 92.41052 149.8034 84.2395 139.24379 74.160034 139.24379L74.160034 139.24379L74.160034 139.24379C 64.08057 139.24379 55.909546 149.8034 55.909546 162.82935L55.909546 162.82935L55.909546 162.82935C 55.909546 175.8553 64.08057 186.41492 74.160034 186.41492" stroke="none" fill="#004900" fill-rule="evenodd" />
    <path id=""  transform="matrix(1 0 0 -1 0 225)"  d="M74.160034 202.72408C 84.2395 202.72408 92.41052 192.16446 92.41052 179.13852L92.41052 179.13852L92.41052 179.13852C 92.41052 166.11256 84.2395 155.55295 74.160034 155.55295L74.160034 155.55295L74.160034 155.55295C 64.08057 155.55295 55.909546 166.11256 55.909546 179.13852L55.909546 179.13852L55.909546 179.13852C 55.909546 192.16446 64.08057 202.72408 74.160034 202.72408" stroke="none" fill="#004900" fill-rule="evenodd" />
    <path id=""  transform="matrix(1 0 0 -1 0 225)"  d="M119.55737 171.03726L119.55737 171.03726L119.55737 171.03726L92.33478 171.03726" stroke="#FFFFFF" stroke-width="8.999999" stroke-linecap="square" fill="none" />
    <path id=""  transform="matrix(1 0 0 -1 0 225)"  d="M53.49164 171.03726L53.49164 171.03726L53.49164 171.03726L19.872925 171.03726" stroke="#FFFFFF" stroke-width="8.999999" stroke-linecap="square" fill="none" />
    <path id=""  transform="matrix(1 0 0 -1 0 225)"  d="M121.13321 177.5058C 124.588715 177.5058 127.38992 174.60973 127.38992 171.03723L127.38992 171.03723L127.38992 171.03723C 127.38992 167.46475 124.588715 164.5687 121.13321 164.5687L121.13321 164.5687L121.13321 164.5687C 117.677765 164.5687 114.876526 167.46475 114.876526 171.03723L114.876526 171.03723L114.876526 171.03723C 114.876526 174.60973 117.677765 177.5058 121.13321 177.5058" stroke="none" fill="#FFFFFF" fill-rule="evenodd" />
    <path id=""  transform="matrix(1 0 0 -1 0 225)"  d="M64.81775 177.76788C 69.45099 174.72623 69.25128 166.57475 64.81775 164.01486" stroke="#FFFFFF" stroke-width="7.5" stroke-linecap="square" fill="none" />
    <path id=""  transform="matrix(1 0 0 -1 0 225)"  d="M77.97241 177.76788C 82.60565 174.72623 82.406006 166.57475 77.97241 164.01486" stroke="#FFFFFF" stroke-width="7.5" stroke-linecap="square" fill="none" />
    <path id=""  transform="matrix(1 0 0 -1 0 225)"  d="M123.36795 82.7873C 130.95526 82.7873 137.10602 74.83854 137.10602 65.03323L137.10602 65.03323L137.10602 65.03323C 137.10602 55.22793 130.95526 47.279167 123.36795 47.279167L123.36795 47.279167L123.36795 47.279167C 115.78064 47.279167 109.62991 55.22793 109.62991 65.03323L109.62991 65.03323L109.62991 65.03323C 109.62991 74.83854 115.78064 82.7873 123.36795 82.7873" stroke="none" fill="#004900" fill-rule="evenodd" />
    <path id=""  transform="matrix(1 0 0 -1 0 225)"  d="M123.36795 61.950844C 130.95526 61.950844 137.10602 54.002075 137.10602 44.196777L137.10602 44.196777L137.10602 44.196777C 137.10602 34.39148 130.95526 26.442703 123.36795 26.442703L123.36795 26.442703L123.36795 26.442703C 115.78064 26.442703 109.62991 34.39148 109.62991 44.196777L109.62991 44.196777L109.62991 44.196777C 109.62991 54.002075 115.78064 61.950844 123.36795 61.950844" stroke="none" fill="#004900" fill-rule="evenodd" />
    <path id=""  transform="matrix(1 0 0 -1 0 225)"  d="M15.9140625 83.662575C 23.501343 83.662575 29.6521 75.713806 29.6521 65.90851L29.6521 65.90851L29.6521 65.90851C 29.6521 56.103203 23.501343 48.154434 15.9140625 48.154434L15.9140625 48.154434L15.9140625 48.154434C 8.326721 48.154434 2.1759644 56.103203 2.1759644 65.90851L2.1759644 65.90851L2.1759644 65.90851C 2.1759644 75.713806 8.326721 83.662575 15.9140625 83.662575" stroke="none" fill="#004900" fill-rule="evenodd" />
    <path id=""  transform="matrix(1 0 0 -1 0 225)"  d="M23.81482 54.580803L23.81482 54.580803L23.81482 54.580803L120.69464 54.580803" stroke="#004900" stroke-width="39.56521" stroke-linecap="square" fill="none" />
    <path id=""  transform="matrix(1 0 0 -1 0 225)"  d="M15.9140625 60.783844C 23.501343 60.783844 29.6521 52.835075 29.6521 43.02977L29.6521 43.02977L29.6521 43.02977C 29.6521 33.224472 23.501343 25.275696 15.9140625 25.275696L15.9140625 25.275696L15.9140625 25.275696C 8.326721 25.275696 2.1759644 33.224472 2.1759644 43.02977L2.1759644 43.02977L2.1759644 43.02977C 2.1759644 52.835075 8.326721 60.783844 15.9140625 60.783844" stroke="none" fill="#004900" fill-rule="evenodd" />
    <path id=""  transform="matrix(1 0 0 -1 0 225)"  d="M74.160095 69.958466C 84.23956 69.958466 92.41058 59.39885 92.41058 46.372902L92.41058 46.372902L92.41058 46.372902C 92.41058 33.346954 84.23956 22.787338 74.160095 22.787338L74.160095 22.787338L74.160095 22.787338C 64.08063 22.787338 55.909607 33.346954 55.909607 46.372902L55.909607 46.372902L55.909607 46.372902C 55.909607 59.39885 64.08063 69.958466 74.160095 69.958466" stroke="none" fill="#004900" fill-rule="evenodd" />
    <path id=""  transform="matrix(1 0 0 -1 0 225)"  d="M74.160095 86.267624C 84.23956 86.267624 92.41058 75.70801 92.41058 62.68206L92.41058 62.68206L92.41058 62.68206C 92.41058 49.656113 84.23956 39.09649 74.160095 39.09649L74.160095 39.09649L74.160095 39.09649C 64.08063 39.09649 55.909607 49.656113 55.909607 62.68206L55.909607 62.68206L55.909607 62.68206C 55.909607 75.70801 64.08063 86.267624 74.160095 86.267624" stroke="none" fill="#004900" fill-rule="evenodd" />
    <path id=""  transform="matrix(1 0 0 -1 0 225)"  d="M119.557434 54.580803L119.557434 54.580803L119.557434 54.580803L92.33484 54.580803" stroke="#FFFFFF" stroke-width="8.999999" stroke-linecap="square" fill="none" />
    <path id=""  transform="matrix(1 0 0 -1 0 225)"  d="M53.4917 54.580803L53.4917 54.580803L53.4917 54.580803L19.872986 54.580803" stroke="#FFFFFF" stroke-width="8.999999" stroke-linecap="square" fill="none" />
    <path id=""  transform="matrix(1 0 0 -1 0 225)"  d="M121.13327 61.049347C 124.588776 61.049347 127.389984 58.153275 127.389984 54.580788L127.389984 54.580788L127.389984 54.580788C 127.389984 51.00831 124.588776 48.112236 121.13327 48.112236L121.13327 48.112236L121.13327 48.112236C 117.677826 48.112236 114.87659 51.00831 114.87659 54.580788L114.87659 54.580788L114.87659 54.580788C 114.87659 58.153275 117.677826 61.049347 121.13327 61.049347" stroke="none" fill="#FFFFFF" fill-rule="evenodd" />
    <path id=""  transform="matrix(1 0 0 -1 0 225)"  d="M64.81781 61.31143C 69.45105 58.269768 69.25134 50.1183 64.81781 47.55841" stroke="#FFFFFF" stroke-width="7.5" stroke-linecap="square" fill="none" />
    <path id=""  transform="matrix(1 0 0 -1 0 225)"  d="M77.97247 61.31143C 82.60571 58.269768 82.40607 50.1183 77.97247 47.55841" stroke="#FFFFFF" stroke-width="7.5" stroke-linecap="square" fill="none" />
    <path id=""  transform="matrix(1 0 0 -1 0 225)"  d="M279.69235 199.24374C 287.27966 199.24374 293.43042 191.29498 293.43042 181.48969L293.43042 181.48969L293.43042 181.48969C 293.43042 171.68439 287.27966 163.73563 279.69235 163.73563L279.69235 163.73563L279.69235 163.73563C 272.10504 163.73563 265.9543 171.68439 265.9543 181.48969L265.9543 181.48969L265.9543 181.48969C 265.9543 191.29498 272.10504 199.24374 279.69235 199.24374" stroke="none" fill="#004900" fill-rule="evenodd" />
    <path id=""  transform="matrix(1 0 0 -1 0 225)"  d="M279.69235 178.40729C 287.27966 178.40729 293.43042 170.45853 293.43042 160.65323L293.43042 160.65323L293.43042 160.65323C 293.43042 150.84793 287.27966 142.89915 279.69235 142.89915L279.69235 142.89915L279.69235 142.89915C 272.10504 142.89915 265.9543 150.84793 265.9543 160.65323L265.9543 160.65323L265.9543 160.65323C 265.9543 170.45853 272.10504 178.40729 279.69235 178.40729" stroke="none" fill="#004900" fill-rule="evenodd" />
    <path id=""  transform="matrix(1 0 0 -1 0 225)"  d="M172.23846 200.11902C 179.82574 200.11902 185.9765 192.17026 185.9765 182.36496L185.9765 182.36496L185.9765 182.36496C 185.9765 172.55966 179.82574 164.61089 172.23846 164.61089L172.23846 164.61089L172.23846 164.61089C 164.65112 164.61089 158.50037 172.55966 158.50037 182.36496L158.50037 182.36496L158.50037 182.36496C 158.50037 192.17026 164.65112 200.11902 172.23846 200.11902" stroke="none" fill="#004900" fill-rule="evenodd" />
    <path id=""  transform="matrix(1 0 0 -1 0 225)"  d="M180.13922 171.03726L180.13922 171.03726L180.13922 171.03726L277.01904 171.03726" stroke="#004900" stroke-width="39.56521" stroke-linecap="square" fill="none" />
    <path id=""  transform="matrix(1 0 0 -1 0 225)"  d="M172.23846 177.2403C 179.82574 177.2403 185.9765 169.29153 185.9765 159.48622L185.9765 159.48622L185.9765 159.48622C 185.9765 149.68092 179.82574 141.73215 172.23846 141.73215L172.23846 141.73215L172.23846 141.73215C 164.65112 141.73215 158.50037 149.68092 158.50037 159.48622L158.50037 159.48622L158.50037 159.48622C 158.50037 169.29153 164.65112 177.2403 172.23846 177.2403" stroke="none" fill="#004900" fill-rule="evenodd" />
    <path id=""  transform="matrix(1 0 0 -1 0 225)"  d="M230.4845 186.41492C 240.56396 186.41492 248.73499 175.8553 248.73499 162.82935L248.73499 162.82935L248.73499 162.82935C 248.73499 149.8034 240.56396 139.24379 230.4845 139.24379L230.4845 139.24379L230.4845 139.24379C 220.40503 139.24379 212.23401 149.8034 212.23401 162.82935L212.23401 162.82935L212.23401 162.82935C 212.23401 175.8553 220.40503 186.41492 230.4845 186.41492" stroke="none" fill="#004900" fill-rule="evenodd" />
    <path id=""  transform="matrix(1 0 0 -1 0 225)"  d="M230.4845 202.72408C 240.56396 202.72408 248.73499 192.16446 248.73499 179.13852L248.73499 179.13852L248.73499 179.13852C 248.73499 166.11256 240.56396 155.55295 230.4845 155.55295L230.4845 155.55295L230.4845 155.55295C 220.40503 155.55295 212.23401 166.11256 212.23401 179.13852L212.23401 179.13852L212.23401 179.13852C 212.23401 192.16446 220.40503 202.72408 230.4845 202.72408" stroke="none" fill="#004900" fill-rule="evenodd" />
    <path id=""  transform="matrix(1 0 0 -1 0 225)"  d="M275.88184 171.03726L275.88184 171.03726L275.88184 171.03726L248.65924 171.03726" stroke="#FFFFFF" stroke-width="8.999999" stroke-linecap="square" fill="none" />
    <path id=""  transform="matrix(1 0 0 -1 0 225)"  d="M209.8161 171.03726L209.8161 171.03726L209.8161 171.03726L176.19739 171.03726" stroke="#FFFFFF" stroke-width="8.999999" stroke-linecap="square" fill="none" />
    <path id=""  transform="matrix(1 0 0 -1 0 225)"  d="M277.45767 177.5058C 280.91318 177.5058 283.7144 174.60973 283.7144 171.03723L283.7144 171.03723L283.7144 171.03723C 283.7144 167.46475 280.91318 164.5687 277.45767 164.5687L277.45767 164.5687L277.45767 164.5687C 274.00223 164.5687 271.201 167.46475 271.201 171.03723L271.201 171.03723L271.201 171.03723C 271.201 174.60973 274.00223 177.5058 277.45767 177.5058" stroke="none" fill="#FFFFFF" fill-rule="evenodd" />
    <path id=""  transform="matrix(1 0 0 -1 0 225)"  d="M221.14221 177.76788C 225.77545 174.72623 225.57574 166.57475 221.14221 164.01486" stroke="#FFFFFF" stroke-width="7.5" stroke-linecap="square" fill="none" />
    <path id=""  transform="matrix(1 0 0 -1 0 225)"  d="M234.29688 177.76788C 238.93011 174.72623 238.73047 166.57475 234.29688 164.01486" stroke="#FFFFFF" stroke-width="7.5" stroke-linecap="square" fill="none" />
    <path id=""  transform="matrix(1 0 0 -1 0 225)"  d="M279.69235 82.7873C 287.27966 82.7873 293.43042 74.83854 293.43042 65.03323L293.43042 65.03323L293.43042 65.03323C 293.43042 55.22793 287.27966 47.279167 279.69235 47.279167L279.69235 47.279167L279.69235 47.279167C 272.10504 47.279167 265.9543 55.22793 265.9543 65.03323L265.9543 65.03323L265.9543 65.03323C 265.9543 74.83854 272.10504 82.7873 279.69235 82.7873" stroke="none" fill="#004900" fill-rule="evenodd" />
    <path id=""  transform="matrix(1 0 0 -1 0 225)"  d="M279.69235 61.950844C 287.27966 61.950844 293.43042 54.002075 293.43042 44.196777L293.43042 44.196777L293.43042 44.196777C 293.43042 34.39148 287.27966 26.442703 279.69235 26.442703L279.69235 26.442703L279.69235 26.442703C 272.10504 26.442703 265.9543 34.39148 265.9543 44.196777L265.9543 44.196777L265.9543 44.196777C 265.9543 54.002075 272.10504 61.950844 279.69235 61.950844" stroke="none" fill="#004900" fill-rule="evenodd" />
    <path id=""  transform="matrix(1 0 0 -1 0 225)"  d="M172.23846 83.662575C 179.82574 83.662575 185.9765 75.713806 185.9765 65.90851L185.9765 65.90851L185.9765 65.90851C 185.9765 56.103203 179.82574 48.154434 172.23846 48.154434L172.23846 48.154434L172.23846 48.154434C 164.65112 48.154434 158.50037 56.103203 158.50037 65.90851L158.50037 65.90851L158.50037 65.90851C 158.50037 75.713806 164.65112 83.662575 172.23846 83.662575" stroke="none" fill="#004900" fill-rule="evenodd" />
    <path id=""  transform="matrix(1 0 0 -1 0 225)"  d="M180.13922 54.580803L180.13922 54.580803L180.13922 54.580803L277.01904 54.580803" stroke="#004900" stroke-width="39.56521" stroke-linecap="square" fill="none" />
    <path id=""  transform="matrix(1 0 0 -1 0 225)"  d="M172.23846 60.783844C 179.82574 60.783844 185.9765 52.835075 185.9765 43.02977L185.9765 43.02977L185.9765 43.02977C 185.9765 33.224472 179.82574 25.275696 172.23846 25.275696L172.23846 25.275696L172.23846 25.275696C 164.65112 25.275696 158.50037 33.224472 158.50037 43.02977L158.50037 43.02977L158.50037 43.02977C 158.50037 52.835075 164.65112 60.783844 172.23846 60.783844" stroke="none" fill="#004900" fill-rule="evenodd" />
    <path id=""  transform="matrix(1 0 0 -1 0 225)"  d="M230.4845 69.958466C 240.56396 69.958466 248.73499 59.39885 248.73499 46.372902L248.73499 46.372902L248.73499 46.372902C 248.73499 33.346954 240.56396 22.787338 230.4845 22.787338L230.4845 22.787338L230.4845 22.787338C 220.40503 22.787338 212.23401 33.346954 212.23401 46.372902L212.23401 46.372902L212.23401 46.372902C 212.23401 59.39885 220.40503 69.958466 230.4845 69.958466" stroke="none" fill="#004900" fill-rule="evenodd" />
    <path id=""  transform="matrix(1 0 0 -1 0 225)"  d="M230.4845 86.267624C 240.56396 86.267624 248.73499 75.70801 248.73499 62.68206L248.73499 62.68206L248.73499 62.68206C 248.73499 49.656113 240.56396 39.09649 230.4845 39.09649L230.4845 39.09649L230.4845 39.09649C 220.40503 39.09649 212.23401 49.656113 212.23401 62.68206L212.23401 62.68206L212.23401 62.68206C 212.23401 75.70801 220.40503 86.267624 230.4845 86.267624" stroke="none" fill="#004900" fill-rule="evenodd" />
    <path id=""  transform="matrix(1 0 0 -1 0 225)"  d="M275.88184 54.580803L275.88184 54.580803L275.88184 54.580803L248.65924 54.580803" stroke="#FFFFFF" stroke-width="8.999999" stroke-linecap="square" fill="none" />
    <path id=""  transform="matrix(1 0 0 -1 0 225)"  d="M209.8161 54.580803L209.8161 54.580803L209.8161 54.580803L176.19739 54.580803" stroke="#FFFFFF" stroke-width="8.999999" stroke-linecap="square" fill="none" />
    <path id=""  transform="matrix(1 0 0 -1 0 225)"  d="M277.45767 61.049347C 280.91318 61.049347 283.7144 58.153275 283.7144 54.580788L283.7144 54.580788L283.7144 54.580788C 283.7144 51.00831 280.91318 48.112236 277.45767 48.112236L277.45767 48.112236L277.45767 48.112236C 274.00223 48.112236 271.201 51.00831 271.201 54.580788L271.201 54.580788L271.201 54.580788C 271.201 58.153275 274.00223 61.049347 277.45767 61.049347" stroke="none" fill="#FFFFFF" fill-rule="evenodd" />
    <path id=""  transform="matrix(1 0 0 -1 0 225)"  d="M221.14221 61.31143C 225.77545 58.269768 225.57574 50.1183 221.14221 47.55841" stroke="#FFFFFF" stroke-width="7.5" stroke-linecap="square" fill="none" />
    <path id=""  transform="matrix(1 0 0 -1 0 225)"  d="M234.29688 61.31143C 238.93011 58.269768 238.73047 50.1183 234.29688 47.55841" stroke="#FFFFFF" stroke-width="7.5" stroke-linecap="square" fill="none" />
	</g>
</g>
</svg>