<?xml version="1.0" standalone="no"?>
<!DOCTYPE svg PUBLIC "-//W3C//DTD SVG 1.0//EN" "http://www.w3.org/TR/2001/REC-SVG-20010904/DTD/svg10.dtd">
<svg xmlns="http://www.w3.org/2000/svg" xmlns:xlink="http://www.w3.org/1999/xlink" id="body_1" width="400" height="300">

<defs>
    <clipPath  id="1">

    <path id=""  clip-rule="evenodd" transform="matrix(1 0 0 1 0 0)"  d="M0 0L300 0L300 0L300 225L300 225L1.3777277E-14 225L1.3777277E-14 225L0 0z" />    </clipPath>
</defs>

<g transform="matrix(1.3333 0 0 1.3333 0 0)">
	<g clip-path="url(#1)" >
    <path id=""  transform="matrix(1 0 0 -1 0 225)"  d="M279.69235 215.50568C 287.27966 215.50568 293.43042 207.55692 293.43042 197.75162L293.43042 197.75162L293.43042 197.75162C 293.43042 187.94632 287.27966 179.99756 279.69235 179.99756L279.69235 179.99756L279.69235 179.99756C 272.10504 179.99756 265.9543 187.94632 265.9543 197.75162L265.9543 197.75162L265.9543 197.75162C 265.9543 207.55692 272.10504 215.50568 279.69235 215.50568" stroke="none" fill="#D71E1E" fill-rule="evenodd" />
    <path id=""  transform="matrix(1 0 0 -1 0 225)"  d="M279.69235 194.66922C 287.27966 194.66922 293.43042 186.72046 293.43042 176.91516L293.43042 176.91516L293.43042 176.91516C 293.43042 167.10986 287.27966 159.16109 279.69235 159.16109L279.69235 159.16109L279.69235 159.16109C 272.10504 159.16109 265.9543 167.10986 265.9543 176.91516L265.9543 176.91516L265.9543 176.91516C 265.9543 186.72046 272.10504 194.66922 279.69235 194.66922" stroke="none" fill="#D71E1E" fill-rule="evenodd" />
    <path id=""  transform="matrix(1 0 0 -1 0 225)"  d="M172.23846 216.38095C 179.82574 216.38095 185.9765 208.43219 185.9765 198.62689L185.9765 198.62689L185.9765 198.62689C 185.9765 188.8216 179.82574 180.87282 172.23846 180.87282L172.23846 180.87282L172.23846 180.87282C 164.65112 180.87282 158.50037 188.8216 158.50037 198.62689L158.50037 198.62689L158.50037 198.62689C 158.50037 208.43219 164.65112 216.38095 172.23846 216.38095" stroke="none" fill="#D71E1E" fill-rule="evenodd" />
    <path id=""  transform="matrix(1 0 0 -1 0 225)"  d="M180.13922 187.2992L180.13922 187.2992L180.13922 187.2992L277.01904 187.2992" stroke="#D71E1E" stroke-width="39.56521" stroke-linecap="square" fill="none" />
    <path id=""  transform="matrix(1 0 0 -1 0 225)"  d="M172.23846 193.50223C 179.82574 193.50223 185.9765 185.55347 185.9765 175.74815L185.9765 175.74815L185.9765 175.74815C 185.9765 165.94286 179.82574 157.99408 172.23846 157.99408L172.23846 157.99408L172.23846 157.99408C 164.65112 157.99408 158.50037 165.94286 158.50037 175.74815L158.50037 175.74815L158.50037 175.74815C 158.50037 185.55347 164.65112 193.50223 172.23846 193.50223" stroke="none" fill="#D71E1E" fill-rule="evenodd" />
    <path id=""  transform="matrix(1 0 0 -1 0 225)"  d="M230.4845 202.67685C 240.56396 202.67685 248.73499 192.11723 248.73499 179.09128L248.73499 179.09128L248.73499 179.09128C 248.73499 166.06534 240.56396 155.50572 230.4845 155.50572L230.4845 155.50572L230.4845 155.50572C 220.40503 155.50572 212.23401 166.06534 212.23401 179.09128L212.23401 179.09128L212.23401 179.09128C 212.23401 192.11723 220.40503 202.67685 230.4845 202.67685" stroke="none" fill="#D71E1E" fill-rule="evenodd" />
    <path id=""  transform="matrix(1 0 0 -1 0 225)"  d="M230.4845 218.98601C 240.56396 218.98601 248.73499 208.42639 248.73499 195.40045L248.73499 195.40045L248.73499 195.40045C 248.73499 182.3745 240.56396 171.81488 230.4845 171.81488L230.4845 171.81488L230.4845 171.81488C 220.40503 171.81488 212.23401 182.3745 212.23401 195.40045L212.23401 195.40045L212.23401 195.40045C 212.23401 208.42639 220.40503 218.98601 230.4845 218.98601" stroke="none" fill="#D71E1E" fill-rule="evenodd" />
    <path id=""  transform="matrix(1 0 0 -1 0 225)"  d="M275.88184 187.2992L275.88184 187.2992L275.88184 187.2992L248.65924 187.2992" stroke="#FFFFFF" stroke-width="8.999999" stroke-linecap="square" fill="none" />
    <path id=""  transform="matrix(1 0 0 -1 0 225)"  d="M209.8161 187.2992L209.8161 187.2992L209.8161 187.2992L176.19739 187.2992" stroke="#FFFFFF" stroke-width="8.999999" stroke-linecap="square" fill="none" />
    <path id=""  transform="matrix(1 0 0 -1 0 225)"  d="M277.45767 193.76773C 280.91318 193.76773 283.7144 190.87166 283.7144 187.29916L283.7144 187.29916L283.7144 187.29916C 283.7144 183.72668 280.91318 180.83063 277.45767 180.83063L277.45767 180.83063L277.45767 180.83063C 274.00223 180.83063 271.201 183.72668 271.201 187.29916L271.201 187.29916L271.201 187.29916C 271.201 190.87166 274.00223 193.76773 277.45767 193.76773" stroke="none" fill="#FFFFFF" fill-rule="evenodd" />
    <path id=""  transform="matrix(1 0 0 -1 0 225)"  d="M221.14221 194.02982C 225.77545 190.98816 225.57574 182.83669 221.14221 180.2768" stroke="#FFFFFF" stroke-width="7.5" stroke-linecap="square" fill="none" />
    <path id=""  transform="matrix(1 0 0 -1 0 225)"  d="M234.29688 194.02982C 238.93011 190.98816 238.73047 182.83669 234.29688 180.2768" stroke="#FFFFFF" stroke-width="7.5" stroke-linecap="square" fill="none" />
    <path id=""  transform="matrix(1 0 0 -1 0 225)"  d="M279.69235 63.377907C 287.27966 63.377907 293.43042 55.429146 293.43042 45.62384L293.43042 45.62384L293.43042 45.62384C 293.43042 35.818535 287.27966 27.869774 279.69235 27.869774L279.69235 27.869774L279.69235 27.869774C 272.10504 27.869774 265.9543 35.818535 265.9543 45.62384L265.9543 45.62384L265.9543 45.62384C 265.9543 55.429146 272.10504 63.377907 279.69235 63.377907" stroke="none" fill="#D71E1E" fill-rule="evenodd" />
    <path id=""  transform="matrix(1 0 0 -1 0 225)"  d="M279.69235 42.54145C 287.27966 42.54145 293.43042 34.59268 293.43042 24.787384L293.43042 24.787384L293.43042 24.787384C 293.43042 14.982086 287.27966 7.03331 279.69235 7.03331L279.69235 7.03331L279.69235 7.03331C 272.10504 7.03331 265.9543 14.982086 265.9543 24.787384L265.9543 24.787384L265.9543 24.787384C 265.9543 34.59268 272.10504 42.54145 279.69235 42.54145" stroke="none" fill="#D71E1E" fill-rule="evenodd" />
    <path id=""  transform="matrix(1 0 0 -1 0 225)"  d="M172.23846 64.25318C 179.82574 64.25318 185.9765 56.304413 185.9765 46.499115L185.9765 46.499115L185.9765 46.499115C 185.9765 36.69381 179.82574 28.74504 172.23846 28.74504L172.23846 28.74504L172.23846 28.74504C 164.65112 28.74504 158.50037 36.69381 158.50037 46.499115L158.50037 46.499115L158.50037 46.499115C 158.50037 56.304413 164.65112 64.25318 172.23846 64.25318" stroke="none" fill="#D71E1E" fill-rule="evenodd" />
    <path id=""  transform="matrix(1 0 0 -1 0 225)"  d="M180.13922 35.17141L180.13922 35.17141L180.13922 35.17141L277.01904 35.17141" stroke="#D71E1E" stroke-width="39.56521" stroke-linecap="square" fill="none" />
    <path id=""  transform="matrix(1 0 0 -1 0 225)"  d="M172.23846 41.37445C 179.82574 41.37445 185.9765 33.425682 185.9765 23.620377L185.9765 23.620377L185.9765 23.620377C 185.9765 13.815079 179.82574 5.8663025 172.23846 5.8663025L172.23846 5.8663025L172.23846 5.8663025C 164.65112 5.8663025 158.50037 13.815079 158.50037 23.620377L158.50037 23.620377L158.50037 23.620377C 158.50037 33.425682 164.65112 41.37445 172.23846 41.37445" stroke="none" fill="#D71E1E" fill-rule="evenodd" />
    <path id=""  transform="matrix(1 0 0 -1 0 225)"  d="M230.4845 50.549072C 240.56396 50.549072 248.73499 39.989456 248.73499 26.963509L248.73499 26.963509L248.73499 26.963509C 248.73499 13.937561 240.56396 3.377945 230.4845 3.377945L230.4845 3.377945L230.4845 3.377945C 220.40503 3.377945 212.23401 13.937561 212.23401 26.963509L212.23401 26.963509L212.23401 26.963509C 212.23401 39.989456 220.40503 50.549072 230.4845 50.549072" stroke="none" fill="#D71E1E" fill-rule="evenodd" />
    <path id=""  transform="matrix(1 0 0 -1 0 225)"  d="M230.4845 66.85823C 240.56396 66.85823 248.73499 56.298615 248.73499 43.272667L248.73499 43.272667L248.73499 43.272667C 248.73499 30.24672 240.56396 19.687096 230.4845 19.687096L230.4845 19.687096L230.4845 19.687096C 220.40503 19.687096 212.23401 30.24672 212.23401 43.272667L212.23401 43.272667L212.23401 43.272667C 212.23401 56.298615 220.40503 66.85823 230.4845 66.85823" stroke="none" fill="#D71E1E" fill-rule="evenodd" />
    <path id=""  transform="matrix(1 0 0 -1 0 225)"  d="M275.88184 35.17141L275.88184 35.17141L275.88184 35.17141L248.65924 35.17141" stroke="#FFFFFF" stroke-width="8.999999" stroke-linecap="square" fill="none" />
    <path id=""  transform="matrix(1 0 0 -1 0 225)"  d="M209.8161 35.17141L209.8161 35.17141L209.8161 35.17141L176.19739 35.17141" stroke="#FFFFFF" stroke-width="8.999999" stroke-linecap="square" fill="none" />
    <path id=""  transform="matrix(1 0 0 -1 0 225)"  d="M277.45767 41.639954C 280.91318 41.639954 283.7144 38.74388 283.7144 35.171394L283.7144 35.171394L283.7144 35.171394C 283.7144 31.598915 280.91318 28.702843 277.45767 28.702843L277.45767 28.702843L277.45767 28.702843C 274.00223 28.702843 271.201 31.598915 271.201 35.171394L271.201 35.171394L271.201 35.171394C 271.201 38.74388 274.00223 41.639954 277.45767 41.639954" stroke="none" fill="#FFFFFF" fill-rule="evenodd" />
    <path id=""  transform="matrix(1 0 0 -1 0 225)"  d="M221.14221 41.90204C 225.77545 38.860374 225.57574 30.708908 221.14221 28.149017" stroke="#FFFFFF" stroke-width="7.5" stroke-linecap="square" fill="none" />
    <path id=""  transform="matrix(1 0 0 -1 0 225)"  d="M234.29688 41.90204C 238.93011 38.860374 238.73047 30.708908 234.29688 28.149017" stroke="#FFFFFF" stroke-width="7.5" stroke-linecap="square" fill="none" />
    <path id=""  transform="matrix(1 0 0 -1 0 225)"  d="M123.36795 63.377907C 130.95526 63.377907 137.10602 55.429146 137.10602 45.62384L137.10602 45.62384L137.10602 45.62384C 137.10602 35.818535 130.95526 27.869774 123.36795 27.869774L123.36795 27.869774L123.36795 27.869774C 115.78064 27.869774 109.62991 35.818535 109.62991 45.62384L109.62991 45.62384L109.62991 45.62384C 109.62991 55.429146 115.78064 63.377907 123.36795 63.377907" stroke="none" fill="#D71E1E" fill-rule="evenodd" />
    <path id=""  transform="matrix(1 0 0 -1 0 225)"  d="M123.36795 42.54145C 130.95526 42.54145 137.10602 34.59268 137.10602 24.787384L137.10602 24.787384L137.10602 24.787384C 137.10602 14.982086 130.95526 7.03331 123.36795 7.03331L123.36795 7.03331L123.36795 7.03331C 115.78064 7.03331 109.62991 14.982086 109.62991 24.787384L109.62991 24.787384L109.62991 24.787384C 109.62991 34.59268 115.78064 42.54145 123.36795 42.54145" stroke="none" fill="#D71E1E" fill-rule="evenodd" />
    <path id=""  transform="matrix(1 0 0 -1 0 225)"  d="M15.9140625 64.25318C 23.501343 64.25318 29.6521 56.304413 29.6521 46.499115L29.6521 46.499115L29.6521 46.499115C 29.6521 36.69381 23.501343 28.74504 15.9140625 28.74504L15.9140625 28.74504L15.9140625 28.74504C 8.326721 28.74504 2.1759644 36.69381 2.1759644 46.499115L2.1759644 46.499115L2.1759644 46.499115C 2.1759644 56.304413 8.326721 64.25318 15.9140625 64.25318" stroke="none" fill="#D71E1E" fill-rule="evenodd" />
    <path id=""  transform="matrix(1 0 0 -1 0 225)"  d="M23.81482 35.17141L23.81482 35.17141L23.81482 35.17141L120.69464 35.17141" stroke="#D71E1E" stroke-width="39.56521" stroke-linecap="square" fill="none" />
    <path id=""  transform="matrix(1 0 0 -1 0 225)"  d="M15.9140625 41.37445C 23.501343 41.37445 29.6521 33.425682 29.6521 23.620377L29.6521 23.620377L29.6521 23.620377C 29.6521 13.815079 23.501343 5.8663025 15.9140625 5.8663025L15.9140625 5.8663025L15.9140625 5.8663025C 8.326721 5.8663025 2.1759644 13.815079 2.1759644 23.620377L2.1759644 23.620377L2.1759644 23.620377C 2.1759644 33.425682 8.326721 41.37445 15.9140625 41.37445" stroke="none" fill="#D71E1E" fill-rule="evenodd" />
    <path id=""  transform="matrix(1 0 0 -1 0 225)"  d="M74.160095 50.549072C 84.23956 50.549072 92.41058 39.989456 92.41058 26.963509L92.41058 26.963509L92.41058 26.963509C 92.41058 13.937561 84.23956 3.377945 74.160095 3.377945L74.160095 3.377945L74.160095 3.377945C 64.08063 3.377945 55.909607 13.937561 55.909607 26.963509L55.909607 26.963509L55.909607 26.963509C 55.909607 39.989456 64.08063 50.549072 74.160095 50.549072" stroke="none" fill="#D71E1E" fill-rule="evenodd" />
    <path id=""  transform="matrix(1 0 0 -1 0 225)"  d="M74.160095 66.85823C 84.23956 66.85823 92.41058 56.298615 92.41058 43.272667L92.41058 43.272667L92.41058 43.272667C 92.41058 30.24672 84.23956 19.687096 74.160095 19.687096L74.160095 19.687096L74.160095 19.687096C 64.08063 19.687096 55.909607 30.24672 55.909607 43.272667L55.909607 43.272667L55.909607 43.272667C 55.909607 56.298615 64.08063 66.85823 74.160095 66.85823" stroke="none" fill="#D71E1E" fill-rule="evenodd" />
    <path id=""  transform="matrix(1 0 0 -1 0 225)"  d="M119.557434 35.17141L119.557434 35.17141L119.557434 35.17141L92.33484 35.17141" stroke="#FFFFFF" stroke-width="8.999999" stroke-linecap="square" fill="none" />
    <path id=""  transform="matrix(1 0 0 -1 0 225)"  d="M53.4917 35.17141L53.4917 35.17141L53.4917 35.17141L19.872986 35.17141" stroke="#FFFFFF" stroke-width="8.999999" stroke-linecap="square" fill="none" />
    <path id=""  transform="matrix(1 0 0 -1 0 225)"  d="M121.13327 41.639954C 124.588776 41.639954 127.389984 38.74388 127.389984 35.171394L127.389984 35.171394L127.389984 35.171394C 127.389984 31.598915 124.588776 28.702843 121.13327 28.702843L121.13327 28.702843L121.13327 28.702843C 117.677826 28.702843 114.87659 31.598915 114.87659 35.171394L114.87659 35.171394L114.87659 35.171394C 114.87659 38.74388 117.677826 41.639954 121.13327 41.639954" stroke="none" fill="#FFFFFF" fill-rule="evenodd" />
    <path id=""  transform="matrix(1 0 0 -1 0 225)"  d="M64.81781 41.90204C 69.45105 38.860374 69.25134 30.708908 64.81781 28.149017" stroke="#FFFFFF" stroke-width="7.5" stroke-linecap="square" fill="none" />
    <path id=""  transform="matrix(1 0 0 -1 0 225)"  d="M77.97247 41.90204C 82.60571 38.860374 82.40607 30.708908 77.97247 28.149017" stroke="#FFFFFF" stroke-width="7.5" stroke-linecap="square" fill="none" />
    <path id=""  transform="matrix(1 0 0 -1 0 225)"  d="M123.36789 215.50568C 130.9552 215.50568 137.10596 207.55692 137.10596 197.75162L137.10596 197.75162L137.10596 197.75162C 137.10596 187.94632 130.9552 179.99756 123.36789 179.99756L123.36789 179.99756L123.36789 179.99756C 115.78058 179.99756 109.62985 187.94632 109.62985 197.75162L109.62985 197.75162L109.62985 197.75162C 109.62985 207.55692 115.78058 215.50568 123.36789 215.50568" stroke="none" fill="#D71E1E" fill-rule="evenodd" />
    <path id=""  transform="matrix(1 0 0 -1 0 225)"  d="M123.36789 194.66922C 130.9552 194.66922 137.10596 186.72046 137.10596 176.91516L137.10596 176.91516L137.10596 176.91516C 137.10596 167.10986 130.9552 159.16109 123.36789 159.16109L123.36789 159.16109L123.36789 159.16109C 115.78058 159.16109 109.62985 167.10986 109.62985 176.91516L109.62985 176.91516L109.62985 176.91516C 109.62985 186.72046 115.78058 194.66922 123.36789 194.66922" stroke="none" fill="#D71E1E" fill-rule="evenodd" />
    <path id=""  transform="matrix(1 0 0 -1 0 225)"  d="M15.914001 216.38095C 23.501282 216.38095 29.652039 208.43219 29.652039 198.62689L29.652039 198.62689L29.652039 198.62689C 29.652039 188.8216 23.501282 180.87282 15.914001 180.87282L15.914001 180.87282L15.914001 180.87282C 8.32666 180.87282 2.1759033 188.8216 2.1759033 198.62689L2.1759033 198.62689L2.1759033 198.62689C 2.1759033 208.43219 8.32666 216.38095 15.914001 216.38095" stroke="none" fill="#D71E1E" fill-rule="evenodd" />
    <path id=""  transform="matrix(1 0 0 -1 0 225)"  d="M23.814758 187.2992L23.814758 187.2992L23.814758 187.2992L120.69458 187.2992" stroke="#D71E1E" stroke-width="39.56521" stroke-linecap="square" fill="none" />
    <path id=""  transform="matrix(1 0 0 -1 0 225)"  d="M15.914001 193.50223C 23.501282 193.50223 29.652039 185.55347 29.652039 175.74815L29.652039 175.74815L29.652039 175.74815C 29.652039 165.94286 23.501282 157.99408 15.914001 157.99408L15.914001 157.99408L15.914001 157.99408C 8.32666 157.99408 2.1759033 165.94286 2.1759033 175.74815L2.1759033 175.74815L2.1759033 175.74815C 2.1759033 185.55347 8.32666 193.50223 15.914001 193.50223" stroke="none" fill="#D71E1E" fill-rule="evenodd" />
    <path id=""  transform="matrix(1 0 0 -1 0 225)"  d="M74.160034 202.67685C 84.2395 202.67685 92.41052 192.11723 92.41052 179.09128L92.41052 179.09128L92.41052 179.09128C 92.41052 166.06534 84.2395 155.50572 74.160034 155.50572L74.160034 155.50572L74.160034 155.50572C 64.08057 155.50572 55.909546 166.06534 55.909546 179.09128L55.909546 179.09128L55.909546 179.09128C 55.909546 192.11723 64.08057 202.67685 74.160034 202.67685" stroke="none" fill="#D71E1E" fill-rule="evenodd" />
    <path id=""  transform="matrix(1 0 0 -1 0 225)"  d="M74.160034 218.98601C 84.2395 218.98601 92.41052 208.42639 92.41052 195.40045L92.41052 195.40045L92.41052 195.40045C 92.41052 182.3745 84.2395 171.81488 74.160034 171.81488L74.160034 171.81488L74.160034 171.81488C 64.08057 171.81488 55.909546 182.3745 55.909546 195.40045L55.909546 195.40045L55.909546 195.40045C 55.909546 208.42639 64.08057 218.98601 74.160034 218.98601" stroke="none" fill="#D71E1E" fill-rule="evenodd" />
    <path id=""  transform="matrix(1 0 0 -1 0 225)"  d="M119.55737 187.2992L119.55737 187.2992L119.55737 187.2992L92.33478 187.2992" stroke="#FFFFFF" stroke-width="8.999999" stroke-linecap="square" fill="none" />
    <path id=""  transform="matrix(1 0 0 -1 0 225)"  d="M53.49164 187.2992L53.49164 187.2992L53.49164 187.2992L19.872925 187.2992" stroke="#FFFFFF" stroke-width="8.999999" stroke-linecap="square" fill="none" />
    <path id=""  transform="matrix(1 0 0 -1 0 225)"  d="M121.13321 193.76773C 124.588715 193.76773 127.38992 190.87166 127.38992 187.29916L127.38992 187.29916L127.38992 187.29916C 127.38992 183.72668 124.588715 180.83063 121.13321 180.83063L121.13321 180.83063L121.13321 180.83063C 117.677765 180.83063 114.876526 183.72668 114.876526 187.29916L114.876526 187.29916L114.876526 187.29916C 114.876526 190.87166 117.677765 193.76773 121.13321 193.76773" stroke="none" fill="#FFFFFF" fill-rule="evenodd" />
    <path id=""  transform="matrix(1 0 0 -1 0 225)"  d="M64.81775 194.02982C 69.45099 190.98816 69.25128 182.83669 64.81775 180.2768" stroke="#FFFFFF" stroke-width="7.5" stroke-linecap="square" fill="none" />
    <path id=""  transform="matrix(1 0 0 -1 0 225)"  d="M77.97241 194.02982C 82.60565 190.98816 82.406006 182.83669 77.97241 180.2768" stroke="#FFFFFF" stroke-width="7.5" stroke-linecap="square" fill="none" />
    <path id=""  transform="matrix(1 0 0 -1 0 225)"  d="M201.81107 141.01553C 209.39838 141.01553 215.54913 133.06677 215.54913 123.261475L215.54913 123.261475L215.54913 123.261475C 215.54913 113.45617 209.39838 105.50741 201.81107 105.50741L201.81107 105.50741L201.81107 105.50741C 194.22375 105.50741 188.07303 113.45617 188.07303 123.261475L188.07303 123.261475L188.07303 123.261475C 188.07303 133.06677 194.22375 141.01553 201.81107 141.01553" stroke="none" fill="#D71E1E" fill-rule="evenodd" />
    <path id=""  transform="matrix(1 0 0 -1 0 225)"  d="M201.81107 120.179085C 209.39838 120.179085 215.54913 112.230316 215.54913 102.42502L215.54913 102.42502L215.54913 102.42502C 215.54913 92.61972 209.39838 84.670944 201.81107 84.670944L201.81107 84.670944L201.81107 84.670944C 194.22375 84.670944 188.07303 92.61972 188.07303 102.42502L188.07303 102.42502L188.07303 102.42502C 188.07303 112.230316 194.22375 120.179085 201.81107 120.179085" stroke="none" fill="#D71E1E" fill-rule="evenodd" />
    <path id=""  transform="matrix(1 0 0 -1 0 225)"  d="M94.35718 141.89081C 101.94446 141.89081 108.095215 133.94205 108.095215 124.13675L108.095215 124.13675L108.095215 124.13675C 108.095215 114.33144 101.94446 106.382675 94.35718 106.382675L94.35718 106.382675L94.35718 106.382675C 86.76984 106.382675 80.61908 114.33144 80.61908 124.13675L80.61908 124.13675L80.61908 124.13675C 80.61908 133.94205 86.76984 141.89081 94.35718 141.89081" stroke="none" fill="#D71E1E" fill-rule="evenodd" />
    <path id=""  transform="matrix(1 0 0 -1 0 225)"  d="M102.257935 112.809044L102.257935 112.809044L102.257935 112.809044L199.13776 112.809044" stroke="#D71E1E" stroke-width="39.56521" stroke-linecap="square" fill="none" />
    <path id=""  transform="matrix(1 0 0 -1 0 225)"  d="M94.35718 119.012085C 101.94446 119.012085 108.095215 111.06332 108.095215 101.25801L108.095215 101.25801L108.095215 101.25801C 108.095215 91.45271 101.94446 83.50394 94.35718 83.50394L94.35718 83.50394L94.35718 83.50394C 86.76984 83.50394 80.61908 91.45271 80.61908 101.25801L80.61908 101.25801L80.61908 101.25801C 80.61908 111.06332 86.76984 119.012085 94.35718 119.012085" stroke="none" fill="#D71E1E" fill-rule="evenodd" />
    <path id=""  transform="matrix(1 0 0 -1 0 225)"  d="M152.60321 128.1867C 162.68268 128.1867 170.8537 117.62709 170.8537 104.60114L170.8537 104.60114L170.8537 104.60114C 170.8537 91.575195 162.68268 81.01558 152.60321 81.01558L152.60321 81.01558L152.60321 81.01558C 142.52374 81.01558 134.35272 91.575195 134.35272 104.60114L134.35272 104.60114L134.35272 104.60114C 134.35272 117.62709 142.52374 128.1867 152.60321 128.1867" stroke="none" fill="#D71E1E" fill-rule="evenodd" />
    <path id=""  transform="matrix(1 0 0 -1 0 225)"  d="M152.60321 144.49586C 162.68268 144.49586 170.8537 133.93625 170.8537 120.9103L170.8537 120.9103L170.8537 120.9103C 170.8537 107.88435 162.68268 97.32473 152.60321 97.32473L152.60321 97.32473L152.60321 97.32473C 142.52374 97.32473 134.35272 107.88435 134.35272 120.9103L134.35272 120.9103L134.35272 120.9103C 134.35272 133.93625 142.52374 144.49586 152.60321 144.49586" stroke="none" fill="#D71E1E" fill-rule="evenodd" />
    <path id=""  transform="matrix(1 0 0 -1 0 225)"  d="M198.00055 112.809044L198.00055 112.809044L198.00055 112.809044L170.77795 112.809044" stroke="#FFFFFF" stroke-width="8.999999" stroke-linecap="square" fill="none" />
    <path id=""  transform="matrix(1 0 0 -1 0 225)"  d="M131.93481 112.809044L131.93481 112.809044L131.93481 112.809044L98.3161 112.809044" stroke="#FFFFFF" stroke-width="8.999999" stroke-linecap="square" fill="none" />
    <path id=""  transform="matrix(1 0 0 -1 0 225)"  d="M199.57639 119.27759C 203.03189 119.27759 205.8331 116.381516 205.8331 112.80903L205.8331 112.80903L205.8331 112.80903C 205.8331 109.23655 203.03189 106.34048 199.57639 106.34048L199.57639 106.34048L199.57639 106.34048C 196.12094 106.34048 193.3197 109.23655 193.3197 112.80903L193.3197 112.80903L193.3197 112.80903C 193.3197 116.381516 196.12094 119.27759 199.57639 119.27759" stroke="none" fill="#FFFFFF" fill-rule="evenodd" />
    <path id=""  transform="matrix(1 0 0 -1 0 225)"  d="M143.26093 119.53967C 147.89417 116.49801 147.69446 108.34654 143.26093 105.78665" stroke="#FFFFFF" stroke-width="7.5" stroke-linecap="square" fill="none" />
    <path id=""  transform="matrix(1 0 0 -1 0 225)"  d="M156.41559 119.53967C 161.04883 116.49801 160.84918 108.34654 156.41559 105.78665" stroke="#FFFFFF" stroke-width="7.5" stroke-linecap="square" fill="none" />
    <path id=""  transform="matrix(1 0 0 -1 0 225)"  d="M40.392517 97.39554C 44.489746 97.39554 47.98694 98.84412 50.884094 101.74129L50.884094 101.74129L50.884094 101.74129C 53.78125 104.63846 55.22986 108.13565 55.22986 112.232864L55.22986 112.232864L55.22986 112.232864C 55.22986 116.33008 53.78125 119.82727 50.884094 122.72444L50.884094 122.72444L50.884094 122.72444C 47.98694 125.6216 44.489746 127.07018 40.392517 127.07019L40.392517 127.07019L40.392517 127.07019C 36.295288 127.07018 32.798096 125.6216 29.90094 122.72444L29.90094 122.72444L29.90094 122.72444C 27.003784 119.82727 25.555176 116.33008 25.555176 112.232864L25.555176 112.232864L25.555176 112.232864C 25.555176 108.13565 27.003784 104.63846 29.90094 101.74129L29.90094 101.74129L29.90094 101.74129C 32.798096 98.84412 36.295288 97.39554 40.392517 97.39554" stroke="none" fill="#D71E1E" fill-rule="evenodd" />
	</g>
</g>
</svg>