<?xml version="1.0" standalone="no"?>
<!DOCTYPE svg PUBLIC "-//W3C//DTD SVG 1.0//EN" "http://www.w3.org/TR/2001/REC-SVG-20010904/DTD/svg10.dtd">
<svg xmlns="http://www.w3.org/2000/svg" xmlns:xlink="http://www.w3.org/1999/xlink" id="body_1" width="400" height="300">

<defs>
    <clipPath  id="1">

    <path id=""  clip-rule="evenodd" transform="matrix(1 0 0 1 0 0)"  d="M0 0L300 0L300 0L300 225L300 225L1.3777277E-14 225L1.3777277E-14 225L0 0z" />    </clipPath>
</defs>

<g transform="matrix(1.3333 0 0 1.3333 0 0)">
	<g clip-path="url(#1)" >
    <path id=""  transform="matrix(1 0 0 -1 0 225)"  d="M279.69235 141.01553C 287.27966 141.01553 293.43042 133.06677 293.43042 123.26146L293.43042 123.26146L293.43042 123.26146C 293.43042 113.456154 287.27966 105.50739 279.69235 105.50739L279.69235 105.50739L279.69235 105.50739C 272.10504 105.50739 265.9543 113.456154 265.9543 123.26146L265.9543 123.26146L265.9543 123.26146C 265.9543 133.06677 272.10504 141.01553 279.69235 141.01553" stroke="none" fill="#004900" fill-rule="evenodd" />
    <path id=""  transform="matrix(1 0 0 -1 0 225)"  d="M279.69235 120.17907C 287.27966 120.17907 293.43042 112.2303 293.43042 102.425L293.43042 102.425L293.43042 102.425C 293.43042 92.619705 287.27966 84.67093 279.69235 84.67093L279.69235 84.67093L279.69235 84.67093C 272.10504 84.67093 265.9543 92.619705 265.9543 102.425L265.9543 102.425L265.9543 102.425C 265.9543 112.2303 272.10504 120.17907 279.69235 120.17907" stroke="none" fill="#004900" fill-rule="evenodd" />
    <path id=""  transform="matrix(1 0 0 -1 0 225)"  d="M172.23846 141.89081C 179.82574 141.89081 185.9765 133.94203 185.9765 124.136734L185.9765 124.136734L185.9765 124.136734C 185.9765 114.33143 179.82574 106.38266 172.23846 106.38266L172.23846 106.38266L172.23846 106.38266C 164.65112 106.38266 158.50037 114.33143 158.50037 124.136734L158.50037 124.136734L158.50037 124.136734C 158.50037 133.94203 164.65112 141.89081 172.23846 141.89081" stroke="none" fill="#004900" fill-rule="evenodd" />
    <path id=""  transform="matrix(1 0 0 -1 0 225)"  d="M180.13922 112.80903L180.13922 112.80903L180.13922 112.80903L277.01904 112.80903" stroke="#004900" stroke-width="39.56521" stroke-linecap="square" fill="none" />
    <path id=""  transform="matrix(1 0 0 -1 0 225)"  d="M172.23846 119.01207C 179.82574 119.01207 185.9765 111.0633 185.9765 101.257996L185.9765 101.257996L185.9765 101.257996C 185.9765 91.4527 179.82574 83.50392 172.23846 83.50392L172.23846 83.50392L172.23846 83.50392C 164.65112 83.50392 158.50037 91.4527 158.50037 101.257996L158.50037 101.257996L158.50037 101.257996C 158.50037 111.0633 164.65112 119.01207 172.23846 119.01207" stroke="none" fill="#004900" fill-rule="evenodd" />
    <path id=""  transform="matrix(1 0 0 -1 0 225)"  d="M230.4845 128.18669C 240.56396 128.18669 248.73499 117.627075 248.73499 104.60113L248.73499 104.60113L248.73499 104.60113C 248.73499 91.57518 240.56396 81.015564 230.4845 81.015564L230.4845 81.015564L230.4845 81.015564C 220.40503 81.015564 212.23401 91.57518 212.23401 104.60113L212.23401 104.60113L212.23401 104.60113C 212.23401 117.627075 220.40503 128.18669 230.4845 128.18669" stroke="none" fill="#004900" fill-rule="evenodd" />
    <path id=""  transform="matrix(1 0 0 -1 0 225)"  d="M230.4845 144.49585C 240.56396 144.49585 248.73499 133.93623 248.73499 120.910286L248.73499 120.910286L248.73499 120.910286C 248.73499 107.88434 240.56396 97.324715 230.4845 97.324715L230.4845 97.324715L230.4845 97.324715C 220.40503 97.324715 212.23401 107.88434 212.23401 120.910286L212.23401 120.910286L212.23401 120.910286C 212.23401 133.93623 220.40503 144.49585 230.4845 144.49585" stroke="none" fill="#004900" fill-rule="evenodd" />
    <path id=""  transform="matrix(1 0 0 -1 0 225)"  d="M275.88184 112.80903L275.88184 112.80903L275.88184 112.80903L248.65924 112.80903" stroke="#FFFFFF" stroke-width="8.999999" stroke-linecap="square" fill="none" />
    <path id=""  transform="matrix(1 0 0 -1 0 225)"  d="M209.8161 112.80903L209.8161 112.80903L209.8161 112.80903L176.19739 112.80903" stroke="#FFFFFF" stroke-width="8.999999" stroke-linecap="square" fill="none" />
    <path id=""  transform="matrix(1 0 0 -1 0 225)"  d="M277.45767 119.27757C 280.91318 119.27757 283.7144 116.3815 283.7144 112.80901L283.7144 112.80901L283.7144 112.80901C 283.7144 109.236534 280.91318 106.34046 277.45767 106.34046L277.45767 106.34046L277.45767 106.34046C 274.00223 106.34046 271.201 109.236534 271.201 112.80901L271.201 112.80901L271.201 112.80901C 271.201 116.3815 274.00223 119.27757 277.45767 119.27757" stroke="none" fill="#FFFFFF" fill-rule="evenodd" />
    <path id=""  transform="matrix(1 0 0 -1 0 225)"  d="M221.14221 119.53966C 225.77545 116.49799 225.57574 108.34653 221.14221 105.78664" stroke="#FFFFFF" stroke-width="7.5" stroke-linecap="square" fill="none" />
    <path id=""  transform="matrix(1 0 0 -1 0 225)"  d="M234.29688 119.53966C 238.93011 116.49799 238.73047 108.34653 234.29688 105.78664" stroke="#FFFFFF" stroke-width="7.5" stroke-linecap="square" fill="none" />
    <path id=""  transform="matrix(1 0 0 -1 0 225)"  d="M123.36789 215.50568C 130.9552 215.50568 137.10596 207.55692 137.10596 197.75162L137.10596 197.75162L137.10596 197.75162C 137.10596 187.94632 130.9552 179.99756 123.36789 179.99756L123.36789 179.99756L123.36789 179.99756C 115.78058 179.99756 109.62985 187.94632 109.62985 197.75162L109.62985 197.75162L109.62985 197.75162C 109.62985 207.55692 115.78058 215.50568 123.36789 215.50568" stroke="none" fill="#004900" fill-rule="evenodd" />
    <path id=""  transform="matrix(1 0 0 -1 0 225)"  d="M123.36789 194.66922C 130.9552 194.66922 137.10596 186.72046 137.10596 176.91516L137.10596 176.91516L137.10596 176.91516C 137.10596 167.10986 130.9552 159.16109 123.36789 159.16109L123.36789 159.16109L123.36789 159.16109C 115.78058 159.16109 109.62985 167.10986 109.62985 176.91516L109.62985 176.91516L109.62985 176.91516C 109.62985 186.72046 115.78058 194.66922 123.36789 194.66922" stroke="none" fill="#004900" fill-rule="evenodd" />
    <path id=""  transform="matrix(1 0 0 -1 0 225)"  d="M15.914001 216.38095C 23.501282 216.38095 29.652039 208.43219 29.652039 198.62689L29.652039 198.62689L29.652039 198.62689C 29.652039 188.8216 23.501282 180.87282 15.914001 180.87282L15.914001 180.87282L15.914001 180.87282C 8.32666 180.87282 2.1759033 188.8216 2.1759033 198.62689L2.1759033 198.62689L2.1759033 198.62689C 2.1759033 208.43219 8.32666 216.38095 15.914001 216.38095" stroke="none" fill="#004900" fill-rule="evenodd" />
    <path id=""  transform="matrix(1 0 0 -1 0 225)"  d="M23.814758 187.2992L23.814758 187.2992L23.814758 187.2992L120.69458 187.2992" stroke="#004900" stroke-width="39.56521" stroke-linecap="square" fill="none" />
    <path id=""  transform="matrix(1 0 0 -1 0 225)"  d="M15.914001 193.50223C 23.501282 193.50223 29.652039 185.55347 29.652039 175.74815L29.652039 175.74815L29.652039 175.74815C 29.652039 165.94286 23.501282 157.99408 15.914001 157.99408L15.914001 157.99408L15.914001 157.99408C 8.32666 157.99408 2.1759033 165.94286 2.1759033 175.74815L2.1759033 175.74815L2.1759033 175.74815C 2.1759033 185.55347 8.32666 193.50223 15.914001 193.50223" stroke="none" fill="#004900" fill-rule="evenodd" />
    <path id=""  transform="matrix(1 0 0 -1 0 225)"  d="M74.160034 202.67685C 84.2395 202.67685 92.41052 192.11723 92.41052 179.09128L92.41052 179.09128L92.41052 179.09128C 92.41052 166.06534 84.2395 155.50572 74.160034 155.50572L74.160034 155.50572L74.160034 155.50572C 64.08057 155.50572 55.909546 166.06534 55.909546 179.09128L55.909546 179.09128L55.909546 179.09128C 55.909546 192.11723 64.08057 202.67685 74.160034 202.67685" stroke="none" fill="#004900" fill-rule="evenodd" />
    <path id=""  transform="matrix(1 0 0 -1 0 225)"  d="M74.160034 218.98601C 84.2395 218.98601 92.41052 208.42639 92.41052 195.40045L92.41052 195.40045L92.41052 195.40045C 92.41052 182.3745 84.2395 171.81488 74.160034 171.81488L74.160034 171.81488L74.160034 171.81488C 64.08057 171.81488 55.909546 182.3745 55.909546 195.40045L55.909546 195.40045L55.909546 195.40045C 55.909546 208.42639 64.08057 218.98601 74.160034 218.98601" stroke="none" fill="#004900" fill-rule="evenodd" />
    <path id=""  transform="matrix(1 0 0 -1 0 225)"  d="M119.55737 187.2992L119.55737 187.2992L119.55737 187.2992L92.33478 187.2992" stroke="#FFFFFF" stroke-width="8.999999" stroke-linecap="square" fill="none" />
    <path id=""  transform="matrix(1 0 0 -1 0 225)"  d="M53.49164 187.2992L53.49164 187.2992L53.49164 187.2992L19.872925 187.2992" stroke="#FFFFFF" stroke-width="8.999999" stroke-linecap="square" fill="none" />
    <path id=""  transform="matrix(1 0 0 -1 0 225)"  d="M121.13321 193.76773C 124.588715 193.76773 127.38992 190.87166 127.38992 187.29916L127.38992 187.29916L127.38992 187.29916C 127.38992 183.72668 124.588715 180.83063 121.13321 180.83063L121.13321 180.83063L121.13321 180.83063C 117.677765 180.83063 114.876526 183.72668 114.876526 187.29916L114.876526 187.29916L114.876526 187.29916C 114.876526 190.87166 117.677765 193.76773 121.13321 193.76773" stroke="none" fill="#FFFFFF" fill-rule="evenodd" />
    <path id=""  transform="matrix(1 0 0 -1 0 225)"  d="M64.81775 194.02982C 69.45099 190.98816 69.25128 182.83669 64.81775 180.2768" stroke="#FFFFFF" stroke-width="7.5" stroke-linecap="square" fill="none" />
    <path id=""  transform="matrix(1 0 0 -1 0 225)"  d="M77.97241 194.02982C 82.60565 190.98816 82.406006 182.83669 77.97241 180.2768" stroke="#FFFFFF" stroke-width="7.5" stroke-linecap="square" fill="none" />
    <path id=""  transform="matrix(1 0 0 -1 0 225)"  d="M123.36795 63.377907C 130.95526 63.377907 137.10602 55.429146 137.10602 45.62384L137.10602 45.62384L137.10602 45.62384C 137.10602 35.818535 130.95526 27.869774 123.36795 27.869774L123.36795 27.869774L123.36795 27.869774C 115.78064 27.869774 109.62991 35.818535 109.62991 45.62384L109.62991 45.62384L109.62991 45.62384C 109.62991 55.429146 115.78064 63.377907 123.36795 63.377907" stroke="none" fill="#004900" fill-rule="evenodd" />
    <path id=""  transform="matrix(1 0 0 -1 0 225)"  d="M123.36795 42.54145C 130.95526 42.54145 137.10602 34.59268 137.10602 24.787384L137.10602 24.787384L137.10602 24.787384C 137.10602 14.982086 130.95526 7.03331 123.36795 7.03331L123.36795 7.03331L123.36795 7.03331C 115.78064 7.03331 109.62991 14.982086 109.62991 24.787384L109.62991 24.787384L109.62991 24.787384C 109.62991 34.59268 115.78064 42.54145 123.36795 42.54145" stroke="none" fill="#004900" fill-rule="evenodd" />
    <path id=""  transform="matrix(1 0 0 -1 0 225)"  d="M15.9140625 64.25318C 23.501343 64.25318 29.6521 56.304413 29.6521 46.499115L29.6521 46.499115L29.6521 46.499115C 29.6521 36.69381 23.501343 28.74504 15.9140625 28.74504L15.9140625 28.74504L15.9140625 28.74504C 8.326721 28.74504 2.1759644 36.69381 2.1759644 46.499115L2.1759644 46.499115L2.1759644 46.499115C 2.1759644 56.304413 8.326721 64.25318 15.9140625 64.25318" stroke="none" fill="#004900" fill-rule="evenodd" />
    <path id=""  transform="matrix(1 0 0 -1 0 225)"  d="M23.81482 35.17141L23.81482 35.17141L23.81482 35.17141L120.69464 35.17141" stroke="#004900" stroke-width="39.56521" stroke-linecap="square" fill="none" />
    <path id=""  transform="matrix(1 0 0 -1 0 225)"  d="M15.9140625 41.37445C 23.501343 41.37445 29.6521 33.425682 29.6521 23.620377L29.6521 23.620377L29.6521 23.620377C 29.6521 13.815079 23.501343 5.8663025 15.9140625 5.8663025L15.9140625 5.8663025L15.9140625 5.8663025C 8.326721 5.8663025 2.1759644 13.815079 2.1759644 23.620377L2.1759644 23.620377L2.1759644 23.620377C 2.1759644 33.425682 8.326721 41.37445 15.9140625 41.37445" stroke="none" fill="#004900" fill-rule="evenodd" />
    <path id=""  transform="matrix(1 0 0 -1 0 225)"  d="M74.160095 50.549072C 84.23956 50.549072 92.41058 39.989456 92.41058 26.963509L92.41058 26.963509L92.41058 26.963509C 92.41058 13.937561 84.23956 3.377945 74.160095 3.377945L74.160095 3.377945L74.160095 3.377945C 64.08063 3.377945 55.909607 13.937561 55.909607 26.963509L55.909607 26.963509L55.909607 26.963509C 55.909607 39.989456 64.08063 50.549072 74.160095 50.549072" stroke="none" fill="#004900" fill-rule="evenodd" />
    <path id=""  transform="matrix(1 0 0 -1 0 225)"  d="M74.160095 66.85823C 84.23956 66.85823 92.41058 56.298615 92.41058 43.272667L92.41058 43.272667L92.41058 43.272667C 92.41058 30.24672 84.23956 19.687096 74.160095 19.687096L74.160095 19.687096L74.160095 19.687096C 64.08063 19.687096 55.909607 30.24672 55.909607 43.272667L55.909607 43.272667L55.909607 43.272667C 55.909607 56.298615 64.08063 66.85823 74.160095 66.85823" stroke="none" fill="#004900" fill-rule="evenodd" />
    <path id=""  transform="matrix(1 0 0 -1 0 225)"  d="M119.557434 35.17141L119.557434 35.17141L119.557434 35.17141L92.33484 35.17141" stroke="#FFFFFF" stroke-width="8.999999" stroke-linecap="square" fill="none" />
    <path id=""  transform="matrix(1 0 0 -1 0 225)"  d="M53.4917 35.17141L53.4917 35.17141L53.4917 35.17141L19.872986 35.17141" stroke="#FFFFFF" stroke-width="8.999999" stroke-linecap="square" fill="none" />
    <path id=""  transform="matrix(1 0 0 -1 0 225)"  d="M121.13327 41.639954C 124.588776 41.639954 127.389984 38.74388 127.389984 35.171394L127.389984 35.171394L127.389984 35.171394C 127.389984 31.598915 124.588776 28.702843 121.13327 28.702843L121.13327 28.702843L121.13327 28.702843C 117.677826 28.702843 114.87659 31.598915 114.87659 35.171394L114.87659 35.171394L114.87659 35.171394C 114.87659 38.74388 117.677826 41.639954 121.13327 41.639954" stroke="none" fill="#FFFFFF" fill-rule="evenodd" />
    <path id=""  transform="matrix(1 0 0 -1 0 225)"  d="M64.81781 41.90204C 69.45105 38.860374 69.25134 30.708908 64.81781 28.149017" stroke="#FFFFFF" stroke-width="7.5" stroke-linecap="square" fill="none" />
    <path id=""  transform="matrix(1 0 0 -1 0 225)"  d="M77.97247 41.90204C 82.60571 38.860374 82.40607 30.708908 77.97247 28.149017" stroke="#FFFFFF" stroke-width="7.5" stroke-linecap="square" fill="none" />
    <path id=""  transform="matrix(1 0 0 -1 0 225)"  d="M279.69235 215.50568C 287.27966 215.50568 293.43042 207.55692 293.43042 197.75162L293.43042 197.75162L293.43042 197.75162C 293.43042 187.94632 287.27966 179.99756 279.69235 179.99756L279.69235 179.99756L279.69235 179.99756C 272.10504 179.99756 265.9543 187.94632 265.9543 197.75162L265.9543 197.75162L265.9543 197.75162C 265.9543 207.55692 272.10504 215.50568 279.69235 215.50568" stroke="none" fill="#004900" fill-rule="evenodd" />
    <path id=""  transform="matrix(1 0 0 -1 0 225)"  d="M279.69235 194.66922C 287.27966 194.66922 293.43042 186.72046 293.43042 176.91516L293.43042 176.91516L293.43042 176.91516C 293.43042 167.10986 287.27966 159.16109 279.69235 159.16109L279.69235 159.16109L279.69235 159.16109C 272.10504 159.16109 265.9543 167.10986 265.9543 176.91516L265.9543 176.91516L265.9543 176.91516C 265.9543 186.72046 272.10504 194.66922 279.69235 194.66922" stroke="none" fill="#004900" fill-rule="evenodd" />
    <path id=""  transform="matrix(1 0 0 -1 0 225)"  d="M172.23846 216.38095C 179.82574 216.38095 185.9765 208.43219 185.9765 198.62689L185.9765 198.62689L185.9765 198.62689C 185.9765 188.8216 179.82574 180.87282 172.23846 180.87282L172.23846 180.87282L172.23846 180.87282C 164.65112 180.87282 158.50037 188.8216 158.50037 198.62689L158.50037 198.62689L158.50037 198.62689C 158.50037 208.43219 164.65112 216.38095 172.23846 216.38095" stroke="none" fill="#004900" fill-rule="evenodd" />
    <path id=""  transform="matrix(1 0 0 -1 0 225)"  d="M180.13922 187.2992L180.13922 187.2992L180.13922 187.2992L277.01904 187.2992" stroke="#004900" stroke-width="39.56521" stroke-linecap="square" fill="none" />
    <path id=""  transform="matrix(1 0 0 -1 0 225)"  d="M172.23846 193.50223C 179.82574 193.50223 185.9765 185.55347 185.9765 175.74815L185.9765 175.74815L185.9765 175.74815C 185.9765 165.94286 179.82574 157.99408 172.23846 157.99408L172.23846 157.99408L172.23846 157.99408C 164.65112 157.99408 158.50037 165.94286 158.50037 175.74815L158.50037 175.74815L158.50037 175.74815C 158.50037 185.55347 164.65112 193.50223 172.23846 193.50223" stroke="none" fill="#004900" fill-rule="evenodd" />
    <path id=""  transform="matrix(1 0 0 -1 0 225)"  d="M230.4845 202.67685C 240.56396 202.67685 248.73499 192.11723 248.73499 179.09128L248.73499 179.09128L248.73499 179.09128C 248.73499 166.06534 240.56396 155.50572 230.4845 155.50572L230.4845 155.50572L230.4845 155.50572C 220.40503 155.50572 212.23401 166.06534 212.23401 179.09128L212.23401 179.09128L212.23401 179.09128C 212.23401 192.11723 220.40503 202.67685 230.4845 202.67685" stroke="none" fill="#004900" fill-rule="evenodd" />
    <path id=""  transform="matrix(1 0 0 -1 0 225)"  d="M230.4845 218.98601C 240.56396 218.98601 248.73499 208.42639 248.73499 195.40045L248.73499 195.40045L248.73499 195.40045C 248.73499 182.3745 240.56396 171.81488 230.4845 171.81488L230.4845 171.81488L230.4845 171.81488C 220.40503 171.81488 212.23401 182.3745 212.23401 195.40045L212.23401 195.40045L212.23401 195.40045C 212.23401 208.42639 220.40503 218.98601 230.4845 218.98601" stroke="none" fill="#004900" fill-rule="evenodd" />
    <path id=""  transform="matrix(1 0 0 -1 0 225)"  d="M275.88184 187.2992L275.88184 187.2992L275.88184 187.2992L248.65924 187.2992" stroke="#FFFFFF" stroke-width="8.999999" stroke-linecap="square" fill="none" />
    <path id=""  transform="matrix(1 0 0 -1 0 225)"  d="M209.8161 187.2992L209.8161 187.2992L209.8161 187.2992L176.19739 187.2992" stroke="#FFFFFF" stroke-width="8.999999" stroke-linecap="square" fill="none" />
    <path id=""  transform="matrix(1 0 0 -1 0 225)"  d="M277.45767 193.76773C 280.91318 193.76773 283.7144 190.87166 283.7144 187.29916L283.7144 187.29916L283.7144 187.29916C 283.7144 183.72668 280.91318 180.83063 277.45767 180.83063L277.45767 180.83063L277.45767 180.83063C 274.00223 180.83063 271.201 183.72668 271.201 187.29916L271.201 187.29916L271.201 187.29916C 271.201 190.87166 274.00223 193.76773 277.45767 193.76773" stroke="none" fill="#FFFFFF" fill-rule="evenodd" />
    <path id=""  transform="matrix(1 0 0 -1 0 225)"  d="M221.14221 194.02982C 225.77545 190.98816 225.57574 182.83669 221.14221 180.2768" stroke="#FFFFFF" stroke-width="7.5" stroke-linecap="square" fill="none" />
    <path id=""  transform="matrix(1 0 0 -1 0 225)"  d="M234.29688 194.02982C 238.93011 190.98816 238.73047 182.83669 234.29688 180.2768" stroke="#FFFFFF" stroke-width="7.5" stroke-linecap="square" fill="none" />
    <path id=""  transform="matrix(1 0 0 -1 0 225)"  d="M279.69235 63.377907C 287.27966 63.377907 293.43042 55.429146 293.43042 45.62384L293.43042 45.62384L293.43042 45.62384C 293.43042 35.818535 287.27966 27.869774 279.69235 27.869774L279.69235 27.869774L279.69235 27.869774C 272.10504 27.869774 265.9543 35.818535 265.9543 45.62384L265.9543 45.62384L265.9543 45.62384C 265.9543 55.429146 272.10504 63.377907 279.69235 63.377907" stroke="none" fill="#004900" fill-rule="evenodd" />
    <path id=""  transform="matrix(1 0 0 -1 0 225)"  d="M279.69235 42.54145C 287.27966 42.54145 293.43042 34.59268 293.43042 24.787384L293.43042 24.787384L293.43042 24.787384C 293.43042 14.982086 287.27966 7.03331 279.69235 7.03331L279.69235 7.03331L279.69235 7.03331C 272.10504 7.03331 265.9543 14.982086 265.9543 24.787384L265.9543 24.787384L265.9543 24.787384C 265.9543 34.59268 272.10504 42.54145 279.69235 42.54145" stroke="none" fill="#004900" fill-rule="evenodd" />
    <path id=""  transform="matrix(1 0 0 -1 0 225)"  d="M172.23846 64.25318C 179.82574 64.25318 185.9765 56.304413 185.9765 46.499115L185.9765 46.499115L185.9765 46.499115C 185.9765 36.69381 179.82574 28.74504 172.23846 28.74504L172.23846 28.74504L172.23846 28.74504C 164.65112 28.74504 158.50037 36.69381 158.50037 46.499115L158.50037 46.499115L158.50037 46.499115C 158.50037 56.304413 164.65112 64.25318 172.23846 64.25318" stroke="none" fill="#004900" fill-rule="evenodd" />
    <path id=""  transform="matrix(1 0 0 -1 0 225)"  d="M180.13922 35.17141L180.13922 35.17141L180.13922 35.17141L277.01904 35.17141" stroke="#004900" stroke-width="39.56521" stroke-linecap="square" fill="none" />
    <path id=""  transform="matrix(1 0 0 -1 0 225)"  d="M172.23846 41.37445C 179.82574 41.37445 185.9765 33.425682 185.9765 23.620377L185.9765 23.620377L185.9765 23.620377C 185.9765 13.815079 179.82574 5.8663025 172.23846 5.8663025L172.23846 5.8663025L172.23846 5.8663025C 164.65112 5.8663025 158.50037 13.815079 158.50037 23.620377L158.50037 23.620377L158.50037 23.620377C 158.50037 33.425682 164.65112 41.37445 172.23846 41.37445" stroke="none" fill="#004900" fill-rule="evenodd" />
    <path id=""  transform="matrix(1 0 0 -1 0 225)"  d="M230.4845 50.549072C 240.56396 50.549072 248.73499 39.989456 248.73499 26.963509L248.73499 26.963509L248.73499 26.963509C 248.73499 13.937561 240.56396 3.377945 230.4845 3.377945L230.4845 3.377945L230.4845 3.377945C 220.40503 3.377945 212.23401 13.937561 212.23401 26.963509L212.23401 26.963509L212.23401 26.963509C 212.23401 39.989456 220.40503 50.549072 230.4845 50.549072" stroke="none" fill="#004900" fill-rule="evenodd" />
    <path id=""  transform="matrix(1 0 0 -1 0 225)"  d="M230.4845 66.85823C 240.56396 66.85823 248.73499 56.298615 248.73499 43.272667L248.73499 43.272667L248.73499 43.272667C 248.73499 30.24672 240.56396 19.687096 230.4845 19.687096L230.4845 19.687096L230.4845 19.687096C 220.40503 19.687096 212.23401 30.24672 212.23401 43.272667L212.23401 43.272667L212.23401 43.272667C 212.23401 56.298615 220.40503 66.85823 230.4845 66.85823" stroke="none" fill="#004900" fill-rule="evenodd" />
    <path id=""  transform="matrix(1 0 0 -1 0 225)"  d="M275.88184 35.17141L275.88184 35.17141L275.88184 35.17141L248.65924 35.17141" stroke="#FFFFFF" stroke-width="8.999999" stroke-linecap="square" fill="none" />
    <path id=""  transform="matrix(1 0 0 -1 0 225)"  d="M209.8161 35.17141L209.8161 35.17141L209.8161 35.17141L176.19739 35.17141" stroke="#FFFFFF" stroke-width="8.999999" stroke-linecap="square" fill="none" />
    <path id=""  transform="matrix(1 0 0 -1 0 225)"  d="M277.45767 41.639954C 280.91318 41.639954 283.7144 38.74388 283.7144 35.171394L283.7144 35.171394L283.7144 35.171394C 283.7144 31.598915 280.91318 28.702843 277.45767 28.702843L277.45767 28.702843L277.45767 28.702843C 274.00223 28.702843 271.201 31.598915 271.201 35.171394L271.201 35.171394L271.201 35.171394C 271.201 38.74388 274.00223 41.639954 277.45767 41.639954" stroke="none" fill="#FFFFFF" fill-rule="evenodd" />
    <path id=""  transform="matrix(1 0 0 -1 0 225)"  d="M221.14221 41.90204C 225.77545 38.860374 225.57574 30.708908 221.14221 28.149017" stroke="#FFFFFF" stroke-width="7.5" stroke-linecap="square" fill="none" />
    <path id=""  transform="matrix(1 0 0 -1 0 225)"  d="M234.29688 41.90204C 238.93011 38.860374 238.73047 30.708908 234.29688 28.149017" stroke="#FFFFFF" stroke-width="7.5" stroke-linecap="square" fill="none" />
    <path id=""  transform="matrix(1 0 0 -1 0 225)"  d="M123.36795 141.01553C 130.95526 141.01553 137.10602 133.06677 137.10602 123.26146L137.10602 123.26146L137.10602 123.26146C 137.10602 113.456154 130.95526 105.50739 123.36795 105.50739L123.36795 105.50739L123.36795 105.50739C 115.78064 105.50739 109.62991 113.456154 109.62991 123.26146L109.62991 123.26146L109.62991 123.26146C 109.62991 133.06677 115.78064 141.01553 123.36795 141.01553" stroke="none" fill="#004900" fill-rule="evenodd" />
    <path id=""  transform="matrix(1 0 0 -1 0 225)"  d="M123.36795 120.17907C 130.95526 120.17907 137.10602 112.2303 137.10602 102.425L137.10602 102.425L137.10602 102.425C 137.10602 92.619705 130.95526 84.67093 123.36795 84.67093L123.36795 84.67093L123.36795 84.67093C 115.78064 84.67093 109.62991 92.619705 109.62991 102.425L109.62991 102.425L109.62991 102.425C 109.62991 112.2303 115.78064 120.17907 123.36795 120.17907" stroke="none" fill="#004900" fill-rule="evenodd" />
    <path id=""  transform="matrix(1 0 0 -1 0 225)"  d="M15.9140625 141.89081C 23.501343 141.89081 29.6521 133.94203 29.6521 124.136734L29.6521 124.136734L29.6521 124.136734C 29.6521 114.33143 23.501343 106.38266 15.9140625 106.38266L15.9140625 106.38266L15.9140625 106.38266C 8.326721 106.38266 2.1759644 114.33143 2.1759644 124.136734L2.1759644 124.136734L2.1759644 124.136734C 2.1759644 133.94203 8.326721 141.89081 15.9140625 141.89081" stroke="none" fill="#004900" fill-rule="evenodd" />
    <path id=""  transform="matrix(1 0 0 -1 0 225)"  d="M23.81482 112.80903L23.81482 112.80903L23.81482 112.80903L120.69464 112.80903" stroke="#004900" stroke-width="39.56521" stroke-linecap="square" fill="none" />
    <path id=""  transform="matrix(1 0 0 -1 0 225)"  d="M15.9140625 119.01207C 23.501343 119.01207 29.6521 111.0633 29.6521 101.257996L29.6521 101.257996L29.6521 101.257996C 29.6521 91.4527 23.501343 83.50392 15.9140625 83.50392L15.9140625 83.50392L15.9140625 83.50392C 8.326721 83.50392 2.1759644 91.4527 2.1759644 101.257996L2.1759644 101.257996L2.1759644 101.257996C 2.1759644 111.0633 8.326721 119.01207 15.9140625 119.01207" stroke="none" fill="#004900" fill-rule="evenodd" />
    <path id=""  transform="matrix(1 0 0 -1 0 225)"  d="M74.160095 128.18669C 84.23956 128.18669 92.41058 117.627075 92.41058 104.60113L92.41058 104.60113L92.41058 104.60113C 92.41058 91.57518 84.23956 81.015564 74.160095 81.015564L74.160095 81.015564L74.160095 81.015564C 64.08063 81.015564 55.909607 91.57518 55.909607 104.60113L55.909607 104.60113L55.909607 104.60113C 55.909607 117.627075 64.08063 128.18669 74.160095 128.18669" stroke="none" fill="#004900" fill-rule="evenodd" />
    <path id=""  transform="matrix(1 0 0 -1 0 225)"  d="M74.160095 144.49585C 84.23956 144.49585 92.41058 133.93623 92.41058 120.910286L92.41058 120.910286L92.41058 120.910286C 92.41058 107.88434 84.23956 97.324715 74.160095 97.324715L74.160095 97.324715L74.160095 97.324715C 64.08063 97.324715 55.909607 107.88434 55.909607 120.910286L55.909607 120.910286L55.909607 120.910286C 55.909607 133.93623 64.08063 144.49585 74.160095 144.49585" stroke="none" fill="#004900" fill-rule="evenodd" />
    <path id=""  transform="matrix(1 0 0 -1 0 225)"  d="M119.557434 112.80903L119.557434 112.80903L119.557434 112.80903L92.33484 112.80903" stroke="#FFFFFF" stroke-width="8.999999" stroke-linecap="square" fill="none" />
    <path id=""  transform="matrix(1 0 0 -1 0 225)"  d="M53.4917 112.80903L53.4917 112.80903L53.4917 112.80903L19.872986 112.80903" stroke="#FFFFFF" stroke-width="8.999999" stroke-linecap="square" fill="none" />
    <path id=""  transform="matrix(1 0 0 -1 0 225)"  d="M121.13327 119.27757C 124.588776 119.27757 127.389984 116.3815 127.389984 112.80901L127.389984 112.80901L127.389984 112.80901C 127.389984 109.236534 124.588776 106.34046 121.13327 106.34046L121.13327 106.34046L121.13327 106.34046C 117.677826 106.34046 114.87659 109.236534 114.87659 112.80901L114.87659 112.80901L114.87659 112.80901C 114.87659 116.3815 117.677826 119.27757 121.13327 119.27757" stroke="none" fill="#FFFFFF" fill-rule="evenodd" />
    <path id=""  transform="matrix(1 0 0 -1 0 225)"  d="M64.81781 119.53966C 69.45105 116.49799 69.25134 108.34653 64.81781 105.78664" stroke="#FFFFFF" stroke-width="7.5" stroke-linecap="square" fill="none" />
    <path id=""  transform="matrix(1 0 0 -1 0 225)"  d="M77.97247 119.53966C 82.60571 116.49799 82.40607 108.34653 77.97247 105.78664" stroke="#FFFFFF" stroke-width="7.5" stroke-linecap="square" fill="none" />
	</g>
</g>
</svg>