<?xml version="1.0" standalone="no"?>
<!DOCTYPE svg PUBLIC "-//W3C//DTD SVG 1.0//EN" "http://www.w3.org/TR/2001/REC-SVG-20010904/DTD/svg10.dtd">
<svg xmlns="http://www.w3.org/2000/svg" xmlns:xlink="http://www.w3.org/1999/xlink" id="body_2" width="400" height="300">

<defs>
    <clipPath  id="1">

    <path id=""  clip-rule="evenodd" transform="matrix(1 0 0 1 0 0)"  d="M0 0L300 0L300 0L300 225L300 225L1.3777277E-14 225L1.3777277E-14 225L0 0z" />    </clipPath>
</defs>

<g transform="matrix(1.3333 0 0 1.3333 0 0)">
	<g clip-path="url(#1)" >
    <path id=""  transform="matrix(1 0 0 -1 0 225)"  d="M280.53418 107.13153C 283.725 107.13153 286.44855 108.605255 288.70486 111.552765L288.70486 111.552765L288.70486 111.552765C 290.96112 114.500244 292.08926 118.0582 292.08926 122.22659L292.08926 122.22659L292.08926 122.22659C 292.08926 126.39499 290.96112 129.95288 288.70486 132.90039L288.70486 132.90039L288.70486 132.90039C 286.44855 135.8479 283.725 137.32166 280.53418 137.32166L280.53418 137.32166L280.53418 137.32166C 277.3433 137.32166 274.61972 135.8479 272.3635 132.90039L272.3635 132.90039L272.3635 132.90039C 270.10718 129.95288 268.97906 126.39499 268.97906 122.22659L268.97906 122.22659L268.97906 122.22659C 268.97906 118.0582 270.10718 114.500244 272.3635 111.552765L272.3635 111.552765L272.3635 111.552765C 274.61972 108.605255 277.3433 107.13153 280.53418 107.13153" stroke="none" fill="#B93C3C" fill-rule="evenodd" />
    <path id=""  transform="matrix(1 0 0 -1 0 225)"  d="M280.53418 87.644165C 283.725 87.644165 286.44855 89.11789 288.70486 92.0654L288.70486 92.0654L288.70486 92.0654C 290.96112 95.01288 292.08926 98.5708 292.08926 102.7392L292.08926 102.7392L292.08926 102.7392C 292.08926 106.90756 290.96112 110.465515 288.70486 113.413025L288.70486 113.413025L288.70486 113.413025C 286.44855 116.36047 283.725 117.83426 280.53418 117.83426L280.53418 117.83426L280.53418 117.83426C 277.3433 117.83426 274.61972 116.36047 272.3635 113.413025L272.3635 113.413025L272.3635 113.413025C 270.10718 110.465515 268.97906 106.90756 268.97906 102.7392L268.97906 102.7392L268.97906 102.7392C 268.97906 98.5708 270.10718 95.01288 272.3635 92.0654L272.3635 92.0654L272.3635 92.0654C 274.61972 89.11789 277.3433 87.644165 280.53418 87.644165" stroke="none" fill="#B93C3C" fill-rule="evenodd" />
    <path id=""  transform="matrix(1 0 0 -1 0 225)"  d="M218.58612 107.950165C 221.77692 107.950165 224.50049 109.42389 226.75677 112.3714L226.75677 112.3714L226.75677 112.3714C 229.01306 115.31885 230.14124 118.8768 230.14124 123.0452L230.14124 123.0452L230.14124 123.0452C 230.14124 127.21356 229.01306 130.77151 226.75677 133.71902L226.75677 133.71902L226.75677 133.71902C 224.50049 136.66647 221.77692 138.14026 218.58612 138.14026L218.58612 138.14026L218.58612 138.14026C 215.39526 138.14026 212.67169 136.66647 210.4154 133.71902L210.4154 133.71902L210.4154 133.71902C 208.15912 130.77151 207.031 127.21356 207.031 123.0452L207.031 123.0452L207.031 123.0452C 207.031 118.8768 208.15912 115.31885 210.4154 112.3714L210.4154 112.3714L210.4154 112.3714C 212.67169 109.42389 215.39526 107.950165 218.58612 107.950165" stroke="none" fill="#B93C3C" fill-rule="evenodd" />
    <path id=""  transform="matrix(1 0 0 -1 0 225)"  d="M220.52527 112.4509L220.52527 112.4509L220.52527 112.4509L282.10794 112.4509" stroke="#B93C3C" stroke-width="32.743744" stroke-linecap="square" fill="none" />
    <path id=""  transform="matrix(1 0 0 -1 0 225)"  d="M218.58612 86.552734C 221.77692 86.552734 224.50049 88.02646 226.75677 90.97397L226.75677 90.97397L226.75677 90.97397C 229.01306 93.92148 230.14124 97.47937 230.14124 101.647766L230.14124 101.647766L230.14124 101.647766C 230.14124 105.81613 229.01306 109.374084 226.75677 112.321594L226.75677 112.321594L226.75677 112.321594C 224.50049 115.269104 221.77692 116.74283 218.58612 116.74283L218.58612 116.74283L218.58612 116.74283C 215.39526 116.74283 212.67169 115.269104 210.4154 112.321594L210.4154 112.321594L210.4154 112.321594C 208.15912 109.374084 207.031 105.81613 207.031 101.647766L207.031 101.647766L207.031 101.647766C 207.031 97.47937 208.15912 93.92148 210.4154 90.97397L210.4154 90.97397L210.4154 90.97397C 212.67169 88.02646 215.39526 86.552734 218.58612 86.552734" stroke="none" fill="#B93C3C" fill-rule="evenodd" />
    <path id=""  transform="matrix(1 0 0 -1 0 225)"  d="M251.14825 86.392334C 255.0339 86.392334 258.35056 88.18701 261.09814 91.77637L261.09814 91.77637L261.09814 91.77637C 263.84573 95.36566 265.21954 99.698364 265.21954 104.774445L265.21954 104.774445L265.21954 104.774445C 265.21954 109.850525 263.84573 114.1832 261.09814 117.77255L261.09814 117.77255L261.09814 117.77255C 258.35056 121.36188 255.0339 123.156555 251.14825 123.156555L251.14825 123.156555L251.14825 123.156555C 247.26251 123.156555 243.94586 121.36188 241.19833 117.77255L241.19833 117.77255L241.19833 117.77255C 238.45074 114.1832 237.07693 109.850525 237.07693 104.774445L237.07693 104.774445L237.07693 104.774445C 237.07693 99.698364 238.45074 95.36566 241.19833 91.77637L241.19833 91.77637L241.19833 91.77637C 243.94586 88.18701 247.26251 86.392334 251.14825 86.392334" stroke="none" fill="#B93C3C" fill-rule="evenodd" />
    <path id=""  transform="matrix(1 0 0 -1 0 225)"  d="M251.14825 101.64554C 255.0339 101.64554 258.35056 103.440186 261.09814 107.02954L261.09814 107.02954L261.09814 107.02954C 263.84573 110.618835 265.21954 114.95154 265.21954 120.02762L265.21954 120.02762L265.21954 120.02762C 265.21954 125.10373 263.84573 129.43637 261.09814 133.02573L261.09814 133.02573L261.09814 133.02573C 258.35056 136.61505 255.0339 138.40973 251.14825 138.40973L251.14825 138.40973L251.14825 138.40973C 247.26251 138.40973 243.94586 136.61505 241.19833 133.02573L241.19833 133.02573L241.19833 133.02573C 238.45074 129.43637 237.07693 125.10373 237.07693 120.02762L237.07693 120.02762L237.07693 120.02762C 237.07693 114.95154 238.45074 110.618835 241.19833 107.02954L241.19833 107.02954L241.19833 107.02954C 243.94586 103.440186 247.26251 101.64554 251.14825 101.64554" stroke="none" fill="#B93C3C" fill-rule="evenodd" />
    <path id=""  transform="matrix(1 0 0 -1 0 225)"  d="M283.20688 112.5751L283.20688 112.5751L283.20688 112.5751L263.67194 112.5751" stroke="#FFFFFF" stroke-width="9.429407" stroke-linecap="square" fill="none" />
    <path id=""  transform="matrix(1 0 0 -1 0 225)"  d="M238.94937 112.5751L238.94937 112.5751L238.94937 112.5751L220.44122 112.5751" stroke="#FFFFFF" stroke-width="9.429407" stroke-linecap="square" fill="none" />
    <path id=""  transform="matrix(1 0 0 -1 0 225)"  d="M251.46884 113.13968L251.46884 113.13968L251.46884 113.13968L251.46884 112.004364" stroke="#FFFFFF" stroke-width="9.429407" stroke-linecap="square" fill="none" />
    <path id=""  transform="matrix(1 0 0 -1 0 225)"  d="M80.30145 107.13153C 83.49228 107.13153 86.21582 108.605255 88.47214 111.552765L88.47214 111.552765L88.47214 111.552765C 90.72839 114.500244 91.85654 118.0582 91.85654 122.22659L91.85654 122.22659L91.85654 122.22659C 91.85654 126.39499 90.72839 129.95288 88.47214 132.90039L88.47214 132.90039L88.47214 132.90039C 86.21582 135.8479 83.49228 137.32166 80.30145 137.32166L80.30145 137.32166L80.30145 137.32166C 77.110565 137.32166 74.38699 135.8479 72.13077 132.90039L72.13077 132.90039L72.13077 132.90039C 69.87445 129.95288 68.74634 126.39499 68.74634 122.22659L68.74634 122.22659L68.74634 122.22659C 68.74634 118.0582 69.87445 114.500244 72.13077 111.552765L72.13077 111.552765L72.13077 111.552765C 74.38699 108.605255 77.110565 107.13153 80.30145 107.13153" stroke="none" fill="#004900" fill-rule="evenodd" />
    <path id=""  transform="matrix(1 0 0 -1 0 225)"  d="M80.30145 87.644165C 83.49228 87.644165 86.21582 89.11789 88.47214 92.0654L88.47214 92.0654L88.47214 92.0654C 90.72839 95.01288 91.85654 98.5708 91.85654 102.7392L91.85654 102.7392L91.85654 102.7392C 91.85654 106.90756 90.72839 110.465515 88.47214 113.413025L88.47214 113.413025L88.47214 113.413025C 86.21582 116.36047 83.49228 117.83426 80.30145 117.83426L80.30145 117.83426L80.30145 117.83426C 77.110565 117.83426 74.38699 116.36047 72.13077 113.413025L72.13077 113.413025L72.13077 113.413025C 69.87445 110.465515 68.74634 106.90756 68.74634 102.7392L68.74634 102.7392L68.74634 102.7392C 68.74634 98.5708 69.87445 95.01288 72.13077 92.0654L72.13077 92.0654L72.13077 92.0654C 74.38699 89.11789 77.110565 87.644165 80.30145 87.644165" stroke="none" fill="#004900" fill-rule="evenodd" />
    <path id=""  transform="matrix(1 0 0 -1 0 225)"  d="M18.353394 107.950165C 21.54419 107.950165 24.267761 109.42389 26.524048 112.3714L26.524048 112.3714L26.524048 112.3714C 28.780334 115.31885 29.908508 118.8768 29.908508 123.0452L29.908508 123.0452L29.908508 123.0452C 29.908508 127.21356 28.780334 130.77151 26.524048 133.71902L26.524048 133.71902L26.524048 133.71902C 24.267761 136.66647 21.54419 138.14026 18.353394 138.14026L18.353394 138.14026L18.353394 138.14026C 15.162537 138.14026 12.438965 136.66647 10.182678 133.71902L10.182678 133.71902L10.182678 133.71902C 7.9263916 130.77151 6.798279 127.21356 6.798279 123.0452L6.798279 123.0452L6.798279 123.0452C 6.798279 118.8768 7.9263916 115.31885 10.182678 112.3714L10.182678 112.3714L10.182678 112.3714C 12.438965 109.42389 15.162537 107.950165 18.353394 107.950165" stroke="none" fill="#004900" fill-rule="evenodd" />
    <path id=""  transform="matrix(1 0 0 -1 0 225)"  d="M20.292542 112.4509L20.292542 112.4509L20.292542 112.4509L81.87521 112.4509" stroke="#004900" stroke-width="32.743744" stroke-linecap="square" fill="none" />
    <path id=""  transform="matrix(1 0 0 -1 0 225)"  d="M18.353394 86.552734C 21.54419 86.552734 24.267761 88.02646 26.524048 90.97397L26.524048 90.97397L26.524048 90.97397C 28.780334 93.92148 29.908508 97.47937 29.908508 101.647766L29.908508 101.647766L29.908508 101.647766C 29.908508 105.81613 28.780334 109.374084 26.524048 112.321594L26.524048 112.321594L26.524048 112.321594C 24.267761 115.269104 21.54419 116.74283 18.353394 116.74283L18.353394 116.74283L18.353394 116.74283C 15.162537 116.74283 12.438965 115.269104 10.182678 112.321594L10.182678 112.321594L10.182678 112.321594C 7.9263916 109.374084 6.798279 105.81613 6.798279 101.647766L6.798279 101.647766L6.798279 101.647766C 6.798279 97.47937 7.9263916 93.92148 10.182678 90.97397L10.182678 90.97397L10.182678 90.97397C 12.438965 88.02646 15.162537 86.552734 18.353394 86.552734" stroke="none" fill="#004900" fill-rule="evenodd" />
    <path id=""  transform="matrix(1 0 0 -1 0 225)"  d="M50.915527 86.392334C 54.801178 86.392334 58.11783 88.18701 60.865417 91.77637L60.865417 91.77637L60.865417 91.77637C 63.613007 95.36566 64.98682 99.698364 64.98682 104.774445L64.98682 104.774445L64.98682 104.774445C 64.98682 109.850525 63.613007 114.1832 60.865417 117.77255L60.865417 117.77255L60.865417 117.77255C 58.11783 121.36188 54.801178 123.156555 50.915527 123.156555L50.915527 123.156555L50.915527 123.156555C 47.029785 123.156555 43.713135 121.36188 40.965607 117.77255L40.965607 117.77255L40.965607 117.77255C 38.218018 114.1832 36.844208 109.850525 36.844208 104.774445L36.844208 104.774445L36.844208 104.774445C 36.844208 99.698364 38.218018 95.36566 40.965607 91.77637L40.965607 91.77637L40.965607 91.77637C 43.713135 88.18701 47.029785 86.392334 50.915527 86.392334" stroke="none" fill="#004900" fill-rule="evenodd" />
    <path id=""  transform="matrix(1 0 0 -1 0 225)"  d="M50.915527 101.64554C 54.801178 101.64554 58.11783 103.440186 60.865417 107.02954L60.865417 107.02954L60.865417 107.02954C 63.613007 110.618835 64.98682 114.95154 64.98682 120.02762L64.98682 120.02762L64.98682 120.02762C 64.98682 125.10373 63.613007 129.43637 60.865417 133.02573L60.865417 133.02573L60.865417 133.02573C 58.11783 136.61505 54.801178 138.40973 50.915527 138.40973L50.915527 138.40973L50.915527 138.40973C 47.029785 138.40973 43.713135 136.61505 40.965607 133.02573L40.965607 133.02573L40.965607 133.02573C 38.218018 129.43637 36.844208 125.10373 36.844208 120.02762L36.844208 120.02762L36.844208 120.02762C 36.844208 114.95154 38.218018 110.618835 40.965607 107.02954L40.965607 107.02954L40.965607 107.02954C 43.713135 103.440186 47.029785 101.64554 50.915527 101.64554" stroke="none" fill="#004900" fill-rule="evenodd" />
    <path id=""  transform="matrix(1 0 0 -1 0 225)"  d="M82.97415 112.5751L82.97415 112.5751L82.97415 112.5751L63.43921 112.5751" stroke="#FFFFFF" stroke-width="9.429407" stroke-linecap="square" fill="none" />
    <path id=""  transform="matrix(1 0 0 -1 0 225)"  d="M38.716644 112.5751L38.716644 112.5751L38.716644 112.5751L20.208496 112.5751" stroke="#FFFFFF" stroke-width="9.429407" stroke-linecap="square" fill="none" />
    <path id=""  transform="matrix(1 0 0 -1 0 225)"  d="M51.236115 113.13968L51.236115 113.13968L51.236115 113.13968L51.236115 112.004364" stroke="#FFFFFF" stroke-width="9.429407" stroke-linecap="square" fill="none" />
    <path id=""  transform="matrix(1 0 0 -1 0 225)"  d="M80.30145 185.63287C 83.49228 185.63287 86.21582 187.1066 88.47214 190.05411L88.47214 190.05411L88.47214 190.05411C 90.72839 193.00159 91.85654 196.55954 91.85654 200.72794L91.85654 200.72794L91.85654 200.72794C 91.85654 204.89633 90.72839 208.45422 88.47214 211.40173L88.47214 211.40173L88.47214 211.40173C 86.21582 214.34924 83.49228 215.823 80.30145 215.823L80.30145 215.823L80.30145 215.823C 77.110565 215.823 74.38699 214.34924 72.13077 211.40173L72.13077 211.40173L72.13077 211.40173C 69.87445 208.45422 68.74634 204.89633 68.74634 200.72794L68.74634 200.72794L68.74634 200.72794C 68.74634 196.55954 69.87445 193.00159 72.13077 190.05411L72.13077 190.05411L72.13077 190.05411C 74.38699 187.1066 77.110565 185.63287 80.30145 185.63287" stroke="none" fill="#004900" fill-rule="evenodd" />
    <path id=""  transform="matrix(1 0 0 -1 0 225)"  d="M80.30145 166.14551C 83.49228 166.14551 86.21582 167.61923 88.47214 170.56674L88.47214 170.56674L88.47214 170.56674C 90.72839 173.51422 91.85654 177.07214 91.85654 181.24054L91.85654 181.24054L91.85654 181.24054C 91.85654 185.4089 90.72839 188.96686 88.47214 191.91437L88.47214 191.91437L88.47214 191.91437C 86.21582 194.86182 83.49228 196.3356 80.30145 196.3356L80.30145 196.3356L80.30145 196.3356C 77.110565 196.3356 74.38699 194.86182 72.13077 191.91437L72.13077 191.91437L72.13077 191.91437C 69.87445 188.96686 68.74634 185.4089 68.74634 181.24054L68.74634 181.24054L68.74634 181.24054C 68.74634 177.07214 69.87445 173.51422 72.13077 170.56674L72.13077 170.56674L72.13077 170.56674C 74.38699 167.61923 77.110565 166.14551 80.30145 166.14551" stroke="none" fill="#004900" fill-rule="evenodd" />
    <path id=""  transform="matrix(1 0 0 -1 0 225)"  d="M18.353394 186.4515C 21.54419 186.4515 24.267761 187.92523 26.524048 190.87274L26.524048 190.87274L26.524048 190.87274C 28.780334 193.82019 29.908508 197.37814 29.908508 201.54654L29.908508 201.54654L29.908508 201.54654C 29.908508 205.7149 28.780334 209.27286 26.524048 212.22037L26.524048 212.22037L26.524048 212.22037C 24.267761 215.16782 21.54419 216.6416 18.353394 216.6416L18.353394 216.6416L18.353394 216.6416C 15.162537 216.6416 12.438965 215.16782 10.182678 212.22037L10.182678 212.22037L10.182678 212.22037C 7.9263916 209.27286 6.798279 205.7149 6.798279 201.54654L6.798279 201.54654L6.798279 201.54654C 6.798279 197.37814 7.9263916 193.82019 10.182678 190.87274L10.182678 190.87274L10.182678 190.87274C 12.438965 187.92523 15.162537 186.4515 18.353394 186.4515" stroke="none" fill="#004900" fill-rule="evenodd" />
    <path id=""  transform="matrix(1 0 0 -1 0 225)"  d="M20.292542 190.95224L20.292542 190.95224L20.292542 190.95224L81.87521 190.95224" stroke="#004900" stroke-width="32.743744" stroke-linecap="square" fill="none" />
    <path id=""  transform="matrix(1 0 0 -1 0 225)"  d="M18.353394 165.05408C 21.54419 165.05408 24.267761 166.5278 26.524048 169.47531L26.524048 169.47531L26.524048 169.47531C 28.780334 172.42282 29.908508 175.98071 29.908508 180.14911L29.908508 180.14911L29.908508 180.14911C 29.908508 184.31747 28.780334 187.87543 26.524048 190.82294L26.524048 190.82294L26.524048 190.82294C 24.267761 193.77045 21.54419 195.24417 18.353394 195.24417L18.353394 195.24417L18.353394 195.24417C 15.162537 195.24417 12.438965 193.77045 10.182678 190.82294L10.182678 190.82294L10.182678 190.82294C 7.9263916 187.87543 6.798279 184.31747 6.798279 180.14911L6.798279 180.14911L6.798279 180.14911C 6.798279 175.98071 7.9263916 172.42282 10.182678 169.47531L10.182678 169.47531L10.182678 169.47531C 12.438965 166.5278 15.162537 165.05408 18.353394 165.05408" stroke="none" fill="#004900" fill-rule="evenodd" />
    <path id=""  transform="matrix(1 0 0 -1 0 225)"  d="M50.915527 164.89368C 54.801178 164.89368 58.11783 166.68835 60.865417 170.27771L60.865417 170.27771L60.865417 170.27771C 63.613007 173.867 64.98682 178.1997 64.98682 183.27579L64.98682 183.27579L64.98682 183.27579C 64.98682 188.35187 63.613007 192.68454 60.865417 196.2739L60.865417 196.2739L60.865417 196.2739C 58.11783 199.86322 54.801178 201.6579 50.915527 201.6579L50.915527 201.6579L50.915527 201.6579C 47.029785 201.6579 43.713135 199.86322 40.965607 196.2739L40.965607 196.2739L40.965607 196.2739C 38.218018 192.68454 36.844208 188.35187 36.844208 183.27579L36.844208 183.27579L36.844208 183.27579C 36.844208 178.1997 38.218018 173.867 40.965607 170.27771L40.965607 170.27771L40.965607 170.27771C 43.713135 166.68835 47.029785 164.89368 50.915527 164.89368" stroke="none" fill="#004900" fill-rule="evenodd" />
    <path id=""  transform="matrix(1 0 0 -1 0 225)"  d="M50.915527 180.14688C 54.801178 180.14688 58.11783 181.94153 60.865417 185.53088L60.865417 185.53088L60.865417 185.53088C 63.613007 189.12018 64.98682 193.45288 64.98682 198.52896L64.98682 198.52896L64.98682 198.52896C 64.98682 203.60507 63.613007 207.93771 60.865417 211.52707L60.865417 211.52707L60.865417 211.52707C 58.11783 215.1164 54.801178 216.91107 50.915527 216.91107L50.915527 216.91107L50.915527 216.91107C 47.029785 216.91107 43.713135 215.1164 40.965607 211.52707L40.965607 211.52707L40.965607 211.52707C 38.218018 207.93771 36.844208 203.60507 36.844208 198.52896L36.844208 198.52896L36.844208 198.52896C 36.844208 193.45288 38.218018 189.12018 40.965607 185.53088L40.965607 185.53088L40.965607 185.53088C 43.713135 181.94153 47.029785 180.14688 50.915527 180.14688" stroke="none" fill="#004900" fill-rule="evenodd" />
    <path id=""  transform="matrix(1 0 0 -1 0 225)"  d="M82.97415 191.07645L82.97415 191.07645L82.97415 191.07645L63.43921 191.07645" stroke="#FFFFFF" stroke-width="9.429407" stroke-linecap="square" fill="none" />
    <path id=""  transform="matrix(1 0 0 -1 0 225)"  d="M38.716644 191.07645L38.716644 191.07645L38.716644 191.07645L20.208496 191.07645" stroke="#FFFFFF" stroke-width="9.429407" stroke-linecap="square" fill="none" />
    <path id=""  transform="matrix(1 0 0 -1 0 225)"  d="M51.236115 191.64102L51.236115 191.64102L51.236115 191.64102L51.236115 190.5057" stroke="#FFFFFF" stroke-width="9.429407" stroke-linecap="square" fill="none" />
    <path id=""  transform="matrix(1 0 0 -1 0 225)"  d="M80.30145 29.308441C 83.49228 29.308441 86.21582 30.782166 88.47214 33.729675L88.47214 33.729675L88.47214 33.729675C 90.72839 36.677155 91.85654 40.235107 91.85654 44.403503L91.85654 44.403503L91.85654 44.403503C 91.85654 48.5719 90.72839 52.12979 88.47214 55.0773L88.47214 55.0773L88.47214 55.0773C 86.21582 58.02481 83.49228 59.498566 80.30145 59.498566L80.30145 59.498566L80.30145 59.498566C 77.110565 59.498566 74.38699 58.02481 72.13077 55.0773L72.13077 55.0773L72.13077 55.0773C 69.87445 52.12979 68.74634 48.5719 68.74634 44.403503L68.74634 44.403503L68.74634 44.403503C 68.74634 40.235107 69.87445 36.677155 72.13077 33.729675L72.13077 33.729675L72.13077 33.729675C 74.38699 30.782166 77.110565 29.308441 80.30145 29.308441" stroke="none" fill="#004900" fill-rule="evenodd" />
    <path id=""  transform="matrix(1 0 0 -1 0 225)"  d="M80.30145 9.821075C 83.49228 9.821075 86.21582 11.2948 88.47214 14.24231L88.47214 14.24231L88.47214 14.24231C 90.72839 17.189789 91.85654 20.747711 91.85654 24.916107L91.85654 24.916107L91.85654 24.916107C 91.85654 29.084473 90.72839 32.642426 88.47214 35.589935L88.47214 35.589935L88.47214 35.589935C 86.21582 38.537384 83.49228 40.01117 80.30145 40.01117L80.30145 40.01117L80.30145 40.01117C 77.110565 40.01117 74.38699 38.537384 72.13077 35.589935L72.13077 35.589935L72.13077 35.589935C 69.87445 32.642426 68.74634 29.084473 68.74634 24.916107L68.74634 24.916107L68.74634 24.916107C 68.74634 20.747711 69.87445 17.189789 72.13077 14.24231L72.13077 14.24231L72.13077 14.24231C 74.38699 11.2948 77.110565 9.821075 80.30145 9.821075" stroke="none" fill="#004900" fill-rule="evenodd" />
    <path id=""  transform="matrix(1 0 0 -1 0 225)"  d="M18.353394 30.127075C 21.54419 30.127075 24.267761 31.6008 26.524048 34.54831L26.524048 34.54831L26.524048 34.54831C 28.780334 37.495758 29.908508 41.05371 29.908508 45.222107L29.908508 45.222107L29.908508 45.222107C 29.908508 49.390472 28.780334 52.948425 26.524048 55.895935L26.524048 55.895935L26.524048 55.895935C 24.267761 58.843384 21.54419 60.31717 18.353394 60.31717L18.353394 60.31717L18.353394 60.31717C 15.162537 60.31717 12.438965 58.843384 10.182678 55.895935L10.182678 55.895935L10.182678 55.895935C 7.9263916 52.948425 6.798279 49.390472 6.798279 45.222107L6.798279 45.222107L6.798279 45.222107C 6.798279 41.05371 7.9263916 37.495758 10.182678 34.54831L10.182678 34.54831L10.182678 34.54831C 12.438965 31.6008 15.162537 30.127075 18.353394 30.127075" stroke="none" fill="#004900" fill-rule="evenodd" />
    <path id=""  transform="matrix(1 0 0 -1 0 225)"  d="M20.292542 34.627808L20.292542 34.627808L20.292542 34.627808L81.87521 34.627808" stroke="#004900" stroke-width="32.743744" stroke-linecap="square" fill="none" />
    <path id=""  transform="matrix(1 0 0 -1 0 225)"  d="M18.353394 8.729645C 21.54419 8.729645 24.267761 10.203369 26.524048 13.150879L26.524048 13.150879L26.524048 13.150879C 28.780334 16.098389 29.908508 19.65628 29.908508 23.824677L29.908508 23.824677L29.908508 23.824677C 29.908508 27.993042 28.780334 31.550995 26.524048 34.498505L26.524048 34.498505L26.524048 34.498505C 24.267761 37.446014 21.54419 38.91974 18.353394 38.91974L18.353394 38.91974L18.353394 38.91974C 15.162537 38.91974 12.438965 37.446014 10.182678 34.498505L10.182678 34.498505L10.182678 34.498505C 7.9263916 31.550995 6.798279 27.993042 6.798279 23.824677L6.798279 23.824677L6.798279 23.824677C 6.798279 19.65628 7.9263916 16.098389 10.182678 13.150879L10.182678 13.150879L10.182678 13.150879C 12.438965 10.203369 15.162537 8.729645 18.353394 8.729645" stroke="none" fill="#004900" fill-rule="evenodd" />
    <path id=""  transform="matrix(1 0 0 -1 0 225)"  d="M50.915527 8.569244C 54.801178 8.569244 58.11783 10.363922 60.865417 13.953278L60.865417 13.953278L60.865417 13.953278C 63.613007 17.542572 64.98682 21.875275 64.98682 26.951355L64.98682 26.951355L64.98682 26.951355C 64.98682 32.027435 63.613007 36.360107 60.865417 39.949463L60.865417 39.949463L60.865417 39.949463C 58.11783 43.538788 54.801178 45.333466 50.915527 45.333466L50.915527 45.333466L50.915527 45.333466C 47.029785 45.333466 43.713135 43.538788 40.965607 39.949463L40.965607 39.949463L40.965607 39.949463C 38.218018 36.360107 36.844208 32.027435 36.844208 26.951355L36.844208 26.951355L36.844208 26.951355C 36.844208 21.875275 38.218018 17.542572 40.965607 13.953278L40.965607 13.953278L40.965607 13.953278C 43.713135 10.363922 47.029785 8.569244 50.915527 8.569244" stroke="none" fill="#004900" fill-rule="evenodd" />
    <path id=""  transform="matrix(1 0 0 -1 0 225)"  d="M50.915527 23.822449C 54.801178 23.822449 58.11783 25.617096 60.865417 29.206451L60.865417 29.206451L60.865417 29.206451C 63.613007 32.795746 64.98682 37.12845 64.98682 42.20453L64.98682 42.20453L64.98682 42.20453C 64.98682 47.28064 63.613007 51.61328 60.865417 55.202637L60.865417 55.202637L60.865417 55.202637C 58.11783 58.79196 54.801178 60.58664 50.915527 60.58664L50.915527 60.58664L50.915527 60.58664C 47.029785 60.58664 43.713135 58.79196 40.965607 55.202637L40.965607 55.202637L40.965607 55.202637C 38.218018 51.61328 36.844208 47.28064 36.844208 42.20453L36.844208 42.20453L36.844208 42.20453C 36.844208 37.12845 38.218018 32.795746 40.965607 29.206451L40.965607 29.206451L40.965607 29.206451C 43.713135 25.617096 47.029785 23.822449 50.915527 23.822449" stroke="none" fill="#004900" fill-rule="evenodd" />
    <path id=""  transform="matrix(1 0 0 -1 0 225)"  d="M82.97415 34.752014L82.97415 34.752014L82.97415 34.752014L63.43921 34.752014" stroke="#FFFFFF" stroke-width="9.429407" stroke-linecap="square" fill="none" />
    <path id=""  transform="matrix(1 0 0 -1 0 225)"  d="M38.716644 34.752014L38.716644 34.752014L38.716644 34.752014L20.208496 34.752014" stroke="#FFFFFF" stroke-width="9.429407" stroke-linecap="square" fill="none" />
    <path id=""  transform="matrix(1 0 0 -1 0 225)"  d="M51.236115 35.31659L51.236115 35.31659L51.236115 35.31659L51.236115 34.181274" stroke="#FFFFFF" stroke-width="9.429407" stroke-linecap="square" fill="none" />
    <path id=""  transform="matrix(1 0 0 -1 0 225)"  d="M179.26941 107.13153C 182.46024 107.13153 185.18378 108.605255 187.4401 111.552765L187.4401 111.552765L187.4401 111.552765C 189.69635 114.500244 190.8245 118.0582 190.8245 122.22659L190.8245 122.22659L190.8245 122.22659C 190.8245 126.39499 189.69635 129.95288 187.4401 132.90039L187.4401 132.90039L187.4401 132.90039C 185.18378 135.8479 182.46024 137.32166 179.26941 137.32166L179.26941 137.32166L179.26941 137.32166C 176.07852 137.32166 173.35495 135.8479 171.09872 132.90039L171.09872 132.90039L171.09872 132.90039C 168.8424 129.95288 167.7143 126.39499 167.7143 122.22659L167.7143 122.22659L167.7143 122.22659C 167.7143 118.0582 168.8424 114.500244 171.09872 111.552765L171.09872 111.552765L171.09872 111.552765C 173.35495 108.605255 176.07852 107.13153 179.26941 107.13153" stroke="none" fill="#004900" fill-rule="evenodd" />
    <path id=""  transform="matrix(1 0 0 -1 0 225)"  d="M179.26941 87.644165C 182.46024 87.644165 185.18378 89.11789 187.4401 92.0654L187.4401 92.0654L187.4401 92.0654C 189.69635 95.01288 190.8245 98.5708 190.8245 102.7392L190.8245 102.7392L190.8245 102.7392C 190.8245 106.90756 189.69635 110.465515 187.4401 113.413025L187.4401 113.413025L187.4401 113.413025C 185.18378 116.36047 182.46024 117.83426 179.26941 117.83426L179.26941 117.83426L179.26941 117.83426C 176.07852 117.83426 173.35495 116.36047 171.09872 113.413025L171.09872 113.413025L171.09872 113.413025C 168.8424 110.465515 167.7143 106.90756 167.7143 102.7392L167.7143 102.7392L167.7143 102.7392C 167.7143 98.5708 168.8424 95.01288 171.09872 92.0654L171.09872 92.0654L171.09872 92.0654C 173.35495 89.11789 176.07852 87.644165 179.26941 87.644165" stroke="none" fill="#004900" fill-rule="evenodd" />
    <path id=""  transform="matrix(1 0 0 -1 0 225)"  d="M117.32135 107.950165C 120.512146 107.950165 123.23572 109.42389 125.492004 112.3714L125.492004 112.3714L125.492004 112.3714C 127.74829 115.31885 128.87646 118.8768 128.87646 123.0452L128.87646 123.0452L128.87646 123.0452C 128.87646 127.21356 127.74829 130.77151 125.492004 133.71902L125.492004 133.71902L125.492004 133.71902C 123.23572 136.66647 120.512146 138.14026 117.32135 138.14026L117.32135 138.14026L117.32135 138.14026C 114.13049 138.14026 111.40692 136.66647 109.150635 133.71902L109.150635 133.71902L109.150635 133.71902C 106.89435 130.77151 105.766235 127.21356 105.766235 123.0452L105.766235 123.0452L105.766235 123.0452C 105.766235 118.8768 106.89435 115.31885 109.150635 112.3714L109.150635 112.3714L109.150635 112.3714C 111.40692 109.42389 114.13049 107.950165 117.32135 107.950165" stroke="none" fill="#004900" fill-rule="evenodd" />
    <path id=""  transform="matrix(1 0 0 -1 0 225)"  d="M119.2605 112.4509L119.2605 112.4509L119.2605 112.4509L180.84317 112.4509" stroke="#004900" stroke-width="32.743744" stroke-linecap="square" fill="none" />
    <path id=""  transform="matrix(1 0 0 -1 0 225)"  d="M117.32135 86.552734C 120.512146 86.552734 123.23572 88.02646 125.492004 90.97397L125.492004 90.97397L125.492004 90.97397C 127.74829 93.92148 128.87646 97.47937 128.87646 101.647766L128.87646 101.647766L128.87646 101.647766C 128.87646 105.81613 127.74829 109.374084 125.492004 112.321594L125.492004 112.321594L125.492004 112.321594C 123.23572 115.269104 120.512146 116.74283 117.32135 116.74283L117.32135 116.74283L117.32135 116.74283C 114.13049 116.74283 111.40692 115.269104 109.150635 112.321594L109.150635 112.321594L109.150635 112.321594C 106.89435 109.374084 105.766235 105.81613 105.766235 101.647766L105.766235 101.647766L105.766235 101.647766C 105.766235 97.47937 106.89435 93.92148 109.150635 90.97397L109.150635 90.97397L109.150635 90.97397C 111.40692 88.02646 114.13049 86.552734 117.32135 86.552734" stroke="none" fill="#004900" fill-rule="evenodd" />
    <path id=""  transform="matrix(1 0 0 -1 0 225)"  d="M149.88348 86.392334C 153.76913 86.392334 157.08578 88.18701 159.83337 91.77637L159.83337 91.77637L159.83337 91.77637C 162.58096 95.36566 163.95477 99.698364 163.95477 104.774445L163.95477 104.774445L163.95477 104.774445C 163.95477 109.850525 162.58096 114.1832 159.83337 117.77255L159.83337 117.77255L159.83337 117.77255C 157.08578 121.36188 153.76913 123.156555 149.88348 123.156555L149.88348 123.156555L149.88348 123.156555C 145.99774 123.156555 142.68109 121.36188 139.93356 117.77255L139.93356 117.77255L139.93356 117.77255C 137.18597 114.1832 135.81216 109.850525 135.81216 104.774445L135.81216 104.774445L135.81216 104.774445C 135.81216 99.698364 137.18597 95.36566 139.93356 91.77637L139.93356 91.77637L139.93356 91.77637C 142.68109 88.18701 145.99774 86.392334 149.88348 86.392334" stroke="none" fill="#004900" fill-rule="evenodd" />
    <path id=""  transform="matrix(1 0 0 -1 0 225)"  d="M149.88348 101.64554C 153.76913 101.64554 157.08578 103.440186 159.83337 107.02954L159.83337 107.02954L159.83337 107.02954C 162.58096 110.618835 163.95477 114.95154 163.95477 120.02762L163.95477 120.02762L163.95477 120.02762C 163.95477 125.10373 162.58096 129.43637 159.83337 133.02573L159.83337 133.02573L159.83337 133.02573C 157.08578 136.61505 153.76913 138.40973 149.88348 138.40973L149.88348 138.40973L149.88348 138.40973C 145.99774 138.40973 142.68109 136.61505 139.93356 133.02573L139.93356 133.02573L139.93356 133.02573C 137.18597 129.43637 135.81216 125.10373 135.81216 120.02762L135.81216 120.02762L135.81216 120.02762C 135.81216 114.95154 137.18597 110.618835 139.93356 107.02954L139.93356 107.02954L139.93356 107.02954C 142.68109 103.440186 145.99774 101.64554 149.88348 101.64554" stroke="none" fill="#004900" fill-rule="evenodd" />
    <path id=""  transform="matrix(1 0 0 -1 0 225)"  d="M181.94211 112.5751L181.94211 112.5751L181.94211 112.5751L162.40717 112.5751" stroke="#FFFFFF" stroke-width="9.429407" stroke-linecap="square" fill="none" />
    <path id=""  transform="matrix(1 0 0 -1 0 225)"  d="M137.6846 112.5751L137.6846 112.5751L137.6846 112.5751L119.17645 112.5751" stroke="#FFFFFF" stroke-width="9.429407" stroke-linecap="square" fill="none" />
    <path id=""  transform="matrix(1 0 0 -1 0 225)"  d="M150.20407 113.13968L150.20407 113.13968L150.20407 113.13968L150.20407 112.004364" stroke="#FFFFFF" stroke-width="9.429407" stroke-linecap="square" fill="none" />
    <path id=""  transform="matrix(1 0 0 -1 0 225)"  d="M179.26941 185.63287C 182.46024 185.63287 185.18378 187.1066 187.4401 190.05411L187.4401 190.05411L187.4401 190.05411C 189.69635 193.00159 190.8245 196.55954 190.8245 200.72794L190.8245 200.72794L190.8245 200.72794C 190.8245 204.89633 189.69635 208.45422 187.4401 211.40173L187.4401 211.40173L187.4401 211.40173C 185.18378 214.34924 182.46024 215.823 179.26941 215.823L179.26941 215.823L179.26941 215.823C 176.07852 215.823 173.35495 214.34924 171.09872 211.40173L171.09872 211.40173L171.09872 211.40173C 168.8424 208.45422 167.7143 204.89633 167.7143 200.72794L167.7143 200.72794L167.7143 200.72794C 167.7143 196.55954 168.8424 193.00159 171.09872 190.05411L171.09872 190.05411L171.09872 190.05411C 173.35495 187.1066 176.07852 185.63287 179.26941 185.63287" stroke="none" fill="#004900" fill-rule="evenodd" />
    <path id=""  transform="matrix(1 0 0 -1 0 225)"  d="M179.26941 166.14551C 182.46024 166.14551 185.18378 167.61923 187.4401 170.56674L187.4401 170.56674L187.4401 170.56674C 189.69635 173.51422 190.8245 177.07214 190.8245 181.24054L190.8245 181.24054L190.8245 181.24054C 190.8245 185.4089 189.69635 188.96686 187.4401 191.91437L187.4401 191.91437L187.4401 191.91437C 185.18378 194.86182 182.46024 196.3356 179.26941 196.3356L179.26941 196.3356L179.26941 196.3356C 176.07852 196.3356 173.35495 194.86182 171.09872 191.91437L171.09872 191.91437L171.09872 191.91437C 168.8424 188.96686 167.7143 185.4089 167.7143 181.24054L167.7143 181.24054L167.7143 181.24054C 167.7143 177.07214 168.8424 173.51422 171.09872 170.56674L171.09872 170.56674L171.09872 170.56674C 173.35495 167.61923 176.07852 166.14551 179.26941 166.14551" stroke="none" fill="#004900" fill-rule="evenodd" />
    <path id=""  transform="matrix(1 0 0 -1 0 225)"  d="M117.32135 186.4515C 120.512146 186.4515 123.23572 187.92523 125.492004 190.87274L125.492004 190.87274L125.492004 190.87274C 127.74829 193.82019 128.87646 197.37814 128.87646 201.54654L128.87646 201.54654L128.87646 201.54654C 128.87646 205.7149 127.74829 209.27286 125.492004 212.22037L125.492004 212.22037L125.492004 212.22037C 123.23572 215.16782 120.512146 216.6416 117.32135 216.6416L117.32135 216.6416L117.32135 216.6416C 114.13049 216.6416 111.40692 215.16782 109.150635 212.22037L109.150635 212.22037L109.150635 212.22037C 106.89435 209.27286 105.766235 205.7149 105.766235 201.54654L105.766235 201.54654L105.766235 201.54654C 105.766235 197.37814 106.89435 193.82019 109.150635 190.87274L109.150635 190.87274L109.150635 190.87274C 111.40692 187.92523 114.13049 186.4515 117.32135 186.4515" stroke="none" fill="#004900" fill-rule="evenodd" />
    <path id=""  transform="matrix(1 0 0 -1 0 225)"  d="M119.2605 190.95224L119.2605 190.95224L119.2605 190.95224L180.84317 190.95224" stroke="#004900" stroke-width="32.743744" stroke-linecap="square" fill="none" />
    <path id=""  transform="matrix(1 0 0 -1 0 225)"  d="M117.32135 165.05408C 120.512146 165.05408 123.23572 166.5278 125.492004 169.47531L125.492004 169.47531L125.492004 169.47531C 127.74829 172.42282 128.87646 175.98071 128.87646 180.14911L128.87646 180.14911L128.87646 180.14911C 128.87646 184.31747 127.74829 187.87543 125.492004 190.82294L125.492004 190.82294L125.492004 190.82294C 123.23572 193.77045 120.512146 195.24417 117.32135 195.24417L117.32135 195.24417L117.32135 195.24417C 114.13049 195.24417 111.40692 193.77045 109.150635 190.82294L109.150635 190.82294L109.150635 190.82294C 106.89435 187.87543 105.766235 184.31747 105.766235 180.14911L105.766235 180.14911L105.766235 180.14911C 105.766235 175.98071 106.89435 172.42282 109.150635 169.47531L109.150635 169.47531L109.150635 169.47531C 111.40692 166.5278 114.13049 165.05408 117.32135 165.05408" stroke="none" fill="#004900" fill-rule="evenodd" />
    <path id=""  transform="matrix(1 0 0 -1 0 225)"  d="M149.88348 164.89368C 153.76913 164.89368 157.08578 166.68835 159.83337 170.27771L159.83337 170.27771L159.83337 170.27771C 162.58096 173.867 163.95477 178.1997 163.95477 183.27579L163.95477 183.27579L163.95477 183.27579C 163.95477 188.35187 162.58096 192.68454 159.83337 196.2739L159.83337 196.2739L159.83337 196.2739C 157.08578 199.86322 153.76913 201.6579 149.88348 201.6579L149.88348 201.6579L149.88348 201.6579C 145.99774 201.6579 142.68109 199.86322 139.93356 196.2739L139.93356 196.2739L139.93356 196.2739C 137.18597 192.68454 135.81216 188.35187 135.81216 183.27579L135.81216 183.27579L135.81216 183.27579C 135.81216 178.1997 137.18597 173.867 139.93356 170.27771L139.93356 170.27771L139.93356 170.27771C 142.68109 166.68835 145.99774 164.89368 149.88348 164.89368" stroke="none" fill="#004900" fill-rule="evenodd" />
    <path id=""  transform="matrix(1 0 0 -1 0 225)"  d="M149.88348 180.14688C 153.76913 180.14688 157.08578 181.94153 159.83337 185.53088L159.83337 185.53088L159.83337 185.53088C 162.58096 189.12018 163.95477 193.45288 163.95477 198.52896L163.95477 198.52896L163.95477 198.52896C 163.95477 203.60507 162.58096 207.93771 159.83337 211.52707L159.83337 211.52707L159.83337 211.52707C 157.08578 215.1164 153.76913 216.91107 149.88348 216.91107L149.88348 216.91107L149.88348 216.91107C 145.99774 216.91107 142.68109 215.1164 139.93356 211.52707L139.93356 211.52707L139.93356 211.52707C 137.18597 207.93771 135.81216 203.60507 135.81216 198.52896L135.81216 198.52896L135.81216 198.52896C 135.81216 193.45288 137.18597 189.12018 139.93356 185.53088L139.93356 185.53088L139.93356 185.53088C 142.68109 181.94153 145.99774 180.14688 149.88348 180.14688" stroke="none" fill="#004900" fill-rule="evenodd" />
    <path id=""  transform="matrix(1 0 0 -1 0 225)"  d="M181.94211 191.07645L181.94211 191.07645L181.94211 191.07645L162.40717 191.07645" stroke="#FFFFFF" stroke-width="9.429407" stroke-linecap="square" fill="none" />
    <path id=""  transform="matrix(1 0 0 -1 0 225)"  d="M137.6846 191.07645L137.6846 191.07645L137.6846 191.07645L119.17645 191.07645" stroke="#FFFFFF" stroke-width="9.429407" stroke-linecap="square" fill="none" />
    <path id=""  transform="matrix(1 0 0 -1 0 225)"  d="M150.20407 191.64102L150.20407 191.64102L150.20407 191.64102L150.20407 190.5057" stroke="#FFFFFF" stroke-width="9.429407" stroke-linecap="square" fill="none" />
    <path id=""  transform="matrix(1 0 0 -1 0 225)"  d="M179.26941 29.308441C 182.46024 29.308441 185.18378 30.782166 187.4401 33.729675L187.4401 33.729675L187.4401 33.729675C 189.69635 36.677155 190.8245 40.235107 190.8245 44.403503L190.8245 44.403503L190.8245 44.403503C 190.8245 48.5719 189.69635 52.12979 187.4401 55.0773L187.4401 55.0773L187.4401 55.0773C 185.18378 58.02481 182.46024 59.498566 179.26941 59.498566L179.26941 59.498566L179.26941 59.498566C 176.07852 59.498566 173.35495 58.02481 171.09872 55.0773L171.09872 55.0773L171.09872 55.0773C 168.8424 52.12979 167.7143 48.5719 167.7143 44.403503L167.7143 44.403503L167.7143 44.403503C 167.7143 40.235107 168.8424 36.677155 171.09872 33.729675L171.09872 33.729675L171.09872 33.729675C 173.35495 30.782166 176.07852 29.308441 179.26941 29.308441" stroke="none" fill="#004900" fill-rule="evenodd" />
    <path id=""  transform="matrix(1 0 0 -1 0 225)"  d="M179.26941 9.821075C 182.46024 9.821075 185.18378 11.2948 187.4401 14.24231L187.4401 14.24231L187.4401 14.24231C 189.69635 17.189789 190.8245 20.747711 190.8245 24.916107L190.8245 24.916107L190.8245 24.916107C 190.8245 29.084473 189.69635 32.642426 187.4401 35.589935L187.4401 35.589935L187.4401 35.589935C 185.18378 38.537384 182.46024 40.01117 179.26941 40.01117L179.26941 40.01117L179.26941 40.01117C 176.07852 40.01117 173.35495 38.537384 171.09872 35.589935L171.09872 35.589935L171.09872 35.589935C 168.8424 32.642426 167.7143 29.084473 167.7143 24.916107L167.7143 24.916107L167.7143 24.916107C 167.7143 20.747711 168.8424 17.189789 171.09872 14.24231L171.09872 14.24231L171.09872 14.24231C 173.35495 11.2948 176.07852 9.821075 179.26941 9.821075" stroke="none" fill="#004900" fill-rule="evenodd" />
    <path id=""  transform="matrix(1 0 0 -1 0 225)"  d="M117.32135 30.127075C 120.512146 30.127075 123.23572 31.6008 125.492004 34.54831L125.492004 34.54831L125.492004 34.54831C 127.74829 37.495758 128.87646 41.05371 128.87646 45.222107L128.87646 45.222107L128.87646 45.222107C 128.87646 49.390472 127.74829 52.948425 125.492004 55.895935L125.492004 55.895935L125.492004 55.895935C 123.23572 58.843384 120.512146 60.31717 117.32135 60.31717L117.32135 60.31717L117.32135 60.31717C 114.13049 60.31717 111.40692 58.843384 109.150635 55.895935L109.150635 55.895935L109.150635 55.895935C 106.89435 52.948425 105.766235 49.390472 105.766235 45.222107L105.766235 45.222107L105.766235 45.222107C 105.766235 41.05371 106.89435 37.495758 109.150635 34.54831L109.150635 34.54831L109.150635 34.54831C 111.40692 31.6008 114.13049 30.127075 117.32135 30.127075" stroke="none" fill="#004900" fill-rule="evenodd" />
    <path id=""  transform="matrix(1 0 0 -1 0 225)"  d="M119.2605 34.627808L119.2605 34.627808L119.2605 34.627808L180.84317 34.627808" stroke="#004900" stroke-width="32.743744" stroke-linecap="square" fill="none" />
    <path id=""  transform="matrix(1 0 0 -1 0 225)"  d="M117.32135 8.729645C 120.512146 8.729645 123.23572 10.203369 125.492004 13.150879L125.492004 13.150879L125.492004 13.150879C 127.74829 16.098389 128.87646 19.65628 128.87646 23.824677L128.87646 23.824677L128.87646 23.824677C 128.87646 27.993042 127.74829 31.550995 125.492004 34.498505L125.492004 34.498505L125.492004 34.498505C 123.23572 37.446014 120.512146 38.91974 117.32135 38.91974L117.32135 38.91974L117.32135 38.91974C 114.13049 38.91974 111.40692 37.446014 109.150635 34.498505L109.150635 34.498505L109.150635 34.498505C 106.89435 31.550995 105.766235 27.993042 105.766235 23.824677L105.766235 23.824677L105.766235 23.824677C 105.766235 19.65628 106.89435 16.098389 109.150635 13.150879L109.150635 13.150879L109.150635 13.150879C 111.40692 10.203369 114.13049 8.729645 117.32135 8.729645" stroke="none" fill="#004900" fill-rule="evenodd" />
    <path id=""  transform="matrix(1 0 0 -1 0 225)"  d="M149.88348 8.569244C 153.76913 8.569244 157.08578 10.363922 159.83337 13.953278L159.83337 13.953278L159.83337 13.953278C 162.58096 17.542572 163.95477 21.875275 163.95477 26.951355L163.95477 26.951355L163.95477 26.951355C 163.95477 32.027435 162.58096 36.360107 159.83337 39.949463L159.83337 39.949463L159.83337 39.949463C 157.08578 43.538788 153.76913 45.333466 149.88348 45.333466L149.88348 45.333466L149.88348 45.333466C 145.99774 45.333466 142.68109 43.538788 139.93356 39.949463L139.93356 39.949463L139.93356 39.949463C 137.18597 36.360107 135.81216 32.027435 135.81216 26.951355L135.81216 26.951355L135.81216 26.951355C 135.81216 21.875275 137.18597 17.542572 139.93356 13.953278L139.93356 13.953278L139.93356 13.953278C 142.68109 10.363922 145.99774 8.569244 149.88348 8.569244" stroke="none" fill="#004900" fill-rule="evenodd" />
    <path id=""  transform="matrix(1 0 0 -1 0 225)"  d="M149.88348 23.822449C 153.76913 23.822449 157.08578 25.617096 159.83337 29.206451L159.83337 29.206451L159.83337 29.206451C 162.58096 32.795746 163.95477 37.12845 163.95477 42.20453L163.95477 42.20453L163.95477 42.20453C 163.95477 47.28064 162.58096 51.61328 159.83337 55.202637L159.83337 55.202637L159.83337 55.202637C 157.08578 58.79196 153.76913 60.58664 149.88348 60.58664L149.88348 60.58664L149.88348 60.58664C 145.99774 60.58664 142.68109 58.79196 139.93356 55.202637L139.93356 55.202637L139.93356 55.202637C 137.18597 51.61328 135.81216 47.28064 135.81216 42.20453L135.81216 42.20453L135.81216 42.20453C 135.81216 37.12845 137.18597 32.795746 139.93356 29.206451L139.93356 29.206451L139.93356 29.206451C 142.68109 25.617096 145.99774 23.822449 149.88348 23.822449" stroke="none" fill="#004900" fill-rule="evenodd" />
    <path id=""  transform="matrix(1 0 0 -1 0 225)"  d="M181.94211 34.752014L181.94211 34.752014L181.94211 34.752014L162.40717 34.752014" stroke="#FFFFFF" stroke-width="9.429407" stroke-linecap="square" fill="none" />
    <path id=""  transform="matrix(1 0 0 -1 0 225)"  d="M137.6846 34.752014L137.6846 34.752014L137.6846 34.752014L119.17645 34.752014" stroke="#FFFFFF" stroke-width="9.429407" stroke-linecap="square" fill="none" />
    <path id=""  transform="matrix(1 0 0 -1 0 225)"  d="M150.20407 35.31659L150.20407 35.31659L150.20407 35.31659L150.20407 34.181274" stroke="#FFFFFF" stroke-width="9.429407" stroke-linecap="square" fill="none" />
	</g>
</g>
</svg>