<?xml version="1.0" standalone="no"?>
<!DOCTYPE svg PUBLIC "-//W3C//DTD SVG 1.0//EN" "http://www.w3.org/TR/2001/REC-SVG-20010904/DTD/svg10.dtd">
<svg xmlns="http://www.w3.org/2000/svg" xmlns:xlink="http://www.w3.org/1999/xlink" id="body_1" width="400" height="300">

<defs>
    <clipPath  id="1">

    <path id=""  clip-rule="evenodd" transform="matrix(1 0 0 1 0 0)"  d="M0 0L300 0L300 0L300 225L300 225L1.3777277E-14 225L1.3777277E-14 225L0 0z" />    </clipPath>
</defs>

<g transform="matrix(1.3333 0 0 1.3333 0 0)">
	<g clip-path="url(#1)" >
    <path id=""  transform="matrix(1 0 0 -1 0 225)"  d="M279.5676 63.225037C 287.15494 63.225037 293.30566 55.27626 293.30566 45.470963L293.30566 45.470963L293.30566 45.470963C 293.30566 35.665665 287.15494 27.716888 279.5676 27.716888L279.5676 27.716888L279.5676 27.716888C 271.9803 27.716888 265.82953 35.665665 265.82953 45.470963L265.82953 45.470963L265.82953 45.470963C 265.82953 55.27626 271.9803 63.225037 279.5676 63.225037" stroke="none" fill="#004900" fill-rule="evenodd" />
    <path id=""  transform="matrix(1 0 0 -1 0 225)"  d="M172.11365 64.100296C 179.70099 64.100296 185.85175 56.15152 185.85175 46.346222L185.85175 46.346222L185.85175 46.346222C 185.85175 36.540924 179.70099 28.592148 172.11365 28.592148L172.11365 28.592148L172.11365 28.592148C 164.5263 28.592148 158.37555 36.540924 158.37555 46.346222L158.37555 46.346222L158.37555 46.346222C 158.37555 56.15152 164.5263 64.100296 172.11365 64.100296" stroke="none" fill="#004900" fill-rule="evenodd" />
    <path id=""  transform="matrix(1 0 0 -1 0 225)"  d="M230.35974 66.70535C 240.43921 66.70535 248.61023 56.14572 248.61023 43.11978L248.61023 43.11978L248.61023 43.11978C 248.61023 30.093842 240.43921 19.53421 230.35974 19.53421L230.35974 19.53421L230.35974 19.53421C 220.28027 19.53421 212.10925 30.093842 212.10925 43.11978L212.10925 43.11978L212.10925 43.11978C 212.10925 56.14572 220.28027 66.70535 230.35974 66.70535" stroke="none" fill="#004900" fill-rule="evenodd" />
    <path id=""  transform="matrix(1 0 0 -1 0 225)"  d="M279.5676 42.388565C 287.15494 42.388565 293.30566 34.43979 293.30566 24.634491L293.30566 24.634491L293.30566 24.634491C 293.30566 14.829193 287.15494 6.880417 279.5676 6.880417L279.5676 6.880417L279.5676 6.880417C 271.9803 6.880417 265.82953 14.829193 265.82953 24.634491L265.82953 24.634491L265.82953 24.634491C 265.82953 34.43979 271.9803 42.388565 279.5676 42.388565" stroke="none" fill="#004900" fill-rule="evenodd" />
    <path id=""  transform="matrix(1 0 0 -1 0 225)"  d="M180.01447 35.018524L180.01447 35.018524L180.01447 35.018524L276.8943 35.018524" stroke="#004900" stroke-width="39.56521" stroke-linecap="square" fill="none" />
    <path id=""  transform="matrix(1 0 0 -1 0 225)"  d="M277.33295 41.487045C 280.78842 41.487045 283.58963 38.590973 283.58963 35.018494L283.58963 35.018494L283.58963 35.018494C 283.58963 31.446014 280.78842 28.549942 277.33295 28.549942L277.33295 28.549942L277.33295 28.549942C 273.87744 28.549942 271.07623 31.446014 271.07623 35.018494L271.07623 35.018494L271.07623 35.018494C 271.07623 38.590973 273.87744 41.487045 277.33295 41.487045" stroke="none" fill="#FFFFFF" fill-rule="evenodd" />
    <path id=""  transform="matrix(1 0 0 -1 0 225)"  d="M231.367 169.79507L231.367 169.79507L231.367 169.79507L231.41248 122.41379" stroke="#004900" stroke-width="26.088644" stroke-linecap="square" fill="none" />
    <path id=""  transform="matrix(1 0 0 -1 0 225)"  d="M203.8852 134.7568L203.8852 134.7568L203.8852 134.7568L213.56458 172.27362" stroke="#004900" stroke-width="34.78486" stroke-linecap="square" fill="none" />
    <path id=""  transform="matrix(1 0 0 -1 0 225)"  d="M178.31726 175.36227L178.31726 175.36227L178.31726 175.36227L243.08093 97.01602" stroke="#004900" stroke-width="33.75" stroke-linecap="square" fill="none" />
    <path id=""  transform="matrix(1 0 0 -1 0 225)"  d="M279.5676 217.49321C 287.15494 217.49321 293.30566 209.54445 293.30566 199.73914L293.30566 199.73914L293.30566 199.73914C 293.30566 189.93384 287.15494 181.98508 279.5676 181.98508L279.5676 181.98508L279.5676 181.98508C 271.9803 181.98508 265.82953 189.93384 265.82953 199.73914L265.82953 199.73914L265.82953 199.73914C 265.82953 209.54445 271.9803 217.49321 279.5676 217.49321" stroke="none" fill="#004900" fill-rule="evenodd" />
    <path id=""  transform="matrix(1 0 0 -1 0 225)"  d="M279.5676 196.65675C 287.15494 196.65675 293.30566 188.70798 293.30566 178.90268L293.30566 178.90268L293.30566 178.90268C 293.30566 169.09738 287.15494 161.1486 279.5676 161.1486L279.5676 161.1486L279.5676 161.1486C 271.9803 161.1486 265.82953 169.09738 265.82953 178.90268L265.82953 178.90268L265.82953 178.90268C 265.82953 188.70798 271.9803 196.65675 279.5676 196.65675" stroke="none" fill="#004900" fill-rule="evenodd" />
    <path id=""  transform="matrix(1 0 0 -1 0 225)"  d="M172.11365 218.36848C 179.70099 218.36848 185.85175 210.41972 185.85175 200.61441L185.85175 200.61441L185.85175 200.61441C 185.85175 190.80911 179.70099 182.86035 172.11365 182.86035L172.11365 182.86035L172.11365 182.86035C 164.5263 182.86035 158.37555 190.80911 158.37555 200.61441L158.37555 200.61441L158.37555 200.61441C 158.37555 210.41972 164.5263 218.36848 172.11365 218.36848" stroke="none" fill="#004900" fill-rule="evenodd" />
    <path id=""  transform="matrix(1 0 0 -1 0 225)"  d="M180.01447 189.28671L180.01447 189.28671L180.01447 189.28671L276.8943 189.28671" stroke="#004900" stroke-width="39.56521" stroke-linecap="square" fill="none" />
    <path id=""  transform="matrix(1 0 0 -1 0 225)"  d="M277.33295 195.75523C 280.78842 195.75523 283.58963 192.85916 283.58963 189.28668L283.58963 189.28668L283.58963 189.28668C 283.58963 185.7142 280.78842 182.81813 277.33295 182.81813L277.33295 182.81813L277.33295 182.81813C 273.87744 182.81813 271.07623 185.7142 271.07623 189.28668L271.07623 189.28668L271.07623 189.28668C 271.07623 192.85916 273.87744 195.75523 277.33295 195.75523" stroke="none" fill="#FFFFFF" fill-rule="evenodd" />
    <path id=""  transform="matrix(1 0 0 -1 0 225)"  d="M172.11365 195.48973C 179.70099 195.48973 185.85175 187.54097 185.85175 177.73566L185.85175 177.73566L185.85175 177.73566C 185.85175 167.93036 179.70099 159.9816 172.11365 159.9816L172.11365 159.9816L172.11365 159.9816C 164.5263 159.9816 158.37555 167.93036 158.37555 177.73566L158.37555 177.73566L158.37555 177.73566C 158.37555 187.54097 164.5263 195.48973 172.11365 195.48973" stroke="none" fill="#004900" fill-rule="evenodd" />
    <path id=""  transform="matrix(1 0 0 -1 0 225)"  d="M230.35974 204.66437C 240.43921 204.66437 248.61023 194.10475 248.61023 181.0788L248.61023 181.0788L248.61023 181.0788C 248.61023 168.05286 240.43921 157.49324 230.35974 157.49324L230.35974 157.49324L230.35974 157.49324C 220.28027 157.49324 212.10925 168.05286 212.10925 181.0788L212.10925 181.0788L212.10925 181.0788C 212.10925 194.10475 220.28027 204.66437 230.35974 204.66437" stroke="none" fill="#004900" fill-rule="evenodd" />
    <path id=""  transform="matrix(1 0 0 -1 0 225)"  d="M230.35974 220.97354C 240.43921 220.97354 248.61023 210.41393 248.61023 197.38797L248.61023 197.38797L248.61023 197.38797C 248.61023 184.36203 240.43921 173.80241 230.35974 173.80241L230.35974 173.80241L230.35974 173.80241C 220.28027 173.80241 212.10925 184.36203 212.10925 197.38797L212.10925 197.38797L212.10925 197.38797C 212.10925 210.41393 220.28027 220.97354 230.35974 220.97354" stroke="none" fill="#004900" fill-rule="evenodd" />
    <path id=""  transform="matrix(1 0 0 -1 0 225)"  d="M275.75708 189.28671L275.75708 189.28671L275.75708 189.28671L248.53448 189.28671" stroke="#FFFFFF" stroke-width="9" stroke-linecap="square" fill="none" />
    <path id=""  transform="matrix(1 0 0 -1 0 225)"  d="M209.69135 189.28671L209.69135 189.28671L209.69135 189.28671L176.07263 189.28671" stroke="#FFFFFF" stroke-width="9" stroke-linecap="square" fill="none" />
    <path id=""  transform="matrix(1 0 0 -1 0 225)"  d="M221.01746 196.01733C 225.6507 192.97566 225.45099 184.8242 221.01746 182.26431" stroke="#FFFFFF" stroke-width="7.5" stroke-linecap="square" fill="none" />
    <path id=""  transform="matrix(1 0 0 -1 0 225)"  d="M234.17212 196.01733C 238.80536 192.97566 238.60571 184.8242 234.17212 182.26431" stroke="#FFFFFF" stroke-width="7.5" stroke-linecap="square" fill="none" />
    <path id=""  transform="matrix(1 0 0 -1 0 225)"  d="M231.367 55.029877L231.367 55.029877L231.367 55.029877L231.41248 102.41116" stroke="#004900" stroke-width="26.088644" stroke-linecap="square" fill="none" />
    <path id=""  transform="matrix(1 0 0 -1 0 225)"  d="M172.11365 41.221558C 179.70099 41.221558 185.85175 33.27278 185.85175 23.467484L185.85175 23.467484L185.85175 23.467484C 185.85175 13.662186 179.70099 5.7134094 172.11365 5.7134094L172.11365 5.7134094L172.11365 5.7134094C 164.5263 5.7134094 158.37555 13.662186 158.37555 23.467484L158.37555 23.467484L158.37555 23.467484C 158.37555 33.27278 164.5263 41.221558 172.11365 41.221558" stroke="none" fill="#004900" fill-rule="evenodd" />
    <path id=""  transform="matrix(1 0 0 -1 0 225)"  d="M178.31726 49.462677L178.31726 49.462677L178.31726 49.462677L243.08093 127.80893" stroke="#004900" stroke-width="33.75" stroke-linecap="square" fill="none" />
    <path id=""  transform="matrix(1 0 0 -1 0 225)"  d="M230.35974 50.39618C 240.43921 50.39618 248.61023 39.836548 248.61023 26.810608L248.61023 26.810608L248.61023 26.810608C 248.61023 13.784668 240.43921 3.2250366 230.35974 3.2250366L230.35974 3.2250366L230.35974 3.2250366C 220.28027 3.2250366 212.10925 13.784668 212.10925 26.810608L212.10925 26.810608L212.10925 26.810608C 212.10925 39.836548 220.28027 50.39618 230.35974 50.39618" stroke="none" fill="#004900" fill-rule="evenodd" />
    <path id=""  transform="matrix(1 0 0 -1 0 225)"  d="M256.96448 133.2732C 257.53778 133.2732 258.0025 132.94641 258.0025 132.5433L258.0025 132.5433L258.0025 132.5433L258.0025 132.5433L258.0025 92.56578L258.0025 92.56578L258.0025 92.56578C 258.0025 92.162674 257.53778 91.83589 256.96448 91.83589L256.96448 91.83589L258.0025 92.56578C 258.0025 92.162674 257.53778 91.83589 256.96448 91.83589L256.96448 91.83589L256.96448 91.83589L256.96448 91.83589L203.50983 91.83589L203.50983 91.83589L203.50983 91.83589C 202.93652 91.83589 202.4718 92.162674 202.4718 92.56578L202.4718 92.56578L203.50983 91.83589C 202.93652 91.83589 202.4718 92.162674 202.4718 92.56578L202.4718 92.56578L202.4718 92.56578L202.4718 92.56578L202.4718 132.5433L202.4718 132.5433L202.4718 132.5433C 202.4718 132.94641 202.93652 133.2732 203.50983 133.2732L203.50983 133.2732L202.4718 132.5433C 202.4718 132.94641 202.93652 133.2732 203.50983 133.2732L203.50983 133.2732L203.50983 133.2732L203.50983 133.2732L256.96448 133.2732L256.96448 133.2732L256.96448 133.2732C 257.53778 133.2732 258.0025 132.94641 258.0025 132.5433z" stroke="none" fill="#004900" fill-rule="nonzero" />
    <path id=""  transform="matrix(1 0 0 -1 0 225)"  d="M216.16382 138.371L216.16382 138.371L216.16382 138.371L211.03906 133.13416" stroke="#FFFFFF" stroke-width="9" stroke-linecap="square" fill="none" />
    <path id=""  transform="matrix(1 0 0 -1 0 225)"  d="M224.31439 122.62904L224.31439 122.62904L224.31439 122.62904L232.28217 112.59161L232.28217 112.59161L243.39935 112.55449" stroke="#FFFFFF" stroke-width="9" stroke-linecap="square" fill="none" />
    <path id=""  transform="matrix(1 0 0 -1 0 225)"  d="M203.8852 90.068146L203.8852 90.068146L203.8852 90.068146L213.56458 52.55133" stroke="#004900" stroke-width="34.78486" stroke-linecap="square" fill="none" />
    <path id=""  transform="matrix(1 0 0 -1 0 225)"  d="M275.75708 35.018524L275.75708 35.018524L275.75708 35.018524L248.53448 35.018524" stroke="#FFFFFF" stroke-width="9" stroke-linecap="square" fill="none" />
    <path id=""  transform="matrix(1 0 0 -1 0 225)"  d="M183.08789 52.114716L183.08789 52.114716L183.08789 52.114716L203.38483 76.85123" stroke="#FFFFFF" stroke-width="9" stroke-linecap="square" fill="none" />
    <path id=""  transform="matrix(1 0 0 -1 0 225)"  d="M209.69135 35.018524L209.69135 35.018524L209.69135 35.018524L176.07263 35.018524" stroke="#FFFFFF" stroke-width="9" stroke-linecap="square" fill="none" />
    <path id=""  transform="matrix(1 0 0 -1 0 225)"  d="M221.01746 41.749146C 225.6507 38.70749 225.45099 30.556015 221.01746 27.996124" stroke="#FFFFFF" stroke-width="7.5" stroke-linecap="square" fill="none" />
    <path id=""  transform="matrix(1 0 0 -1 0 225)"  d="M234.17212 41.749146C 238.80536 38.70749 238.60571 30.556015 234.17212 27.996124" stroke="#FFFFFF" stroke-width="7.5" stroke-linecap="square" fill="none" />
    <path id=""  transform="matrix(1 0 0 -1 0 225)"  d="M216.21997 86.51007L216.21997 86.51007L216.21997 86.51007L210.98297 91.634674" stroke="#FFFFFF" stroke-width="9" stroke-linecap="square" fill="none" />
    <path id=""  transform="matrix(1 0 0 -1 0 225)"  d="M217.98315 62.696106L217.98315 62.696106L217.98315 62.696106L226.0976 72.8259" stroke="#FFFFFF" stroke-width="9" stroke-linecap="square" fill="none" />
    <path id=""  transform="matrix(1 0 0 -1 0 225)"  d="M224.31439 102.19591L224.31439 102.19591L224.31439 102.19591L232.28217 112.23334L232.28217 112.23334L243.39935 112.270386" stroke="#FFFFFF" stroke-width="9" stroke-linecap="square" fill="none" />
    <path id=""  transform="matrix(1 0 0 -1 0 225)"  d="M183.08789 172.71024L183.08789 172.71024L183.08789 172.71024L203.38483 147.97372" stroke="#FFFFFF" stroke-width="9" stroke-linecap="square" fill="none" />
    <path id=""  transform="matrix(1 0 0 -1 0 225)"  d="M217.98315 162.12885L217.98315 162.12885L217.98315 162.12885L226.0976 151.99905" stroke="#FFFFFF" stroke-width="9" stroke-linecap="square" fill="none" />
    <path id=""  transform="matrix(1 0 0 -1 0 225)"  d="M20.394623 63.22502C 12.8072815 63.22502 6.656555 55.276245 6.656555 45.470947L6.656555 45.470947L6.656555 45.470947C 6.656555 35.66565 12.8072815 27.716873 20.394623 27.716873L20.394623 27.716873L20.394623 27.716873C 27.981934 27.716873 34.13269 35.66565 34.13269 45.470947L34.13269 45.470947L34.13269 45.470947C 34.13269 55.276245 27.981934 63.22502 20.394623 63.22502" stroke="none" fill="#004900" fill-rule="evenodd" />
    <path id=""  transform="matrix(1 0 0 -1 0 225)"  d="M127.84857 64.10028C 120.26123 64.10028 114.11047 56.151505 114.11047 46.346207L114.11047 46.346207L114.11047 46.346207C 114.11047 36.54091 120.26123 28.592133 127.84857 28.592133L127.84857 28.592133L127.84857 28.592133C 135.43591 28.592133 141.58667 36.54091 141.58667 46.346207L141.58667 46.346207L141.58667 46.346207C 141.58667 56.151505 135.43591 64.10028 127.84857 64.10028" stroke="none" fill="#004900" fill-rule="evenodd" />
    <path id=""  transform="matrix(1 0 0 -1 0 225)"  d="M69.60248 66.70534C 59.52301 66.70534 51.35199 56.145706 51.35199 43.119766L51.35199 43.119766L51.35199 43.119766C 51.35199 30.093826 59.52301 19.534195 69.60248 19.534195L69.60248 19.534195L69.60248 19.534195C 79.681946 19.534195 87.85297 30.093826 87.85297 43.119766L87.85297 43.119766L87.85297 43.119766C 87.85297 56.145706 79.681946 66.70534 69.60248 66.70534" stroke="none" fill="#004900" fill-rule="evenodd" />
    <path id=""  transform="matrix(1 0 0 -1 0 225)"  d="M20.394623 42.38855C 12.8072815 42.38855 6.656555 34.439774 6.656555 24.634476L6.656555 24.634476L6.656555 24.634476C 6.656555 14.829178 12.8072815 6.8804016 20.394623 6.8804016L20.394623 6.8804016L20.394623 6.8804016C 27.981934 6.8804016 34.13269 14.829178 34.13269 24.634476L34.13269 24.634476L34.13269 24.634476C 34.13269 34.439774 27.981934 42.38855 20.394623 42.38855" stroke="none" fill="#004900" fill-rule="evenodd" />
    <path id=""  transform="matrix(1 0 0 -1 0 225)"  d="M119.947754 35.01851L119.947754 35.01851L119.947754 35.01851L23.067932 35.01851" stroke="#004900" stroke-width="39.56521" stroke-linecap="square" fill="none" />
    <path id=""  transform="matrix(1 0 0 -1 0 225)"  d="M22.629272 41.48703C 19.173798 41.48703 16.37259 38.590958 16.37259 35.01848L16.37259 35.01848L16.37259 35.01848C 16.37259 31.446 19.173798 28.549927 22.629272 28.549927L22.629272 28.549927L22.629272 28.549927C 26.084778 28.549927 28.885986 31.446 28.885986 35.01848L28.885986 35.01848L28.885986 35.01848C 28.885986 38.590958 26.084778 41.48703 22.629272 41.48703" stroke="none" fill="#FFFFFF" fill-rule="evenodd" />
    <path id=""  transform="matrix(1 0 0 -1 0 225)"  d="M68.595215 169.79506L68.595215 169.79506L68.595215 169.79506L68.54974 122.41377" stroke="#004900" stroke-width="26.088644" stroke-linecap="square" fill="none" />
    <path id=""  transform="matrix(1 0 0 -1 0 225)"  d="M96.07703 134.75679L96.07703 134.75679L96.07703 134.75679L86.397644 172.2736" stroke="#004900" stroke-width="34.78486" stroke-linecap="square" fill="none" />
    <path id=""  transform="matrix(1 0 0 -1 0 225)"  d="M121.64496 175.36226L121.64496 175.36226L121.64496 175.36226L56.881287 97.01601" stroke="#004900" stroke-width="33.75" stroke-linecap="square" fill="none" />
    <path id=""  transform="matrix(1 0 0 -1 0 225)"  d="M20.394623 217.4932C 12.8072815 217.4932 6.656555 209.54443 6.656555 199.73914L6.656555 199.73914L6.656555 199.73914C 6.656555 189.93382 12.8072815 181.98506 20.394623 181.98506L20.394623 181.98506L20.394623 181.98506C 27.981934 181.98506 34.13269 189.93382 34.13269 199.73914L34.13269 199.73914L34.13269 199.73914C 34.13269 209.54443 27.981934 217.4932 20.394623 217.4932" stroke="none" fill="#004900" fill-rule="evenodd" />
    <path id=""  transform="matrix(1 0 0 -1 0 225)"  d="M20.394623 196.65674C 12.8072815 196.65674 6.656555 188.70796 6.656555 178.90266L6.656555 178.90266L6.656555 178.90266C 6.656555 169.09737 12.8072815 161.14859 20.394623 161.14859L20.394623 161.14859L20.394623 161.14859C 27.981934 161.14859 34.13269 169.09737 34.13269 178.90266L34.13269 178.90266L34.13269 178.90266C 34.13269 188.70796 27.981934 196.65674 20.394623 196.65674" stroke="none" fill="#004900" fill-rule="evenodd" />
    <path id=""  transform="matrix(1 0 0 -1 0 225)"  d="M127.84857 218.36847C 120.26123 218.36847 114.11047 210.41971 114.11047 200.6144L114.11047 200.6144L114.11047 200.6144C 114.11047 190.8091 120.26123 182.86032 127.84857 182.86032L127.84857 182.86032L127.84857 182.86032C 135.43591 182.86032 141.58667 190.8091 141.58667 200.6144L141.58667 200.6144L141.58667 200.6144C 141.58667 210.41971 135.43591 218.36847 127.84857 218.36847" stroke="none" fill="#004900" fill-rule="evenodd" />
    <path id=""  transform="matrix(1 0 0 -1 0 225)"  d="M119.947754 189.2867L119.947754 189.2867L119.947754 189.2867L23.067932 189.2867" stroke="#004900" stroke-width="39.56521" stroke-linecap="square" fill="none" />
    <path id=""  transform="matrix(1 0 0 -1 0 225)"  d="M22.629272 195.75522C 19.173798 195.75522 16.37259 192.85915 16.37259 189.28667L16.37259 189.28667L16.37259 189.28667C 16.37259 185.71419 19.173798 182.81812 22.629272 182.81812L22.629272 182.81812L22.629272 182.81812C 26.084778 182.81812 28.885986 185.71419 28.885986 189.28667L28.885986 189.28667L28.885986 189.28667C 28.885986 192.85915 26.084778 195.75522 22.629272 195.75522" stroke="none" fill="#FFFFFF" fill-rule="evenodd" />
    <path id=""  transform="matrix(1 0 0 -1 0 225)"  d="M127.84857 195.48972C 120.26123 195.48972 114.11047 187.54095 114.11047 177.73566L114.11047 177.73566L114.11047 177.73566C 114.11047 167.93034 120.26123 159.98158 127.84857 159.98158L127.84857 159.98158L127.84857 159.98158C 135.43591 159.98158 141.58667 167.93034 141.58667 177.73566L141.58667 177.73566L141.58667 177.73566C 141.58667 187.54095 135.43591 195.48972 127.84857 195.48972" stroke="none" fill="#004900" fill-rule="evenodd" />
    <path id=""  transform="matrix(1 0 0 -1 0 225)"  d="M69.60248 204.66435C 59.52301 204.66435 51.35199 194.10474 51.35199 181.0788L51.35199 181.0788L51.35199 181.0788C 51.35199 168.05284 59.52301 157.49323 69.60248 157.49323L69.60248 157.49323L69.60248 157.49323C 79.681946 157.49323 87.85297 168.05284 87.85297 181.0788L87.85297 181.0788L87.85297 181.0788C 87.85297 194.10474 79.681946 204.66435 69.60248 204.66435" stroke="none" fill="#004900" fill-rule="evenodd" />
    <path id=""  transform="matrix(1 0 0 -1 0 225)"  d="M69.60248 220.97353C 59.52301 220.97353 51.35199 210.41391 51.35199 197.38795L51.35199 197.38795L51.35199 197.38795C 51.35199 184.36201 59.52301 173.8024 69.60248 173.8024L69.60248 173.8024L69.60248 173.8024C 79.681946 173.8024 87.85297 184.36201 87.85297 197.38795L87.85297 197.38795L87.85297 197.38795C 87.85297 210.41391 79.681946 220.97353 69.60248 220.97353" stroke="none" fill="#004900" fill-rule="evenodd" />
    <path id=""  transform="matrix(1 0 0 -1 0 225)"  d="M24.20514 189.2867L24.20514 189.2867L24.20514 189.2867L51.427734 189.2867" stroke="#FFFFFF" stroke-width="9" stroke-linecap="square" fill="none" />
    <path id=""  transform="matrix(1 0 0 -1 0 225)"  d="M90.270874 189.2867L90.270874 189.2867L90.270874 189.2867L123.88959 189.2867" stroke="#FFFFFF" stroke-width="9" stroke-linecap="square" fill="none" />
    <path id=""  transform="matrix(1 0 0 -1 0 225)"  d="M78.94476 196.01732C 74.31152 192.97565 74.51123 184.82419 78.94476 182.26428" stroke="#FFFFFF" stroke-width="7.5" stroke-linecap="square" fill="none" />
    <path id=""  transform="matrix(1 0 0 -1 0 225)"  d="M65.7901 196.01732C 61.15686 192.97565 61.356506 184.82419 65.7901 182.26428" stroke="#FFFFFF" stroke-width="7.5" stroke-linecap="square" fill="none" />
    <path id=""  transform="matrix(1 0 0 -1 0 225)"  d="M68.595215 55.02986L68.595215 55.02986L68.595215 55.02986L68.54974 102.41115" stroke="#004900" stroke-width="26.088644" stroke-linecap="square" fill="none" />
    <path id=""  transform="matrix(1 0 0 -1 0 225)"  d="M127.84857 41.221542C 120.26123 41.221542 114.11047 33.272766 114.11047 23.467468L114.11047 23.467468L114.11047 23.467468C 114.11047 13.66217 120.26123 5.713394 127.84857 5.713394L127.84857 5.713394L127.84857 5.713394C 135.43591 5.713394 141.58667 13.66217 141.58667 23.467468L141.58667 23.467468L141.58667 23.467468C 141.58667 33.272766 135.43591 41.221542 127.84857 41.221542" stroke="none" fill="#004900" fill-rule="evenodd" />
    <path id=""  transform="matrix(1 0 0 -1 0 225)"  d="M121.64496 49.46266L121.64496 49.46266L121.64496 49.46266L56.881287 127.808914" stroke="#004900" stroke-width="33.75" stroke-linecap="square" fill="none" />
    <path id=""  transform="matrix(1 0 0 -1 0 225)"  d="M69.60248 50.396164C 59.52301 50.396164 51.35199 39.836533 51.35199 26.810593L51.35199 26.810593L51.35199 26.810593C 51.35199 13.784653 59.52301 3.2250214 69.60248 3.2250214L69.60248 3.2250214L69.60248 3.2250214C 79.681946 3.2250214 87.85297 13.784653 87.85297 26.810593L87.85297 26.810593L87.85297 26.810593C 87.85297 39.836533 79.681946 50.396164 69.60248 50.396164" stroke="none" fill="#004900" fill-rule="evenodd" />
    <path id=""  transform="matrix(1 0 0 -1 0 225)"  d="M42.99774 133.2732C 42.42444 133.2732 41.959717 132.94641 41.959717 132.5433L41.959717 132.5433L41.959717 132.5433L41.959717 132.5433L41.959717 92.565765L41.959717 92.565765L41.959717 92.565765C 41.959717 92.16266 42.42444 91.83588 42.99774 91.83588L42.99774 91.83588L41.959717 92.565765C 41.959717 92.16266 42.42444 91.83588 42.99774 91.83588L42.99774 91.83588L42.99774 91.83588L42.99774 91.83588L96.45239 91.83588L96.45239 91.83588L96.45239 91.83588C 97.025696 91.83588 97.49042 92.16266 97.49042 92.565765L97.49042 92.565765L96.45239 91.83588C 97.025696 91.83588 97.49042 92.16266 97.49042 92.565765L97.49042 92.565765L97.49042 92.565765L97.49042 92.565765L97.49042 132.5433L97.49042 132.5433L97.49042 132.5433C 97.49042 132.94641 97.025696 133.2732 96.45239 133.2732L96.45239 133.2732L97.49042 132.5433C 97.49042 132.94641 97.025696 133.2732 96.45239 133.2732L96.45239 133.2732L96.45239 133.2732L96.45239 133.2732L42.99774 133.2732L42.99774 133.2732L42.99774 133.2732C 42.42444 133.2732 41.959717 132.94641 41.959717 132.5433z" stroke="none" fill="#004900" fill-rule="nonzero" />
    <path id=""  transform="matrix(1 0 0 -1 0 225)"  d="M83.7984 138.371L83.7984 138.371L83.7984 138.371L88.92316 133.13414" stroke="#FFFFFF" stroke-width="9" stroke-linecap="square" fill="none" />
    <path id=""  transform="matrix(1 0 0 -1 0 225)"  d="M75.64783 122.62903L75.64783 122.62903L75.64783 122.62903L67.68005 112.5916L67.68005 112.5916L56.562866 112.554474" stroke="#FFFFFF" stroke-width="9" stroke-linecap="square" fill="none" />
    <path id=""  transform="matrix(1 0 0 -1 0 225)"  d="M96.07703 90.06813L96.07703 90.06813L96.07703 90.06813L86.397644 52.551315" stroke="#004900" stroke-width="34.78486" stroke-linecap="square" fill="none" />
    <path id=""  transform="matrix(1 0 0 -1 0 225)"  d="M24.20514 35.01851L24.20514 35.01851L24.20514 35.01851L51.427734 35.01851" stroke="#FFFFFF" stroke-width="9" stroke-linecap="square" fill="none" />
    <path id=""  transform="matrix(1 0 0 -1 0 225)"  d="M116.87433 52.1147L116.87433 52.1147L116.87433 52.1147L96.57739 76.85121" stroke="#FFFFFF" stroke-width="9" stroke-linecap="square" fill="none" />
    <path id=""  transform="matrix(1 0 0 -1 0 225)"  d="M90.270874 35.01851L90.270874 35.01851L90.270874 35.01851L123.88959 35.01851" stroke="#FFFFFF" stroke-width="9" stroke-linecap="square" fill="none" />
    <path id=""  transform="matrix(1 0 0 -1 0 225)"  d="M78.94476 41.74913C 74.31152 38.707474 74.51123 30.556 78.94476 27.996109" stroke="#FFFFFF" stroke-width="7.5" stroke-linecap="square" fill="none" />
    <path id=""  transform="matrix(1 0 0 -1 0 225)"  d="M65.7901 41.74913C 61.15686 38.707474 61.356506 30.556 65.7901 27.996109" stroke="#FFFFFF" stroke-width="7.5" stroke-linecap="square" fill="none" />
    <path id=""  transform="matrix(1 0 0 -1 0 225)"  d="M83.74225 86.510056L83.74225 86.510056L83.74225 86.510056L88.97925 91.63466" stroke="#FFFFFF" stroke-width="9" stroke-linecap="square" fill="none" />
    <path id=""  transform="matrix(1 0 0 -1 0 225)"  d="M81.979065 62.69609L81.979065 62.69609L81.979065 62.69609L73.864624 72.82588" stroke="#FFFFFF" stroke-width="9" stroke-linecap="square" fill="none" />
    <path id=""  transform="matrix(1 0 0 -1 0 225)"  d="M75.64783 102.19589L75.64783 102.19589L75.64783 102.19589L67.68005 112.23332L67.68005 112.23332L56.562866 112.27037" stroke="#FFFFFF" stroke-width="9" stroke-linecap="square" fill="none" />
    <path id=""  transform="matrix(1 0 0 -1 0 225)"  d="M116.87433 172.71022L116.87433 172.71022L116.87433 172.71022L96.57739 147.97372" stroke="#FFFFFF" stroke-width="9" stroke-linecap="square" fill="none" />
    <path id=""  transform="matrix(1 0 0 -1 0 225)"  d="M81.979065 162.12883L81.979065 162.12883L81.979065 162.12883L73.864624 151.99904" stroke="#FFFFFF" stroke-width="9" stroke-linecap="square" fill="none" />
	</g>
</g>
</svg>