<?xml version="1.0" standalone="no"?>
<!DOCTYPE svg PUBLIC "-//W3C//DTD SVG 1.0//EN" "http://www.w3.org/TR/2001/REC-SVG-20010904/DTD/svg10.dtd">
<svg xmlns="http://www.w3.org/2000/svg" xmlns:xlink="http://www.w3.org/1999/xlink" id="body_1" width="400" height="300">

<defs>
    <clipPath  id="1">

    <path id=""  clip-rule="evenodd" transform="matrix(1 0 0 1 0 0)"  d="M0 0L300 0L300 0L300 225L300 225L1.3777277E-14 225L1.3777277E-14 225L0 0z" />    </clipPath>
</defs>

<g transform="matrix(1.3333 0 0 1.3333 0 0)">
	<g clip-path="url(#1)" >
    <path id=""  transform="matrix(1 0 0 -1 0 225)"  d="M280.53418 107.13153C 283.725 107.13153 286.44855 108.605255 288.70486 111.552765L288.70486 111.552765L288.70486 111.552765C 290.96112 114.500244 292.08926 118.0582 292.08926 122.22659L292.08926 122.22659L292.08926 122.22659C 292.08926 126.39499 290.96112 129.95288 288.70486 132.90039L288.70486 132.90039L288.70486 132.90039C 286.44855 135.8479 283.725 137.32166 280.53418 137.32166L280.53418 137.32166L280.53418 137.32166C 277.3433 137.32166 274.61972 135.8479 272.3635 132.90039L272.3635 132.90039L272.3635 132.90039C 270.10718 129.95288 268.97906 126.39499 268.97906 122.22659L268.97906 122.22659L268.97906 122.22659C 268.97906 118.0582 270.10718 114.500244 272.3635 111.552765L272.3635 111.552765L272.3635 111.552765C 274.61972 108.605255 277.3433 107.13153 280.53418 107.13153" stroke="none" fill="#B93C3C" fill-rule="evenodd" />
    <path id=""  transform="matrix(1 0 0 -1 0 225)"  d="M280.53418 87.644165C 283.725 87.644165 286.44855 89.11789 288.70486 92.0654L288.70486 92.0654L288.70486 92.0654C 290.96112 95.01288 292.08926 98.5708 292.08926 102.7392L292.08926 102.7392L292.08926 102.7392C 292.08926 106.90756 290.96112 110.465515 288.70486 113.413025L288.70486 113.413025L288.70486 113.413025C 286.44855 116.36047 283.725 117.83426 280.53418 117.83426L280.53418 117.83426L280.53418 117.83426C 277.3433 117.83426 274.61972 116.36047 272.3635 113.413025L272.3635 113.413025L272.3635 113.413025C 270.10718 110.465515 268.97906 106.90756 268.97906 102.7392L268.97906 102.7392L268.97906 102.7392C 268.97906 98.5708 270.10718 95.01288 272.3635 92.0654L272.3635 92.0654L272.3635 92.0654C 274.61972 89.11789 277.3433 87.644165 280.53418 87.644165" stroke="none" fill="#B93C3C" fill-rule="evenodd" />
    <path id=""  transform="matrix(1 0 0 -1 0 225)"  d="M218.58612 107.950165C 221.77692 107.950165 224.50049 109.42389 226.75677 112.3714L226.75677 112.3714L226.75677 112.3714C 229.01306 115.31885 230.14124 118.8768 230.14124 123.0452L230.14124 123.0452L230.14124 123.0452C 230.14124 127.21356 229.01306 130.77151 226.75677 133.71902L226.75677 133.71902L226.75677 133.71902C 224.50049 136.66647 221.77692 138.14026 218.58612 138.14026L218.58612 138.14026L218.58612 138.14026C 215.39526 138.14026 212.67169 136.66647 210.4154 133.71902L210.4154 133.71902L210.4154 133.71902C 208.15912 130.77151 207.031 127.21356 207.031 123.0452L207.031 123.0452L207.031 123.0452C 207.031 118.8768 208.15912 115.31885 210.4154 112.3714L210.4154 112.3714L210.4154 112.3714C 212.67169 109.42389 215.39526 107.950165 218.58612 107.950165" stroke="none" fill="#B93C3C" fill-rule="evenodd" />
    <path id=""  transform="matrix(1 0 0 -1 0 225)"  d="M220.52527 112.4509L220.52527 112.4509L220.52527 112.4509L282.10794 112.4509" stroke="#B93C3C" stroke-width="32.743744" stroke-linecap="square" fill="none" />
    <path id=""  transform="matrix(1 0 0 -1 0 225)"  d="M218.58612 86.552734C 221.77692 86.552734 224.50049 88.02646 226.75677 90.97397L226.75677 90.97397L226.75677 90.97397C 229.01306 93.92148 230.14124 97.47937 230.14124 101.647766L230.14124 101.647766L230.14124 101.647766C 230.14124 105.81613 229.01306 109.374084 226.75677 112.321594L226.75677 112.321594L226.75677 112.321594C 224.50049 115.269104 221.77692 116.74283 218.58612 116.74283L218.58612 116.74283L218.58612 116.74283C 215.39526 116.74283 212.67169 115.269104 210.4154 112.321594L210.4154 112.321594L210.4154 112.321594C 208.15912 109.374084 207.031 105.81613 207.031 101.647766L207.031 101.647766L207.031 101.647766C 207.031 97.47937 208.15912 93.92148 210.4154 90.97397L210.4154 90.97397L210.4154 90.97397C 212.67169 88.02646 215.39526 86.552734 218.58612 86.552734" stroke="none" fill="#B93C3C" fill-rule="evenodd" />
    <path id=""  transform="matrix(1 0 0 -1 0 225)"  d="M251.14825 86.392334C 255.0339 86.392334 258.35056 88.18701 261.09814 91.77637L261.09814 91.77637L261.09814 91.77637C 263.84573 95.36566 265.21954 99.698364 265.21954 104.774445L265.21954 104.774445L265.21954 104.774445C 265.21954 109.850525 263.84573 114.1832 261.09814 117.77255L261.09814 117.77255L261.09814 117.77255C 258.35056 121.36188 255.0339 123.156555 251.14825 123.156555L251.14825 123.156555L251.14825 123.156555C 247.26251 123.156555 243.94586 121.36188 241.19833 117.77255L241.19833 117.77255L241.19833 117.77255C 238.45074 114.1832 237.07693 109.850525 237.07693 104.774445L237.07693 104.774445L237.07693 104.774445C 237.07693 99.698364 238.45074 95.36566 241.19833 91.77637L241.19833 91.77637L241.19833 91.77637C 243.94586 88.18701 247.26251 86.392334 251.14825 86.392334" stroke="none" fill="#B93C3C" fill-rule="evenodd" />
    <path id=""  transform="matrix(1 0 0 -1 0 225)"  d="M251.14825 101.64554C 255.0339 101.64554 258.35056 103.440186 261.09814 107.02954L261.09814 107.02954L261.09814 107.02954C 263.84573 110.618835 265.21954 114.95154 265.21954 120.02762L265.21954 120.02762L265.21954 120.02762C 265.21954 125.10373 263.84573 129.43637 261.09814 133.02573L261.09814 133.02573L261.09814 133.02573C 258.35056 136.61505 255.0339 138.40973 251.14825 138.40973L251.14825 138.40973L251.14825 138.40973C 247.26251 138.40973 243.94586 136.61505 241.19833 133.02573L241.19833 133.02573L241.19833 133.02573C 238.45074 129.43637 237.07693 125.10373 237.07693 120.02762L237.07693 120.02762L237.07693 120.02762C 237.07693 114.95154 238.45074 110.618835 241.19833 107.02954L241.19833 107.02954L241.19833 107.02954C 243.94586 103.440186 247.26251 101.64554 251.14825 101.64554" stroke="none" fill="#B93C3C" fill-rule="evenodd" />
    <path id=""  transform="matrix(1 0 0 -1 0 225)"  d="M283.20688 112.5751L283.20688 112.5751L283.20688 112.5751L263.67194 112.5751" stroke="#FFFFFF" stroke-width="9.429407" stroke-linecap="square" fill="none" />
    <path id=""  transform="matrix(1 0 0 -1 0 225)"  d="M238.94937 112.5751L238.94937 112.5751L238.94937 112.5751L220.44122 112.5751" stroke="#FFFFFF" stroke-width="9.429407" stroke-linecap="square" fill="none" />
    <path id=""  transform="matrix(1 0 0 -1 0 225)"  d="M251.46884 113.13968L251.46884 113.13968L251.46884 113.13968L251.46884 112.004364" stroke="#FFFFFF" stroke-width="9.429407" stroke-linecap="square" fill="none" />
    <path id=""  transform="matrix(1 0 0 -1 0 225)"  d="M80.30151 185.63287C 83.49234 185.63287 86.21588 187.1066 88.4722 190.05411L88.4722 190.05411L88.4722 190.05411C 90.728455 193.00159 91.8566 196.55954 91.8566 200.72794L91.8566 200.72794L91.8566 200.72794C 91.8566 204.89633 90.728455 208.45422 88.4722 211.40173L88.4722 211.40173L88.4722 211.40173C 86.21588 214.34924 83.49234 215.823 80.30151 215.823L80.30151 215.823L80.30151 215.823C 77.11063 215.823 74.387054 214.34924 72.13083 211.40173L72.13083 211.40173L72.13083 211.40173C 69.87451 208.45422 68.7464 204.89633 68.7464 200.72794L68.7464 200.72794L68.7464 200.72794C 68.7464 196.55954 69.87451 193.00159 72.13083 190.05411L72.13083 190.05411L72.13083 190.05411C 74.387054 187.1066 77.11063 185.63287 80.30151 185.63287" stroke="none" fill="#004900" fill-rule="evenodd" />
    <path id=""  transform="matrix(1 0 0 -1 0 225)"  d="M80.30151 166.14551C 83.49234 166.14551 86.21588 167.61923 88.4722 170.56674L88.4722 170.56674L88.4722 170.56674C 90.728455 173.51422 91.8566 177.07214 91.8566 181.24054L91.8566 181.24054L91.8566 181.24054C 91.8566 185.4089 90.728455 188.96686 88.4722 191.91437L88.4722 191.91437L88.4722 191.91437C 86.21588 194.86182 83.49234 196.3356 80.30151 196.3356L80.30151 196.3356L80.30151 196.3356C 77.11063 196.3356 74.387054 194.86182 72.13083 191.91437L72.13083 191.91437L72.13083 191.91437C 69.87451 188.96686 68.7464 185.4089 68.7464 181.24054L68.7464 181.24054L68.7464 181.24054C 68.7464 177.07214 69.87451 173.51422 72.13083 170.56674L72.13083 170.56674L72.13083 170.56674C 74.387054 167.61923 77.11063 166.14551 80.30151 166.14551" stroke="none" fill="#004900" fill-rule="evenodd" />
    <path id=""  transform="matrix(1 0 0 -1 0 225)"  d="M18.353455 186.4515C 21.54425 186.4515 24.267822 187.92523 26.524109 190.87274L26.524109 190.87274L26.524109 190.87274C 28.780396 193.82019 29.90857 197.37814 29.90857 201.54654L29.90857 201.54654L29.90857 201.54654C 29.90857 205.7149 28.780396 209.27286 26.524109 212.22037L26.524109 212.22037L26.524109 212.22037C 24.267822 215.16782 21.54425 216.6416 18.353455 216.6416L18.353455 216.6416L18.353455 216.6416C 15.162598 216.6416 12.439026 215.16782 10.182739 212.22037L10.182739 212.22037L10.182739 212.22037C 7.9264526 209.27286 6.79834 205.7149 6.79834 201.54654L6.79834 201.54654L6.79834 201.54654C 6.79834 197.37814 7.9264526 193.82019 10.182739 190.87274L10.182739 190.87274L10.182739 190.87274C 12.439026 187.92523 15.162598 186.4515 18.353455 186.4515" stroke="none" fill="#004900" fill-rule="evenodd" />
    <path id=""  transform="matrix(1 0 0 -1 0 225)"  d="M20.292603 190.95224L20.292603 190.95224L20.292603 190.95224L81.875275 190.95224" stroke="#004900" stroke-width="32.743744" stroke-linecap="square" fill="none" />
    <path id=""  transform="matrix(1 0 0 -1 0 225)"  d="M18.353455 165.05408C 21.54425 165.05408 24.267822 166.5278 26.524109 169.47531L26.524109 169.47531L26.524109 169.47531C 28.780396 172.42282 29.90857 175.98071 29.90857 180.14911L29.90857 180.14911L29.90857 180.14911C 29.90857 184.31747 28.780396 187.87543 26.524109 190.82294L26.524109 190.82294L26.524109 190.82294C 24.267822 193.77045 21.54425 195.24417 18.353455 195.24417L18.353455 195.24417L18.353455 195.24417C 15.162598 195.24417 12.439026 193.77045 10.182739 190.82294L10.182739 190.82294L10.182739 190.82294C 7.9264526 187.87543 6.79834 184.31747 6.79834 180.14911L6.79834 180.14911L6.79834 180.14911C 6.79834 175.98071 7.9264526 172.42282 10.182739 169.47531L10.182739 169.47531L10.182739 169.47531C 12.439026 166.5278 15.162598 165.05408 18.353455 165.05408" stroke="none" fill="#004900" fill-rule="evenodd" />
    <path id=""  transform="matrix(1 0 0 -1 0 225)"  d="M50.91559 164.89368C 54.80124 164.89368 58.11789 166.68835 60.86548 170.27771L60.86548 170.27771L60.86548 170.27771C 63.613068 173.867 64.98688 178.1997 64.98688 183.27579L64.98688 183.27579L64.98688 183.27579C 64.98688 188.35187 63.613068 192.68454 60.86548 196.2739L60.86548 196.2739L60.86548 196.2739C 58.11789 199.86322 54.80124 201.6579 50.91559 201.6579L50.91559 201.6579L50.91559 201.6579C 47.029846 201.6579 43.713196 199.86322 40.965668 196.2739L40.965668 196.2739L40.965668 196.2739C 38.21808 192.68454 36.84427 188.35187 36.84427 183.27579L36.84427 183.27579L36.84427 183.27579C 36.84427 178.1997 38.21808 173.867 40.965668 170.27771L40.965668 170.27771L40.965668 170.27771C 43.713196 166.68835 47.029846 164.89368 50.91559 164.89368" stroke="none" fill="#004900" fill-rule="evenodd" />
    <path id=""  transform="matrix(1 0 0 -1 0 225)"  d="M50.91559 180.14688C 54.80124 180.14688 58.11789 181.94153 60.86548 185.53088L60.86548 185.53088L60.86548 185.53088C 63.613068 189.12018 64.98688 193.45288 64.98688 198.52896L64.98688 198.52896L64.98688 198.52896C 64.98688 203.60507 63.613068 207.93771 60.86548 211.52707L60.86548 211.52707L60.86548 211.52707C 58.11789 215.1164 54.80124 216.91107 50.91559 216.91107L50.91559 216.91107L50.91559 216.91107C 47.029846 216.91107 43.713196 215.1164 40.965668 211.52707L40.965668 211.52707L40.965668 211.52707C 38.21808 207.93771 36.84427 203.60507 36.84427 198.52896L36.84427 198.52896L36.84427 198.52896C 36.84427 193.45288 38.21808 189.12018 40.965668 185.53088L40.965668 185.53088L40.965668 185.53088C 43.713196 181.94153 47.029846 180.14688 50.91559 180.14688" stroke="none" fill="#004900" fill-rule="evenodd" />
    <path id=""  transform="matrix(1 0 0 -1 0 225)"  d="M82.97421 191.07645L82.97421 191.07645L82.97421 191.07645L63.43927 191.07645" stroke="#FFFFFF" stroke-width="9.429407" stroke-linecap="square" fill="none" />
    <path id=""  transform="matrix(1 0 0 -1 0 225)"  d="M38.716705 191.07645L38.716705 191.07645L38.716705 191.07645L20.208557 191.07645" stroke="#FFFFFF" stroke-width="9.429407" stroke-linecap="square" fill="none" />
    <path id=""  transform="matrix(1 0 0 -1 0 225)"  d="M51.236176 191.64102L51.236176 191.64102L51.236176 191.64102L51.236176 190.5057" stroke="#FFFFFF" stroke-width="9.429407" stroke-linecap="square" fill="none" />
    <path id=""  transform="matrix(1 0 0 -1 0 225)"  d="M80.30151 29.308441C 83.49234 29.308441 86.21588 30.782166 88.4722 33.729675L88.4722 33.729675L88.4722 33.729675C 90.728455 36.677155 91.8566 40.235107 91.8566 44.403503L91.8566 44.403503L91.8566 44.403503C 91.8566 48.5719 90.728455 52.12979 88.4722 55.0773L88.4722 55.0773L88.4722 55.0773C 86.21588 58.02481 83.49234 59.498566 80.30151 59.498566L80.30151 59.498566L80.30151 59.498566C 77.11063 59.498566 74.387054 58.02481 72.13083 55.0773L72.13083 55.0773L72.13083 55.0773C 69.87451 52.12979 68.7464 48.5719 68.7464 44.403503L68.7464 44.403503L68.7464 44.403503C 68.7464 40.235107 69.87451 36.677155 72.13083 33.729675L72.13083 33.729675L72.13083 33.729675C 74.387054 30.782166 77.11063 29.308441 80.30151 29.308441" stroke="none" fill="#004900" fill-rule="evenodd" />
    <path id=""  transform="matrix(1 0 0 -1 0 225)"  d="M80.30151 9.821075C 83.49234 9.821075 86.21588 11.2948 88.4722 14.24231L88.4722 14.24231L88.4722 14.24231C 90.728455 17.189789 91.8566 20.747711 91.8566 24.916107L91.8566 24.916107L91.8566 24.916107C 91.8566 29.084473 90.728455 32.642426 88.4722 35.589935L88.4722 35.589935L88.4722 35.589935C 86.21588 38.537384 83.49234 40.01117 80.30151 40.01117L80.30151 40.01117L80.30151 40.01117C 77.11063 40.01117 74.387054 38.537384 72.13083 35.589935L72.13083 35.589935L72.13083 35.589935C 69.87451 32.642426 68.7464 29.084473 68.7464 24.916107L68.7464 24.916107L68.7464 24.916107C 68.7464 20.747711 69.87451 17.189789 72.13083 14.24231L72.13083 14.24231L72.13083 14.24231C 74.387054 11.2948 77.11063 9.821075 80.30151 9.821075" stroke="none" fill="#004900" fill-rule="evenodd" />
    <path id=""  transform="matrix(1 0 0 -1 0 225)"  d="M18.353455 30.127075C 21.54425 30.127075 24.267822 31.6008 26.524109 34.54831L26.524109 34.54831L26.524109 34.54831C 28.780396 37.495758 29.90857 41.05371 29.90857 45.222107L29.90857 45.222107L29.90857 45.222107C 29.90857 49.390472 28.780396 52.948425 26.524109 55.895935L26.524109 55.895935L26.524109 55.895935C 24.267822 58.843384 21.54425 60.31717 18.353455 60.31717L18.353455 60.31717L18.353455 60.31717C 15.162598 60.31717 12.439026 58.843384 10.182739 55.895935L10.182739 55.895935L10.182739 55.895935C 7.9264526 52.948425 6.79834 49.390472 6.79834 45.222107L6.79834 45.222107L6.79834 45.222107C 6.79834 41.05371 7.9264526 37.495758 10.182739 34.54831L10.182739 34.54831L10.182739 34.54831C 12.439026 31.6008 15.162598 30.127075 18.353455 30.127075" stroke="none" fill="#004900" fill-rule="evenodd" />
    <path id=""  transform="matrix(1 0 0 -1 0 225)"  d="M20.292603 34.627808L20.292603 34.627808L20.292603 34.627808L81.875275 34.627808" stroke="#004900" stroke-width="32.743744" stroke-linecap="square" fill="none" />
    <path id=""  transform="matrix(1 0 0 -1 0 225)"  d="M18.353455 8.729645C 21.54425 8.729645 24.267822 10.203369 26.524109 13.150879L26.524109 13.150879L26.524109 13.150879C 28.780396 16.098389 29.90857 19.65628 29.90857 23.824677L29.90857 23.824677L29.90857 23.824677C 29.90857 27.993042 28.780396 31.550995 26.524109 34.498505L26.524109 34.498505L26.524109 34.498505C 24.267822 37.446014 21.54425 38.91974 18.353455 38.91974L18.353455 38.91974L18.353455 38.91974C 15.162598 38.91974 12.439026 37.446014 10.182739 34.498505L10.182739 34.498505L10.182739 34.498505C 7.9264526 31.550995 6.79834 27.993042 6.79834 23.824677L6.79834 23.824677L6.79834 23.824677C 6.79834 19.65628 7.9264526 16.098389 10.182739 13.150879L10.182739 13.150879L10.182739 13.150879C 12.439026 10.203369 15.162598 8.729645 18.353455 8.729645" stroke="none" fill="#004900" fill-rule="evenodd" />
    <path id=""  transform="matrix(1 0 0 -1 0 225)"  d="M50.91559 8.569244C 54.80124 8.569244 58.11789 10.363922 60.86548 13.953278L60.86548 13.953278L60.86548 13.953278C 63.613068 17.542572 64.98688 21.875275 64.98688 26.951355L64.98688 26.951355L64.98688 26.951355C 64.98688 32.027435 63.613068 36.360107 60.86548 39.949463L60.86548 39.949463L60.86548 39.949463C 58.11789 43.538788 54.80124 45.333466 50.91559 45.333466L50.91559 45.333466L50.91559 45.333466C 47.029846 45.333466 43.713196 43.538788 40.965668 39.949463L40.965668 39.949463L40.965668 39.949463C 38.21808 36.360107 36.84427 32.027435 36.84427 26.951355L36.84427 26.951355L36.84427 26.951355C 36.84427 21.875275 38.21808 17.542572 40.965668 13.953278L40.965668 13.953278L40.965668 13.953278C 43.713196 10.363922 47.029846 8.569244 50.91559 8.569244" stroke="none" fill="#004900" fill-rule="evenodd" />
    <path id=""  transform="matrix(1 0 0 -1 0 225)"  d="M50.91559 23.822449C 54.80124 23.822449 58.11789 25.617096 60.86548 29.206451L60.86548 29.206451L60.86548 29.206451C 63.613068 32.795746 64.98688 37.12845 64.98688 42.20453L64.98688 42.20453L64.98688 42.20453C 64.98688 47.28064 63.613068 51.61328 60.86548 55.202637L60.86548 55.202637L60.86548 55.202637C 58.11789 58.79196 54.80124 60.58664 50.91559 60.58664L50.91559 60.58664L50.91559 60.58664C 47.029846 60.58664 43.713196 58.79196 40.965668 55.202637L40.965668 55.202637L40.965668 55.202637C 38.21808 51.61328 36.84427 47.28064 36.84427 42.20453L36.84427 42.20453L36.84427 42.20453C 36.84427 37.12845 38.21808 32.795746 40.965668 29.206451L40.965668 29.206451L40.965668 29.206451C 43.713196 25.617096 47.029846 23.822449 50.91559 23.822449" stroke="none" fill="#004900" fill-rule="evenodd" />
    <path id=""  transform="matrix(1 0 0 -1 0 225)"  d="M82.97421 34.752014L82.97421 34.752014L82.97421 34.752014L63.43927 34.752014" stroke="#FFFFFF" stroke-width="9.429407" stroke-linecap="square" fill="none" />
    <path id=""  transform="matrix(1 0 0 -1 0 225)"  d="M38.716705 34.752014L38.716705 34.752014L38.716705 34.752014L20.208557 34.752014" stroke="#FFFFFF" stroke-width="9.429407" stroke-linecap="square" fill="none" />
    <path id=""  transform="matrix(1 0 0 -1 0 225)"  d="M51.236176 35.31659L51.236176 35.31659L51.236176 35.31659L51.236176 34.181274" stroke="#FFFFFF" stroke-width="9.429407" stroke-linecap="square" fill="none" />
    <path id=""  transform="matrix(1 0 0 -1 0 225)"  d="M179.26947 185.63287C 182.4603 185.63287 185.18384 187.1066 187.44016 190.05411L187.44016 190.05411L187.44016 190.05411C 189.69641 193.00159 190.82455 196.55954 190.82455 200.72794L190.82455 200.72794L190.82455 200.72794C 190.82455 204.89633 189.69641 208.45422 187.44016 211.40173L187.44016 211.40173L187.44016 211.40173C 185.18384 214.34924 182.4603 215.823 179.26947 215.823L179.26947 215.823L179.26947 215.823C 176.07858 215.823 173.35501 214.34924 171.09879 211.40173L171.09879 211.40173L171.09879 211.40173C 168.84247 208.45422 167.71436 204.89633 167.71436 200.72794L167.71436 200.72794L167.71436 200.72794C 167.71436 196.55954 168.84247 193.00159 171.09879 190.05411L171.09879 190.05411L171.09879 190.05411C 173.35501 187.1066 176.07858 185.63287 179.26947 185.63287" stroke="none" fill="#004900" fill-rule="evenodd" />
    <path id=""  transform="matrix(1 0 0 -1 0 225)"  d="M179.26947 166.14551C 182.4603 166.14551 185.18384 167.61923 187.44016 170.56674L187.44016 170.56674L187.44016 170.56674C 189.69641 173.51422 190.82455 177.07214 190.82455 181.24054L190.82455 181.24054L190.82455 181.24054C 190.82455 185.4089 189.69641 188.96686 187.44016 191.91437L187.44016 191.91437L187.44016 191.91437C 185.18384 194.86182 182.4603 196.3356 179.26947 196.3356L179.26947 196.3356L179.26947 196.3356C 176.07858 196.3356 173.35501 194.86182 171.09879 191.91437L171.09879 191.91437L171.09879 191.91437C 168.84247 188.96686 167.71436 185.4089 167.71436 181.24054L167.71436 181.24054L167.71436 181.24054C 167.71436 177.07214 168.84247 173.51422 171.09879 170.56674L171.09879 170.56674L171.09879 170.56674C 173.35501 167.61923 176.07858 166.14551 179.26947 166.14551" stroke="none" fill="#004900" fill-rule="evenodd" />
    <path id=""  transform="matrix(1 0 0 -1 0 225)"  d="M117.32141 186.4515C 120.51221 186.4515 123.23578 187.92523 125.492065 190.87274L125.492065 190.87274L125.492065 190.87274C 127.74835 193.82019 128.87653 197.37814 128.87653 201.54654L128.87653 201.54654L128.87653 201.54654C 128.87653 205.7149 127.74835 209.27286 125.492065 212.22037L125.492065 212.22037L125.492065 212.22037C 123.23578 215.16782 120.51221 216.6416 117.32141 216.6416L117.32141 216.6416L117.32141 216.6416C 114.130554 216.6416 111.40698 215.16782 109.150696 212.22037L109.150696 212.22037L109.150696 212.22037C 106.89441 209.27286 105.7663 205.7149 105.7663 201.54654L105.7663 201.54654L105.7663 201.54654C 105.7663 197.37814 106.89441 193.82019 109.150696 190.87274L109.150696 190.87274L109.150696 190.87274C 111.40698 187.92523 114.130554 186.4515 117.32141 186.4515" stroke="none" fill="#004900" fill-rule="evenodd" />
    <path id=""  transform="matrix(1 0 0 -1 0 225)"  d="M119.26056 190.95224L119.26056 190.95224L119.26056 190.95224L180.84323 190.95224" stroke="#004900" stroke-width="32.743744" stroke-linecap="square" fill="none" />
    <path id=""  transform="matrix(1 0 0 -1 0 225)"  d="M117.32141 165.05408C 120.51221 165.05408 123.23578 166.5278 125.492065 169.47531L125.492065 169.47531L125.492065 169.47531C 127.74835 172.42282 128.87653 175.98071 128.87653 180.14911L128.87653 180.14911L128.87653 180.14911C 128.87653 184.31747 127.74835 187.87543 125.492065 190.82294L125.492065 190.82294L125.492065 190.82294C 123.23578 193.77045 120.51221 195.24417 117.32141 195.24417L117.32141 195.24417L117.32141 195.24417C 114.130554 195.24417 111.40698 193.77045 109.150696 190.82294L109.150696 190.82294L109.150696 190.82294C 106.89441 187.87543 105.7663 184.31747 105.7663 180.14911L105.7663 180.14911L105.7663 180.14911C 105.7663 175.98071 106.89441 172.42282 109.150696 169.47531L109.150696 169.47531L109.150696 169.47531C 111.40698 166.5278 114.130554 165.05408 117.32141 165.05408" stroke="none" fill="#004900" fill-rule="evenodd" />
    <path id=""  transform="matrix(1 0 0 -1 0 225)"  d="M149.88354 164.89368C 153.7692 164.89368 157.08585 166.68835 159.83344 170.27771L159.83344 170.27771L159.83344 170.27771C 162.58102 173.867 163.95483 178.1997 163.95483 183.27579L163.95483 183.27579L163.95483 183.27579C 163.95483 188.35187 162.58102 192.68454 159.83344 196.2739L159.83344 196.2739L159.83344 196.2739C 157.08585 199.86322 153.7692 201.6579 149.88354 201.6579L149.88354 201.6579L149.88354 201.6579C 145.9978 201.6579 142.68115 199.86322 139.93362 196.2739L139.93362 196.2739L139.93362 196.2739C 137.18604 192.68454 135.81223 188.35187 135.81223 183.27579L135.81223 183.27579L135.81223 183.27579C 135.81223 178.1997 137.18604 173.867 139.93362 170.27771L139.93362 170.27771L139.93362 170.27771C 142.68115 166.68835 145.9978 164.89368 149.88354 164.89368" stroke="none" fill="#004900" fill-rule="evenodd" />
    <path id=""  transform="matrix(1 0 0 -1 0 225)"  d="M149.88354 180.14688C 153.7692 180.14688 157.08585 181.94153 159.83344 185.53088L159.83344 185.53088L159.83344 185.53088C 162.58102 189.12018 163.95483 193.45288 163.95483 198.52896L163.95483 198.52896L163.95483 198.52896C 163.95483 203.60507 162.58102 207.93771 159.83344 211.52707L159.83344 211.52707L159.83344 211.52707C 157.08585 215.1164 153.7692 216.91107 149.88354 216.91107L149.88354 216.91107L149.88354 216.91107C 145.9978 216.91107 142.68115 215.1164 139.93362 211.52707L139.93362 211.52707L139.93362 211.52707C 137.18604 207.93771 135.81223 203.60507 135.81223 198.52896L135.81223 198.52896L135.81223 198.52896C 135.81223 193.45288 137.18604 189.12018 139.93362 185.53088L139.93362 185.53088L139.93362 185.53088C 142.68115 181.94153 145.9978 180.14688 149.88354 180.14688" stroke="none" fill="#004900" fill-rule="evenodd" />
    <path id=""  transform="matrix(1 0 0 -1 0 225)"  d="M181.94217 191.07645L181.94217 191.07645L181.94217 191.07645L162.40723 191.07645" stroke="#FFFFFF" stroke-width="9.429407" stroke-linecap="square" fill="none" />
    <path id=""  transform="matrix(1 0 0 -1 0 225)"  d="M137.68466 191.07645L137.68466 191.07645L137.68466 191.07645L119.17651 191.07645" stroke="#FFFFFF" stroke-width="9.429407" stroke-linecap="square" fill="none" />
    <path id=""  transform="matrix(1 0 0 -1 0 225)"  d="M150.20413 191.64102L150.20413 191.64102L150.20413 191.64102L150.20413 190.5057" stroke="#FFFFFF" stroke-width="9.429407" stroke-linecap="square" fill="none" />
    <path id=""  transform="matrix(1 0 0 -1 0 225)"  d="M179.26947 29.308441C 182.4603 29.308441 185.18384 30.782166 187.44016 33.729675L187.44016 33.729675L187.44016 33.729675C 189.69641 36.677155 190.82455 40.235107 190.82455 44.403503L190.82455 44.403503L190.82455 44.403503C 190.82455 48.5719 189.69641 52.12979 187.44016 55.0773L187.44016 55.0773L187.44016 55.0773C 185.18384 58.02481 182.4603 59.498566 179.26947 59.498566L179.26947 59.498566L179.26947 59.498566C 176.07858 59.498566 173.35501 58.02481 171.09879 55.0773L171.09879 55.0773L171.09879 55.0773C 168.84247 52.12979 167.71436 48.5719 167.71436 44.403503L167.71436 44.403503L167.71436 44.403503C 167.71436 40.235107 168.84247 36.677155 171.09879 33.729675L171.09879 33.729675L171.09879 33.729675C 173.35501 30.782166 176.07858 29.308441 179.26947 29.308441" stroke="none" fill="#004900" fill-rule="evenodd" />
    <path id=""  transform="matrix(1 0 0 -1 0 225)"  d="M179.26947 9.821075C 182.4603 9.821075 185.18384 11.2948 187.44016 14.24231L187.44016 14.24231L187.44016 14.24231C 189.69641 17.189789 190.82455 20.747711 190.82455 24.916107L190.82455 24.916107L190.82455 24.916107C 190.82455 29.084473 189.69641 32.642426 187.44016 35.589935L187.44016 35.589935L187.44016 35.589935C 185.18384 38.537384 182.4603 40.01117 179.26947 40.01117L179.26947 40.01117L179.26947 40.01117C 176.07858 40.01117 173.35501 38.537384 171.09879 35.589935L171.09879 35.589935L171.09879 35.589935C 168.84247 32.642426 167.71436 29.084473 167.71436 24.916107L167.71436 24.916107L167.71436 24.916107C 167.71436 20.747711 168.84247 17.189789 171.09879 14.24231L171.09879 14.24231L171.09879 14.24231C 173.35501 11.2948 176.07858 9.821075 179.26947 9.821075" stroke="none" fill="#004900" fill-rule="evenodd" />
    <path id=""  transform="matrix(1 0 0 -1 0 225)"  d="M117.32141 30.127075C 120.51221 30.127075 123.23578 31.6008 125.492065 34.54831L125.492065 34.54831L125.492065 34.54831C 127.74835 37.495758 128.87653 41.05371 128.87653 45.222107L128.87653 45.222107L128.87653 45.222107C 128.87653 49.390472 127.74835 52.948425 125.492065 55.895935L125.492065 55.895935L125.492065 55.895935C 123.23578 58.843384 120.51221 60.31717 117.32141 60.31717L117.32141 60.31717L117.32141 60.31717C 114.130554 60.31717 111.40698 58.843384 109.150696 55.895935L109.150696 55.895935L109.150696 55.895935C 106.89441 52.948425 105.7663 49.390472 105.7663 45.222107L105.7663 45.222107L105.7663 45.222107C 105.7663 41.05371 106.89441 37.495758 109.150696 34.54831L109.150696 34.54831L109.150696 34.54831C 111.40698 31.6008 114.130554 30.127075 117.32141 30.127075" stroke="none" fill="#004900" fill-rule="evenodd" />
    <path id=""  transform="matrix(1 0 0 -1 0 225)"  d="M119.26056 34.627808L119.26056 34.627808L119.26056 34.627808L180.84323 34.627808" stroke="#004900" stroke-width="32.743744" stroke-linecap="square" fill="none" />
    <path id=""  transform="matrix(1 0 0 -1 0 225)"  d="M117.32141 8.729645C 120.51221 8.729645 123.23578 10.203369 125.492065 13.150879L125.492065 13.150879L125.492065 13.150879C 127.74835 16.098389 128.87653 19.65628 128.87653 23.824677L128.87653 23.824677L128.87653 23.824677C 128.87653 27.993042 127.74835 31.550995 125.492065 34.498505L125.492065 34.498505L125.492065 34.498505C 123.23578 37.446014 120.51221 38.91974 117.32141 38.91974L117.32141 38.91974L117.32141 38.91974C 114.130554 38.91974 111.40698 37.446014 109.150696 34.498505L109.150696 34.498505L109.150696 34.498505C 106.89441 31.550995 105.7663 27.993042 105.7663 23.824677L105.7663 23.824677L105.7663 23.824677C 105.7663 19.65628 106.89441 16.098389 109.150696 13.150879L109.150696 13.150879L109.150696 13.150879C 111.40698 10.203369 114.130554 8.729645 117.32141 8.729645" stroke="none" fill="#004900" fill-rule="evenodd" />
    <path id=""  transform="matrix(1 0 0 -1 0 225)"  d="M149.88354 8.569244C 153.7692 8.569244 157.08585 10.363922 159.83344 13.953278L159.83344 13.953278L159.83344 13.953278C 162.58102 17.542572 163.95483 21.875275 163.95483 26.951355L163.95483 26.951355L163.95483 26.951355C 163.95483 32.027435 162.58102 36.360107 159.83344 39.949463L159.83344 39.949463L159.83344 39.949463C 157.08585 43.538788 153.7692 45.333466 149.88354 45.333466L149.88354 45.333466L149.88354 45.333466C 145.9978 45.333466 142.68115 43.538788 139.93362 39.949463L139.93362 39.949463L139.93362 39.949463C 137.18604 36.360107 135.81223 32.027435 135.81223 26.951355L135.81223 26.951355L135.81223 26.951355C 135.81223 21.875275 137.18604 17.542572 139.93362 13.953278L139.93362 13.953278L139.93362 13.953278C 142.68115 10.363922 145.9978 8.569244 149.88354 8.569244" stroke="none" fill="#004900" fill-rule="evenodd" />
    <path id=""  transform="matrix(1 0 0 -1 0 225)"  d="M149.88354 23.822449C 153.7692 23.822449 157.08585 25.617096 159.83344 29.206451L159.83344 29.206451L159.83344 29.206451C 162.58102 32.795746 163.95483 37.12845 163.95483 42.20453L163.95483 42.20453L163.95483 42.20453C 163.95483 47.28064 162.58102 51.61328 159.83344 55.202637L159.83344 55.202637L159.83344 55.202637C 157.08585 58.79196 153.7692 60.58664 149.88354 60.58664L149.88354 60.58664L149.88354 60.58664C 145.9978 60.58664 142.68115 58.79196 139.93362 55.202637L139.93362 55.202637L139.93362 55.202637C 137.18604 51.61328 135.81223 47.28064 135.81223 42.20453L135.81223 42.20453L135.81223 42.20453C 135.81223 37.12845 137.18604 32.795746 139.93362 29.206451L139.93362 29.206451L139.93362 29.206451C 142.68115 25.617096 145.9978 23.822449 149.88354 23.822449" stroke="none" fill="#004900" fill-rule="evenodd" />
    <path id=""  transform="matrix(1 0 0 -1 0 225)"  d="M181.94217 34.752014L181.94217 34.752014L181.94217 34.752014L162.40723 34.752014" stroke="#FFFFFF" stroke-width="9.429407" stroke-linecap="square" fill="none" />
    <path id=""  transform="matrix(1 0 0 -1 0 225)"  d="M137.68466 34.752014L137.68466 34.752014L137.68466 34.752014L119.17651 34.752014" stroke="#FFFFFF" stroke-width="9.429407" stroke-linecap="square" fill="none" />
    <path id=""  transform="matrix(1 0 0 -1 0 225)"  d="M150.20413 35.31659L150.20413 35.31659L150.20413 35.31659L150.20413 34.181274" stroke="#FFFFFF" stroke-width="9.429407" stroke-linecap="square" fill="none" />
    <path id=""  transform="matrix(1 0 0 -1 0 225)"  d="M179.26947 107.13153C 182.4603 107.13153 185.18384 108.605255 187.44016 111.552765L187.44016 111.552765L187.44016 111.552765C 189.69641 114.500244 190.82455 118.0582 190.82455 122.22659L190.82455 122.22659L190.82455 122.22659C 190.82455 126.39499 189.69641 129.95288 187.44016 132.90039L187.44016 132.90039L187.44016 132.90039C 185.18384 135.8479 182.4603 137.32166 179.26947 137.32166L179.26947 137.32166L179.26947 137.32166C 176.07858 137.32166 173.35501 135.8479 171.09879 132.90039L171.09879 132.90039L171.09879 132.90039C 168.84247 129.95288 167.71436 126.39499 167.71436 122.22659L167.71436 122.22659L167.71436 122.22659C 167.71436 118.0582 168.84247 114.500244 171.09879 111.552765L171.09879 111.552765L171.09879 111.552765C 173.35501 108.605255 176.07858 107.13153 179.26947 107.13153" stroke="none" fill="#B93C3C" fill-rule="evenodd" />
    <path id=""  transform="matrix(1 0 0 -1 0 225)"  d="M179.26947 87.644165C 182.4603 87.644165 185.18384 89.11789 187.44016 92.0654L187.44016 92.0654L187.44016 92.0654C 189.69641 95.01288 190.82455 98.5708 190.82455 102.7392L190.82455 102.7392L190.82455 102.7392C 190.82455 106.90756 189.69641 110.465515 187.44016 113.413025L187.44016 113.413025L187.44016 113.413025C 185.18384 116.36047 182.4603 117.83426 179.26947 117.83426L179.26947 117.83426L179.26947 117.83426C 176.07858 117.83426 173.35501 116.36047 171.09879 113.413025L171.09879 113.413025L171.09879 113.413025C 168.84247 110.465515 167.71436 106.90756 167.71436 102.7392L167.71436 102.7392L167.71436 102.7392C 167.71436 98.5708 168.84247 95.01288 171.09879 92.0654L171.09879 92.0654L171.09879 92.0654C 173.35501 89.11789 176.07858 87.644165 179.26947 87.644165" stroke="none" fill="#B93C3C" fill-rule="evenodd" />
    <path id=""  transform="matrix(1 0 0 -1 0 225)"  d="M117.32141 107.950165C 120.51221 107.950165 123.23578 109.42389 125.492065 112.3714L125.492065 112.3714L125.492065 112.3714C 127.74835 115.31885 128.87653 118.8768 128.87653 123.0452L128.87653 123.0452L128.87653 123.0452C 128.87653 127.21356 127.74835 130.77151 125.492065 133.71902L125.492065 133.71902L125.492065 133.71902C 123.23578 136.66647 120.51221 138.14026 117.32141 138.14026L117.32141 138.14026L117.32141 138.14026C 114.130554 138.14026 111.40698 136.66647 109.150696 133.71902L109.150696 133.71902L109.150696 133.71902C 106.89441 130.77151 105.7663 127.21356 105.7663 123.0452L105.7663 123.0452L105.7663 123.0452C 105.7663 118.8768 106.89441 115.31885 109.150696 112.3714L109.150696 112.3714L109.150696 112.3714C 111.40698 109.42389 114.130554 107.950165 117.32141 107.950165" stroke="none" fill="#B93C3C" fill-rule="evenodd" />
    <path id=""  transform="matrix(1 0 0 -1 0 225)"  d="M119.26056 112.4509L119.26056 112.4509L119.26056 112.4509L180.84323 112.4509" stroke="#B93C3C" stroke-width="32.743744" stroke-linecap="square" fill="none" />
    <path id=""  transform="matrix(1 0 0 -1 0 225)"  d="M117.32141 86.552734C 120.51221 86.552734 123.23578 88.02646 125.492065 90.97397L125.492065 90.97397L125.492065 90.97397C 127.74835 93.92148 128.87653 97.47937 128.87653 101.647766L128.87653 101.647766L128.87653 101.647766C 128.87653 105.81613 127.74835 109.374084 125.492065 112.321594L125.492065 112.321594L125.492065 112.321594C 123.23578 115.269104 120.51221 116.74283 117.32141 116.74283L117.32141 116.74283L117.32141 116.74283C 114.130554 116.74283 111.40698 115.269104 109.150696 112.321594L109.150696 112.321594L109.150696 112.321594C 106.89441 109.374084 105.7663 105.81613 105.7663 101.647766L105.7663 101.647766L105.7663 101.647766C 105.7663 97.47937 106.89441 93.92148 109.150696 90.97397L109.150696 90.97397L109.150696 90.97397C 111.40698 88.02646 114.130554 86.552734 117.32141 86.552734" stroke="none" fill="#B93C3C" fill-rule="evenodd" />
    <path id=""  transform="matrix(1 0 0 -1 0 225)"  d="M149.88354 86.392334C 153.7692 86.392334 157.08585 88.18701 159.83344 91.77637L159.83344 91.77637L159.83344 91.77637C 162.58102 95.36566 163.95483 99.698364 163.95483 104.774445L163.95483 104.774445L163.95483 104.774445C 163.95483 109.850525 162.58102 114.1832 159.83344 117.77255L159.83344 117.77255L159.83344 117.77255C 157.08585 121.36188 153.7692 123.156555 149.88354 123.156555L149.88354 123.156555L149.88354 123.156555C 145.9978 123.156555 142.68115 121.36188 139.93362 117.77255L139.93362 117.77255L139.93362 117.77255C 137.18604 114.1832 135.81223 109.850525 135.81223 104.774445L135.81223 104.774445L135.81223 104.774445C 135.81223 99.698364 137.18604 95.36566 139.93362 91.77637L139.93362 91.77637L139.93362 91.77637C 142.68115 88.18701 145.9978 86.392334 149.88354 86.392334" stroke="none" fill="#B93C3C" fill-rule="evenodd" />
    <path id=""  transform="matrix(1 0 0 -1 0 225)"  d="M149.88354 101.64554C 153.7692 101.64554 157.08585 103.440186 159.83344 107.02954L159.83344 107.02954L159.83344 107.02954C 162.58102 110.618835 163.95483 114.95154 163.95483 120.02762L163.95483 120.02762L163.95483 120.02762C 163.95483 125.10373 162.58102 129.43637 159.83344 133.02573L159.83344 133.02573L159.83344 133.02573C 157.08585 136.61505 153.7692 138.40973 149.88354 138.40973L149.88354 138.40973L149.88354 138.40973C 145.9978 138.40973 142.68115 136.61505 139.93362 133.02573L139.93362 133.02573L139.93362 133.02573C 137.18604 129.43637 135.81223 125.10373 135.81223 120.02762L135.81223 120.02762L135.81223 120.02762C 135.81223 114.95154 137.18604 110.618835 139.93362 107.02954L139.93362 107.02954L139.93362 107.02954C 142.68115 103.440186 145.9978 101.64554 149.88354 101.64554" stroke="none" fill="#B93C3C" fill-rule="evenodd" />
    <path id=""  transform="matrix(1 0 0 -1 0 225)"  d="M181.94217 112.5751L181.94217 112.5751L181.94217 112.5751L162.40723 112.5751" stroke="#FFFFFF" stroke-width="9.429407" stroke-linecap="square" fill="none" />
    <path id=""  transform="matrix(1 0 0 -1 0 225)"  d="M137.68466 112.5751L137.68466 112.5751L137.68466 112.5751L119.17651 112.5751" stroke="#FFFFFF" stroke-width="9.429407" stroke-linecap="square" fill="none" />
    <path id=""  transform="matrix(1 0 0 -1 0 225)"  d="M150.20413 113.13968L150.20413 113.13968L150.20413 113.13968L150.20413 112.004364" stroke="#FFFFFF" stroke-width="9.429407" stroke-linecap="square" fill="none" />
    <path id=""  transform="matrix(1 0 0 -1 0 225)"  d="M80.30151 107.13153C 83.49234 107.13153 86.21588 108.605255 88.4722 111.552765L88.4722 111.552765L88.4722 111.552765C 90.728455 114.500244 91.8566 118.0582 91.8566 122.22659L91.8566 122.22659L91.8566 122.22659C 91.8566 126.39499 90.728455 129.95288 88.4722 132.90039L88.4722 132.90039L88.4722 132.90039C 86.21588 135.8479 83.49234 137.32166 80.30151 137.32166L80.30151 137.32166L80.30151 137.32166C 77.11063 137.32166 74.387054 135.8479 72.13083 132.90039L72.13083 132.90039L72.13083 132.90039C 69.87451 129.95288 68.7464 126.39499 68.7464 122.22659L68.7464 122.22659L68.7464 122.22659C 68.7464 118.0582 69.87451 114.500244 72.13083 111.552765L72.13083 111.552765L72.13083 111.552765C 74.387054 108.605255 77.11063 107.13153 80.30151 107.13153" stroke="none" fill="#B93C3C" fill-rule="evenodd" />
    <path id=""  transform="matrix(1 0 0 -1 0 225)"  d="M80.30151 87.644165C 83.49234 87.644165 86.21588 89.11789 88.4722 92.0654L88.4722 92.0654L88.4722 92.0654C 90.728455 95.01288 91.8566 98.5708 91.8566 102.7392L91.8566 102.7392L91.8566 102.7392C 91.8566 106.90756 90.728455 110.465515 88.4722 113.413025L88.4722 113.413025L88.4722 113.413025C 86.21588 116.36047 83.49234 117.83426 80.30151 117.83426L80.30151 117.83426L80.30151 117.83426C 77.11063 117.83426 74.387054 116.36047 72.13083 113.413025L72.13083 113.413025L72.13083 113.413025C 69.87451 110.465515 68.7464 106.90756 68.7464 102.7392L68.7464 102.7392L68.7464 102.7392C 68.7464 98.5708 69.87451 95.01288 72.13083 92.0654L72.13083 92.0654L72.13083 92.0654C 74.387054 89.11789 77.11063 87.644165 80.30151 87.644165" stroke="none" fill="#B93C3C" fill-rule="evenodd" />
    <path id=""  transform="matrix(1 0 0 -1 0 225)"  d="M18.353455 107.950165C 21.54425 107.950165 24.267822 109.42389 26.524109 112.3714L26.524109 112.3714L26.524109 112.3714C 28.780396 115.31885 29.90857 118.8768 29.90857 123.0452L29.90857 123.0452L29.90857 123.0452C 29.90857 127.21356 28.780396 130.77151 26.524109 133.71902L26.524109 133.71902L26.524109 133.71902C 24.267822 136.66647 21.54425 138.14026 18.353455 138.14026L18.353455 138.14026L18.353455 138.14026C 15.162598 138.14026 12.439026 136.66647 10.182739 133.71902L10.182739 133.71902L10.182739 133.71902C 7.9264526 130.77151 6.79834 127.21356 6.79834 123.0452L6.79834 123.0452L6.79834 123.0452C 6.79834 118.8768 7.9264526 115.31885 10.182739 112.3714L10.182739 112.3714L10.182739 112.3714C 12.439026 109.42389 15.162598 107.950165 18.353455 107.950165" stroke="none" fill="#B93C3C" fill-rule="evenodd" />
    <path id=""  transform="matrix(1 0 0 -1 0 225)"  d="M20.292603 112.4509L20.292603 112.4509L20.292603 112.4509L81.875275 112.4509" stroke="#B93C3C" stroke-width="32.743744" stroke-linecap="square" fill="none" />
    <path id=""  transform="matrix(1 0 0 -1 0 225)"  d="M18.353455 86.552734C 21.54425 86.552734 24.267822 88.02646 26.524109 90.97397L26.524109 90.97397L26.524109 90.97397C 28.780396 93.92148 29.90857 97.47937 29.90857 101.647766L29.90857 101.647766L29.90857 101.647766C 29.90857 105.81613 28.780396 109.374084 26.524109 112.321594L26.524109 112.321594L26.524109 112.321594C 24.267822 115.269104 21.54425 116.74283 18.353455 116.74283L18.353455 116.74283L18.353455 116.74283C 15.162598 116.74283 12.439026 115.269104 10.182739 112.321594L10.182739 112.321594L10.182739 112.321594C 7.9264526 109.374084 6.79834 105.81613 6.79834 101.647766L6.79834 101.647766L6.79834 101.647766C 6.79834 97.47937 7.9264526 93.92148 10.182739 90.97397L10.182739 90.97397L10.182739 90.97397C 12.439026 88.02646 15.162598 86.552734 18.353455 86.552734" stroke="none" fill="#B93C3C" fill-rule="evenodd" />
    <path id=""  transform="matrix(1 0 0 -1 0 225)"  d="M50.91559 86.392334C 54.80124 86.392334 58.11789 88.18701 60.86548 91.77637L60.86548 91.77637L60.86548 91.77637C 63.613068 95.36566 64.98688 99.698364 64.98688 104.774445L64.98688 104.774445L64.98688 104.774445C 64.98688 109.850525 63.613068 114.1832 60.86548 117.77255L60.86548 117.77255L60.86548 117.77255C 58.11789 121.36188 54.80124 123.156555 50.91559 123.156555L50.91559 123.156555L50.91559 123.156555C 47.029846 123.156555 43.713196 121.36188 40.965668 117.77255L40.965668 117.77255L40.965668 117.77255C 38.21808 114.1832 36.84427 109.850525 36.84427 104.774445L36.84427 104.774445L36.84427 104.774445C 36.84427 99.698364 38.21808 95.36566 40.965668 91.77637L40.965668 91.77637L40.965668 91.77637C 43.713196 88.18701 47.029846 86.392334 50.91559 86.392334" stroke="none" fill="#B93C3C" fill-rule="evenodd" />
    <path id=""  transform="matrix(1 0 0 -1 0 225)"  d="M50.91559 101.64554C 54.80124 101.64554 58.11789 103.440186 60.86548 107.02954L60.86548 107.02954L60.86548 107.02954C 63.613068 110.618835 64.98688 114.95154 64.98688 120.02762L64.98688 120.02762L64.98688 120.02762C 64.98688 125.10373 63.613068 129.43637 60.86548 133.02573L60.86548 133.02573L60.86548 133.02573C 58.11789 136.61505 54.80124 138.40973 50.91559 138.40973L50.91559 138.40973L50.91559 138.40973C 47.029846 138.40973 43.713196 136.61505 40.965668 133.02573L40.965668 133.02573L40.965668 133.02573C 38.21808 129.43637 36.84427 125.10373 36.84427 120.02762L36.84427 120.02762L36.84427 120.02762C 36.84427 114.95154 38.21808 110.618835 40.965668 107.02954L40.965668 107.02954L40.965668 107.02954C 43.713196 103.440186 47.029846 101.64554 50.91559 101.64554" stroke="none" fill="#B93C3C" fill-rule="evenodd" />
    <path id=""  transform="matrix(1 0 0 -1 0 225)"  d="M82.97421 112.5751L82.97421 112.5751L82.97421 112.5751L63.43927 112.5751" stroke="#FFFFFF" stroke-width="9.429407" stroke-linecap="square" fill="none" />
    <path id=""  transform="matrix(1 0 0 -1 0 225)"  d="M38.716705 112.5751L38.716705 112.5751L38.716705 112.5751L20.208557 112.5751" stroke="#FFFFFF" stroke-width="9.429407" stroke-linecap="square" fill="none" />
    <path id=""  transform="matrix(1 0 0 -1 0 225)"  d="M51.236176 113.13968L51.236176 113.13968L51.236176 113.13968L51.236176 112.004364" stroke="#FFFFFF" stroke-width="9.429407" stroke-linecap="square" fill="none" />
    <path id=""  transform="matrix(1 0 0 -1 0 225)"  d="M280.53418 185.63287C 283.725 185.63287 286.44855 187.1066 288.70486 190.05411L288.70486 190.05411L288.70486 190.05411C 290.96112 193.00159 292.08926 196.55954 292.08926 200.72794L292.08926 200.72794L292.08926 200.72794C 292.08926 204.89633 290.96112 208.45422 288.70486 211.40173L288.70486 211.40173L288.70486 211.40173C 286.44855 214.34924 283.725 215.823 280.53418 215.823L280.53418 215.823L280.53418 215.823C 277.3433 215.823 274.61972 214.34924 272.3635 211.40173L272.3635 211.40173L272.3635 211.40173C 270.10718 208.45422 268.97906 204.89633 268.97906 200.72794L268.97906 200.72794L268.97906 200.72794C 268.97906 196.55954 270.10718 193.00159 272.3635 190.05411L272.3635 190.05411L272.3635 190.05411C 274.61972 187.1066 277.3433 185.63287 280.53418 185.63287" stroke="none" fill="#004900" fill-rule="evenodd" />
    <path id=""  transform="matrix(1 0 0 -1 0 225)"  d="M280.53418 166.14551C 283.725 166.14551 286.44855 167.61923 288.70486 170.56674L288.70486 170.56674L288.70486 170.56674C 290.96112 173.51422 292.08926 177.07214 292.08926 181.24054L292.08926 181.24054L292.08926 181.24054C 292.08926 185.4089 290.96112 188.96686 288.70486 191.91437L288.70486 191.91437L288.70486 191.91437C 286.44855 194.86182 283.725 196.3356 280.53418 196.3356L280.53418 196.3356L280.53418 196.3356C 277.3433 196.3356 274.61972 194.86182 272.3635 191.91437L272.3635 191.91437L272.3635 191.91437C 270.10718 188.96686 268.97906 185.4089 268.97906 181.24054L268.97906 181.24054L268.97906 181.24054C 268.97906 177.07214 270.10718 173.51422 272.3635 170.56674L272.3635 170.56674L272.3635 170.56674C 274.61972 167.61923 277.3433 166.14551 280.53418 166.14551" stroke="none" fill="#004900" fill-rule="evenodd" />
    <path id=""  transform="matrix(1 0 0 -1 0 225)"  d="M218.58612 186.4515C 221.77692 186.4515 224.50049 187.92523 226.75677 190.87274L226.75677 190.87274L226.75677 190.87274C 229.01306 193.82019 230.14124 197.37814 230.14124 201.54654L230.14124 201.54654L230.14124 201.54654C 230.14124 205.7149 229.01306 209.27286 226.75677 212.22037L226.75677 212.22037L226.75677 212.22037C 224.50049 215.16782 221.77692 216.6416 218.58612 216.6416L218.58612 216.6416L218.58612 216.6416C 215.39526 216.6416 212.67169 215.16782 210.4154 212.22037L210.4154 212.22037L210.4154 212.22037C 208.15912 209.27286 207.031 205.7149 207.031 201.54654L207.031 201.54654L207.031 201.54654C 207.031 197.37814 208.15912 193.82019 210.4154 190.87274L210.4154 190.87274L210.4154 190.87274C 212.67169 187.92523 215.39526 186.4515 218.58612 186.4515" stroke="none" fill="#004900" fill-rule="evenodd" />
    <path id=""  transform="matrix(1 0 0 -1 0 225)"  d="M220.52527 190.95224L220.52527 190.95224L220.52527 190.95224L282.10794 190.95224" stroke="#004900" stroke-width="32.743744" stroke-linecap="square" fill="none" />
    <path id=""  transform="matrix(1 0 0 -1 0 225)"  d="M218.58612 165.05408C 221.77692 165.05408 224.50049 166.5278 226.75677 169.47531L226.75677 169.47531L226.75677 169.47531C 229.01306 172.42282 230.14124 175.98071 230.14124 180.14911L230.14124 180.14911L230.14124 180.14911C 230.14124 184.31747 229.01306 187.87543 226.75677 190.82294L226.75677 190.82294L226.75677 190.82294C 224.50049 193.77045 221.77692 195.24417 218.58612 195.24417L218.58612 195.24417L218.58612 195.24417C 215.39526 195.24417 212.67169 193.77045 210.4154 190.82294L210.4154 190.82294L210.4154 190.82294C 208.15912 187.87543 207.031 184.31747 207.031 180.14911L207.031 180.14911L207.031 180.14911C 207.031 175.98071 208.15912 172.42282 210.4154 169.47531L210.4154 169.47531L210.4154 169.47531C 212.67169 166.5278 215.39526 165.05408 218.58612 165.05408" stroke="none" fill="#004900" fill-rule="evenodd" />
    <path id=""  transform="matrix(1 0 0 -1 0 225)"  d="M251.14825 164.89368C 255.0339 164.89368 258.35056 166.68835 261.09814 170.27771L261.09814 170.27771L261.09814 170.27771C 263.84573 173.867 265.21954 178.1997 265.21954 183.27579L265.21954 183.27579L265.21954 183.27579C 265.21954 188.35187 263.84573 192.68454 261.09814 196.2739L261.09814 196.2739L261.09814 196.2739C 258.35056 199.86322 255.0339 201.6579 251.14825 201.6579L251.14825 201.6579L251.14825 201.6579C 247.26251 201.6579 243.94586 199.86322 241.19833 196.2739L241.19833 196.2739L241.19833 196.2739C 238.45074 192.68454 237.07693 188.35187 237.07693 183.27579L237.07693 183.27579L237.07693 183.27579C 237.07693 178.1997 238.45074 173.867 241.19833 170.27771L241.19833 170.27771L241.19833 170.27771C 243.94586 166.68835 247.26251 164.89368 251.14825 164.89368" stroke="none" fill="#004900" fill-rule="evenodd" />
    <path id=""  transform="matrix(1 0 0 -1 0 225)"  d="M251.14825 180.14688C 255.0339 180.14688 258.35056 181.94153 261.09814 185.53088L261.09814 185.53088L261.09814 185.53088C 263.84573 189.12018 265.21954 193.45288 265.21954 198.52896L265.21954 198.52896L265.21954 198.52896C 265.21954 203.60507 263.84573 207.93771 261.09814 211.52707L261.09814 211.52707L261.09814 211.52707C 258.35056 215.1164 255.0339 216.91107 251.14825 216.91107L251.14825 216.91107L251.14825 216.91107C 247.26251 216.91107 243.94586 215.1164 241.19833 211.52707L241.19833 211.52707L241.19833 211.52707C 238.45074 207.93771 237.07693 203.60507 237.07693 198.52896L237.07693 198.52896L237.07693 198.52896C 237.07693 193.45288 238.45074 189.12018 241.19833 185.53088L241.19833 185.53088L241.19833 185.53088C 243.94586 181.94153 247.26251 180.14688 251.14825 180.14688" stroke="none" fill="#004900" fill-rule="evenodd" />
    <path id=""  transform="matrix(1 0 0 -1 0 225)"  d="M283.20688 191.07645L283.20688 191.07645L283.20688 191.07645L263.67194 191.07645" stroke="#FFFFFF" stroke-width="9.429407" stroke-linecap="square" fill="none" />
    <path id=""  transform="matrix(1 0 0 -1 0 225)"  d="M238.94937 191.07645L238.94937 191.07645L238.94937 191.07645L220.44122 191.07645" stroke="#FFFFFF" stroke-width="9.429407" stroke-linecap="square" fill="none" />
    <path id=""  transform="matrix(1 0 0 -1 0 225)"  d="M251.46884 191.64102L251.46884 191.64102L251.46884 191.64102L251.46884 190.5057" stroke="#FFFFFF" stroke-width="9.429407" stroke-linecap="square" fill="none" />
    <path id=""  transform="matrix(1 0 0 -1 0 225)"  d="M280.53418 29.308441C 283.725 29.308441 286.44855 30.782166 288.70486 33.729675L288.70486 33.729675L288.70486 33.729675C 290.96112 36.677155 292.08926 40.235107 292.08926 44.403503L292.08926 44.403503L292.08926 44.403503C 292.08926 48.5719 290.96112 52.12979 288.70486 55.0773L288.70486 55.0773L288.70486 55.0773C 286.44855 58.02481 283.725 59.498566 280.53418 59.498566L280.53418 59.498566L280.53418 59.498566C 277.3433 59.498566 274.61972 58.02481 272.3635 55.0773L272.3635 55.0773L272.3635 55.0773C 270.10718 52.12979 268.97906 48.5719 268.97906 44.403503L268.97906 44.403503L268.97906 44.403503C 268.97906 40.235107 270.10718 36.677155 272.3635 33.729675L272.3635 33.729675L272.3635 33.729675C 274.61972 30.782166 277.3433 29.308441 280.53418 29.308441" stroke="none" fill="#004900" fill-rule="evenodd" />
    <path id=""  transform="matrix(1 0 0 -1 0 225)"  d="M280.53418 9.821075C 283.725 9.821075 286.44855 11.2948 288.70486 14.24231L288.70486 14.24231L288.70486 14.24231C 290.96112 17.189789 292.08926 20.747711 292.08926 24.916107L292.08926 24.916107L292.08926 24.916107C 292.08926 29.084473 290.96112 32.642426 288.70486 35.589935L288.70486 35.589935L288.70486 35.589935C 286.44855 38.537384 283.725 40.01117 280.53418 40.01117L280.53418 40.01117L280.53418 40.01117C 277.3433 40.01117 274.61972 38.537384 272.3635 35.589935L272.3635 35.589935L272.3635 35.589935C 270.10718 32.642426 268.97906 29.084473 268.97906 24.916107L268.97906 24.916107L268.97906 24.916107C 268.97906 20.747711 270.10718 17.189789 272.3635 14.24231L272.3635 14.24231L272.3635 14.24231C 274.61972 11.2948 277.3433 9.821075 280.53418 9.821075" stroke="none" fill="#004900" fill-rule="evenodd" />
    <path id=""  transform="matrix(1 0 0 -1 0 225)"  d="M218.58612 30.127075C 221.77692 30.127075 224.50049 31.6008 226.75677 34.54831L226.75677 34.54831L226.75677 34.54831C 229.01306 37.495758 230.14124 41.05371 230.14124 45.222107L230.14124 45.222107L230.14124 45.222107C 230.14124 49.390472 229.01306 52.948425 226.75677 55.895935L226.75677 55.895935L226.75677 55.895935C 224.50049 58.843384 221.77692 60.31717 218.58612 60.31717L218.58612 60.31717L218.58612 60.31717C 215.39526 60.31717 212.67169 58.843384 210.4154 55.895935L210.4154 55.895935L210.4154 55.895935C 208.15912 52.948425 207.031 49.390472 207.031 45.222107L207.031 45.222107L207.031 45.222107C 207.031 41.05371 208.15912 37.495758 210.4154 34.54831L210.4154 34.54831L210.4154 34.54831C 212.67169 31.6008 215.39526 30.127075 218.58612 30.127075" stroke="none" fill="#004900" fill-rule="evenodd" />
    <path id=""  transform="matrix(1 0 0 -1 0 225)"  d="M220.52527 34.627808L220.52527 34.627808L220.52527 34.627808L282.10794 34.627808" stroke="#004900" stroke-width="32.743744" stroke-linecap="square" fill="none" />
    <path id=""  transform="matrix(1 0 0 -1 0 225)"  d="M218.58612 8.729645C 221.77692 8.729645 224.50049 10.203369 226.75677 13.150879L226.75677 13.150879L226.75677 13.150879C 229.01306 16.098389 230.14124 19.65628 230.14124 23.824677L230.14124 23.824677L230.14124 23.824677C 230.14124 27.993042 229.01306 31.550995 226.75677 34.498505L226.75677 34.498505L226.75677 34.498505C 224.50049 37.446014 221.77692 38.91974 218.58612 38.91974L218.58612 38.91974L218.58612 38.91974C 215.39526 38.91974 212.67169 37.446014 210.4154 34.498505L210.4154 34.498505L210.4154 34.498505C 208.15912 31.550995 207.031 27.993042 207.031 23.824677L207.031 23.824677L207.031 23.824677C 207.031 19.65628 208.15912 16.098389 210.4154 13.150879L210.4154 13.150879L210.4154 13.150879C 212.67169 10.203369 215.39526 8.729645 218.58612 8.729645" stroke="none" fill="#004900" fill-rule="evenodd" />
    <path id=""  transform="matrix(1 0 0 -1 0 225)"  d="M251.14825 8.569244C 255.0339 8.569244 258.35056 10.363922 261.09814 13.953278L261.09814 13.953278L261.09814 13.953278C 263.84573 17.542572 265.21954 21.875275 265.21954 26.951355L265.21954 26.951355L265.21954 26.951355C 265.21954 32.027435 263.84573 36.360107 261.09814 39.949463L261.09814 39.949463L261.09814 39.949463C 258.35056 43.538788 255.0339 45.333466 251.14825 45.333466L251.14825 45.333466L251.14825 45.333466C 247.26251 45.333466 243.94586 43.538788 241.19833 39.949463L241.19833 39.949463L241.19833 39.949463C 238.45074 36.360107 237.07693 32.027435 237.07693 26.951355L237.07693 26.951355L237.07693 26.951355C 237.07693 21.875275 238.45074 17.542572 241.19833 13.953278L241.19833 13.953278L241.19833 13.953278C 243.94586 10.363922 247.26251 8.569244 251.14825 8.569244" stroke="none" fill="#004900" fill-rule="evenodd" />
    <path id=""  transform="matrix(1 0 0 -1 0 225)"  d="M251.14825 23.822449C 255.0339 23.822449 258.35056 25.617096 261.09814 29.206451L261.09814 29.206451L261.09814 29.206451C 263.84573 32.795746 265.21954 37.12845 265.21954 42.20453L265.21954 42.20453L265.21954 42.20453C 265.21954 47.28064 263.84573 51.61328 261.09814 55.202637L261.09814 55.202637L261.09814 55.202637C 258.35056 58.79196 255.0339 60.58664 251.14825 60.58664L251.14825 60.58664L251.14825 60.58664C 247.26251 60.58664 243.94586 58.79196 241.19833 55.202637L241.19833 55.202637L241.19833 55.202637C 238.45074 51.61328 237.07693 47.28064 237.07693 42.20453L237.07693 42.20453L237.07693 42.20453C 237.07693 37.12845 238.45074 32.795746 241.19833 29.206451L241.19833 29.206451L241.19833 29.206451C 243.94586 25.617096 247.26251 23.822449 251.14825 23.822449" stroke="none" fill="#004900" fill-rule="evenodd" />
    <path id=""  transform="matrix(1 0 0 -1 0 225)"  d="M283.20688 34.752014L283.20688 34.752014L283.20688 34.752014L263.67194 34.752014" stroke="#FFFFFF" stroke-width="9.429407" stroke-linecap="square" fill="none" />
    <path id=""  transform="matrix(1 0 0 -1 0 225)"  d="M238.94937 34.752014L238.94937 34.752014L238.94937 34.752014L220.44122 34.752014" stroke="#FFFFFF" stroke-width="9.429407" stroke-linecap="square" fill="none" />
    <path id=""  transform="matrix(1 0 0 -1 0 225)"  d="M251.46884 35.31659L251.46884 35.31659L251.46884 35.31659L251.46884 34.181274" stroke="#FFFFFF" stroke-width="9.429407" stroke-linecap="square" fill="none" />
	</g>
</g>
</svg>