<?xml version="1.0" standalone="no"?>
<!DOCTYPE svg PUBLIC "-//W3C//DTD SVG 1.0//EN" "http://www.w3.org/TR/2001/REC-SVG-20010904/DTD/svg10.dtd">
<svg xmlns="http://www.w3.org/2000/svg" xmlns:xlink="http://www.w3.org/1999/xlink" id="body_1" width="400" height="300">

<defs>
    <clipPath  id="1">

    <path id=""  clip-rule="evenodd" transform="matrix(1 0 0 1 0 0)"  d="M0 0L300 0L300 0L300 225L300 225L1.3777277E-14 225L1.3777277E-14 225L0 0z" />    </clipPath>
</defs>

<g transform="matrix(1.3333 0 0 1.3333 0 0)">
	<g clip-path="url(#1)" >
    <path id=""  transform="matrix(1 0 0 -1 0 225)"  d="M159.83649 77.02255C 154.81299 74.31102 149.74231 78.943756 149.18372 82.29783L149.18372 82.29783L149.18372 82.29783C 145.8811 102.69417 140.29858 135.16013 143.16309 137.69539L143.16309 137.69539L143.16309 137.69539C 145.24365 139.49823 151.19403 143.15535 155.26007 142.57393L155.26007 142.57393L155.26007 142.57393C 157.9779 135.05112 165.81091 80.22279 159.83655 77.02255zM196.42944 65.95125C 196.6524 57.53293 178.10962 66.22049 177.3305 69.667725L177.3305 69.667725L177.3305 69.667725C 176.71973 73.507675 182.67206 74.119736 182.77698 78.82558L182.77698 78.82558L182.77698 78.82558C 182.37555 82.36123 179.90155 81.556915 178.724 85.2019L178.724 85.2019L178.724 85.2019C 173.99524 107.4405 172.3161 123.74218 169.84692 146.94588L169.84692 146.94588L169.84692 146.94588C 169.7669 149.87263 182.44415 157.1228 183.47449 153.03503L183.47449 153.03503L183.47449 153.03503C 190.74323 125.37862 196.23419 78.873184 196.42944 65.95125zM220.99133 50.319977C 212.58765 87.80533 195.01874 164.65561 198.73999 168.5265L198.73999 168.5265L198.73999 168.5265C 206.6944 179.32289 201.85455 190.78795 191.1333 183.96303L191.1333 183.96303L191.1333 183.96303C 170.9591 172.99246 152.40015 156.21062 130.53552 148.1236L130.53552 148.1236L130.53552 148.1236C 127.36493 146.57782 126.871216 145.03088 126.89557 143.4851L126.89557 143.4851L126.89557 143.4851C 126.45831 119.91329 132.11603 103.21232 134.21045 80.6885L134.21045 80.6885L134.21045 80.6885C 134.58044 77.14436 130.40894 72.46039 131.65454 69.82756L131.65454 69.82756L131.65454 69.82756C 133.0299 67.495575 137.92078 66.525116 140.98712 65.91025L140.98712 65.91025L140.98712 65.91025C 159.5777 61.27713 175.86108 46.96025 194.1745 38.95938L194.1745 38.95938L194.1745 38.95938C 196.36511 37.942703 196.771 32.308807 198.88538 32.351273L198.88538 32.351273L198.88538 32.351273C 206.79736 33.17485 221.34546 44.040222 220.99127 50.31996z" stroke="none" fill="#142896" fill-rule="evenodd" />
    <path id=""  transform="matrix(1 0 0 -1 0 225)"  d="M293.5241 124.981705C 298.93762 137.39154 289.2581 138.74342 283.036 137.07559L283.036 137.07559L283.036 137.07559C 268.2593 132.87822 262.09256 127.328766 251.81854 120.499214L251.81854 120.499214L251.81854 120.499214C 250.05005 119.27979 246.65533 117.92625 245.03735 118.13152L245.03735 118.13152L93.18701 120.02513C 88.43359 120.00858 73.39703 120.85191 75.76813 123.63049L75.76813 123.63049L75.76813 123.63049C 84.80719 134.61255 89.88013 137.93195 113.47229 155.54541L113.47229 155.54541L113.47229 155.54541C 124.39221 163.07144 118.5517 168.98068 104.26221 159.84552L104.26221 159.84552L104.26221 159.84552C 64.30658 131.16313 60.495544 128.71791 20.065308 128.29404L20.065308 128.29404L20.065308 128.29404C -1.2780762 127.197105 2.0356445 106.840324 15.575317 104.939705L15.575317 104.939705L15.575317 104.939705C 30.184021 102.62297 53.453064 106.05252 69.52966 106.18935L69.52966 106.18935L69.52966 106.18935C 130.99316 106.71243 185.34888 106.7698 244.7406 97.511955L244.7406 97.511955L244.7406 97.511955C 254.00592 95.75974 261.61273 81.981636 264.27875 74.56116L264.27875 74.56116L264.27875 74.56116C 265.46347 71.274 274.5004 67.61203 274.85013 73.95299L274.85013 73.95299L274.85013 73.95299C 276.7876 90.96255 286.22528 109.27147 293.5241 124.98169z" stroke="none" fill="#142896" fill-rule="evenodd" />
    <path id=""  transform="matrix(1 0 0 -1 0 225)"  d="M224.89435 147.30247C 225.85071 166.55386 213.34656 152.30661 213.66272 147.98027L213.66272 147.98027L213.66272 147.98027C 216.01978 124.01978 222.19495 84.52508 228.21149 60.092636L228.21149 60.092636L228.21149 60.092636C 228.26874 58.402267 240.78534 60.221725 242.05011 71.80516L242.05011 71.80516L242.05011 71.80516C 242.23651 75.32657 240.14746 74.7213 238.51349 78.88428L238.51349 78.88428L238.51349 78.88428C 234.12299 97.55078 223.72272 130.32924 224.89435 147.30249z" stroke="none" fill="#142896" fill-rule="evenodd" />
    <path id=""  transform="matrix(1 0 0 -1 0 225)"  d="M144.05292 139.85797C 115.66577 153.396 105.5589 165.84386 86.40521 206.80031L86.40521 206.80031L86.40521 206.80031C 79.53473 222.64798 69.103455 221.5184 76.2406 202.31168L76.2406 202.31168L76.2406 202.31168C 98.174866 150.18208 111.86792 139.25052 138.45392 130.74927z" stroke="none" fill="#142896" fill-rule="evenodd" />
    <path id=""  transform="matrix(1 0 0 -1 0 225)"  d="M143.49567 107.55134C 122.32794 90.79031 65.26337 67.868286 73.737915 55.157852L73.737915 55.157852L73.737915 55.157852C 80.71625 45.12419 81.541016 32.22386 79.941956 26.740906L79.941956 26.740906L79.941956 26.740906C 77.894775 19.564789 74.269714 19.219772 71.91803 15.203064L71.91803 15.203064L71.91803 15.203064C 67.09894 4.6412964 73.39612 6.85054 78.93616 10.516739L78.93616 10.516739L78.93616 10.516739C 94.735535 20.003433 104.29486 64.944534 146.64868 93.14044z" stroke="none" fill="#142896" fill-rule="evenodd" />
	</g>
</g>
</svg>